<?xml version="1.0" encoding="UTF-8" standalone="no"?>
<!DOCTYPE svg PUBLIC "-//W3C//DTD SVG 1.1//EN"
 "http://www.w3.org/Graphics/SVG/1.1/DTD/svg11.dtd">
<!-- Generated by graphviz version 2.36.0 (20140111.2315)
 -->
<!-- Title: G Pages: 1 -->
<svg width="3038pt" height="1545pt"
 viewBox="0.00 0.00 3038.00 1545.00" xmlns="http://www.w3.org/2000/svg" xmlns:xlink="http://www.w3.org/1999/xlink">
<g id="graph0" class="graph" transform="scale(1 1) rotate(0) translate(4 1541)">
<title>G</title>
<polygon fill="white" stroke="none" points="-4,4 -4,-1541 3034,-1541 3034,4 -4,4"/>
<!-- Microrecruit stage 1 -->
<g id="node1" class="node"><title>Microrecruit stage 1</title>
<ellipse fill="none" stroke="black" cx="83" cy="-1453" rx="83.3857" ry="83.3857"/>
<text text-anchor="middle" x="83" y="-1449.3" font-family="Times,serif" font-size="14.00">Microrecruit stage 1</text>
</g>
<!-- Microrecruit stage 3 -->
<g id="node3" class="node"><title>Microrecruit stage 3</title>
<ellipse fill="none" stroke="black" cx="323" cy="-821" rx="83.3857" ry="83.3857"/>
<text text-anchor="middle" x="323" y="-817.3" font-family="Times,serif" font-size="14.00">Microrecruit stage 3</text>
</g>
<!-- Microrecruit stage 1&#45;&gt;Microrecruit stage 3 -->
<g id="edge8" class="edge"><title>Microrecruit stage 1&#45;&gt;Microrecruit stage 3</title>
<path fill="none" stroke="black" d="M113.183,-1375.5C157.763,-1257.13 242.547,-1031.99 289.197,-908.106"/>
<polygon fill="black" stroke="black" points="292.516,-909.226 292.764,-898.634 285.965,-906.759 292.516,-909.226"/>
<text text-anchor="middle" x="203" y="-1178.8" font-family="Times,serif" font-size="14.00">0.0091</text>
</g>
<!-- Sizeclass 1; Plant length &lt; 1cm -->
<g id="node4" class="node"><title>Sizeclass 1; Plant length &lt; 1cm</title>
<ellipse fill="none" stroke="black" cx="2907" cy="-759" rx="122.678" ry="122.678"/>
<text text-anchor="middle" x="2907" y="-755.3" font-family="Times,serif" font-size="14.00">Sizeclass 1; Plant length &lt; 1cm</text>
</g>
<!-- Microrecruit stage 1&#45;&gt;Sizeclass 1; Plant length &lt; 1cm -->
<g id="edge17" class="edge"><title>Microrecruit stage 1&#45;&gt;Sizeclass 1; Plant length &lt; 1cm</title>
<path fill="none" stroke="black" d="M160.752,-1482.56C206.794,-1497.71 266.924,-1513 322,-1513 322,-1513 322,-1513 2541,-1513 2616.86,-1513 2647.94,-1532.64 2710,-1489 2807.48,-1420.45 2865.3,-1081.72 2890.66,-890.687"/>
<polygon fill="black" stroke="black" points="2894.16,-890.949 2892,-880.577 2887.22,-890.035 2894.16,-890.949"/>
<text text-anchor="middle" x="1290" y="-1516.8" font-family="Times,serif" font-size="14.00">0.0024</text>
</g>
<!-- Sizeclass 2; Plant length _ 1cm and &lt; 4.5cm -->
<g id="node5" class="node"><title>Sizeclass 2; Plant length _ 1cm and &lt; 4.5cm</title>
<ellipse fill="none" stroke="black" cx="2540" cy="-721" rx="169.77" ry="169.77"/>
<text text-anchor="middle" x="2540" y="-717.3" font-family="Times,serif" font-size="14.00">Sizeclass 2; Plant length _ 1cm and &lt; 4.5cm</text>
</g>
<!-- Microrecruit stage 1&#45;&gt;Sizeclass 2; Plant length _ 1cm and &lt; 4.5cm -->
<g id="edge26" class="edge"><title>Microrecruit stage 1&#45;&gt;Sizeclass 2; Plant length _ 1cm and &lt; 4.5cm</title>
<path fill="none" stroke="black" d="M165.614,-1464.29C211.475,-1469.69 269.819,-1475 322,-1475 322,-1475 322,-1475 684,-1475 1211.71,-1475 1357.51,-1519.68 1868,-1386 2063.28,-1334.86 2139.37,-1361.34 2296,-1234 2333.14,-1203.8 2337.15,-1187.51 2352,-1142 2381.6,-1051.26 2334.22,-1016.49 2370,-928 2381.02,-900.758 2396.93,-874.324 2414.64,-849.967"/>
<polygon fill="black" stroke="black" points="2417.56,-851.904 2420.71,-841.788 2411.94,-847.732 2417.56,-851.904"/>
<text text-anchor="middle" x="1119" y="-1485.8" font-family="Times,serif" font-size="14.00">0.0014</text>
</g>
<!-- Sizeclass 3; Plant length _ 4.5cm and &lt; 9.5cm -->
<g id="node6" class="node"><title>Sizeclass 3; Plant length _ 4.5cm and &lt; 9.5cm</title>
<ellipse fill="none" stroke="black" cx="2119" cy="-945" rx="176.569" ry="176.569"/>
<text text-anchor="middle" x="2119" y="-941.3" font-family="Times,serif" font-size="14.00">Sizeclass 3; Plant length _ 4.5cm and &lt; 9.5cm</text>
</g>
<!-- Microrecruit stage 1&#45;&gt;Sizeclass 3; Plant length _ 4.5cm and &lt; 9.5cm -->
<g id="edge35" class="edge"><title>Microrecruit stage 1&#45;&gt;Sizeclass 3; Plant length _ 4.5cm and &lt; 9.5cm</title>
<path fill="none" stroke="black" d="M165.629,-1442.22C211.495,-1437.07 269.839,-1432 322,-1432 322,-1432 322,-1432 684,-1432 1021.77,-1432 1105.09,-1401.09 1442,-1377 1631.32,-1363.47 1705.44,-1444.97 1868,-1347 1953.15,-1295.68 2013.65,-1203.1 2053.78,-1119.72"/>
<polygon fill="black" stroke="black" points="2056.96,-1121.17 2058.09,-1110.64 2050.64,-1118.17 2056.96,-1121.17"/>
<text text-anchor="middle" x="901" y="-1435.8" font-family="Times,serif" font-size="14.00">0.0001</text>
</g>
<!-- Microrecruit stage 2 -->
<g id="node2" class="node"><title>Microrecruit stage 2</title>
<ellipse fill="none" stroke="black" cx="563" cy="-1140" rx="83.3857" ry="83.3857"/>
<text text-anchor="middle" x="563" y="-1136.3" font-family="Times,serif" font-size="14.00">Microrecruit stage 2</text>
</g>
<!-- Microrecruit stage 2&#45;&gt;Microrecruit stage 3 -->
<g id="edge9" class="edge"><title>Microrecruit stage 2&#45;&gt;Microrecruit stage 3</title>
<path fill="none" stroke="black" d="M480.553,-1128.55C460.069,-1122.33 439.522,-1112.75 424,-1098 373.18,-1049.71 348.112,-973.682 335.788,-913.485"/>
<polygon fill="black" stroke="black" points="339.206,-912.725 333.846,-903.586 332.337,-914.073 339.206,-912.725"/>
<text text-anchor="middle" x="443" y="-1124.8" font-family="Times,serif" font-size="14.00">0.0107</text>
</g>
<!-- Microrecruit stage 2&#45;&gt;Sizeclass 1; Plant length &lt; 1cm -->
<g id="edge18" class="edge"><title>Microrecruit stage 2&#45;&gt;Sizeclass 1; Plant length &lt; 1cm</title>
<path fill="none" stroke="black" d="M621.354,-1199.32C648.676,-1223.38 683.364,-1248.43 720,-1261 879.972,-1315.88 931.057,-1273.21 1100,-1281 1457.47,-1297.47 2381.23,-1454.31 2710,-1313 2741.77,-1299.35 2748.27,-1288.69 2766,-1259 2834.22,-1144.75 2870.31,-996.017 2888.65,-890.551"/>
<polygon fill="black" stroke="black" points="2892.13,-890.928 2890.37,-880.482 2885.23,-889.75 2892.13,-890.928"/>
<text text-anchor="middle" x="1683" y="-1356.8" font-family="Times,serif" font-size="14.00">0.0029</text>
</g>
<!-- Microrecruit stage 2&#45;&gt;Sizeclass 2; Plant length _ 1cm and &lt; 4.5cm -->
<g id="edge27" class="edge"><title>Microrecruit stage 2&#45;&gt;Sizeclass 2; Plant length _ 1cm and &lt; 4.5cm</title>
<path fill="none" stroke="black" d="M640.811,-1169.47C708.108,-1192.63 809.093,-1221 900,-1221 900,-1221 900,-1221 1906,-1221 2079.78,-1221 2152.22,-1290.6 2296,-1193 2343.37,-1160.85 2335.9,-1131.94 2352,-1077 2370.75,-1012.99 2343.87,-989.374 2370,-928 2381.47,-901.058 2397.55,-874.819 2415.28,-850.573"/>
<polygon fill="black" stroke="black" points="2418.19,-852.538 2421.36,-842.429 2412.57,-848.354 2418.19,-852.538"/>
<text text-anchor="middle" x="1461" y="-1224.8" font-family="Times,serif" font-size="14.00">0.0027</text>
</g>
<!-- Microrecruit stage 2&#45;&gt;Sizeclass 3; Plant length _ 4.5cm and &lt; 9.5cm -->
<g id="edge36" class="edge"><title>Microrecruit stage 2&#45;&gt;Sizeclass 3; Plant length _ 4.5cm and &lt; 9.5cm</title>
<path fill="none" stroke="black" d="M644.272,-1120.86C712.02,-1106.39 811.793,-1089 900,-1089 900,-1089 900,-1089 1684,-1089 1791.61,-1089 1822.13,-1091.67 1924,-1057 1935.96,-1052.93 1948,-1048.09 1959.92,-1042.74"/>
<polygon fill="black" stroke="black" points="1961.38,-1045.92 1969,-1038.56 1958.45,-1039.56 1961.38,-1045.92"/>
<text text-anchor="middle" x="1290" y="-1092.8" font-family="Times,serif" font-size="14.00">0.0005</text>
</g>
<!-- Sizeclass 4; Plant length _ 9.5cm and &gt; 14.5cm -->
<g id="node7" class="node"><title>Sizeclass 4; Plant length _ 9.5cm and &gt; 14.5cm</title>
<ellipse fill="none" stroke="black" cx="901" cy="-712" rx="180.868" ry="180.868"/>
<text text-anchor="middle" x="901" y="-708.3" font-family="Times,serif" font-size="14.00">Sizeclass 4; Plant length _ 9.5cm and &gt; 14.5cm</text>
</g>
<!-- Microrecruit stage 2&#45;&gt;Sizeclass 4; Plant length _ 9.5cm and &gt; 14.5cm -->
<g id="edge44" class="edge"><title>Microrecruit stage 2&#45;&gt;Sizeclass 4; Plant length _ 9.5cm and &gt; 14.5cm</title>
<path fill="none" stroke="black" d="M589.57,-1061.19C606.165,-1018.14 630.907,-965.683 664,-926 677.269,-910.089 685.986,-912.144 702,-899 722.588,-882.101 743.703,-863.585 764.115,-844.981"/>
<polygon fill="black" stroke="black" points="766.59,-847.461 771.602,-838.126 761.863,-842.298 766.59,-847.461"/>
<text text-anchor="middle" x="683" y="-929.8" font-family="Times,serif" font-size="14.00">0.0001</text>
</g>
<!-- Microrecruit stage 3&#45;&gt;Microrecruit stage 2 -->
<g id="edge1" class="edge"><title>Microrecruit stage 3&#45;&gt;Microrecruit stage 2</title>
<path fill="none" stroke="black" d="M348.052,-900.456C364.433,-945.576 389.463,-1001.21 424,-1043 439.987,-1062.34 460.734,-1079.61 481.263,-1094.01"/>
<polygon fill="black" stroke="black" points="479.494,-1097.04 489.723,-1099.8 483.448,-1091.27 479.494,-1097.04"/>
<text text-anchor="middle" x="443" y="-1082.8" font-family="Times,serif" font-size="14.00">0.0001</text>
</g>
<!-- Microrecruit stage 3&#45;&gt;Microrecruit stage 3 -->
<g id="edge10" class="edge"><title>Microrecruit stage 3&#45;&gt;Microrecruit stage 3</title>
<path fill="none" stroke="black" d="M302.589,-901.829C305.767,-913.862 312.57,-922 323,-922 330.333,-922 335.874,-917.977 339.622,-911.405"/>
<polygon fill="black" stroke="black" points="342.986,-912.416 343.411,-901.829 336.477,-909.84 342.986,-912.416"/>
<text text-anchor="middle" x="323" y="-925.8" font-family="Times,serif" font-size="14.00">0.0417</text>
</g>
<!-- Microrecruit stage 3&#45;&gt;Sizeclass 1; Plant length &lt; 1cm -->
<g id="edge19" class="edge"><title>Microrecruit stage 3&#45;&gt;Sizeclass 1; Plant length &lt; 1cm</title>
<path fill="none" stroke="black" d="M333.432,-903.6C345.417,-985.556 371.256,-1112.78 424,-1211 441.567,-1243.71 448.54,-1253.28 480,-1273 641.155,-1374.04 1542.93,-1475 1904,-1475 1904,-1475 1904,-1475 2541,-1475 2658.54,-1475 2716.63,-1442.68 2766,-1336 2833,-1191.21 2870.16,-1010.59 2889.07,-890.387"/>
<polygon fill="black" stroke="black" points="2892.55,-890.813 2890.62,-880.395 2885.63,-889.739 2892.55,-890.813"/>
<text text-anchor="middle" x="1461" y="-1455.8" font-family="Times,serif" font-size="14.00">0.0113</text>
</g>
<!-- Microrecruit stage 3&#45;&gt;Sizeclass 2; Plant length _ 1cm and &lt; 4.5cm -->
<g id="edge28" class="edge"><title>Microrecruit stage 3&#45;&gt;Sizeclass 2; Plant length _ 1cm and &lt; 4.5cm</title>
<path fill="none" stroke="black" d="M328.08,-737.772C337.42,-571.405 364.312,-204.382 424,-95 459.668,-29.6371 487.539,-0 562,-0 562,-0 562,-0 1462,-0 1555.36,-0 2222.2,-44.8198 2296,-102 2432.02,-207.394 2492.03,-399.891 2518.42,-542.338"/>
<polygon fill="black" stroke="black" points="2515.04,-543.291 2520.27,-552.506 2521.93,-542.042 2515.04,-543.291"/>
<text text-anchor="middle" x="1290" y="-3.8" font-family="Times,serif" font-size="14.00">0.0102</text>
</g>
<!-- Microrecruit stage 3&#45;&gt;Sizeclass 3; Plant length _ 4.5cm and &lt; 9.5cm -->
<g id="edge37" class="edge"><title>Microrecruit stage 3&#45;&gt;Sizeclass 3; Plant length _ 4.5cm and &lt; 9.5cm</title>
<path fill="none" stroke="black" d="M391.593,-868.703C467.446,-919.226 596.153,-996.133 720,-1029 891.077,-1074.4 941.002,-1043 1118,-1043 1118,-1043 1118,-1043 1684,-1043 1770.02,-1043 1863.33,-1024.46 1941.31,-1003.5"/>
<polygon fill="black" stroke="black" points="1942.5,-1006.8 1951.23,-1000.8 1940.66,-1000.05 1942.5,-1006.8"/>
<text text-anchor="middle" x="1119" y="-1047.8" font-family="Times,serif" font-size="14.00">0.0018</text>
</g>
<!-- Microrecruit stage 3&#45;&gt;Sizeclass 4; Plant length _ 9.5cm and &gt; 14.5cm -->
<g id="edge45" class="edge"><title>Microrecruit stage 3&#45;&gt;Sizeclass 4; Plant length _ 9.5cm and &gt; 14.5cm</title>
<path fill="none" stroke="black" d="M394.663,-778.361C420.616,-764.698 450.806,-751.038 480,-743 553.553,-722.75 636.921,-713.857 709.884,-710.427"/>
<polygon fill="black" stroke="black" points="710.271,-713.914 720.108,-709.979 709.964,-706.921 710.271,-713.914"/>
<text text-anchor="middle" x="563" y="-746.8" font-family="Times,serif" font-size="14.00">0.0004</text>
</g>
<!-- Sizeclass 5; Plant length _ 14.5cm and &lt; 19.5cm -->
<g id="node8" class="node"><title>Sizeclass 5; Plant length _ 14.5cm and &lt; 19.5cm</title>
<ellipse fill="none" stroke="black" cx="1683" cy="-403" rx="185.467" ry="185.467"/>
<text text-anchor="middle" x="1683" y="-399.3" font-family="Times,serif" font-size="14.00">Sizeclass 5; Plant length _ 14.5cm and &lt; 19.5cm</text>
</g>
<!-- Microrecruit stage 3&#45;&gt;Sizeclass 5; Plant length _ 14.5cm and &lt; 19.5cm -->
<g id="edge52" class="edge"><title>Microrecruit stage 3&#45;&gt;Sizeclass 5; Plant length _ 14.5cm and &lt; 19.5cm</title>
<path fill="none" stroke="black" d="M338.357,-739.272C369.743,-573.86 450.664,-215 562,-215 562,-215 562,-215 1291,-215 1373.16,-215 1456.3,-249.135 1524.66,-288.315"/>
<polygon fill="black" stroke="black" points="1522.95,-291.366 1533.35,-293.368 1526.46,-285.315 1522.95,-291.366"/>
<text text-anchor="middle" x="901" y="-218.8" font-family="Times,serif" font-size="14.00">0.0002</text>
</g>
<!-- Sizeclass 1; Plant length &lt; 1cm&#45;&gt;Microrecruit stage 2 -->
<g id="edge2" class="edge"><title>Sizeclass 1; Plant length &lt; 1cm&#45;&gt;Microrecruit stage 2</title>
<path fill="none" stroke="black" d="M2888.91,-880.128C2870.62,-978.955 2834.44,-1118.92 2766,-1224 2748.11,-1251.47 2740.74,-1260.63 2710,-1272 2374.86,-1395.98 2263.34,-1267 1906,-1267 900,-1267 900,-1267 900,-1267 807.533,-1267 709.461,-1224.39 643.296,-1188.54"/>
<polygon fill="black" stroke="black" points="644.626,-1185.28 634.176,-1183.53 641.256,-1191.41 644.626,-1185.28"/>
<text text-anchor="middle" x="1683" y="-1270.8" font-family="Times,serif" font-size="14.00">0.0003</text>
</g>
<!-- Sizeclass 1; Plant length &lt; 1cm&#45;&gt;Microrecruit stage 3 -->
<g id="edge11" class="edge"><title>Sizeclass 1; Plant length &lt; 1cm&#45;&gt;Microrecruit stage 3</title>
<path fill="none" stroke="black" d="M2891.77,-880.523C2874.59,-993.713 2838.45,-1164.32 2766,-1296 2712.99,-1392.36 2650.98,-1399 2541,-1399 1682,-1399 1682,-1399 1682,-1399 1301.63,-1399 574.657,-1301.1 480,-1232 379.084,-1158.33 343.442,-1010.81 330.859,-914.017"/>
<polygon fill="black" stroke="black" points="334.313,-913.43 329.608,-903.937 327.366,-914.292 334.313,-913.43"/>
<text text-anchor="middle" x="1461" y="-1396.8" font-family="Times,serif" font-size="14.00">0.1226</text>
</g>
<!-- Sizeclass 1; Plant length &lt; 1cm&#45;&gt;Sizeclass 1; Plant length &lt; 1cm -->
<g id="edge20" class="edge"><title>Sizeclass 1; Plant length &lt; 1cm&#45;&gt;Sizeclass 1; Plant length &lt; 1cm</title>
<path fill="none" stroke="black" d="M2882.34,-878.985C2887.22,-891.201 2895.44,-899 2907,-899 2915.31,-899 2921.89,-894.971 2926.75,-888.169"/>
<polygon fill="black" stroke="black" points="2930.03,-889.455 2931.66,-878.985 2923.86,-886.155 2930.03,-889.455"/>
<text text-anchor="middle" x="2907" y="-902.8" font-family="Times,serif" font-size="14.00">0.033</text>
</g>
<!-- Sizeclass 1; Plant length &lt; 1cm&#45;&gt;Sizeclass 2; Plant length _ 1cm and &lt; 4.5cm -->
<g id="edge29" class="edge"><title>Sizeclass 1; Plant length &lt; 1cm&#45;&gt;Sizeclass 2; Plant length _ 1cm and &lt; 4.5cm</title>
<path fill="none" stroke="black" d="M2784.63,-746.364C2763.55,-744.169 2741.23,-741.846 2719.01,-739.533"/>
<polygon fill="black" stroke="black" points="2719.12,-736.025 2708.81,-738.471 2718.39,-742.987 2719.12,-736.025"/>
<text text-anchor="middle" x="2747" y="-747.8" font-family="Times,serif" font-size="14.00">0.0226</text>
</g>
<!-- Sizeclass 1; Plant length &lt; 1cm&#45;&gt;Sizeclass 3; Plant length _ 4.5cm and &lt; 9.5cm -->
<g id="edge38" class="edge"><title>Sizeclass 1; Plant length &lt; 1cm&#45;&gt;Sizeclass 3; Plant length _ 4.5cm and &lt; 9.5cm</title>
<path fill="none" stroke="black" d="M2826.79,-851.827C2794.16,-883.349 2753.75,-914.9 2710,-932 2580.99,-982.425 2423.68,-983.215 2303.96,-972.732"/>
<polygon fill="black" stroke="black" points="2304.22,-969.242 2293.95,-971.822 2303.59,-976.213 2304.22,-969.242"/>
<text text-anchor="middle" x="2540" y="-982.8" font-family="Times,serif" font-size="14.00">0.0031</text>
</g>
<!-- Sizeclass 1; Plant length &lt; 1cm&#45;&gt;Sizeclass 4; Plant length _ 9.5cm and &gt; 14.5cm -->
<g id="edge46" class="edge"><title>Sizeclass 1; Plant length &lt; 1cm&#45;&gt;Sizeclass 4; Plant length _ 9.5cm and &gt; 14.5cm</title>
<path fill="none" stroke="black" d="M2890.44,-637.575C2864.27,-455.807 2804.81,-127.255 2710,-62 2578.2,28.7184 2511.78,-32.4563 2352,-24 1972.35,-3.90749 1875.27,-26.017 1498,-73 1344.47,-92.1206 1277.18,-41.7988 1156,-138 1091.02,-189.591 1013.47,-382.911 961.295,-531.091"/>
<polygon fill="black" stroke="black" points="957.902,-530.189 957.895,-540.784 964.508,-532.506 957.902,-530.189"/>
<text text-anchor="middle" x="1905" y="-30.8" font-family="Times,serif" font-size="14.00">0.0007</text>
</g>
<!-- Sizeclass 1; Plant length &lt; 1cm&#45;&gt;Sizeclass 5; Plant length _ 14.5cm and &lt; 19.5cm -->
<g id="edge53" class="edge"><title>Sizeclass 1; Plant length &lt; 1cm&#45;&gt;Sizeclass 5; Plant length _ 14.5cm and &lt; 19.5cm</title>
<path fill="none" stroke="black" d="M2835.7,-659.17C2801.93,-617.67 2758.31,-572.229 2710,-542 2455.63,-382.821 2096.73,-372.134 1877.79,-383.965"/>
<polygon fill="black" stroke="black" points="1877.58,-380.471 1867.79,-384.526 1877.97,-387.46 1877.58,-380.471"/>
<text text-anchor="middle" x="2333" y="-413.8" font-family="Times,serif" font-size="14.00">0.0003</text>
</g>
<!-- Sizeclass 6; Plant length &gt;19.5 cm -->
<g id="node9" class="node"><title>Sizeclass 6; Plant length &gt;19.5 cm</title>
<ellipse fill="none" stroke="black" cx="1290" cy="-648" rx="133.776" ry="133.776"/>
<text text-anchor="middle" x="1290" y="-644.3" font-family="Times,serif" font-size="14.00">Sizeclass 6; Plant length &gt;19.5 cm</text>
</g>
<!-- Sizeclass 1; Plant length &lt; 1cm&#45;&gt;Sizeclass 6; Plant length &gt;19.5 cm -->
<g id="edge59" class="edge"><title>Sizeclass 1; Plant length &lt; 1cm&#45;&gt;Sizeclass 6; Plant length &gt;19.5 cm</title>
<path fill="none" stroke="black" d="M2887.82,-637.947C2868.68,-535.941 2831.9,-388.841 2766,-275 2659.32,-90.7082 2508.75,-190.977 2296,-182 2106.18,-173.991 1546.89,-63.5952 1442,-222 1406.72,-275.281 1449.65,-450.47 1424,-509 1417.28,-524.343 1408.08,-539.01 1397.64,-552.677"/>
<polygon fill="black" stroke="black" points="1394.83,-550.593 1391.36,-560.605 1400.32,-554.94 1394.83,-550.593"/>
<text text-anchor="middle" x="2119" y="-185.8" font-family="Times,serif" font-size="14.00">0.0001</text>
</g>
<!-- Sizeclass 2; Plant length _ 1cm and &lt; 4.5cm&#45;&gt;Microrecruit stage 2 -->
<g id="edge3" class="edge"><title>Sizeclass 2; Plant length _ 1cm and &lt; 4.5cm&#45;&gt;Microrecruit stage 2</title>
<path fill="none" stroke="black" d="M2424.77,-845.616C2404.63,-871.603 2385.26,-899.727 2370,-928 2318,-1024.36 2382.61,-1095.99 2296,-1163 2227.36,-1216.1 1992.78,-1183 1906,-1183 900,-1183 900,-1183 900,-1183 816.513,-1183 722.295,-1169.78 654.921,-1158"/>
<polygon fill="black" stroke="black" points="655.22,-1154.49 644.762,-1156.2 653.998,-1161.39 655.22,-1154.49"/>
<text text-anchor="middle" x="1461" y="-1186.8" font-family="Times,serif" font-size="14.00">0.0015</text>
</g>
<!-- Sizeclass 2; Plant length _ 1cm and &lt; 4.5cm&#45;&gt;Microrecruit stage 3 -->
<g id="edge12" class="edge"><title>Sizeclass 2; Plant length _ 1cm and &lt; 4.5cm&#45;&gt;Microrecruit stage 3</title>
<path fill="none" stroke="black" d="M2430.85,-591.323C2380.16,-527.636 2327.86,-456.658 2314,-419 2303.38,-390.16 2317.59,-164.871 2296,-143 2272.98,-119.681 1152.77,-51 1120,-51 562,-51 562,-51 562,-51 484.931,-51 463.281,-89.6932 424,-156 367.775,-250.91 340.067,-568.069 329.413,-727.636"/>
<polygon fill="black" stroke="black" points="325.9,-727.706 328.735,-737.915 332.885,-728.166 325.9,-727.706"/>
<text text-anchor="middle" x="1290" y="-72.8" font-family="Times,serif" font-size="14.00">0.8651</text>
</g>
<!-- Sizeclass 2; Plant length _ 1cm and &lt; 4.5cm&#45;&gt;Sizeclass 1; Plant length &lt; 1cm -->
<g id="edge21" class="edge"><title>Sizeclass 2; Plant length _ 1cm and &lt; 4.5cm&#45;&gt;Sizeclass 1; Plant length &lt; 1cm</title>
<path fill="none" stroke="black" d="M2709.64,-717.101C2728.7,-718.038 2747.8,-719.594 2766,-722 2770.14,-722.547 2774.32,-723.178 2778.54,-723.88"/>
<polygon fill="black" stroke="black" points="2777.96,-727.332 2788.42,-725.643 2779.19,-720.44 2777.96,-727.332"/>
<text text-anchor="middle" x="2747" y="-725.8" font-family="Times,serif" font-size="14.00">0.2344</text>
</g>
<!-- Sizeclass 2; Plant length _ 1cm and &lt; 4.5cm&#45;&gt;Sizeclass 2; Plant length _ 1cm and &lt; 4.5cm -->
<g id="edge30" class="edge"><title>Sizeclass 2; Plant length _ 1cm and &lt; 4.5cm&#45;&gt;Sizeclass 2; Plant length _ 1cm and &lt; 4.5cm</title>
<path fill="none" stroke="black" d="M2511.34,-888.137C2517.77,-900.45 2527.33,-908 2540,-908 2549.31,-908 2556.93,-903.928 2562.88,-896.888"/>
<polygon fill="black" stroke="black" points="2566.07,-898.408 2568.66,-888.137 2560.23,-894.546 2566.07,-898.408"/>
<text text-anchor="middle" x="2540" y="-911.8" font-family="Times,serif" font-size="14.00">0.1361</text>
</g>
<!-- Sizeclass 2; Plant length _ 1cm and &lt; 4.5cm&#45;&gt;Sizeclass 3; Plant length _ 4.5cm and &lt; 9.5cm -->
<g id="edge39" class="edge"><title>Sizeclass 2; Plant length _ 1cm and &lt; 4.5cm&#45;&gt;Sizeclass 3; Plant length _ 4.5cm and &lt; 9.5cm</title>
<path fill="none" stroke="black" d="M2379.39,-776.21C2357.02,-785.609 2334.64,-795.944 2314,-807 2299.08,-814.993 2283.96,-823.961 2269.1,-833.388"/>
<polygon fill="black" stroke="black" points="2266.9,-830.638 2260.38,-838.987 2270.68,-836.528 2266.9,-830.638"/>
<text text-anchor="middle" x="2333" y="-810.8" font-family="Times,serif" font-size="14.00">0.0126</text>
</g>
<!-- Sizeclass 2; Plant length _ 1cm and &lt; 4.5cm&#45;&gt;Sizeclass 4; Plant length _ 9.5cm and &gt; 14.5cm -->
<g id="edge47" class="edge"><title>Sizeclass 2; Plant length _ 1cm and &lt; 4.5cm&#45;&gt;Sizeclass 4; Plant length _ 9.5cm and &gt; 14.5cm</title>
<path fill="none" stroke="black" d="M2370.16,-724.7C2206.96,-729.409 1979.07,-739.403 1942,-759 1894.68,-784.013 1916.09,-830.503 1868,-854 1725.83,-923.47 1312.37,-868.236 1156,-844 1124.07,-839.051 1091.97,-828.1 1061.85,-814.515"/>
<polygon fill="black" stroke="black" points="1063.11,-811.243 1052.57,-810.218 1060.17,-817.596 1063.11,-811.243"/>
<text text-anchor="middle" x="1683" y="-891.8" font-family="Times,serif" font-size="14.00">0.0024</text>
</g>
<!-- Sizeclass 2; Plant length _ 1cm and &lt; 4.5cm&#45;&gt;Sizeclass 5; Plant length _ 14.5cm and &lt; 19.5cm -->
<g id="edge54" class="edge"><title>Sizeclass 2; Plant length _ 1cm and &lt; 4.5cm&#45;&gt;Sizeclass 5; Plant length _ 14.5cm and &lt; 19.5cm</title>
<path fill="none" stroke="black" d="M2418.3,-602.972C2397.32,-586.523 2374.86,-571.129 2352,-559 2189.54,-472.802 2120.53,-547.17 1942,-503 1916.04,-496.578 1889.18,-488.221 1863.02,-479.074"/>
<polygon fill="black" stroke="black" points="1864.02,-475.713 1853.42,-475.67 1861.68,-482.31 1864.02,-475.713"/>
<text text-anchor="middle" x="2119" y="-536.8" font-family="Times,serif" font-size="14.00">0.0013</text>
</g>
<!-- Sizeclass 2; Plant length _ 1cm and &lt; 4.5cm&#45;&gt;Sizeclass 6; Plant length &gt;19.5 cm -->
<g id="edge60" class="edge"><title>Sizeclass 2; Plant length _ 1cm and &lt; 4.5cm&#45;&gt;Sizeclass 6; Plant length &gt;19.5 cm</title>
<path fill="none" stroke="black" d="M2378.14,-670.218C2255.2,-634.177 2080.76,-588.963 1924,-570 1907.23,-567.972 1899.55,-559.919 1886,-570 1863.66,-586.619 1890.07,-613.035 1868,-630 1834.47,-655.772 1594.31,-655.383 1434.58,-652.129"/>
<polygon fill="black" stroke="black" points="1434.25,-648.621 1424.18,-651.91 1434.1,-655.619 1434.25,-648.621"/>
<text text-anchor="middle" x="1905" y="-573.8" font-family="Times,serif" font-size="14.00">0.0003</text>
</g>
<!-- Sizeclass 3; Plant length _ 4.5cm and &lt; 9.5cm&#45;&gt;Microrecruit stage 2 -->
<g id="edge4" class="edge"><title>Sizeclass 3; Plant length _ 4.5cm and &lt; 9.5cm&#45;&gt;Microrecruit stage 2</title>
<path fill="none" stroke="black" d="M1989.31,-1064.95C1968.6,-1079.65 1946.53,-1092.99 1924,-1103 1825.38,-1146.83 1791.93,-1140 1684,-1140 900,-1140 900,-1140 900,-1140 817.743,-1140 724.16,-1140 656.685,-1140"/>
<polygon fill="black" stroke="black" points="656.505,-1136.5 646.505,-1140 656.505,-1143.5 656.505,-1136.5"/>
<text text-anchor="middle" x="1290" y="-1143.8" font-family="Times,serif" font-size="14.00">0.0064</text>
</g>
<!-- Sizeclass 3; Plant length _ 4.5cm and &lt; 9.5cm&#45;&gt;Microrecruit stage 3 -->
<g id="edge13" class="edge"><title>Sizeclass 3; Plant length _ 4.5cm and &lt; 9.5cm&#45;&gt;Microrecruit stage 3</title>
<path fill="none" stroke="black" d="M1943.74,-970.335C1918.38,-973.344 1892.55,-976.037 1868,-978 1696.04,-991.751 1652.5,-986.555 1480,-989 1335.97,-991.041 1299.31,-995.514 1156,-981 1122.78,-977.635 1115.09,-972.454 1082,-968 1001.92,-957.223 785.947,-980.685 720,-934 704.419,-922.97 717.012,-906.793 702,-895 620.6,-831.058 499.436,-817.387 416.356,-816.571"/>
<polygon fill="black" stroke="black" points="416.178,-813.071 406.165,-816.533 416.152,-820.07 416.178,-813.071"/>
<text text-anchor="middle" x="1119" y="-982.8" font-family="Times,serif" font-size="14.00">4.3942</text>
</g>
<!-- Sizeclass 3; Plant length _ 4.5cm and &lt; 9.5cm&#45;&gt;Sizeclass 1; Plant length &lt; 1cm -->
<g id="edge22" class="edge"><title>Sizeclass 3; Plant length _ 4.5cm and &lt; 9.5cm&#45;&gt;Sizeclass 1; Plant length &lt; 1cm</title>
<path fill="none" stroke="black" d="M2194.5,-1104.59C2224.64,-1150.99 2264.26,-1196.11 2314,-1222 2403.21,-1268.44 2687.54,-1261.92 2766,-1199 2857.62,-1125.53 2890.22,-992.061 2901.36,-891.319"/>
<polygon fill="black" stroke="black" points="2904.84,-891.677 2902.4,-881.367 2897.88,-890.948 2904.84,-891.677"/>
<text text-anchor="middle" x="2540" y="-1256.8" font-family="Times,serif" font-size="14.00">1.2343</text>
</g>
<!-- Sizeclass 3; Plant length _ 4.5cm and &lt; 9.5cm&#45;&gt;Sizeclass 2; Plant length _ 1cm and &lt; 4.5cm -->
<g id="edge31" class="edge"><title>Sizeclass 3; Plant length _ 4.5cm and &lt; 9.5cm&#45;&gt;Sizeclass 2; Plant length _ 1cm and &lt; 4.5cm</title>
<path fill="none" stroke="black" d="M2277.04,-865.465C2302.19,-852.435 2327.87,-838.956 2352,-826 2362.19,-820.53 2372.65,-814.842 2383.18,-809.069"/>
<polygon fill="black" stroke="black" points="2384.96,-812.087 2392.04,-804.203 2381.59,-805.952 2384.96,-812.087"/>
<text text-anchor="middle" x="2333" y="-850.8" font-family="Times,serif" font-size="14.00">0.8396</text>
</g>
<!-- Sizeclass 3; Plant length _ 4.5cm and &lt; 9.5cm&#45;&gt;Sizeclass 3; Plant length _ 4.5cm and &lt; 9.5cm -->
<g id="edge40" class="edge"><title>Sizeclass 3; Plant length _ 4.5cm and &lt; 9.5cm&#45;&gt;Sizeclass 3; Plant length _ 4.5cm and &lt; 9.5cm</title>
<path fill="none" stroke="black" d="M2089.54,-1119C2096.22,-1131.41 2106.04,-1139 2119,-1139 2128.72,-1139 2136.67,-1134.73 2142.86,-1127.36"/>
<polygon fill="black" stroke="black" points="2145.8,-1129.25 2148.46,-1119 2139.99,-1125.36 2145.8,-1129.25"/>
<text text-anchor="middle" x="2119" y="-1142.8" font-family="Times,serif" font-size="14.00">0.0809</text>
</g>
<!-- Sizeclass 3; Plant length _ 4.5cm and &lt; 9.5cm&#45;&gt;Sizeclass 4; Plant length _ 9.5cm and &gt; 14.5cm -->
<g id="edge48" class="edge"><title>Sizeclass 3; Plant length _ 4.5cm and &lt; 9.5cm&#45;&gt;Sizeclass 4; Plant length _ 9.5cm and &gt; 14.5cm</title>
<path fill="none" stroke="black" d="M1941.98,-943.901C1671.05,-941.207 1175.12,-931.925 1100,-900 1074.15,-889.013 1049.65,-873.038 1027.27,-854.973"/>
<polygon fill="black" stroke="black" points="1029.38,-852.177 1019.45,-848.501 1024.92,-857.571 1029.38,-852.177"/>
<text text-anchor="middle" x="1461" y="-937.8" font-family="Times,serif" font-size="14.00">0.0107</text>
</g>
<!-- Sizeclass 3; Plant length _ 4.5cm and &lt; 9.5cm&#45;&gt;Sizeclass 5; Plant length _ 14.5cm and &lt; 19.5cm -->
<g id="edge55" class="edge"><title>Sizeclass 3; Plant length _ 4.5cm and &lt; 9.5cm&#45;&gt;Sizeclass 5; Plant length _ 14.5cm and &lt; 19.5cm</title>
<path fill="none" stroke="black" d="M2049.19,-782.761C2017.67,-722.373 1975.69,-656.746 1924,-608 1910.26,-595.046 1901.54,-599.723 1886,-589 1864.6,-574.237 1843.15,-557.323 1822.65,-539.845"/>
<polygon fill="black" stroke="black" points="1824.7,-536.993 1814.84,-533.122 1820.13,-542.299 1824.7,-536.993"/>
<text text-anchor="middle" x="1905" y="-611.8" font-family="Times,serif" font-size="14.00">0.0045</text>
</g>
<!-- Sizeclass 3; Plant length _ 4.5cm and &lt; 9.5cm&#45;&gt;Sizeclass 6; Plant length &gt;19.5 cm -->
<g id="edge61" class="edge"><title>Sizeclass 3; Plant length _ 4.5cm and &lt; 9.5cm&#45;&gt;Sizeclass 6; Plant length &gt;19.5 cm</title>
<path fill="none" stroke="black" d="M1991.65,-822.637C1954.49,-793.148 1911.93,-764.993 1868,-747 1691.77,-674.828 1627.74,-743.034 1442,-701 1436.67,-699.793 1431.26,-698.458 1425.82,-697.021"/>
<polygon fill="black" stroke="black" points="1426.58,-693.601 1416.01,-694.333 1424.73,-700.352 1426.58,-693.601"/>
<text text-anchor="middle" x="1683" y="-750.8" font-family="Times,serif" font-size="14.00">0.001</text>
</g>
<!-- Sizeclass 4; Plant length _ 9.5cm and &gt; 14.5cm&#45;&gt;Microrecruit stage 2 -->
<g id="edge5" class="edge"><title>Sizeclass 4; Plant length _ 9.5cm and &gt; 14.5cm&#45;&gt;Microrecruit stage 2</title>
<path fill="none" stroke="black" d="M789.508,-854.318C762.384,-885.664 732.371,-917.643 702,-945 686.795,-958.696 677.987,-956.062 664,-971 640.666,-995.921 620.285,-1027.2 604.118,-1056.06"/>
<polygon fill="black" stroke="black" points="600.993,-1054.48 599.238,-1064.93 607.126,-1057.86 600.993,-1054.48"/>
<text text-anchor="middle" x="683" y="-974.8" font-family="Times,serif" font-size="14.00">0.0103</text>
</g>
<!-- Sizeclass 4; Plant length _ 9.5cm and &gt; 14.5cm&#45;&gt;Microrecruit stage 3 -->
<g id="edge14" class="edge"><title>Sizeclass 4; Plant length _ 9.5cm and &gt; 14.5cm&#45;&gt;Microrecruit stage 3</title>
<path fill="none" stroke="black" d="M723.178,-745.461C621.221,-764.755 497.303,-788.205 414.847,-803.809"/>
<polygon fill="black" stroke="black" points="414.176,-800.373 405.001,-805.672 415.477,-807.251 414.176,-800.373"/>
<text text-anchor="middle" x="563" y="-795.8" font-family="Times,serif" font-size="14.00">5.7714</text>
</g>
<!-- Sizeclass 4; Plant length _ 9.5cm and &gt; 14.5cm&#45;&gt;Sizeclass 1; Plant length &lt; 1cm -->
<g id="edge23" class="edge"><title>Sizeclass 4; Plant length _ 9.5cm and &gt; 14.5cm&#45;&gt;Sizeclass 1; Plant length &lt; 1cm</title>
<path fill="none" stroke="black" d="M985.7,-552.214C1017.61,-498.881 1056.82,-441.096 1100,-394 1359.7,-110.774 1519.73,-76 1904,-76 1904,-76 1904,-76 2541,-76 2788.12,-76 2868.54,-428.088 2894.25,-626.677"/>
<polygon fill="black" stroke="black" points="2890.81,-627.411 2895.54,-636.893 2897.76,-626.533 2890.81,-627.411"/>
<text text-anchor="middle" x="1905" y="-80.8" font-family="Times,serif" font-size="14.00">1.7337</text>
</g>
<!-- Sizeclass 4; Plant length _ 9.5cm and &gt; 14.5cm&#45;&gt;Sizeclass 2; Plant length _ 1cm and &lt; 4.5cm -->
<g id="edge32" class="edge"><title>Sizeclass 4; Plant length _ 9.5cm and &gt; 14.5cm&#45;&gt;Sizeclass 2; Plant length _ 1cm and &lt; 4.5cm</title>
<path fill="none" stroke="black" d="M1062.34,-793.798C1092.73,-805.899 1124.79,-816.479 1156,-823 1262.73,-845.303 1836.71,-833.944 1868,-813 1884.54,-801.931 1873.98,-787.862 1886,-772 1905.45,-746.328 1911.72,-736.985 1942,-726 2016.11,-699.112 2212.97,-702.415 2360.51,-709.522"/>
<polygon fill="black" stroke="black" points="2360.44,-713.023 2370.6,-710.018 2360.78,-706.031 2360.44,-713.023"/>
<text text-anchor="middle" x="1683" y="-838.8" font-family="Times,serif" font-size="14.00">1.7292</text>
</g>
<!-- Sizeclass 4; Plant length _ 9.5cm and &gt; 14.5cm&#45;&gt;Sizeclass 3; Plant length _ 4.5cm and &lt; 9.5cm -->
<g id="edge41" class="edge"><title>Sizeclass 4; Plant length _ 9.5cm and &gt; 14.5cm&#45;&gt;Sizeclass 3; Plant length _ 4.5cm and &lt; 9.5cm</title>
<path fill="none" stroke="black" d="M1007.15,-858.327C1041.02,-900.745 1075.97,-938.734 1100,-950 1172.98,-984.22 1658.93,-967.129 1932.19,-954.479"/>
<polygon fill="black" stroke="black" points="1932.4,-957.974 1942.23,-954.013 1932.07,-950.981 1932.4,-957.974"/>
<text text-anchor="middle" x="1461" y="-973.8" font-family="Times,serif" font-size="14.00">0.2336</text>
</g>
<!-- Sizeclass 4; Plant length _ 9.5cm and &gt; 14.5cm&#45;&gt;Sizeclass 4; Plant length _ 9.5cm and &gt; 14.5cm -->
<g id="edge49" class="edge"><title>Sizeclass 4; Plant length _ 9.5cm and &gt; 14.5cm&#45;&gt;Sizeclass 4; Plant length _ 9.5cm and &gt; 14.5cm</title>
<path fill="none" stroke="black" d="M871.158,-889.891C877.96,-902.382 887.907,-910 901,-910 910.82,-910 918.87,-905.715 925.151,-898.303"/>
<polygon fill="black" stroke="black" points="928.137,-900.135 930.842,-889.891 922.34,-896.212 928.137,-900.135"/>
<text text-anchor="middle" x="901" y="-913.8" font-family="Times,serif" font-size="14.00">0.0299</text>
</g>
<!-- Sizeclass 4; Plant length _ 9.5cm and &gt; 14.5cm&#45;&gt;Sizeclass 5; Plant length _ 14.5cm and &lt; 19.5cm -->
<g id="edge56" class="edge"><title>Sizeclass 4; Plant length _ 9.5cm and &gt; 14.5cm&#45;&gt;Sizeclass 5; Plant length _ 14.5cm and &lt; 19.5cm</title>
<path fill="none" stroke="black" d="M972.852,-546.393C1003.89,-494.323 1045.82,-442.708 1100,-413 1218.51,-348.022 1372.04,-348.207 1491.65,-363.203"/>
<polygon fill="black" stroke="black" points="1491.29,-366.686 1501.66,-364.502 1492.19,-359.744 1491.29,-366.686"/>
<text text-anchor="middle" x="1290" y="-389.8" font-family="Times,serif" font-size="14.00">0.0086</text>
</g>
<!-- Sizeclass 4; Plant length _ 9.5cm and &gt; 14.5cm&#45;&gt;Sizeclass 6; Plant length &gt;19.5 cm -->
<g id="edge62" class="edge"><title>Sizeclass 4; Plant length _ 9.5cm and &gt; 14.5cm&#45;&gt;Sizeclass 6; Plant length &gt;19.5 cm</title>
<path fill="none" stroke="black" d="M1073.92,-658.83C1082.69,-657 1091.42,-655.37 1100,-654 1114.76,-651.643 1130.25,-649.935 1145.74,-648.719"/>
<polygon fill="black" stroke="black" points="1146.18,-652.196 1155.91,-647.989 1145.68,-645.214 1146.18,-652.196"/>
<text text-anchor="middle" x="1119" y="-657.8" font-family="Times,serif" font-size="14.00">0.0012</text>
</g>
<!-- Sizeclass 5; Plant length _ 14.5cm and &lt; 19.5cm&#45;&gt;Microrecruit stage 2 -->
<g id="edge6" class="edge"><title>Sizeclass 5; Plant length _ 14.5cm and &lt; 19.5cm&#45;&gt;Microrecruit stage 2</title>
<path fill="none" stroke="black" d="M1497.97,-414.376C1234.79,-432.339 776.28,-470.586 720,-522 717.521,-524.265 629.004,-878.838 586.431,-1049.82"/>
<polygon fill="black" stroke="black" points="583.025,-1049.01 584.005,-1059.56 589.817,-1050.7 583.025,-1049.01"/>
<text text-anchor="middle" x="1119" y="-451.8" font-family="Times,serif" font-size="14.00">0.0206</text>
</g>
<!-- Sizeclass 5; Plant length _ 14.5cm and &lt; 19.5cm&#45;&gt;Microrecruit stage 3 -->
<g id="edge15" class="edge"><title>Sizeclass 5; Plant length _ 14.5cm and &lt; 19.5cm&#45;&gt;Microrecruit stage 3</title>
<path fill="none" stroke="black" d="M1563.12,-261.482C1537.81,-238.291 1509.69,-216.736 1480,-201 1336.06,-124.705 1282.91,-132 1120,-132 562,-132 562,-132 562,-132 493.427,-132 464.595,-145.734 424,-201 363.704,-283.086 338.155,-575.586 328.751,-727.653"/>
<polygon fill="black" stroke="black" points="325.241,-727.715 328.128,-737.908 332.228,-728.139 325.241,-727.715"/>
<text text-anchor="middle" x="901" y="-135.8" font-family="Times,serif" font-size="14.00">9.8165</text>
</g>
<!-- Sizeclass 5; Plant length _ 14.5cm and &lt; 19.5cm&#45;&gt;Sizeclass 1; Plant length &lt; 1cm -->
<g id="edge24" class="edge"><title>Sizeclass 5; Plant length _ 14.5cm and &lt; 19.5cm&#45;&gt;Sizeclass 1; Plant length &lt; 1cm</title>
<path fill="none" stroke="black" d="M1858.29,-342.065C2089.64,-273.151 2499.85,-194.013 2766,-389 2841.2,-444.093 2876.01,-544.778 2892.13,-627.222"/>
<polygon fill="black" stroke="black" points="2888.71,-628.001 2894,-637.181 2895.59,-626.706 2888.71,-628.001"/>
<text text-anchor="middle" x="2333" y="-270.8" font-family="Times,serif" font-size="14.00">3.0255</text>
</g>
<!-- Sizeclass 5; Plant length _ 14.5cm and &lt; 19.5cm&#45;&gt;Sizeclass 2; Plant length _ 1cm and &lt; 4.5cm -->
<g id="edge33" class="edge"><title>Sizeclass 5; Plant length _ 14.5cm and &lt; 19.5cm&#45;&gt;Sizeclass 2; Plant length _ 1cm and &lt; 4.5cm</title>
<path fill="none" stroke="black" d="M1867.84,-416.375C1990.64,-428.261 2154.9,-449.882 2296,-488 2321.98,-495.017 2330.05,-495.443 2352,-511 2379.37,-530.396 2405.52,-554.509 2429.13,-579.411"/>
<polygon fill="black" stroke="black" points="2426.66,-581.894 2436.05,-586.805 2431.78,-577.111 2426.66,-581.894"/>
<text text-anchor="middle" x="2119" y="-491.8" font-family="Times,serif" font-size="14.00">3.3684</text>
</g>
<!-- Sizeclass 5; Plant length _ 14.5cm and &lt; 19.5cm&#45;&gt;Sizeclass 3; Plant length _ 4.5cm and &lt; 9.5cm -->
<g id="edge42" class="edge"><title>Sizeclass 5; Plant length _ 14.5cm and &lt; 19.5cm&#45;&gt;Sizeclass 3; Plant length _ 4.5cm and &lt; 9.5cm</title>
<path fill="none" stroke="black" d="M1801.19,-545.707C1827.65,-574.166 1856.63,-602.732 1886,-627 1901.22,-639.576 1909.78,-636.304 1924,-650 1963.59,-688.132 1999.24,-735.744 2028.87,-781.517"/>
<polygon fill="black" stroke="black" points="2025.98,-783.507 2034.33,-790.039 2031.88,-779.731 2025.98,-783.507"/>
<text text-anchor="middle" x="1905" y="-653.8" font-family="Times,serif" font-size="14.00">0.4849</text>
</g>
<!-- Sizeclass 5; Plant length _ 14.5cm and &lt; 19.5cm&#45;&gt;Sizeclass 4; Plant length _ 9.5cm and &gt; 14.5cm -->
<g id="edge50" class="edge"><title>Sizeclass 5; Plant length _ 14.5cm and &lt; 19.5cm&#45;&gt;Sizeclass 4; Plant length _ 9.5cm and &gt; 14.5cm</title>
<path fill="none" stroke="black" d="M1502.38,-444.853C1494.83,-446.311 1487.35,-447.701 1480,-449 1337.07,-474.256 1288.41,-430.54 1156,-490 1111.36,-510.047 1068.8,-540.658 1031.72,-572.801"/>
<polygon fill="black" stroke="black" points="1029.09,-570.449 1023.89,-579.68 1033.71,-575.708 1029.09,-570.449"/>
<text text-anchor="middle" x="1290" y="-493.8" font-family="Times,serif" font-size="14.00">0.0622</text>
</g>
<!-- Sizeclass 5; Plant length _ 14.5cm and &lt; 19.5cm&#45;&gt;Sizeclass 5; Plant length _ 14.5cm and &lt; 19.5cm -->
<g id="edge57" class="edge"><title>Sizeclass 5; Plant length _ 14.5cm and &lt; 19.5cm&#45;&gt;Sizeclass 5; Plant length _ 14.5cm and &lt; 19.5cm</title>
<path fill="none" stroke="black" d="M1652.78,-585.695C1659.7,-598.316 1669.78,-606 1683,-606 1692.92,-606 1701.06,-601.678 1707.44,-594.192"/>
<polygon fill="black" stroke="black" points="1710.49,-595.931 1713.22,-585.695 1704.7,-591.993 1710.49,-595.931"/>
<text text-anchor="middle" x="1683" y="-609.8" font-family="Times,serif" font-size="14.00">0.0169</text>
</g>
<!-- Sizeclass 5; Plant length _ 14.5cm and &lt; 19.5cm&#45;&gt;Sizeclass 6; Plant length &gt;19.5 cm -->
<g id="edge63" class="edge"><title>Sizeclass 5; Plant length _ 14.5cm and &lt; 19.5cm&#45;&gt;Sizeclass 6; Plant length &gt;19.5 cm</title>
<path fill="none" stroke="black" d="M1517.2,-486.123C1491.6,-500.389 1465.78,-515.601 1442,-531 1428.97,-539.433 1415.67,-548.692 1402.61,-558.193"/>
<polygon fill="black" stroke="black" points="1400.51,-555.394 1394.52,-564.135 1404.66,-561.036 1400.51,-555.394"/>
<text text-anchor="middle" x="1461" y="-534.8" font-family="Times,serif" font-size="14.00">0.002</text>
</g>
<!-- Sizeclass 6; Plant length &gt;19.5 cm&#45;&gt;Microrecruit stage 2 -->
<g id="edge7" class="edge"><title>Sizeclass 6; Plant length &gt;19.5 cm&#45;&gt;Microrecruit stage 2</title>
<path fill="none" stroke="black" d="M1226.84,-766.026C1191.23,-823.719 1141.72,-890.018 1082,-934 924.134,-1050.27 840.471,-989.569 664,-1075 656.214,-1078.77 648.306,-1083.04 640.523,-1087.55"/>
<polygon fill="black" stroke="black" points="638.616,-1084.61 631.802,-1092.72 642.188,-1090.63 638.616,-1084.61"/>
<text text-anchor="middle" x="901" y="-1053.8" font-family="Times,serif" font-size="14.00">0.0089</text>
</g>
<!-- Sizeclass 6; Plant length &gt;19.5 cm&#45;&gt;Microrecruit stage 3 -->
<g id="edge16" class="edge"><title>Sizeclass 6; Plant length &gt;19.5 cm&#45;&gt;Microrecruit stage 3</title>
<path fill="none" stroke="black" d="M1182.48,-568.029C1151.63,-549.194 1116.84,-531.769 1082,-522 927.087,-478.56 872.55,-470.876 720,-522 584.765,-567.321 458.819,-679.082 386.711,-752.389"/>
<polygon fill="black" stroke="black" points="383.956,-750.201 379.474,-759.801 388.965,-755.091 383.956,-750.201"/>
<text text-anchor="middle" x="683" y="-546.8" font-family="Times,serif" font-size="14.00">2.1891</text>
</g>
<!-- Sizeclass 6; Plant length &gt;19.5 cm&#45;&gt;Sizeclass 1; Plant length &lt; 1cm -->
<g id="edge25" class="edge"><title>Sizeclass 6; Plant length &gt;19.5 cm&#45;&gt;Sizeclass 1; Plant length &lt; 1cm</title>
<path fill="none" stroke="black" d="M1389.53,-558.031C1402.53,-542.678 1414.59,-526.122 1424,-509 1490.15,-388.653 1389.89,-293.684 1498,-209 1538.2,-177.511 2628.29,-213.202 2710,-264 2832.64,-340.243 2878.59,-507.788 2895.78,-626.798"/>
<polygon fill="black" stroke="black" points="2892.31,-627.295 2897.16,-636.716 2899.24,-626.329 2892.31,-627.295"/>
<text text-anchor="middle" x="2119" y="-219.8" font-family="Times,serif" font-size="14.00">0.7835</text>
</g>
<!-- Sizeclass 6; Plant length &gt;19.5 cm&#45;&gt;Sizeclass 2; Plant length _ 1cm and &lt; 4.5cm -->
<g id="edge34" class="edge"><title>Sizeclass 6; Plant length &gt;19.5 cm&#45;&gt;Sizeclass 2; Plant length _ 1cm and &lt; 4.5cm</title>
<path fill="none" stroke="black" d="M1423.53,-661.707C1429.77,-662.182 1435.95,-662.617 1442,-663 1845.79,-688.569 1949.47,-647.177 2352,-688 2355.55,-688.36 2359.14,-688.749 2362.75,-689.163"/>
<polygon fill="black" stroke="black" points="2362.63,-692.675 2372.98,-690.396 2363.47,-685.725 2362.63,-692.675"/>
<text text-anchor="middle" x="1905" y="-673.8" font-family="Times,serif" font-size="14.00">1.4744</text>
</g>
<!-- Sizeclass 6; Plant length &gt;19.5 cm&#45;&gt;Sizeclass 3; Plant length _ 4.5cm and &lt; 9.5cm -->
<g id="edge43" class="edge"><title>Sizeclass 6; Plant length &gt;19.5 cm&#45;&gt;Sizeclass 3; Plant length _ 4.5cm and &lt; 9.5cm</title>
<path fill="none" stroke="black" d="M1398.37,-726.713C1412.54,-734.58 1427.28,-741.629 1442,-747 1621.14,-812.338 1687.32,-737.049 1868,-798 1900.24,-808.876 1932.88,-824.254 1963.46,-840.999"/>
<polygon fill="black" stroke="black" points="1962.02,-844.198 1972.46,-845.994 1965.42,-838.079 1962.02,-844.198"/>
<text text-anchor="middle" x="1683" y="-801.8" font-family="Times,serif" font-size="14.00">0.2707</text>
</g>
<!-- Sizeclass 6; Plant length &gt;19.5 cm&#45;&gt;Sizeclass 4; Plant length _ 9.5cm and &gt; 14.5cm -->
<g id="edge51" class="edge"><title>Sizeclass 6; Plant length &gt;19.5 cm&#45;&gt;Sizeclass 4; Plant length _ 9.5cm and &gt; 14.5cm</title>
<path fill="none" stroke="black" d="M1157.64,-669.751C1151,-670.85 1144.42,-671.938 1138,-673 1122.31,-675.596 1106.03,-678.288 1089.69,-680.989"/>
<polygon fill="black" stroke="black" points="1088.81,-677.587 1079.51,-682.671 1089.95,-684.493 1088.81,-677.587"/>
<text text-anchor="middle" x="1119" y="-682.8" font-family="Times,serif" font-size="14.00">0.0384</text>
</g>
<!-- Sizeclass 6; Plant length &gt;19.5 cm&#45;&gt;Sizeclass 5; Plant length _ 14.5cm and &lt; 19.5cm -->
<g id="edge58" class="edge"><title>Sizeclass 6; Plant length &gt;19.5 cm&#45;&gt;Sizeclass 5; Plant length _ 14.5cm and &lt; 19.5cm</title>
<path fill="none" stroke="black" d="M1410.48,-589.521C1433.89,-577.098 1457.99,-563.605 1480,-550 1495.17,-540.619 1510.69,-530.457 1526.04,-520.008"/>
<polygon fill="black" stroke="black" points="1528.28,-522.717 1534.55,-514.176 1524.32,-516.943 1528.28,-522.717"/>
<text text-anchor="middle" x="1461" y="-574.8" font-family="Times,serif" font-size="14.00">0.0105</text>
</g>
<!-- Sizeclass 6; Plant length &gt;19.5 cm&#45;&gt;Sizeclass 6; Plant length &gt;19.5 cm -->
<g id="edge64" class="edge"><title>Sizeclass 6; Plant length &gt;19.5 cm&#45;&gt;Sizeclass 6; Plant length &gt;19.5 cm</title>
<path fill="none" stroke="black" d="M1264.45,-778.992C1269.69,-791.257 1278.21,-799 1290,-799 1298.66,-799 1305.55,-794.824 1310.68,-787.748"/>
<polygon fill="black" stroke="black" points="1313.75,-789.431 1315.55,-778.992 1307.63,-786.026 1313.75,-789.431"/>
<text text-anchor="middle" x="1290" y="-802.8" font-family="Times,serif" font-size="14.00">0.001</text>
</g>
</g>
</svg>
