<?xml version="1.0" encoding="UTF-8" standalone="no"?>
<!DOCTYPE svg PUBLIC "-//W3C//DTD SVG 1.1//EN"
 "http://www.w3.org/Graphics/SVG/1.1/DTD/svg11.dtd">
<!-- Generated by graphviz version 2.38.0 (20140413.2041)
 -->
<!-- Title: G Pages: 1 -->
<svg width="612pt" height="256pt"
 viewBox="0.00 0.00 612.39 256.46" xmlns="http://www.w3.org/2000/svg" xmlns:xlink="http://www.w3.org/1999/xlink">
<g id="graph0" class="graph" transform="scale(1 1) rotate(0) translate(4 252.456)">
<title>G</title>
<polygon fill="white" stroke="none" points="-4,4 -4,-252.456 608.391,-252.456 608.391,4 -4,4"/>
<!-- Young ramets (&lt; 36 cm) -->
<g id="node1" class="node"><title>Young ramets (&lt; 36 cm)</title>
<ellipse fill="none" stroke="black" cx="96.2399" cy="-106.244" rx="96.4805" ry="96.4805"/>
<text text-anchor="middle" x="96.2399" y="-102.044" font-family="Times,serif" font-size="14.00">Young ramets (&lt; 36 cm)</text>
</g>
<!-- Young ramets (&lt; 36 cm)&#45;&gt;Young ramets (&lt; 36 cm) -->
<g id="edge1" class="edge"><title>Young ramets (&lt; 36 cm)&#45;&gt;Young ramets (&lt; 36 cm)</title>
<path fill="none" stroke="black" d="M75.5349,-200.36C79.1254,-212.478 86.027,-220.484 96.2399,-220.484 103.421,-220.484 108.965,-216.526 112.872,-209.964"/>
<polygon fill="black" stroke="black" points="116.262,-210.933 116.945,-200.36 109.818,-208.2 116.262,-210.933"/>
<text text-anchor="middle" x="96.2399" y="-223.284" font-family="Times,serif" font-size="14.00">0.59</text>
</g>
<!-- Vegetative ramets -->
<g id="node2" class="node"><title>Vegetative ramets</title>
<ellipse fill="none" stroke="black" cx="326.191" cy="-143.244" rx="73.4236" ry="73.4236"/>
<text text-anchor="middle" x="326.191" y="-139.044" font-family="Times,serif" font-size="14.00">Vegetative ramets</text>
</g>
<!-- Young ramets (&lt; 36 cm)&#45;&gt;Vegetative ramets -->
<g id="edge4" class="edge"><title>Young ramets (&lt; 36 cm)&#45;&gt;Vegetative ramets</title>
<path fill="none" stroke="black" d="M191.273,-121.507C208.701,-124.336 226.771,-127.269 243.785,-130.031"/>
<polygon fill="black" stroke="black" points="243.236,-133.487 253.667,-131.635 244.357,-126.578 243.236,-133.487"/>
<text text-anchor="middle" x="222.73" y="-130.044" font-family="Times,serif" font-size="14.00">0.86</text>
</g>
<!-- Vegetative ramets&#45;&gt;Young ramets (&lt; 36 cm) -->
<g id="edge2" class="edge"><title>Vegetative ramets&#45;&gt;Young ramets (&lt; 36 cm)</title>
<path fill="none" stroke="black" d="M259.036,-113.649C251.059,-111.039 242.923,-108.801 234.98,-107.244 224.559,-105.202 213.609,-103.839 202.626,-102.98"/>
<polygon fill="black" stroke="black" points="202.751,-99.4806 192.546,-102.328 202.299,-106.466 202.751,-99.4806"/>
<text text-anchor="middle" x="222.73" y="-110.044" font-family="Times,serif" font-size="14.00">0.31</text>
</g>
<!-- Vegetative ramets&#45;&gt;Vegetative ramets -->
<g id="edge5" class="edge"><title>Vegetative ramets&#45;&gt;Vegetative ramets</title>
<path fill="none" stroke="black" d="M308.416,-214.376C310.903,-226.257 316.828,-234.456 326.191,-234.456 332.629,-234.456 337.441,-230.581 340.628,-224.298"/>
<polygon fill="black" stroke="black" points="344.095,-224.97 343.967,-214.376 337.46,-222.737 344.095,-224.97"/>
<text text-anchor="middle" x="326.191" y="-237.256" font-family="Times,serif" font-size="14.00">0.6</text>
</g>
<!-- Flowering ramets -->
<g id="node3" class="node"><title>Flowering ramets</title>
<ellipse fill="none" stroke="black" cx="532.147" cy="-72.2443" rx="72.4893" ry="72.4893"/>
<text text-anchor="middle" x="532.147" y="-68.0443" font-family="Times,serif" font-size="14.00">Flowering ramets</text>
</g>
<!-- Vegetative ramets&#45;&gt;Flowering ramets -->
<g id="edge6" class="edge"><title>Vegetative ramets&#45;&gt;Flowering ramets</title>
<path fill="none" stroke="black" d="M395.673,-119.405C414.384,-112.891 434.787,-105.789 453.948,-99.1184"/>
<polygon fill="black" stroke="black" points="455.246,-102.373 463.539,-95.7795 452.945,-95.7618 455.246,-102.373"/>
<text text-anchor="middle" x="429.653" y="-112.044" font-family="Times,serif" font-size="14.00">0.15</text>
</g>
<!-- Flowering ramets&#45;&gt;Young ramets (&lt; 36 cm) -->
<g id="edge3" class="edge"><title>Flowering ramets&#45;&gt;Young ramets (&lt; 36 cm)</title>
<path fill="none" stroke="black" d="M461.799,-55.6942C405.234,-44.6615 323.449,-34.3435 252.98,-47.2443 233.394,-50.8298 213.076,-56.7558 193.836,-63.5035"/>
<polygon fill="black" stroke="black" points="192.404,-60.2995 184.186,-66.9866 194.78,-66.8837 192.404,-60.2995"/>
<text text-anchor="middle" x="326.191" y="-50.0443" font-family="Times,serif" font-size="14.00">0.08</text>
</g>
<!-- Flowering ramets&#45;&gt;Flowering ramets -->
<g id="edge7" class="edge"><title>Flowering ramets&#45;&gt;Flowering ramets</title>
<path fill="none" stroke="black" d="M514.372,-142.622C516.859,-154.377 522.784,-162.489 532.147,-162.489 538.584,-162.489 543.397,-158.655 546.584,-152.438"/>
<polygon fill="black" stroke="black" points="550.016,-153.216 549.923,-142.622 543.389,-150.962 550.016,-153.216"/>
<text text-anchor="middle" x="532.147" y="-165.289" font-family="Times,serif" font-size="14.00">0.5</text>
</g>
</g>
</svg>
