<?xml version="1.0" encoding="UTF-8" standalone="no"?>
<!DOCTYPE svg PUBLIC "-//W3C//DTD SVG 1.1//EN"
 "http://www.w3.org/Graphics/SVG/1.1/DTD/svg11.dtd">
<!-- Generated by graphviz version 2.38.0 (20140413.2041)
 -->
<!-- Title: G Pages: 1 -->
<svg width="668pt" height="256pt"
 viewBox="0.00 0.00 668.39 256.46" xmlns="http://www.w3.org/2000/svg" xmlns:xlink="http://www.w3.org/1999/xlink">
<g id="graph0" class="graph" transform="scale(1 1) rotate(0) translate(4 252.456)">
<title>G</title>
<polygon fill="white" stroke="none" points="-4,4 -4,-252.456 664.391,-252.456 664.391,4 -4,4"/>
<!-- Young ramets (&lt; 36 cm) -->
<g id="node1" class="node"><title>Young ramets (&lt; 36 cm)</title>
<ellipse fill="none" stroke="black" cx="96.2399" cy="-106.244" rx="96.4805" ry="96.4805"/>
<text text-anchor="middle" x="96.2399" y="-102.044" font-family="Times,serif" font-size="14.00">Young ramets (&lt; 36 cm)</text>
</g>
<!-- Young ramets (&lt; 36 cm)&#45;&gt;Young ramets (&lt; 36 cm) -->
<g id="edge1" class="edge"><title>Young ramets (&lt; 36 cm)&#45;&gt;Young ramets (&lt; 36 cm)</title>
<path fill="none" stroke="black" d="M73.0917,-199.921C77.0395,-212.284 84.7556,-220.484 96.2399,-220.484 104.494,-220.484 110.802,-216.248 115.163,-209.275"/>
<polygon fill="black" stroke="black" points="118.461,-210.475 119.388,-199.921 112.082,-207.593 118.461,-210.475"/>
<text text-anchor="middle" x="96.2399" y="-223.284" font-family="Times,serif" font-size="14.00">0.305556</text>
</g>
<!-- Vegetative ramets -->
<g id="node2" class="node"><title>Vegetative ramets</title>
<ellipse fill="none" stroke="black" cx="354.191" cy="-143.244" rx="73.4236" ry="73.4236"/>
<text text-anchor="middle" x="354.191" y="-139.044" font-family="Times,serif" font-size="14.00">Vegetative ramets</text>
</g>
<!-- Young ramets (&lt; 36 cm)&#45;&gt;Vegetative ramets -->
<g id="edge4" class="edge"><title>Young ramets (&lt; 36 cm)&#45;&gt;Vegetative ramets</title>
<path fill="none" stroke="black" d="M191.82,-119.917C217.969,-123.697 246.118,-127.766 271.469,-131.431"/>
<polygon fill="black" stroke="black" points="271.007,-134.9 281.405,-132.867 272.009,-127.972 271.007,-134.9"/>
<text text-anchor="middle" x="236.73" y="-132.044" font-family="Times,serif" font-size="14.00">0.888889</text>
</g>
<!-- Vegetative ramets&#45;&gt;Young ramets (&lt; 36 cm) -->
<g id="edge2" class="edge"><title>Vegetative ramets&#45;&gt;Young ramets (&lt; 36 cm)</title>
<path fill="none" stroke="black" d="M287.038,-113.639C279.06,-111.031 270.924,-108.796 262.98,-107.244 243.652,-103.47 222.813,-101.642 202.653,-100.99"/>
<polygon fill="black" stroke="black" points="202.581,-97.487 192.503,-100.756 202.42,-104.485 202.581,-97.487"/>
<text text-anchor="middle" x="236.73" y="-110.044" font-family="Times,serif" font-size="14.00">0.19697</text>
</g>
<!-- Vegetative ramets&#45;&gt;Vegetative ramets -->
<g id="edge5" class="edge"><title>Vegetative ramets&#45;&gt;Vegetative ramets</title>
<path fill="none" stroke="black" d="M333.801,-213.613C336.52,-225.905 343.316,-234.456 354.191,-234.456 361.838,-234.456 367.468,-230.228 371.082,-223.445"/>
<polygon fill="black" stroke="black" points="374.526,-224.207 374.582,-213.613 367.931,-221.86 374.526,-224.207"/>
<text text-anchor="middle" x="354.191" y="-237.256" font-family="Times,serif" font-size="14.00">0.621212</text>
</g>
<!-- Flowering ramets -->
<g id="node3" class="node"><title>Flowering ramets</title>
<ellipse fill="none" stroke="black" cx="588.147" cy="-72.2443" rx="72.4893" ry="72.4893"/>
<text text-anchor="middle" x="588.147" y="-68.0443" font-family="Times,serif" font-size="14.00">Flowering ramets</text>
</g>
<!-- Vegetative ramets&#45;&gt;Flowering ramets -->
<g id="edge6" class="edge"><title>Vegetative ramets&#45;&gt;Flowering ramets</title>
<path fill="none" stroke="black" d="M424.472,-122.038C450.985,-113.923 481.407,-104.611 508.716,-96.2515"/>
<polygon fill="black" stroke="black" points="510.086,-99.4926 518.623,-93.2189 508.037,-92.7991 510.086,-99.4926"/>
<text text-anchor="middle" x="471.653" y="-116.044" font-family="Times,serif" font-size="14.00">0.166667</text>
</g>
<!-- Flowering ramets&#45;&gt;Young ramets (&lt; 36 cm) -->
<g id="edge3" class="edge"><title>Flowering ramets&#45;&gt;Young ramets (&lt; 36 cm)</title>
<path fill="none" stroke="black" d="M517.186,-57.1735C454.904,-45.9775 361.462,-34.6396 280.98,-47.2443 252.703,-51.6728 222.838,-59.7158 195.593,-68.4678"/>
<polygon fill="black" stroke="black" points="194.485,-65.1477 186.072,-71.5882 196.665,-71.7995 194.485,-65.1477"/>
<text text-anchor="middle" x="354.191" y="-50.0443" font-family="Times,serif" font-size="14.00">0.076923</text>
</g>
<!-- Flowering ramets&#45;&gt;Flowering ramets -->
<g id="edge7" class="edge"><title>Flowering ramets&#45;&gt;Flowering ramets</title>
<path fill="none" stroke="black" d="M567.757,-141.866C570.475,-154.028 577.272,-162.489 588.147,-162.489 595.794,-162.489 601.424,-158.306 605.038,-151.595"/>
<polygon fill="black" stroke="black" points="608.446,-152.461 608.538,-141.866 601.859,-150.091 608.446,-152.461"/>
<text text-anchor="middle" x="588.147" y="-165.289" font-family="Times,serif" font-size="14.00">0.384615</text>
</g>
</g>
</svg>
