<?xml version="1.0" encoding="UTF-8" standalone="no"?>
<!DOCTYPE svg PUBLIC "-//W3C//DTD SVG 1.1//EN"
 "http://www.w3.org/Graphics/SVG/1.1/DTD/svg11.dtd">
<!-- Generated by graphviz version 2.38.0 (20140413.2041)
 -->
<!-- Title: G Pages: 1 -->
<svg width="2041pt" height="6385pt"
 viewBox="0.00 0.00 2040.84 6384.97" xmlns="http://www.w3.org/2000/svg" xmlns:xlink="http://www.w3.org/1999/xlink">
<g id="graph0" class="graph" transform="scale(1 1) rotate(0) translate(4 6380.97)">
<title>G</title>
<polygon fill="white" stroke="none" points="-4,4 -4,-6380.97 2036.84,-6380.97 2036.84,4 -4,4"/>
<!-- 1 year old, ventral tillers, small (_ 3 green leaves) -->
<g id="node1" class="node"><title>1 year old, ventral tillers, small (_ 3 green leaves)</title>
<ellipse fill="none" stroke="black" cx="196.933" cy="-1245.28" rx="193.866" ry="193.866"/>
<text text-anchor="middle" x="196.933" y="-1241.58" font-family="Times,serif" font-size="14.00">1 year old, ventral tillers, small (_ 3 green leaves)</text>
</g>
<!-- 2 years old, ventral tillers, small (_ 3 green leaves) -->
<g id="node5" class="node"><title>2 years old, ventral tillers, small (_ 3 green leaves)</title>
<ellipse fill="none" stroke="black" cx="653.798" cy="-839.283" rx="196.865" ry="196.865"/>
<text text-anchor="middle" x="653.798" y="-835.583" font-family="Times,serif" font-size="14.00">2 years old, ventral tillers, small (_ 3 green leaves)</text>
</g>
<!-- 1 year old, ventral tillers, small (_ 3 green leaves)&#45;&gt;2 years old, ventral tillers, small (_ 3 green leaves) -->
<g id="edge1" class="edge"><title>1 year old, ventral tillers, small (_ 3 green leaves)&#45;&gt;2 years old, ventral tillers, small (_ 3 green leaves)</title>
<path fill="none" stroke="black" d="M342.167,-1116.54C391.915,-1072.14 447.823,-1022.24 498.354,-977.135"/>
<polygon fill="black" stroke="black" points="500.962,-979.498 506.092,-970.228 496.301,-974.276 500.962,-979.498"/>
<text text-anchor="middle" x="425.365" y="-1046.08" font-family="Times,serif" font-size="14.00">0.5</text>
</g>
<!-- 2 years old, ventral tillers, large (&gt; 3 green leaves) -->
<g id="node6" class="node"><title>2 years old, ventral tillers, large (&gt; 3 green leaves)</title>
<ellipse fill="none" stroke="black" cx="653.798" cy="-1250.28" rx="196.065" ry="196.065"/>
<text text-anchor="middle" x="653.798" y="-1246.58" font-family="Times,serif" font-size="14.00">2 years old, ventral tillers, large (&gt; 3 green leaves)</text>
</g>
<!-- 1 year old, ventral tillers, small (_ 3 green leaves)&#45;&gt;2 years old, ventral tillers, large (&gt; 3 green leaves) -->
<g id="edge3" class="edge"><title>1 year old, ventral tillers, small (_ 3 green leaves)&#45;&gt;2 years old, ventral tillers, large (&gt; 3 green leaves)</title>
<path fill="none" stroke="black" d="M390.836,-1247.4C409.514,-1247.61 428.509,-1247.82 447.303,-1248.02"/>
<polygon fill="black" stroke="black" points="447.376,-1251.52 457.414,-1248.13 447.453,-1244.53 447.376,-1251.52"/>
<text text-anchor="middle" x="425.365" y="-1252.08" font-family="Times,serif" font-size="14.00">0.5</text>
</g>
<!-- 1 year old, ventral tillers, large (&gt; 3 green leaves) -->
<g id="node2" class="node"><title>1 year old, ventral tillers, large (&gt; 3 green leaves)</title>
<ellipse fill="none" stroke="black" cx="196.933" cy="-841.283" rx="192.266" ry="192.266"/>
<text text-anchor="middle" x="196.933" y="-837.583" font-family="Times,serif" font-size="14.00">1 year old, ventral tillers, large (&gt; 3 green leaves)</text>
</g>
<!-- 1 year old, ventral tillers, large (&gt; 3 green leaves)&#45;&gt;2 years old, ventral tillers, small (_ 3 green leaves) -->
<g id="edge2" class="edge"><title>1 year old, ventral tillers, large (&gt; 3 green leaves)&#45;&gt;2 years old, ventral tillers, small (_ 3 green leaves)</title>
<path fill="none" stroke="black" d="M389.518,-840.44C408.349,-840.357 427.517,-840.273 446.487,-840.19"/>
<polygon fill="black" stroke="black" points="446.708,-843.689 456.693,-840.145 446.678,-836.689 446.708,-843.689"/>
<text text-anchor="middle" x="425.365" y="-844.083" font-family="Times,serif" font-size="14.00">0.15</text>
</g>
<!-- 1 year old, ventral tillers, large (&gt; 3 green leaves)&#45;&gt;2 years old, ventral tillers, large (&gt; 3 green leaves) -->
<g id="edge4" class="edge"><title>1 year old, ventral tillers, large (&gt; 3 green leaves)&#45;&gt;2 years old, ventral tillers, large (&gt; 3 green leaves)</title>
<path fill="none" stroke="black" d="M361.57,-940.816C389.313,-961.974 416.376,-985.725 438.865,-1011.28 450.16,-1024.12 446.863,-1031.42 456.865,-1045.28 471.676,-1065.82 488.444,-1086.38 505.785,-1106.12"/>
<polygon fill="black" stroke="black" points="503.203,-1108.48 512.456,-1113.64 508.441,-1103.84 503.203,-1108.48"/>
<text text-anchor="middle" x="425.365" y="-1016.08" font-family="Times,serif" font-size="14.00">0.85</text>
</g>
<!-- 1 year old, dorsal tillers, small (_ 3 green leaves) -->
<g id="node3" class="node"><title>1 year old, dorsal tillers, small (_ 3 green leaves)</title>
<ellipse fill="none" stroke="black" cx="196.933" cy="-2927.28" rx="191.166" ry="191.166"/>
<text text-anchor="middle" x="196.933" y="-2923.58" font-family="Times,serif" font-size="14.00">1 year old, dorsal tillers, small (_ 3 green leaves)</text>
</g>
<!-- 2 years old, dorsal tillers, small (_ 3 green leaves) -->
<g id="node7" class="node"><title>2 years old, dorsal tillers, small (_ 3 green leaves)</title>
<ellipse fill="none" stroke="black" cx="653.798" cy="-2927.28" rx="194.166" ry="194.166"/>
<text text-anchor="middle" x="653.798" y="-2923.58" font-family="Times,serif" font-size="14.00">2 years old, dorsal tillers, small (_ 3 green leaves)</text>
</g>
<!-- 1 year old, dorsal tillers, small (_ 3 green leaves)&#45;&gt;2 years old, dorsal tillers, small (_ 3 green leaves) -->
<g id="edge5" class="edge"><title>1 year old, dorsal tillers, small (_ 3 green leaves)&#45;&gt;2 years old, dorsal tillers, small (_ 3 green leaves)</title>
<path fill="none" stroke="black" d="M388.201,-2927.28C408.298,-2927.28 428.793,-2927.28 449.035,-2927.28"/>
<polygon fill="black" stroke="black" points="449.27,-2930.78 459.27,-2927.28 449.27,-2923.78 449.27,-2930.78"/>
<text text-anchor="middle" x="425.365" y="-2931.08" font-family="Times,serif" font-size="14.00">0.5</text>
</g>
<!-- 2 years old, dorsal tillers, large (&gt; 3 green leaves) -->
<g id="node8" class="node"><title>2 years old, dorsal tillers, large (&gt; 3 green leaves)</title>
<ellipse fill="none" stroke="black" cx="653.798" cy="-2521.28" rx="193.866" ry="193.866"/>
<text text-anchor="middle" x="653.798" y="-2517.58" font-family="Times,serif" font-size="14.00">2 years old, dorsal tillers, large (&gt; 3 green leaves)</text>
</g>
<!-- 1 year old, dorsal tillers, small (_ 3 green leaves)&#45;&gt;2 years old, dorsal tillers, large (&gt; 3 green leaves) -->
<g id="edge7" class="edge"><title>1 year old, dorsal tillers, small (_ 3 green leaves)&#45;&gt;2 years old, dorsal tillers, large (&gt; 3 green leaves)</title>
<path fill="none" stroke="black" d="M359.465,-2826.58C387.726,-2805.02 415.514,-2780.94 438.865,-2755.28 449.589,-2743.5 447.263,-2737 456.865,-2724.28 472.309,-2703.83 489.624,-2683.27 507.399,-2663.48"/>
<polygon fill="black" stroke="black" points="510.112,-2665.7 514.232,-2655.94 504.924,-2661 510.112,-2665.7"/>
<text text-anchor="middle" x="425.365" y="-2781.08" font-family="Times,serif" font-size="14.00">0.25</text>
</g>
<!-- Flowering, dorsal tillers -->
<g id="node25" class="node"><title>Flowering, dorsal tillers</title>
<ellipse fill="none" stroke="black" cx="1110.66" cy="-2359.28" rx="100.983" ry="100.983"/>
<text text-anchor="middle" x="1110.66" y="-2355.58" font-family="Times,serif" font-size="14.00">Flowering, dorsal tillers</text>
</g>
<!-- 1 year old, dorsal tillers, small (_ 3 green leaves)&#45;&gt;Flowering, dorsal tillers -->
<g id="edge20" class="edge"><title>1 year old, dorsal tillers, small (_ 3 green leaves)&#45;&gt;Flowering, dorsal tillers</title>
<path fill="none" stroke="black" d="M333.847,-3060.74C370.889,-3089.16 412.995,-3115.14 456.865,-3130.28 622.331,-3187.41 708.606,-3232.48 850.73,-3130.28 960.173,-3051.59 1050.4,-2661.41 1089.19,-2468.14"/>
<polygon fill="black" stroke="black" points="1092.64,-2468.74 1091.17,-2458.24 1085.78,-2467.36 1092.64,-2468.74"/>
<text text-anchor="middle" x="653.798" y="-3194.08" font-family="Times,serif" font-size="14.00">0.25</text>
</g>
<!-- 1 year old, dorsal tillers, large (&gt; 3 green leaves) -->
<g id="node4" class="node"><title>1 year old, dorsal tillers, large (&gt; 3 green leaves)</title>
<ellipse fill="none" stroke="black" cx="196.933" cy="-2521.28" rx="190.366" ry="190.366"/>
<text text-anchor="middle" x="196.933" y="-2517.58" font-family="Times,serif" font-size="14.00">1 year old, dorsal tillers, large (&gt; 3 green leaves)</text>
</g>
<!-- 1 year old, dorsal tillers, large (&gt; 3 green leaves)&#45;&gt;2 years old, dorsal tillers, small (_ 3 green leaves) -->
<g id="edge6" class="edge"><title>1 year old, dorsal tillers, large (&gt; 3 green leaves)&#45;&gt;2 years old, dorsal tillers, small (_ 3 green leaves)</title>
<path fill="none" stroke="black" d="M339.672,-2647.8C390.741,-2693.38 448.562,-2744.99 500.495,-2791.34"/>
<polygon fill="black" stroke="black" points="498.322,-2794.09 508.113,-2798.14 502.983,-2788.87 498.322,-2794.09"/>
<text text-anchor="middle" x="425.365" y="-2740.08" font-family="Times,serif" font-size="14.00">0.14</text>
</g>
<!-- 1 year old, dorsal tillers, large (&gt; 3 green leaves)&#45;&gt;2 years old, dorsal tillers, large (&gt; 3 green leaves) -->
<g id="edge8" class="edge"><title>1 year old, dorsal tillers, large (&gt; 3 green leaves)&#45;&gt;2 years old, dorsal tillers, large (&gt; 3 green leaves)</title>
<path fill="none" stroke="black" d="M387.543,-2521.28C408.072,-2521.28 429.025,-2521.28 449.707,-2521.28"/>
<polygon fill="black" stroke="black" points="449.835,-2524.78 459.835,-2521.28 449.835,-2517.78 449.835,-2524.78"/>
<text text-anchor="middle" x="425.365" y="-2525.08" font-family="Times,serif" font-size="14.00">0.14</text>
</g>
<!-- 1 year old, dorsal tillers, large (&gt; 3 green leaves)&#45;&gt;Flowering, dorsal tillers -->
<g id="edge21" class="edge"><title>1 year old, dorsal tillers, large (&gt; 3 green leaves)&#45;&gt;Flowering, dorsal tillers</title>
<path fill="none" stroke="black" d="M327.375,-2382.34C365.633,-2350.19 409.942,-2320.41 456.865,-2303.28 641.254,-2236 873.663,-2284.86 1005.58,-2323.87"/>
<polygon fill="black" stroke="black" points="1004.71,-2327.26 1015.29,-2326.77 1006.72,-2320.55 1004.71,-2327.26"/>
<text text-anchor="middle" x="653.798" y="-2307.08" font-family="Times,serif" font-size="14.00">0.71</text>
</g>
<!-- 3 years old, ventral tillers, small (_ 3 green leaves) -->
<g id="node9" class="node"><title>3 years old, ventral tillers, small (_ 3 green leaves)</title>
<ellipse fill="none" stroke="black" cx="1110.66" cy="-839.283" rx="196.865" ry="196.865"/>
<text text-anchor="middle" x="1110.66" y="-835.583" font-family="Times,serif" font-size="14.00">3 years old, ventral tillers, small (_ 3 green leaves)</text>
</g>
<!-- 2 years old, ventral tillers, small (_ 3 green leaves)&#45;&gt;3 years old, ventral tillers, small (_ 3 green leaves) -->
<g id="edge9" class="edge"><title>2 years old, ventral tillers, small (_ 3 green leaves)&#45;&gt;3 years old, ventral tillers, small (_ 3 green leaves)</title>
<path fill="none" stroke="black" d="M851.002,-839.283C868.288,-839.283 885.819,-839.283 903.186,-839.283"/>
<polygon fill="black" stroke="black" points="903.389,-842.783 913.389,-839.283 903.389,-835.783 903.389,-842.783"/>
<text text-anchor="middle" x="882.23" y="-843.083" font-family="Times,serif" font-size="14.00">0.25</text>
</g>
<!-- 2 years old, ventral tillers, large (&gt; 3 green leaves)&#45;&gt;3 years old, ventral tillers, small (_ 3 green leaves) -->
<g id="edge10" class="edge"><title>2 years old, ventral tillers, large (&gt; 3 green leaves)&#45;&gt;3 years old, ventral tillers, small (_ 3 green leaves)</title>
<path fill="none" stroke="black" d="M799.97,-1119.11C849.802,-1074.08 905.723,-1023.56 956.191,-977.954"/>
<polygon fill="black" stroke="black" points="958.845,-980.273 963.919,-970.972 954.152,-975.079 958.845,-980.273"/>
<text text-anchor="middle" x="882.23" y="-1049.08" font-family="Times,serif" font-size="14.00">0.21</text>
</g>
<!-- 3 years old, ventral tillers, large (&gt; 3 green leaves) -->
<g id="node10" class="node"><title>3 years old, ventral tillers, large (&gt; 3 green leaves)</title>
<ellipse fill="none" stroke="black" cx="1110.66" cy="-1250.28" rx="196.065" ry="196.065"/>
<text text-anchor="middle" x="1110.66" y="-1246.58" font-family="Times,serif" font-size="14.00">3 years old, ventral tillers, large (&gt; 3 green leaves)</text>
</g>
<!-- 2 years old, ventral tillers, large (&gt; 3 green leaves)&#45;&gt;3 years old, ventral tillers, large (&gt; 3 green leaves) -->
<g id="edge11" class="edge"><title>2 years old, ventral tillers, large (&gt; 3 green leaves)&#45;&gt;3 years old, ventral tillers, large (&gt; 3 green leaves)</title>
<path fill="none" stroke="black" d="M850.341,-1250.28C868.054,-1250.28 886.03,-1250.28 903.829,-1250.28"/>
<polygon fill="black" stroke="black" points="904.284,-1253.78 914.284,-1250.28 904.284,-1246.78 904.284,-1253.78"/>
<text text-anchor="middle" x="882.23" y="-1254.08" font-family="Times,serif" font-size="14.00">0.29</text>
</g>
<!-- Flowering, ventral tillers -->
<g id="node24" class="node"><title>Flowering, ventral tillers</title>
<ellipse fill="none" stroke="black" cx="1930.15" cy="-905.283" rx="102.882" ry="102.882"/>
<text text-anchor="middle" x="1930.15" y="-901.583" font-family="Times,serif" font-size="14.00">Flowering, ventral tillers</text>
</g>
<!-- 2 years old, ventral tillers, large (&gt; 3 green leaves)&#45;&gt;Flowering, ventral tillers -->
<g id="edge14" class="edge"><title>2 years old, ventral tillers, large (&gt; 3 green leaves)&#45;&gt;Flowering, ventral tillers</title>
<path fill="none" stroke="black" d="M794.311,-1387.94C830.434,-1415.5 871.22,-1440.49 913.73,-1455.28 1273.1,-1580.32 1465.2,-1594.29 1764.46,-1359.28 1868.59,-1277.51 1906.92,-1123.88 1921.01,-1018.16"/>
<polygon fill="black" stroke="black" points="1924.5,-1018.44 1922.29,-1008.08 1917.55,-1017.55 1924.5,-1018.44"/>
<text text-anchor="middle" x="1339.1" y="-1548.08" font-family="Times,serif" font-size="14.00">0.5</text>
</g>
<!-- 2 years old, dorsal tillers, small (_ 3 green leaves)&#45;&gt;Flowering, dorsal tillers -->
<g id="edge22" class="edge"><title>2 years old, dorsal tillers, small (_ 3 green leaves)&#45;&gt;Flowering, dorsal tillers</title>
<path fill="none" stroke="black" d="M792.052,-2790.62C812.276,-2768.92 832.439,-2746.34 850.73,-2724.28 924.153,-2635.74 999.25,-2527.54 1049.53,-2452.03"/>
<polygon fill="black" stroke="black" points="1052.61,-2453.71 1055.23,-2443.45 1046.78,-2449.84 1052.61,-2453.71"/>
<text text-anchor="middle" x="882.23" y="-2699.08" font-family="Times,serif" font-size="14.00">1.0</text>
</g>
<!-- 2 years old, dorsal tillers, large (&gt; 3 green leaves)&#45;&gt;Flowering, dorsal tillers -->
<g id="edge23" class="edge"><title>2 years old, dorsal tillers, large (&gt; 3 green leaves)&#45;&gt;Flowering, dorsal tillers</title>
<path fill="none" stroke="black" d="M836.533,-2456.56C894.187,-2436.02 955.927,-2414.04 1006.1,-2396.17"/>
<polygon fill="black" stroke="black" points="1007.4,-2399.42 1015.65,-2392.77 1005.05,-2392.82 1007.4,-2399.42"/>
<text text-anchor="middle" x="882.23" y="-2444.08" font-family="Times,serif" font-size="14.00">1.0</text>
</g>
<!-- 4 years old, ventral tillers, small (_ 3 green leaves) -->
<g id="node13" class="node"><title>4 years old, ventral tillers, small (_ 3 green leaves)</title>
<ellipse fill="none" stroke="black" cx="1567.53" cy="-1069.28" rx="196.865" ry="196.865"/>
<text text-anchor="middle" x="1567.53" y="-1065.58" font-family="Times,serif" font-size="14.00">4 years old, ventral tillers, small (_ 3 green leaves)</text>
</g>
<!-- 3 years old, ventral tillers, small (_ 3 green leaves)&#45;&gt;4 years old, ventral tillers, small (_ 3 green leaves) -->
<g id="edge12" class="edge"><title>3 years old, ventral tillers, small (_ 3 green leaves)&#45;&gt;4 years old, ventral tillers, small (_ 3 green leaves)</title>
<path fill="none" stroke="black" d="M1286.87,-927.878C1318.08,-943.657 1350.67,-960.137 1382.13,-976.041"/>
<polygon fill="black" stroke="black" points="1380.9,-979.344 1391.41,-980.733 1384.06,-973.097 1380.9,-979.344"/>
<text text-anchor="middle" x="1339.1" y="-965.083" font-family="Times,serif" font-size="14.00">0.33</text>
</g>
<!-- 3 years old, ventral tillers, small (_ 3 green leaves)&#45;&gt;Flowering, ventral tillers -->
<g id="edge15" class="edge"><title>3 years old, ventral tillers, small (_ 3 green leaves)&#45;&gt;Flowering, ventral tillers</title>
<path fill="none" stroke="black" d="M1307.42,-825.821C1437.88,-820.796 1612.63,-821.673 1764.46,-848.283 1784.44,-851.784 1805.24,-857.359 1825.08,-863.683"/>
<polygon fill="black" stroke="black" points="1824.13,-867.057 1834.73,-866.841 1826.31,-860.404 1824.13,-867.057"/>
<text text-anchor="middle" x="1567.53" y="-852.083" font-family="Times,serif" font-size="14.00">0.33</text>
</g>
<!-- 3 years old, ventral tillers, large (&gt; 3 green leaves)&#45;&gt;4 years old, ventral tillers, small (_ 3 green leaves) -->
<g id="edge13" class="edge"><title>3 years old, ventral tillers, large (&gt; 3 green leaves)&#45;&gt;4 years old, ventral tillers, small (_ 3 green leaves)</title>
<path fill="none" stroke="black" d="M1293.4,-1177.97C1320.18,-1167.31 1347.85,-1156.3 1374.83,-1145.56"/>
<polygon fill="black" stroke="black" points="1376.34,-1148.73 1384.34,-1141.78 1373.75,-1142.22 1376.34,-1148.73"/>
<text text-anchor="middle" x="1339.1" y="-1164.08" font-family="Times,serif" font-size="14.00">0.17</text>
</g>
<!-- 3 years old, ventral tillers, large (&gt; 3 green leaves)&#45;&gt;Flowering, ventral tillers -->
<g id="edge16" class="edge"><title>3 years old, ventral tillers, large (&gt; 3 green leaves)&#45;&gt;Flowering, ventral tillers</title>
<path fill="none" stroke="black" d="M1297.44,-1311.27C1437.08,-1345.11 1627.14,-1364.47 1764.46,-1275.28 1851.76,-1218.59 1893.16,-1103.72 1912.56,-1016.93"/>
<polygon fill="black" stroke="black" points="1916.01,-1017.54 1914.71,-1007.03 1909.17,-1016.06 1916.01,-1017.54"/>
<text text-anchor="middle" x="1567.53" y="-1344.08" font-family="Times,serif" font-size="14.00">0.75</text>
</g>
<!-- 3 years old, dorsal tillers, small (_ 3 green leaves) -->
<g id="node11" class="node"><title>3 years old, dorsal tillers, small (_ 3 green leaves)</title>
<ellipse fill="none" stroke="black" cx="653.798" cy="-2064.28" rx="194.166" ry="194.166"/>
<text text-anchor="middle" x="653.798" y="-2060.58" font-family="Times,serif" font-size="14.00">3 years old, dorsal tillers, small (_ 3 green leaves)</text>
</g>
<!-- 3 years old, dorsal tillers, small (_ 3 green leaves)&#45;&gt;Flowering, dorsal tillers -->
<g id="edge24" class="edge"><title>3 years old, dorsal tillers, small (_ 3 green leaves)&#45;&gt;Flowering, dorsal tillers</title>
<path fill="none" stroke="black" d="M817.409,-2169.74C884.481,-2213.24 959.76,-2262.06 1017.12,-2299.26"/>
<polygon fill="black" stroke="black" points="1015.51,-2302.39 1025.81,-2304.9 1019.32,-2296.52 1015.51,-2302.39"/>
<text text-anchor="middle" x="882.23" y="-2215.08" font-family="Times,serif" font-size="14.00">0.71</text>
</g>
<!-- 3 years old, dorsal tillers, large (&gt; 3 green leaves) -->
<g id="node12" class="node"><title>3 years old, dorsal tillers, large (&gt; 3 green leaves)</title>
<ellipse fill="none" stroke="black" cx="653.798" cy="-1658.28" rx="193.866" ry="193.866"/>
<text text-anchor="middle" x="653.798" y="-1654.58" font-family="Times,serif" font-size="14.00">3 years old, dorsal tillers, large (&gt; 3 green leaves)</text>
</g>
<!-- 3 years old, dorsal tillers, large (&gt; 3 green leaves)&#45;&gt;Flowering, dorsal tillers -->
<g id="edge25" class="edge"><title>3 years old, dorsal tillers, large (&gt; 3 green leaves)&#45;&gt;Flowering, dorsal tillers</title>
<path fill="none" stroke="black" d="M794.071,-1791.95C814.185,-1814.2 833.783,-1837.72 850.73,-1861.28 942.423,-1988.75 1021.27,-2153.06 1067.12,-2257.32"/>
<polygon fill="black" stroke="black" points="1063.96,-2258.84 1071.18,-2266.6 1070.38,-2256.03 1063.96,-2258.84"/>
<text text-anchor="middle" x="882.23" y="-1928.08" font-family="Times,serif" font-size="14.00">1.0</text>
</g>
<!-- 4 years old, ventral tillers, small (_ 3 green leaves)&#45;&gt;Flowering, ventral tillers -->
<g id="edge17" class="edge"><title>4 years old, ventral tillers, small (_ 3 green leaves)&#45;&gt;Flowering, ventral tillers</title>
<path fill="none" stroke="black" d="M1746.99,-988.123C1774.46,-975.63 1801.99,-963.11 1827.03,-951.724"/>
<polygon fill="black" stroke="black" points="1828.48,-954.909 1836.14,-947.583 1825.58,-948.537 1828.48,-954.909"/>
<text text-anchor="middle" x="1795.96" y="-972.083" font-family="Times,serif" font-size="14.00">0.25</text>
</g>
<!-- 4 years old, ventral tillers, large (&gt; 3 green leaves) -->
<g id="node14" class="node"><title>4 years old, ventral tillers, large (&gt; 3 green leaves)</title>
<ellipse fill="none" stroke="black" cx="1567.53" cy="-607.283" rx="196.065" ry="196.065"/>
<text text-anchor="middle" x="1567.53" y="-603.583" font-family="Times,serif" font-size="14.00">4 years old, ventral tillers, large (&gt; 3 green leaves)</text>
</g>
<!-- 4 years old, ventral tillers, large (&gt; 3 green leaves)&#45;&gt;Flowering, ventral tillers -->
<g id="edge18" class="edge"><title>4 years old, ventral tillers, large (&gt; 3 green leaves)&#45;&gt;Flowering, ventral tillers</title>
<path fill="none" stroke="black" d="M1719.37,-731.935C1761.36,-766.629 1805.53,-803.133 1842.46,-833.646"/>
<polygon fill="black" stroke="black" points="1840.29,-836.392 1850.23,-840.064 1844.75,-830.996 1840.29,-836.392"/>
<text text-anchor="middle" x="1795.96" y="-805.083" font-family="Times,serif" font-size="14.00">0.5</text>
</g>
<!-- 4 years old, dorsal tillers, small (_ 3 green leaves) -->
<g id="node15" class="node"><title>4 years old, dorsal tillers, small (_ 3 green leaves)</title>
<ellipse fill="none" stroke="black" cx="196.933" cy="-3330.28" rx="194.166" ry="194.166"/>
<text text-anchor="middle" x="196.933" y="-3326.58" font-family="Times,serif" font-size="14.00">4 years old, dorsal tillers, small (_ 3 green leaves)</text>
</g>
<!-- 4 years old, dorsal tillers, large (&gt; 3 green leaves) -->
<g id="node16" class="node"><title>4 years old, dorsal tillers, large (&gt; 3 green leaves)</title>
<ellipse fill="none" stroke="black" cx="196.933" cy="-3736.28" rx="193.866" ry="193.866"/>
<text text-anchor="middle" x="196.933" y="-3732.58" font-family="Times,serif" font-size="14.00">4 years old, dorsal tillers, large (&gt; 3 green leaves)</text>
</g>
<!-- 5 years old, ventral tillers, small (_ 3 green leaves) -->
<g id="node17" class="node"><title>5 years old, ventral tillers, small (_ 3 green leaves)</title>
<ellipse fill="none" stroke="black" cx="196.933" cy="-4145.28" rx="196.865" ry="196.865"/>
<text text-anchor="middle" x="196.933" y="-4141.58" font-family="Times,serif" font-size="14.00">5 years old, ventral tillers, small (_ 3 green leaves)</text>
</g>
<!-- 5 years old, ventral tillers, large (&gt; 3 green leaves) -->
<g id="node18" class="node"><title>5 years old, ventral tillers, large (&gt; 3 green leaves)</title>
<ellipse fill="none" stroke="black" cx="1567.53" cy="-196.283" rx="196.065" ry="196.065"/>
<text text-anchor="middle" x="1567.53" y="-192.583" font-family="Times,serif" font-size="14.00">5 years old, ventral tillers, large (&gt; 3 green leaves)</text>
</g>
<!-- 5 years old, ventral tillers, large (&gt; 3 green leaves)&#45;&gt;Flowering, ventral tillers -->
<g id="edge19" class="edge"><title>5 years old, ventral tillers, large (&gt; 3 green leaves)&#45;&gt;Flowering, ventral tillers</title>
<path fill="none" stroke="black" d="M1711.51,-330.085C1731.07,-352.862 1749.53,-377.281 1764.46,-402.283 1838.71,-526.597 1883.95,-688.455 1907.76,-794.534"/>
<polygon fill="black" stroke="black" points="1904.35,-795.299 1909.93,-804.303 1911.18,-793.782 1904.35,-795.299"/>
<text text-anchor="middle" x="1795.96" y="-483.083" font-family="Times,serif" font-size="14.00">0.5</text>
</g>
<!-- 5 years old, dorsal tillers, small (_ 3 green leaves) -->
<g id="node19" class="node"><title>5 years old, dorsal tillers, small (_ 3 green leaves)</title>
<ellipse fill="none" stroke="black" cx="196.933" cy="-4554.28" rx="194.166" ry="194.166"/>
<text text-anchor="middle" x="196.933" y="-4550.58" font-family="Times,serif" font-size="14.00">5 years old, dorsal tillers, small (_ 3 green leaves)</text>
</g>
<!-- 5 years old, dorsal tillers, large (&gt; 3 green leaves) -->
<g id="node20" class="node"><title>5 years old, dorsal tillers, large (&gt; 3 green leaves)</title>
<ellipse fill="none" stroke="black" cx="196.933" cy="-4960.28" rx="193.866" ry="193.866"/>
<text text-anchor="middle" x="196.933" y="-4956.58" font-family="Times,serif" font-size="14.00">5 years old, dorsal tillers, large (&gt; 3 green leaves)</text>
</g>
<!-- 6 years old, ventral tillers, large (&gt; 3 green leaves) -->
<g id="node21" class="node"><title>6 years old, ventral tillers, large (&gt; 3 green leaves)</title>
<ellipse fill="none" stroke="black" cx="196.933" cy="-5368.28" rx="196.065" ry="196.065"/>
<text text-anchor="middle" x="196.933" y="-5364.58" font-family="Times,serif" font-size="14.00">6 years old, ventral tillers, large (&gt; 3 green leaves)</text>
</g>
<!-- 6 years old, dorsal tillers, small (_ 3 green leaves) -->
<g id="node22" class="node"><title>6 years old, dorsal tillers, small (_ 3 green leaves)</title>
<ellipse fill="none" stroke="black" cx="196.933" cy="-5777.28" rx="194.166" ry="194.166"/>
<text text-anchor="middle" x="196.933" y="-5773.58" font-family="Times,serif" font-size="14.00">6 years old, dorsal tillers, small (_ 3 green leaves)</text>
</g>
<!-- 6 years old, dorsal tillers, large (&gt; 3 green leaves) -->
<g id="node23" class="node"><title>6 years old, dorsal tillers, large (&gt; 3 green leaves)</title>
<ellipse fill="none" stroke="black" cx="196.933" cy="-6183.28" rx="193.866" ry="193.866"/>
<text text-anchor="middle" x="196.933" y="-6179.58" font-family="Times,serif" font-size="14.00">6 years old, dorsal tillers, large (&gt; 3 green leaves)</text>
</g>
</g>
</svg>
