<?xml version="1.0" encoding="UTF-8" standalone="no"?>
<!DOCTYPE svg PUBLIC "-//W3C//DTD SVG 1.1//EN"
 "http://www.w3.org/Graphics/SVG/1.1/DTD/svg11.dtd">
<!-- Generated by graphviz version 2.38.0 (20140413.2041)
 -->
<!-- Title: G Pages: 1 -->
<svg width="54pt" height="182pt"
 viewBox="0.00 0.00 53.76 181.76" xmlns="http://www.w3.org/2000/svg" xmlns:xlink="http://www.w3.org/1999/xlink">
<g id="graph0" class="graph" transform="scale(1 1) rotate(0) translate(4 177.76)">
<title>G</title>
<polygon fill="white" stroke="none" points="-4,4 -4,-177.76 49.7595,-177.76 49.7595,4 -4,4"/>
<!-- NA -->
<g id="node1" class="node"><title>NA</title>
<ellipse fill="none" stroke="black" cx="22.8798" cy="-22.8798" rx="22.7601" ry="22.7601"/>
<text text-anchor="middle" x="22.8798" y="-18.6798" font-family="Times,serif" font-size="14.00">NA</text>
</g>
<!-- NA&#45;&gt;NA -->
<g id="edge1" class="edge"><title>NA&#45;&gt;NA</title>
<path fill="none" stroke="black" d="M20.8354,-45.9936C20.6944,-55.6088 21.3758,-63.7595 22.8798,-63.7595 23.7962,-63.7595 24.4072,-60.7329 24.7129,-56.1925"/>
<polygon fill="black" stroke="black" points="28.2162,-56.064 24.9241,-45.9936 21.2177,-55.9189 28.2162,-56.064"/>
<text text-anchor="middle" x="22.8798" y="-66.5595" font-family="Times,serif" font-size="14.00">1.64</text>
</g>
<!-- NA&#45;&gt;NA -->
<g id="edge2" class="edge"><title>NA&#45;&gt;NA</title>
<path fill="none" stroke="black" d="M19.3109,-45.5392C17.9304,-63.4165 19.12,-81.7595 22.8798,-81.7595 25.9052,-81.7595 27.2664,-69.882 26.9634,-55.9273"/>
<polygon fill="black" stroke="black" points="30.4393,-55.3537 26.4486,-45.5392 23.4479,-55.7002 30.4393,-55.3537"/>
<text text-anchor="middle" x="22.8798" y="-84.5595" font-family="Times,serif" font-size="14.00">1.64</text>
</g>
<!-- NA&#45;&gt;NA -->
<g id="edge3" class="edge"><title>NA&#45;&gt;NA</title>
<path fill="none" stroke="black" d="M18.2878,-45.3096C15.1294,-70.6285 16.66,-99.7595 22.8798,-99.7595 28.2734,-99.7595 30.1408,-77.8526 28.482,-55.5221"/>
<polygon fill="black" stroke="black" points="31.9392,-54.9164 27.4717,-45.3096 24.9732,-55.6056 31.9392,-54.9164"/>
<text text-anchor="middle" x="22.8798" y="-102.56" font-family="Times,serif" font-size="14.00">1.64</text>
</g>
<!-- NA&#45;&gt;NA -->
<g id="edge4" class="edge"><title>NA&#45;&gt;NA</title>
<path fill="none" stroke="black" d="M17.5382,-45.2717C12.3336,-77.5931 14.1141,-117.76 22.8798,-117.76 30.7551,-117.76 32.9922,-85.3376 29.5909,-55.3121"/>
<polygon fill="black" stroke="black" points="33.0409,-54.7069 28.2213,-45.2717 26.1051,-55.6531 33.0409,-54.7069"/>
<text text-anchor="middle" x="22.8798" y="-120.56" font-family="Times,serif" font-size="14.00">1.64</text>
</g>
</g>
</svg>
