<?xml version="1.0" encoding="UTF-8" standalone="no"?>
<!DOCTYPE svg PUBLIC "-//W3C//DTD SVG 1.1//EN"
 "http://www.w3.org/Graphics/SVG/1.1/DTD/svg11.dtd">
<!-- Generated by graphviz version 2.38.0 (20140413.2041)
 -->
<!-- Title: G Pages: 1 -->
<svg width="174pt" height="138pt"
 viewBox="0.00 0.00 174.00 138.00" xmlns="http://www.w3.org/2000/svg" xmlns:xlink="http://www.w3.org/1999/xlink">
<g id="graph0" class="graph" transform="scale(1 1) rotate(0) translate(4 134)">
<title>G</title>
<polygon fill="white" stroke="none" points="-4,4 -4,-134 170,-134 170,4 -4,4"/>
<!-- nodey -->
<g id="node1" class="node"><title>nodey</title>
<polygon fill="#c0c0c0" stroke="none" points="9,-95 9,-125 46,-125 46,-95 9,-95"/>
<polygon fill="none" stroke="black" points="9,-95 9,-125 46,-125 46,-95 9,-95"/>
<text text-anchor="start" x="11.75" y="-105.8" font-family="Times,serif" font-size="14.00">0.722</text>
<polygon fill="#ff99cb" stroke="none" points="46,-95 46,-125 83,-125 83,-95 46,-95"/>
<polygon fill="none" stroke="black" points="46,-95 46,-125 83,-125 83,-95 46,-95"/>
<text text-anchor="start" x="48.75" y="-105.8" font-family="Times,serif" font-size="14.00">0.025</text>
<polygon fill="#ff99cb" stroke="none" points="83,-95 83,-125 120,-125 120,-95 83,-95"/>
<polygon fill="none" stroke="black" points="83,-95 83,-125 120,-125 120,-95 83,-95"/>
<text text-anchor="start" x="89.25" y="-105.8" font-family="Times,serif" font-size="14.00">0.35</text>
<polygon fill="#ffffff" stroke="none" points="120,-95 120,-125 157,-125 157,-95 120,-95"/>
<polygon fill="none" stroke="black" points="120,-95 120,-125 157,-125 157,-95 120,-95"/>
<text text-anchor="start" x="129.75" y="-105.8" font-family="Times,serif" font-size="14.00">0.0</text>
<polygon fill="#ccffcc" stroke="none" points="9,-65 9,-95 46,-95 46,-65 9,-65"/>
<polygon fill="none" stroke="black" points="9,-65 9,-95 46,-95 46,-65 9,-65"/>
<text text-anchor="start" x="11.75" y="-75.8" font-family="Times,serif" font-size="14.00">0.167</text>
<polygon fill="#c0c0c0" stroke="none" points="46,-65 46,-95 83,-95 83,-65 46,-65"/>
<polygon fill="none" stroke="black" points="46,-65 46,-95 83,-95 83,-65 46,-65"/>
<text text-anchor="start" x="48.75" y="-75.8" font-family="Times,serif" font-size="14.00">0.575</text>
<polygon fill="#ffcc99" stroke="none" points="83,-65 83,-95 120,-95 120,-65 83,-65"/>
<polygon fill="none" stroke="black" points="83,-65 83,-95 120,-95 120,-65 83,-65"/>
<text text-anchor="start" x="85.75" y="-75.8" font-family="Times,serif" font-size="14.00">0.125</text>
<polygon fill="#ffcc99" stroke="none" points="120,-65 120,-95 157,-95 157,-65 120,-65"/>
<polygon fill="none" stroke="black" points="120,-65 120,-95 157,-95 157,-65 120,-65"/>
<text text-anchor="start" x="122.75" y="-75.8" font-family="Times,serif" font-size="14.00">0.273</text>
<polygon fill="#ffffff" stroke="none" points="9,-35 9,-65 46,-65 46,-35 9,-35"/>
<polygon fill="none" stroke="black" points="9,-35 9,-65 46,-65 46,-35 9,-35"/>
<text text-anchor="start" x="18.75" y="-45.8" font-family="Times,serif" font-size="14.00">0.0</text>
<polygon fill="#ccffcc" stroke="none" points="46,-35 46,-65 83,-65 83,-35 46,-35"/>
<polygon fill="none" stroke="black" points="46,-35 46,-65 83,-65 83,-35 46,-35"/>
<text text-anchor="start" x="52.25" y="-45.8" font-family="Times,serif" font-size="14.00">0.25</text>
<polygon fill="#c0c0c0" stroke="none" points="83,-35 83,-65 120,-65 120,-35 83,-35"/>
<polygon fill="none" stroke="black" points="83,-35 83,-65 120,-65 120,-35 83,-35"/>
<text text-anchor="start" x="85.75" y="-45.8" font-family="Times,serif" font-size="14.00">0.813</text>
<polygon fill="#ffcc99" stroke="none" points="120,-35 120,-65 157,-65 157,-35 120,-35"/>
<polygon fill="none" stroke="black" points="120,-35 120,-65 157,-65 157,-35 120,-35"/>
<text text-anchor="start" x="122.75" y="-45.8" font-family="Times,serif" font-size="14.00">0.364</text>
<polygon fill="#ffffff" stroke="none" points="9,-5 9,-35 46,-35 46,-5 9,-5"/>
<polygon fill="none" stroke="black" points="9,-5 9,-35 46,-35 46,-5 9,-5"/>
<text text-anchor="start" x="18.75" y="-15.8" font-family="Times,serif" font-size="14.00">0.0</text>
<polygon fill="#ccffcc" stroke="none" points="46,-5 46,-35 83,-35 83,-5 46,-5"/>
<polygon fill="none" stroke="black" points="46,-5 46,-35 83,-35 83,-5 46,-5"/>
<text text-anchor="start" x="48.75" y="-15.8" font-family="Times,serif" font-size="14.00">0.075</text>
<polygon fill="#ccffcc" stroke="none" points="83,-5 83,-35 120,-35 120,-5 83,-5"/>
<polygon fill="none" stroke="black" points="83,-5 83,-35 120,-35 120,-5 83,-5"/>
<text text-anchor="start" x="85.75" y="-15.8" font-family="Times,serif" font-size="14.00">0.063</text>
<polygon fill="#c0c0c0" stroke="none" points="120,-5 120,-35 157,-35 157,-5 120,-5"/>
<polygon fill="none" stroke="black" points="120,-5 120,-35 157,-35 157,-5 120,-5"/>
<text text-anchor="start" x="122.75" y="-15.8" font-family="Times,serif" font-size="14.00">0.182</text>
<polygon fill="none" stroke="black" points="8,-4 8,-126 158,-126 158,-4 8,-4"/>
</g>
</g>
</svg>
