<?xml version="1.0" encoding="UTF-8" standalone="no"?>
<!DOCTYPE svg PUBLIC "-//W3C//DTD SVG 1.1//EN"
 "http://www.w3.org/Graphics/SVG/1.1/DTD/svg11.dtd">
<!-- Generated by graphviz version 2.38.0 (20140413.2041)
 -->
<!-- Title: G Pages: 1 -->
<svg width="137pt" height="108pt"
 viewBox="0.00 0.00 137.00 108.00" xmlns="http://www.w3.org/2000/svg" xmlns:xlink="http://www.w3.org/1999/xlink">
<g id="graph0" class="graph" transform="scale(1 1) rotate(0) translate(4 104)">
<title>G</title>
<polygon fill="white" stroke="none" points="-4,4 -4,-104 133,-104 133,4 -4,4"/>
<!-- nodey -->
<g id="node1" class="node"><title>nodey</title>
<polygon fill="#c0c0c0" stroke="none" points="9.5,-65 9.5,-95 46.5,-95 46.5,-65 9.5,-65"/>
<polygon fill="none" stroke="black" points="9.5,-65 9.5,-95 46.5,-95 46.5,-65 9.5,-65"/>
<text text-anchor="start" x="12.25" y="-75.8" font-family="Times,serif" font-size="14.00">0.663</text>
<polygon fill="#ff99cb" stroke="none" points="46.5,-65 46.5,-95 83.5,-95 83.5,-65 46.5,-65"/>
<polygon fill="none" stroke="black" points="46.5,-65 46.5,-95 83.5,-95 83.5,-65 46.5,-65"/>
<text text-anchor="start" x="49.25" y="-75.8" font-family="Times,serif" font-size="14.00">0.171</text>
<polygon fill="#ff99cb" stroke="none" points="83.5,-65 83.5,-95 120.5,-95 120.5,-65 83.5,-65"/>
<polygon fill="none" stroke="black" points="83.5,-65 83.5,-95 120.5,-95 120.5,-65 83.5,-65"/>
<text text-anchor="start" x="86.25" y="-75.8" font-family="Times,serif" font-size="14.00">0.173</text>
<polygon fill="#ffffff" stroke="none" points="9.5,-35 9.5,-65 46.5,-65 46.5,-35 9.5,-35"/>
<polygon fill="none" stroke="black" points="9.5,-35 9.5,-65 46.5,-65 46.5,-35 9.5,-35"/>
<text text-anchor="start" x="12.25" y="-45.8" font-family="Times,serif" font-size="14.00">0.381</text>
<polygon fill="#c0c0c0" stroke="none" points="46.5,-35 46.5,-65 83.5,-65 83.5,-35 46.5,-35"/>
<polygon fill="none" stroke="black" points="46.5,-35 46.5,-65 83.5,-65 83.5,-35 46.5,-35"/>
<text text-anchor="start" x="49.25" y="-45.8" font-family="Times,serif" font-size="14.00">0.917</text>
<polygon fill="#ffffff" stroke="none" points="83.5,-35 83.5,-65 120.5,-65 120.5,-35 83.5,-35"/>
<polygon fill="none" stroke="black" points="83.5,-35 83.5,-65 120.5,-65 120.5,-35 83.5,-35"/>
<text text-anchor="start" x="86.25" y="-45.8" font-family="Times,serif" font-size="14.00">0.315</text>
<polygon fill="#ffffff" stroke="none" points="9.5,-5 9.5,-35 46.5,-35 46.5,-5 9.5,-5"/>
<polygon fill="none" stroke="black" points="9.5,-5 9.5,-35 46.5,-35 46.5,-5 9.5,-5"/>
<text text-anchor="start" x="19.25" y="-15.8" font-family="Times,serif" font-size="14.00">0.0</text>
<polygon fill="#ccffcc" stroke="none" points="46.5,-5 46.5,-35 83.5,-35 83.5,-5 46.5,-5"/>
<polygon fill="none" stroke="black" points="46.5,-5 46.5,-35 83.5,-35 83.5,-5 46.5,-5"/>
<text text-anchor="start" x="49.25" y="-15.8" font-family="Times,serif" font-size="14.00">0.038</text>
<polygon fill="#c0c0c0" stroke="none" points="83.5,-5 83.5,-35 120.5,-35 120.5,-5 83.5,-5"/>
<polygon fill="none" stroke="black" points="83.5,-5 83.5,-35 120.5,-35 120.5,-5 83.5,-5"/>
<text text-anchor="start" x="86.25" y="-15.8" font-family="Times,serif" font-size="14.00">0.535</text>
<polygon fill="none" stroke="black" points="8,-4 8,-96 121,-96 121,-4 8,-4"/>
</g>
</g>
</svg>
