<?xml version="1.0" encoding="UTF-8" standalone="no"?>
<!DOCTYPE svg PUBLIC "-//W3C//DTD SVG 1.1//EN"
 "http://www.w3.org/Graphics/SVG/1.1/DTD/svg11.dtd">
<!-- Generated by graphviz version 2.38.0 (20140413.2041)
 -->
<!-- Title: G Pages: 1 -->
<svg width="342pt" height="138pt"
 viewBox="0.00 0.00 342.00 138.00" xmlns="http://www.w3.org/2000/svg" xmlns:xlink="http://www.w3.org/1999/xlink">
<g id="graph0" class="graph" transform="scale(1 1) rotate(0) translate(4 134)">
<title>G</title>
<polygon fill="white" stroke="none" points="-4,4 -4,-134 338,-134 338,4 -4,4"/>
<!-- nodey -->
<g id="node1" class="node"><title>nodey</title>
<polygon fill="#c0c0c0" stroke="none" points="9,-95 9,-125 88,-125 88,-95 9,-95"/>
<polygon fill="none" stroke="black" points="9,-95 9,-125 88,-125 88,-95 9,-95"/>
<text text-anchor="start" x="22.25" y="-105.8" font-family="Times,serif" font-size="14.00">0.357075</text>
<polygon fill="#ffffff" stroke="none" points="88,-95 88,-125 167,-125 167,-95 88,-95"/>
<polygon fill="none" stroke="black" points="88,-95 88,-125 167,-125 167,-95 88,-95"/>
<text text-anchor="start" x="118.75" y="-105.8" font-family="Times,serif" font-size="14.00">0.0</text>
<polygon fill="#ff99cb" stroke="none" points="167,-95 167,-125 246,-125 246,-95 167,-95"/>
<polygon fill="none" stroke="black" points="167,-95 167,-125 246,-125 246,-95 167,-95"/>
<text text-anchor="start" x="180.25" y="-105.8" font-family="Times,serif" font-size="14.00">0.005335</text>
<polygon fill="#ff99cb" stroke="none" points="246,-95 246,-125 325,-125 325,-95 246,-95"/>
<polygon fill="none" stroke="black" points="246,-95 246,-125 325,-125 325,-95 246,-95"/>
<text text-anchor="start" x="248.75" y="-105.8" font-family="Times,serif" font-size="14.00">0.176678333</text>
<polygon fill="#ffffff" stroke="none" points="9,-65 9,-95 88,-95 88,-65 9,-65"/>
<polygon fill="none" stroke="black" points="9,-65 9,-95 88,-95 88,-65 9,-65"/>
<text text-anchor="start" x="22.25" y="-75.8" font-family="Times,serif" font-size="14.00">0.416645</text>
<polygon fill="#c0c0c0" stroke="none" points="88,-65 88,-95 167,-95 167,-65 88,-65"/>
<polygon fill="none" stroke="black" points="88,-65 88,-95 167,-95 167,-65 88,-65"/>
<text text-anchor="start" x="90.75" y="-75.8" font-family="Times,serif" font-size="14.00">0.461894667</text>
<polygon fill="#ffffff" stroke="none" points="167,-65 167,-95 246,-95 246,-65 167,-65"/>
<polygon fill="none" stroke="black" points="167,-65 167,-95 246,-95 246,-65 167,-65"/>
<text text-anchor="start" x="169.75" y="-75.8" font-family="Times,serif" font-size="14.00">0.007575667</text>
<polygon fill="#ffffff" stroke="none" points="246,-65 246,-95 325,-95 325,-65 246,-65"/>
<polygon fill="none" stroke="black" points="246,-65 246,-95 325,-95 325,-65 246,-65"/>
<text text-anchor="start" x="276.75" y="-75.8" font-family="Times,serif" font-size="14.00">0.0</text>
<polygon fill="#ffffff" stroke="none" points="9,-35 9,-65 88,-65 88,-35 9,-35"/>
<polygon fill="none" stroke="black" points="9,-35 9,-65 88,-65 88,-35 9,-35"/>
<text text-anchor="start" x="22.25" y="-45.8" font-family="Times,serif" font-size="14.00">0.102996</text>
<polygon fill="#ffffff" stroke="none" points="88,-35 88,-65 167,-65 167,-35 88,-35"/>
<polygon fill="none" stroke="black" points="88,-35 88,-65 167,-65 167,-35 88,-35"/>
<text text-anchor="start" x="90.75" y="-45.8" font-family="Times,serif" font-size="14.00">0.428062667</text>
<polygon fill="#c0c0c0" stroke="none" points="167,-35 167,-65 246,-65 246,-35 167,-35"/>
<polygon fill="none" stroke="black" points="167,-35 167,-65 246,-65 246,-35 167,-35"/>
<text text-anchor="start" x="180.25" y="-45.8" font-family="Times,serif" font-size="14.00">0.591968</text>
<polygon fill="#ffffff" stroke="none" points="246,-35 246,-65 325,-65 325,-35 246,-35"/>
<polygon fill="none" stroke="black" points="246,-35 246,-65 325,-65 325,-35 246,-35"/>
<text text-anchor="start" x="259.25" y="-45.8" font-family="Times,serif" font-size="14.00">0.015095</text>
<polygon fill="#ffffff" stroke="none" points="9,-5 9,-35 88,-35 88,-5 9,-5"/>
<polygon fill="none" stroke="black" points="9,-5 9,-35 88,-35 88,-5 9,-5"/>
<text text-anchor="start" x="11.75" y="-15.8" font-family="Times,serif" font-size="14.00">0.012820667</text>
<polygon fill="#ffffff" stroke="none" points="88,-5 88,-35 167,-35 167,-5 88,-5"/>
<polygon fill="none" stroke="black" points="88,-5 88,-35 167,-35 167,-5 88,-5"/>
<text text-anchor="start" x="118.75" y="-15.8" font-family="Times,serif" font-size="14.00">0.0</text>
<polygon fill="#ffffff" stroke="none" points="167,-5 167,-35 246,-35 246,-5 167,-5"/>
<polygon fill="none" stroke="black" points="167,-5 167,-35 246,-35 246,-5 167,-5"/>
<text text-anchor="start" x="180.25" y="-15.8" font-family="Times,serif" font-size="14.00">0.377729</text>
<polygon fill="#c0c0c0" stroke="none" points="246,-5 246,-35 325,-35 325,-5 246,-5"/>
<polygon fill="none" stroke="black" points="246,-5 246,-35 325,-35 325,-5 246,-5"/>
<text text-anchor="start" x="248.75" y="-15.8" font-family="Times,serif" font-size="14.00">0.968565333</text>
<polygon fill="none" stroke="black" points="8,-4 8,-126 326,-126 326,-4 8,-4"/>
</g>
</g>
</svg>
