<?xml version="1.0" encoding="UTF-8" standalone="no"?>
<!DOCTYPE svg PUBLIC "-//W3C//DTD SVG 1.1//EN"
 "http://www.w3.org/Graphics/SVG/1.1/DTD/svg11.dtd">
<!-- Generated by graphviz version 2.38.0 (20140413.2041)
 -->
<!-- Title: G Pages: 1 -->
<svg width="114pt" height="78pt"
 viewBox="0.00 0.00 114.00 78.00" xmlns="http://www.w3.org/2000/svg" xmlns:xlink="http://www.w3.org/1999/xlink">
<g id="graph0" class="graph" transform="scale(1 1) rotate(0) translate(4 74)">
<title>G</title>
<polygon fill="white" stroke="none" points="-4,4 -4,-74 110,-74 110,4 -4,4"/>
<!-- nodey -->
<g id="node1" class="node"><title>nodey</title>
<polygon fill="#c0c0c0" stroke="none" points="9,-35 9,-65 74,-65 74,-35 9,-35"/>
<polygon fill="none" stroke="black" points="9,-35 9,-65 74,-65 74,-35 9,-35"/>
<text text-anchor="start" x="11.75" y="-45.8" font-family="Times,serif" font-size="14.00">3.9823589</text>
<polygon fill="#ffffff" stroke="none" points="74,-35 74,-65 97,-65 97,-35 74,-35"/>
<polygon fill="none" stroke="black" points="74,-35 74,-65 97,-65 97,-35 74,-35"/>
<text text-anchor="start" x="76.75" y="-45.8" font-family="Times,serif" font-size="14.00">0.0</text>
<polygon fill="#ffffff" stroke="none" points="9,-5 9,-35 74,-35 74,-5 9,-5"/>
<polygon fill="none" stroke="black" points="9,-5 9,-35 74,-35 74,-5 9,-5"/>
<text text-anchor="start" x="12.0063" y="-15.8" font-family="Times,serif" font-size="14.00">2.6045411</text>
<polygon fill="#ffffff" stroke="none" points="74,-5 74,-35 97,-35 97,-5 74,-5"/>
<polygon fill="none" stroke="black" points="74,-5 74,-35 97,-35 97,-5 74,-5"/>
<text text-anchor="start" x="76.75" y="-15.8" font-family="Times,serif" font-size="14.00">0.0</text>
<polygon fill="none" stroke="black" points="8,-4 8,-66 98,-66 98,-4 8,-4"/>
</g>
</g>
</svg>
