<?xml version="1.0" encoding="UTF-8" standalone="no"?>
<!DOCTYPE svg PUBLIC "-//W3C//DTD SVG 1.1//EN"
 "http://www.w3.org/Graphics/SVG/1.1/DTD/svg11.dtd">
<!-- Generated by graphviz version 2.38.0 (20140413.2041)
 -->
<!-- Title: G Pages: 1 -->
<svg width="146pt" height="138pt"
 viewBox="0.00 0.00 146.00 138.00" xmlns="http://www.w3.org/2000/svg" xmlns:xlink="http://www.w3.org/1999/xlink">
<g id="graph0" class="graph" transform="scale(1 1) rotate(0) translate(4 134)">
<title>G</title>
<polygon fill="white" stroke="none" points="-4,4 -4,-134 142,-134 142,4 -4,4"/>
<!-- nodey -->
<g id="node1" class="node"><title>nodey</title>
<polygon fill="#ffffff" stroke="none" points="9,-95 9,-125 39,-125 39,-95 9,-95"/>
<polygon fill="none" stroke="black" points="9,-95 9,-125 39,-125 39,-95 9,-95"/>
<text text-anchor="start" x="15.25" y="-105.8" font-family="Times,serif" font-size="14.00">0.0</text>
<polygon fill="#ffffff" stroke="none" points="39,-95 39,-125 69,-125 69,-95 39,-95"/>
<polygon fill="none" stroke="black" points="39,-95 39,-125 69,-125 69,-95 39,-95"/>
<text text-anchor="start" x="45.25" y="-105.8" font-family="Times,serif" font-size="14.00">0.0</text>
<polygon fill="#ffffff" stroke="none" points="69,-95 69,-125 99,-125 99,-95 69,-95"/>
<polygon fill="none" stroke="black" points="69,-95 69,-125 99,-125 99,-95 69,-95"/>
<text text-anchor="start" x="75.25" y="-105.8" font-family="Times,serif" font-size="14.00">0.0</text>
<polygon fill="#ffffff" stroke="none" points="99,-95 99,-125 129,-125 129,-95 99,-95"/>
<polygon fill="none" stroke="black" points="99,-95 99,-125 129,-125 129,-95 99,-95"/>
<text text-anchor="start" x="105.25" y="-105.8" font-family="Times,serif" font-size="14.00">0.0</text>
<polygon fill="#ffffff" stroke="none" points="9,-65 9,-95 39,-95 39,-65 9,-65"/>
<polygon fill="none" stroke="black" points="9,-65 9,-95 39,-95 39,-65 9,-65"/>
<text text-anchor="start" x="11.75" y="-75.8" font-family="Times,serif" font-size="14.00">0.05</text>
<polygon fill="#c0c0c0" stroke="none" points="39,-65 39,-95 69,-95 69,-65 39,-65"/>
<polygon fill="none" stroke="black" points="39,-65 39,-95 69,-95 69,-65 39,-65"/>
<text text-anchor="start" x="41.75" y="-75.8" font-family="Times,serif" font-size="14.00">0.71</text>
<polygon fill="#ffffff" stroke="none" points="69,-65 69,-95 99,-95 99,-65 69,-65"/>
<polygon fill="none" stroke="black" points="69,-65 69,-95 99,-95 99,-65 69,-65"/>
<text text-anchor="start" x="75.25" y="-75.8" font-family="Times,serif" font-size="14.00">0.0</text>
<polygon fill="#ffffff" stroke="none" points="99,-65 99,-95 129,-95 129,-65 99,-65"/>
<polygon fill="none" stroke="black" points="99,-65 99,-95 129,-95 129,-65 99,-65"/>
<text text-anchor="start" x="105.25" y="-75.8" font-family="Times,serif" font-size="14.00">0.0</text>
<polygon fill="#ffffff" stroke="none" points="9,-35 9,-65 39,-65 39,-35 9,-35"/>
<polygon fill="none" stroke="black" points="9,-35 9,-65 39,-65 39,-35 9,-35"/>
<text text-anchor="start" x="15.25" y="-45.8" font-family="Times,serif" font-size="14.00">0.0</text>
<polygon fill="#ffffff" stroke="none" points="39,-35 39,-65 69,-65 69,-35 39,-35"/>
<polygon fill="none" stroke="black" points="39,-35 39,-65 69,-65 69,-35 39,-35"/>
<text text-anchor="start" x="45.25" y="-45.8" font-family="Times,serif" font-size="14.00">0.0</text>
<polygon fill="#c0c0c0" stroke="none" points="69,-35 69,-65 99,-65 99,-35 69,-35"/>
<polygon fill="none" stroke="black" points="69,-35 69,-65 99,-65 99,-35 69,-35"/>
<text text-anchor="start" x="71.75" y="-45.8" font-family="Times,serif" font-size="14.00">0.74</text>
<polygon fill="#ffffff" stroke="none" points="99,-35 99,-65 129,-65 129,-35 99,-35"/>
<polygon fill="none" stroke="black" points="99,-35 99,-65 129,-65 129,-35 99,-35"/>
<text text-anchor="start" x="101.75" y="-45.8" font-family="Times,serif" font-size="14.00">0.65</text>
<polygon fill="#ffffff" stroke="none" points="9,-5 9,-35 39,-35 39,-5 9,-5"/>
<polygon fill="none" stroke="black" points="9,-5 9,-35 39,-35 39,-5 9,-5"/>
<text text-anchor="start" x="15.25" y="-15.8" font-family="Times,serif" font-size="14.00">0.0</text>
<polygon fill="#ccffcc" stroke="none" points="39,-5 39,-35 69,-35 69,-5 39,-5"/>
<polygon fill="none" stroke="black" points="39,-5 39,-35 69,-35 69,-5 39,-5"/>
<text text-anchor="start" x="41.75" y="-15.8" font-family="Times,serif" font-size="14.00">0.03</text>
<polygon fill="#ccffcc" stroke="none" points="69,-5 69,-35 99,-35 99,-5 69,-5"/>
<polygon fill="none" stroke="black" points="69,-5 69,-35 99,-35 99,-5 69,-5"/>
<text text-anchor="start" x="71.75" y="-15.8" font-family="Times,serif" font-size="14.00">0.18</text>
<polygon fill="#c0c0c0" stroke="none" points="99,-5 99,-35 129,-35 129,-5 99,-5"/>
<polygon fill="none" stroke="black" points="99,-5 99,-35 129,-35 129,-5 99,-5"/>
<text text-anchor="start" x="101.75" y="-15.8" font-family="Times,serif" font-size="14.00">0.31</text>
<polygon fill="none" stroke="black" points="8,-4 8,-126 130,-126 130,-4 8,-4"/>
</g>
</g>
</svg>
