<?xml version="1.0" encoding="UTF-8" standalone="no"?>
<!DOCTYPE svg PUBLIC "-//W3C//DTD SVG 1.1//EN"
 "http://www.w3.org/Graphics/SVG/1.1/DTD/svg11.dtd">
<!-- Generated by graphviz version 2.38.0 (20140413.2041)
 -->
<!-- Title: G Pages: 1 -->
<svg width="246pt" height="168pt"
 viewBox="0.00 0.00 246.00 168.00" xmlns="http://www.w3.org/2000/svg" xmlns:xlink="http://www.w3.org/1999/xlink">
<g id="graph0" class="graph" transform="scale(1 1) rotate(0) translate(4 164)">
<title>G</title>
<polygon fill="white" stroke="none" points="-4,4 -4,-164 242,-164 242,4 -4,4"/>
<!-- nodey -->
<g id="node1" class="node"><title>nodey</title>
<polygon fill="#c0c0c0" stroke="none" points="9,-125 9,-155 53,-155 53,-125 9,-125"/>
<polygon fill="none" stroke="black" points="9,-125 9,-155 53,-155 53,-125 9,-125"/>
<text text-anchor="start" x="11.75" y="-135.8" font-family="Times,serif" font-size="14.00">0.0494</text>
<polygon fill="#ffffff" stroke="none" points="53,-125 53,-155 97,-155 97,-125 53,-125"/>
<polygon fill="none" stroke="black" points="53,-125 53,-155 97,-155 97,-125 53,-125"/>
<text text-anchor="start" x="66.25" y="-135.8" font-family="Times,serif" font-size="14.00">0.0</text>
<polygon fill="#ffffff" stroke="none" points="97,-125 97,-155 141,-155 141,-125 97,-125"/>
<polygon fill="none" stroke="black" points="97,-125 97,-155 141,-155 141,-125 97,-125"/>
<text text-anchor="start" x="110.25" y="-135.8" font-family="Times,serif" font-size="14.00">0.0</text>
<polygon fill="#ff99cb" stroke="none" points="141,-125 141,-155 185,-155 185,-125 141,-125"/>
<polygon fill="none" stroke="black" points="141,-125 141,-155 185,-155 185,-125 141,-125"/>
<text text-anchor="start" x="143.75" y="-135.8" font-family="Times,serif" font-size="14.00">0.0933</text>
<polygon fill="#ff99cb" stroke="none" points="185,-125 185,-155 229,-155 229,-125 185,-125"/>
<polygon fill="none" stroke="black" points="185,-125 185,-155 229,-155 229,-125 185,-125"/>
<text text-anchor="start" x="187.75" y="-135.8" font-family="Times,serif" font-size="14.00">0.0556</text>
<polygon fill="#ccffcc" stroke="none" points="9,-95 9,-125 53,-125 53,-95 9,-95"/>
<polygon fill="none" stroke="black" points="9,-95 9,-125 53,-125 53,-95 9,-95"/>
<text text-anchor="start" x="11.75" y="-105.8" font-family="Times,serif" font-size="14.00">0.1975</text>
<polygon fill="#c0c0c0" stroke="none" points="53,-95 53,-125 97,-125 97,-95 53,-95"/>
<polygon fill="none" stroke="black" points="53,-95 53,-125 97,-125 97,-95 53,-95"/>
<text text-anchor="start" x="55.75" y="-105.8" font-family="Times,serif" font-size="14.00">0.2857</text>
<polygon fill="#ffffff" stroke="none" points="97,-95 97,-125 141,-125 141,-95 97,-95"/>
<polygon fill="none" stroke="black" points="97,-95 97,-125 141,-125 141,-95 97,-95"/>
<text text-anchor="start" x="99.75" y="-105.8" font-family="Times,serif" font-size="14.00">0.0476</text>
<polygon fill="#ffffff" stroke="none" points="141,-95 141,-125 185,-125 185,-95 141,-95"/>
<polygon fill="none" stroke="black" points="141,-95 141,-125 185,-125 185,-95 141,-95"/>
<text text-anchor="start" x="150.75" y="-105.8" font-family="Times,serif" font-size="14.00">0.04</text>
<polygon fill="#ffffff" stroke="none" points="185,-95 185,-125 229,-125 229,-95 185,-95"/>
<polygon fill="none" stroke="black" points="185,-95 185,-125 229,-125 229,-95 185,-95"/>
<text text-anchor="start" x="198.25" y="-105.8" font-family="Times,serif" font-size="14.00">1.0</text>
<polygon fill="#ccffcc" stroke="none" points="9,-65 9,-95 53,-95 53,-65 9,-65"/>
<polygon fill="none" stroke="black" points="9,-65 9,-95 53,-95 53,-65 9,-65"/>
<text text-anchor="start" x="11.75" y="-75.8" font-family="Times,serif" font-size="14.00">0.2222</text>
<polygon fill="#ccffcc" stroke="none" points="53,-65 53,-95 97,-95 97,-65 53,-65"/>
<polygon fill="none" stroke="black" points="53,-65 53,-95 97,-95 97,-65 53,-65"/>
<text text-anchor="start" x="55.75" y="-75.8" font-family="Times,serif" font-size="14.00">0.3571</text>
<polygon fill="#c0c0c0" stroke="none" points="97,-65 97,-95 141,-95 141,-65 97,-65"/>
<polygon fill="none" stroke="black" points="97,-65 97,-95 141,-95 141,-65 97,-65"/>
<text text-anchor="start" x="99.75" y="-75.8" font-family="Times,serif" font-size="14.00">0.1905</text>
<polygon fill="#ffffff" stroke="none" points="141,-65 141,-95 185,-95 185,-65 141,-65"/>
<polygon fill="none" stroke="black" points="141,-65 141,-95 185,-95 185,-65 141,-65"/>
<text text-anchor="start" x="150.75" y="-75.8" font-family="Times,serif" font-size="14.00">0.12</text>
<polygon fill="#ccffcc" stroke="none" points="185,-65 185,-95 229,-95 229,-65 185,-65"/>
<polygon fill="none" stroke="black" points="185,-65 185,-95 229,-95 229,-65 185,-65"/>
<text text-anchor="start" x="187.75" y="-75.8" font-family="Times,serif" font-size="14.00">0.2222</text>
<polygon fill="#ccffcc" stroke="none" points="9,-35 9,-65 53,-65 53,-35 9,-35"/>
<polygon fill="none" stroke="black" points="9,-35 9,-65 53,-65 53,-35 9,-35"/>
<text text-anchor="start" x="12.519" y="-45.8" font-family="Times,serif" font-size="14.00">0.1111</text>
<polygon fill="#ccffcc" stroke="none" points="53,-35 53,-65 97,-65 97,-35 53,-35"/>
<polygon fill="none" stroke="black" points="53,-35 53,-65 97,-65 97,-35 53,-35"/>
<text text-anchor="start" x="55.75" y="-45.8" font-family="Times,serif" font-size="14.00">0.0714</text>
<polygon fill="#ccffcc" stroke="none" points="97,-35 97,-65 141,-65 141,-35 97,-35"/>
<polygon fill="none" stroke="black" points="97,-35 97,-65 141,-65 141,-35 97,-35"/>
<text text-anchor="start" x="99.75" y="-45.8" font-family="Times,serif" font-size="14.00">0.0952</text>
<polygon fill="#c0c0c0" stroke="none" points="141,-35 141,-65 185,-65 185,-35 141,-35"/>
<polygon fill="none" stroke="black" points="141,-35 141,-65 185,-65 185,-35 141,-35"/>
<text text-anchor="start" x="143.75" y="-45.8" font-family="Times,serif" font-size="14.00">0.0933</text>
<polygon fill="#ffffff" stroke="none" points="185,-35 185,-65 229,-65 229,-35 185,-35"/>
<polygon fill="none" stroke="black" points="185,-35 185,-65 229,-65 229,-35 185,-35"/>
<text text-anchor="start" x="198.25" y="-45.8" font-family="Times,serif" font-size="14.00">0.0</text>
<polygon fill="#ccffcc" stroke="none" points="9,-5 9,-35 53,-35 53,-5 9,-5"/>
<polygon fill="none" stroke="black" points="9,-5 9,-35 53,-35 53,-5 9,-5"/>
<text text-anchor="start" x="11.75" y="-15.8" font-family="Times,serif" font-size="14.00">0.1975</text>
<polygon fill="#ccffcc" stroke="none" points="53,-5 53,-35 97,-35 97,-5 53,-5"/>
<polygon fill="none" stroke="black" points="53,-5 53,-35 97,-35 97,-5 53,-5"/>
<text text-anchor="start" x="55.75" y="-15.8" font-family="Times,serif" font-size="14.00">0.0714</text>
<polygon fill="#ccffcc" stroke="none" points="97,-5 97,-35 141,-35 141,-5 97,-5"/>
<polygon fill="none" stroke="black" points="97,-5 97,-35 141,-35 141,-5 97,-5"/>
<text text-anchor="start" x="103.25" y="-15.8" font-family="Times,serif" font-size="14.00">0.619</text>
<polygon fill="#ccffcc" stroke="none" points="141,-5 141,-35 185,-35 185,-5 141,-5"/>
<polygon fill="none" stroke="black" points="141,-5 141,-35 185,-35 185,-5 141,-5"/>
<text text-anchor="start" x="143.75" y="-15.8" font-family="Times,serif" font-size="14.00">0.4933</text>
<polygon fill="#c0c0c0" stroke="none" points="185,-5 185,-35 229,-35 229,-5 185,-5"/>
<polygon fill="none" stroke="black" points="185,-5 185,-35 229,-35 229,-5 185,-5"/>
<text text-anchor="start" x="187.75" y="-15.8" font-family="Times,serif" font-size="14.00">0.8889</text>
<polygon fill="none" stroke="black" points="8,-4 8,-156 230,-156 230,-4 8,-4"/>
</g>
</g>
</svg>
