<?xml version="1.0" encoding="UTF-8" standalone="no"?>
<!DOCTYPE svg PUBLIC "-//W3C//DTD SVG 1.1//EN"
 "http://www.w3.org/Graphics/SVG/1.1/DTD/svg11.dtd">
<!-- Generated by graphviz version 2.38.0 (20140413.2041)
 -->
<!-- Title: G Pages: 1 -->
<svg width="894pt" height="348pt"
 viewBox="0.00 0.00 894.00 348.00" xmlns="http://www.w3.org/2000/svg" xmlns:xlink="http://www.w3.org/1999/xlink">
<g id="graph0" class="graph" transform="scale(1 1) rotate(0) translate(4 344)">
<title>G</title>
<polygon fill="white" stroke="none" points="-4,4 -4,-344 890,-344 890,4 -4,4"/>
<!-- nodey -->
<g id="node1" class="node"><title>nodey</title>
<polygon fill="#ffffff" stroke="none" points="9,-305 9,-335 88,-335 88,-305 9,-305"/>
<polygon fill="none" stroke="black" points="9,-305 9,-335 88,-335 88,-305 9,-305"/>
<text text-anchor="start" x="39.75" y="-315.8" font-family="Times,serif" font-size="14.00">0.0</text>
<polygon fill="#ffffff" stroke="none" points="88,-305 88,-335 166,-335 166,-305 88,-305"/>
<polygon fill="none" stroke="black" points="88,-305 88,-335 166,-335 166,-305 88,-305"/>
<text text-anchor="start" x="118.25" y="-315.8" font-family="Times,serif" font-size="14.00">0.0</text>
<polygon fill="#ffffff" stroke="none" points="166,-305 166,-335 245,-335 245,-305 166,-305"/>
<polygon fill="none" stroke="black" points="166,-305 166,-335 245,-335 245,-305 166,-305"/>
<text text-anchor="start" x="196.75" y="-315.8" font-family="Times,serif" font-size="14.00">0.0</text>
<polygon fill="#ff99cb" stroke="none" points="245,-305 245,-335 324,-335 324,-305 245,-305"/>
<polygon fill="none" stroke="black" points="245,-305 245,-335 324,-335 324,-305 245,-305"/>
<text text-anchor="start" x="247.75" y="-315.8" font-family="Times,serif" font-size="14.00">0.127333333</text>
<polygon fill="#ff99cb" stroke="none" points="324,-305 324,-335 403,-335 403,-305 324,-305"/>
<polygon fill="none" stroke="black" points="324,-305 324,-335 403,-335 403,-305 324,-305"/>
<text text-anchor="start" x="326.75" y="-315.8" font-family="Times,serif" font-size="14.00">0.246333333</text>
<polygon fill="#ff99cb" stroke="none" points="403,-305 403,-335 482,-335 482,-305 403,-305"/>
<polygon fill="none" stroke="black" points="403,-305 403,-335 482,-335 482,-305 403,-305"/>
<text text-anchor="start" x="405.75" y="-315.8" font-family="Times,serif" font-size="14.00">0.695333333</text>
<polygon fill="#ff99cb" stroke="none" points="482,-305 482,-335 561,-335 561,-305 482,-305"/>
<polygon fill="none" stroke="black" points="482,-305 482,-335 561,-335 561,-305 482,-305"/>
<text text-anchor="start" x="484.75" y="-315.8" font-family="Times,serif" font-size="14.00">0.000666667</text>
<polygon fill="#ff99cb" stroke="none" points="561,-305 561,-335 640,-335 640,-305 561,-305"/>
<polygon fill="none" stroke="black" points="561,-305 561,-335 640,-335 640,-305 561,-305"/>
<text text-anchor="start" x="584.75" y="-315.8" font-family="Times,serif" font-size="14.00">0.084</text>
<polygon fill="#ff99cb" stroke="none" points="640,-305 640,-335 719,-335 719,-305 640,-305"/>
<polygon fill="none" stroke="black" points="640,-305 640,-335 719,-335 719,-305 640,-305"/>
<text text-anchor="start" x="642.75" y="-315.8" font-family="Times,serif" font-size="14.00">0.081666667</text>
<polygon fill="#ff99cb" stroke="none" points="719,-305 719,-335 798,-335 798,-305 719,-305"/>
<polygon fill="none" stroke="black" points="719,-305 719,-335 798,-335 798,-305 719,-305"/>
<text text-anchor="start" x="746.25" y="-315.8" font-family="Times,serif" font-size="14.00">0.47</text>
<polygon fill="#ff99cb" stroke="none" points="798,-305 798,-335 877,-335 877,-305 798,-305"/>
<polygon fill="none" stroke="black" points="798,-305 798,-335 877,-335 877,-305 798,-305"/>
<text text-anchor="start" x="800.75" y="-315.8" font-family="Times,serif" font-size="14.00">0.806666667</text>
<polygon fill="#ccffcc" stroke="none" points="9,-275 9,-305 88,-305 88,-275 9,-275"/>
<polygon fill="none" stroke="black" points="9,-275 9,-305 88,-305 88,-275 9,-275"/>
<text text-anchor="start" x="11.75" y="-285.8" font-family="Times,serif" font-size="14.00">0.386666667</text>
<polygon fill="#c0c0c0" stroke="none" points="88,-275 88,-305 166,-305 166,-275 88,-275"/>
<polygon fill="none" stroke="black" points="88,-275 88,-305 166,-305 166,-275 88,-275"/>
<text text-anchor="start" x="111.25" y="-285.8" font-family="Times,serif" font-size="14.00">0.159</text>
<polygon fill="#ffffff" stroke="none" points="166,-275 166,-305 245,-305 245,-275 166,-275"/>
<polygon fill="none" stroke="black" points="166,-275 166,-305 245,-305 245,-275 166,-275"/>
<text text-anchor="start" x="196.75" y="-285.8" font-family="Times,serif" font-size="14.00">0.0</text>
<polygon fill="#ffffff" stroke="none" points="245,-275 245,-305 324,-305 324,-275 245,-275"/>
<polygon fill="none" stroke="black" points="245,-275 245,-305 324,-305 324,-275 245,-275"/>
<text text-anchor="start" x="275.75" y="-285.8" font-family="Times,serif" font-size="14.00">0.0</text>
<polygon fill="#ffffff" stroke="none" points="324,-275 324,-305 403,-305 403,-275 324,-275"/>
<polygon fill="none" stroke="black" points="324,-275 324,-305 403,-305 403,-275 324,-275"/>
<text text-anchor="start" x="354.75" y="-285.8" font-family="Times,serif" font-size="14.00">0.0</text>
<polygon fill="#ffffff" stroke="none" points="403,-275 403,-305 482,-305 482,-275 403,-275"/>
<polygon fill="none" stroke="black" points="403,-275 403,-305 482,-305 482,-275 403,-275"/>
<text text-anchor="start" x="433.75" y="-285.8" font-family="Times,serif" font-size="14.00">0.0</text>
<polygon fill="#ffffff" stroke="none" points="482,-275 482,-305 561,-305 561,-275 482,-275"/>
<polygon fill="none" stroke="black" points="482,-275 482,-305 561,-305 561,-275 482,-275"/>
<text text-anchor="start" x="512.75" y="-285.8" font-family="Times,serif" font-size="14.00">0.0</text>
<polygon fill="#ffffff" stroke="none" points="561,-275 561,-305 640,-305 640,-275 561,-275"/>
<polygon fill="none" stroke="black" points="561,-275 561,-305 640,-305 640,-275 561,-275"/>
<text text-anchor="start" x="591.75" y="-285.8" font-family="Times,serif" font-size="14.00">0.0</text>
<polygon fill="#ffffff" stroke="none" points="640,-275 640,-305 719,-305 719,-275 640,-275"/>
<polygon fill="none" stroke="black" points="640,-275 640,-305 719,-305 719,-275 640,-275"/>
<text text-anchor="start" x="670.75" y="-285.8" font-family="Times,serif" font-size="14.00">0.0</text>
<polygon fill="#ffffff" stroke="none" points="719,-275 719,-305 798,-305 798,-275 719,-275"/>
<polygon fill="none" stroke="black" points="719,-275 719,-305 798,-305 798,-275 719,-275"/>
<text text-anchor="start" x="749.75" y="-285.8" font-family="Times,serif" font-size="14.00">0.0</text>
<polygon fill="#ffffff" stroke="none" points="798,-275 798,-305 877,-305 877,-275 798,-275"/>
<polygon fill="none" stroke="black" points="798,-275 798,-305 877,-305 877,-275 798,-275"/>
<text text-anchor="start" x="828.75" y="-285.8" font-family="Times,serif" font-size="14.00">0.0</text>
<polygon fill="#ccffcc" stroke="none" points="9,-245 9,-275 88,-275 88,-245 9,-245"/>
<polygon fill="none" stroke="black" points="9,-245 9,-275 88,-275 88,-245 9,-245"/>
<text text-anchor="start" x="11.75" y="-255.8" font-family="Times,serif" font-size="14.00">0.186666667</text>
<polygon fill="#ccffcc" stroke="none" points="88,-245 88,-275 166,-275 166,-245 88,-245"/>
<polygon fill="none" stroke="black" points="88,-245 88,-275 166,-275 166,-245 88,-245"/>
<text text-anchor="start" x="90.5063" y="-255.8" font-family="Times,serif" font-size="14.00">0.311666667</text>
<polygon fill="#c0c0c0" stroke="none" points="166,-245 166,-275 245,-275 245,-245 166,-245"/>
<polygon fill="none" stroke="black" points="166,-245 166,-275 245,-275 245,-245 166,-245"/>
<text text-anchor="start" x="168.75" y="-255.8" font-family="Times,serif" font-size="14.00">0.249333333</text>
<polygon fill="#ffcc99" stroke="none" points="245,-245 245,-275 324,-275 324,-245 245,-245"/>
<polygon fill="none" stroke="black" points="245,-245 245,-275 324,-275 324,-245 245,-245"/>
<text text-anchor="start" x="247.75" y="-255.8" font-family="Times,serif" font-size="14.00">0.062333333</text>
<polygon fill="#ffffff" stroke="none" points="324,-245 324,-275 403,-275 403,-245 324,-245"/>
<polygon fill="none" stroke="black" points="324,-245 324,-275 403,-275 403,-245 324,-245"/>
<text text-anchor="start" x="354.75" y="-255.8" font-family="Times,serif" font-size="14.00">0.0</text>
<polygon fill="#ffffff" stroke="none" points="403,-245 403,-275 482,-275 482,-245 403,-245"/>
<polygon fill="none" stroke="black" points="403,-245 403,-275 482,-275 482,-245 403,-245"/>
<text text-anchor="start" x="433.75" y="-255.8" font-family="Times,serif" font-size="14.00">0.0</text>
<polygon fill="#ffffff" stroke="none" points="482,-245 482,-275 561,-275 561,-245 482,-245"/>
<polygon fill="none" stroke="black" points="482,-245 482,-275 561,-275 561,-245 482,-245"/>
<text text-anchor="start" x="512.75" y="-255.8" font-family="Times,serif" font-size="14.00">0.0</text>
<polygon fill="#ffffff" stroke="none" points="561,-245 561,-275 640,-275 640,-245 561,-245"/>
<polygon fill="none" stroke="black" points="561,-245 561,-275 640,-275 640,-245 561,-245"/>
<text text-anchor="start" x="591.75" y="-255.8" font-family="Times,serif" font-size="14.00">0.0</text>
<polygon fill="#ffffff" stroke="none" points="640,-245 640,-275 719,-275 719,-245 640,-245"/>
<polygon fill="none" stroke="black" points="640,-245 640,-275 719,-275 719,-245 640,-245"/>
<text text-anchor="start" x="670.75" y="-255.8" font-family="Times,serif" font-size="14.00">0.0</text>
<polygon fill="#ffffff" stroke="none" points="719,-245 719,-275 798,-275 798,-245 719,-245"/>
<polygon fill="none" stroke="black" points="719,-245 719,-275 798,-275 798,-245 719,-245"/>
<text text-anchor="start" x="749.75" y="-255.8" font-family="Times,serif" font-size="14.00">0.0</text>
<polygon fill="#ffffff" stroke="none" points="798,-245 798,-275 877,-275 877,-245 798,-245"/>
<polygon fill="none" stroke="black" points="798,-245 798,-275 877,-275 877,-245 798,-245"/>
<text text-anchor="start" x="828.75" y="-255.8" font-family="Times,serif" font-size="14.00">0.0</text>
<polygon fill="#ffffff" stroke="none" points="9,-215 9,-245 88,-245 88,-215 9,-215"/>
<polygon fill="none" stroke="black" points="9,-215 9,-245 88,-245 88,-215 9,-215"/>
<text text-anchor="start" x="39.75" y="-225.8" font-family="Times,serif" font-size="14.00">0.0</text>
<polygon fill="#ccffcc" stroke="none" points="88,-215 88,-245 166,-245 166,-215 88,-215"/>
<polygon fill="none" stroke="black" points="88,-215 88,-245 166,-245 166,-215 88,-215"/>
<text text-anchor="start" x="90.5063" y="-225.8" font-family="Times,serif" font-size="14.00">0.117666667</text>
<polygon fill="#ccffcc" stroke="none" points="166,-215 166,-245 245,-245 245,-215 166,-215"/>
<polygon fill="none" stroke="black" points="166,-215 166,-245 245,-245 245,-215 166,-215"/>
<text text-anchor="start" x="168.75" y="-225.8" font-family="Times,serif" font-size="14.00">0.372666667</text>
<polygon fill="#c0c0c0" stroke="none" points="245,-215 245,-245 324,-245 324,-215 245,-215"/>
<polygon fill="none" stroke="black" points="245,-215 245,-245 324,-245 324,-215 245,-215"/>
<text text-anchor="start" x="247.75" y="-225.8" font-family="Times,serif" font-size="14.00">0.237333333</text>
<polygon fill="#ffffff" stroke="none" points="324,-215 324,-245 403,-245 403,-215 324,-215"/>
<polygon fill="none" stroke="black" points="324,-215 324,-245 403,-245 403,-215 324,-215"/>
<text text-anchor="start" x="354.75" y="-225.8" font-family="Times,serif" font-size="14.00">0.0</text>
<polygon fill="#ffcc99" stroke="none" points="403,-215 403,-245 482,-245 482,-215 403,-215"/>
<polygon fill="none" stroke="black" points="403,-215 403,-245 482,-245 482,-215 403,-215"/>
<text text-anchor="start" x="405.75" y="-225.8" font-family="Times,serif" font-size="14.00">0.055666667</text>
<polygon fill="#ffffff" stroke="none" points="482,-215 482,-245 561,-245 561,-215 482,-215"/>
<polygon fill="none" stroke="black" points="482,-215 482,-245 561,-245 561,-215 482,-215"/>
<text text-anchor="start" x="512.75" y="-225.8" font-family="Times,serif" font-size="14.00">0.0</text>
<polygon fill="#ffffff" stroke="none" points="561,-215 561,-245 640,-245 640,-215 561,-215"/>
<polygon fill="none" stroke="black" points="561,-215 561,-245 640,-245 640,-215 561,-215"/>
<text text-anchor="start" x="591.75" y="-225.8" font-family="Times,serif" font-size="14.00">0.0</text>
<polygon fill="#ffffff" stroke="none" points="640,-215 640,-245 719,-245 719,-215 640,-215"/>
<polygon fill="none" stroke="black" points="640,-215 640,-245 719,-245 719,-215 640,-215"/>
<text text-anchor="start" x="670.75" y="-225.8" font-family="Times,serif" font-size="14.00">0.0</text>
<polygon fill="#ffffff" stroke="none" points="719,-215 719,-245 798,-245 798,-215 719,-215"/>
<polygon fill="none" stroke="black" points="719,-215 719,-245 798,-245 798,-215 719,-215"/>
<text text-anchor="start" x="749.75" y="-225.8" font-family="Times,serif" font-size="14.00">0.0</text>
<polygon fill="#ffffff" stroke="none" points="798,-215 798,-245 877,-245 877,-215 798,-215"/>
<polygon fill="none" stroke="black" points="798,-215 798,-245 877,-245 877,-215 798,-215"/>
<text text-anchor="start" x="828.75" y="-225.8" font-family="Times,serif" font-size="14.00">0.0</text>
<polygon fill="#ffffff" stroke="none" points="9,-185 9,-215 88,-215 88,-185 9,-185"/>
<polygon fill="none" stroke="black" points="9,-185 9,-215 88,-215 88,-185 9,-185"/>
<text text-anchor="start" x="39.75" y="-195.8" font-family="Times,serif" font-size="14.00">0.0</text>
<polygon fill="#ffffff" stroke="none" points="88,-185 88,-215 166,-215 166,-185 88,-185"/>
<polygon fill="none" stroke="black" points="88,-185 88,-215 166,-215 166,-185 88,-185"/>
<text text-anchor="start" x="118.25" y="-195.8" font-family="Times,serif" font-size="14.00">0.0</text>
<polygon fill="#ccffcc" stroke="none" points="166,-185 166,-215 245,-215 245,-185 166,-185"/>
<polygon fill="none" stroke="black" points="166,-185 166,-215 245,-215 245,-185 166,-185"/>
<text text-anchor="start" x="189.75" y="-195.8" font-family="Times,serif" font-size="14.00">0.027</text>
<polygon fill="#ccffcc" stroke="none" points="245,-185 245,-215 324,-215 324,-185 245,-185"/>
<polygon fill="none" stroke="black" points="245,-185 245,-215 324,-215 324,-185 245,-185"/>
<text text-anchor="start" x="247.75" y="-195.8" font-family="Times,serif" font-size="14.00">0.178333333</text>
<polygon fill="#c0c0c0" stroke="none" points="324,-185 324,-215 403,-215 403,-185 324,-185"/>
<polygon fill="none" stroke="black" points="324,-185 324,-215 403,-215 403,-185 324,-185"/>
<text text-anchor="start" x="326.75" y="-195.8" font-family="Times,serif" font-size="14.00">0.331333333</text>
<polygon fill="#ffffff" stroke="none" points="403,-185 403,-215 482,-215 482,-185 403,-185"/>
<polygon fill="none" stroke="black" points="403,-185 403,-215 482,-215 482,-185 403,-185"/>
<text text-anchor="start" x="433.75" y="-195.8" font-family="Times,serif" font-size="14.00">0.0</text>
<polygon fill="#ffffff" stroke="none" points="482,-185 482,-215 561,-215 561,-185 482,-185"/>
<polygon fill="none" stroke="black" points="482,-185 482,-215 561,-215 561,-185 482,-185"/>
<text text-anchor="start" x="512.75" y="-195.8" font-family="Times,serif" font-size="14.00">0.0</text>
<polygon fill="#ffffff" stroke="none" points="561,-185 561,-215 640,-215 640,-185 561,-185"/>
<polygon fill="none" stroke="black" points="561,-185 561,-215 640,-215 640,-185 561,-185"/>
<text text-anchor="start" x="591.75" y="-195.8" font-family="Times,serif" font-size="14.00">0.0</text>
<polygon fill="#ffffff" stroke="none" points="640,-185 640,-215 719,-215 719,-185 640,-185"/>
<polygon fill="none" stroke="black" points="640,-185 640,-215 719,-215 719,-185 640,-185"/>
<text text-anchor="start" x="670.75" y="-195.8" font-family="Times,serif" font-size="14.00">0.0</text>
<polygon fill="#ffffff" stroke="none" points="719,-185 719,-215 798,-215 798,-185 719,-185"/>
<polygon fill="none" stroke="black" points="719,-185 719,-215 798,-215 798,-185 719,-185"/>
<text text-anchor="start" x="749.75" y="-195.8" font-family="Times,serif" font-size="14.00">0.0</text>
<polygon fill="#ffffff" stroke="none" points="798,-185 798,-215 877,-215 877,-185 798,-185"/>
<polygon fill="none" stroke="black" points="798,-185 798,-215 877,-215 877,-185 798,-185"/>
<text text-anchor="start" x="828.75" y="-195.8" font-family="Times,serif" font-size="14.00">0.0</text>
<polygon fill="#ffffff" stroke="none" points="9,-155 9,-185 88,-185 88,-155 9,-155"/>
<polygon fill="none" stroke="black" points="9,-155 9,-185 88,-185 88,-155 9,-155"/>
<text text-anchor="start" x="39.75" y="-165.8" font-family="Times,serif" font-size="14.00">0.0</text>
<polygon fill="#ffffff" stroke="none" points="88,-155 88,-185 166,-185 166,-155 88,-155"/>
<polygon fill="none" stroke="black" points="88,-155 88,-185 166,-185 166,-155 88,-155"/>
<text text-anchor="start" x="118.25" y="-165.8" font-family="Times,serif" font-size="14.00">0.0</text>
<polygon fill="#ccffcc" stroke="none" points="166,-155 166,-185 245,-185 245,-155 166,-155"/>
<polygon fill="none" stroke="black" points="166,-155 166,-185 245,-185 245,-155 166,-155"/>
<text text-anchor="start" x="168.75" y="-165.8" font-family="Times,serif" font-size="14.00">0.004666667</text>
<polygon fill="#ffffff" stroke="none" points="245,-155 245,-185 324,-185 324,-155 245,-155"/>
<polygon fill="none" stroke="black" points="245,-155 245,-185 324,-185 324,-155 245,-155"/>
<text text-anchor="start" x="275.75" y="-165.8" font-family="Times,serif" font-size="14.00">0.0</text>
<polygon fill="#ccffcc" stroke="none" points="324,-155 324,-185 403,-185 403,-155 324,-155"/>
<polygon fill="none" stroke="black" points="324,-155 324,-185 403,-185 403,-155 324,-155"/>
<text text-anchor="start" x="347.75" y="-165.8" font-family="Times,serif" font-size="14.00">0.095</text>
<polygon fill="#ffffff" stroke="none" points="403,-155 403,-185 482,-185 482,-155 403,-155"/>
<polygon fill="none" stroke="black" points="403,-155 403,-185 482,-185 482,-155 403,-155"/>
<text text-anchor="start" x="433.75" y="-165.8" font-family="Times,serif" font-size="14.00">0.0</text>
<polygon fill="#ffffff" stroke="none" points="482,-155 482,-185 561,-185 561,-155 482,-155"/>
<polygon fill="none" stroke="black" points="482,-155 482,-185 561,-185 561,-155 482,-155"/>
<text text-anchor="start" x="512.75" y="-165.8" font-family="Times,serif" font-size="14.00">0.0</text>
<polygon fill="#ffffff" stroke="none" points="561,-155 561,-185 640,-185 640,-155 561,-155"/>
<polygon fill="none" stroke="black" points="561,-155 561,-185 640,-185 640,-155 561,-155"/>
<text text-anchor="start" x="591.75" y="-165.8" font-family="Times,serif" font-size="14.00">0.0</text>
<polygon fill="#ffffff" stroke="none" points="640,-155 640,-185 719,-185 719,-155 640,-155"/>
<polygon fill="none" stroke="black" points="640,-155 640,-185 719,-185 719,-155 640,-155"/>
<text text-anchor="start" x="670.75" y="-165.8" font-family="Times,serif" font-size="14.00">0.0</text>
<polygon fill="#ffffff" stroke="none" points="719,-155 719,-185 798,-185 798,-155 719,-155"/>
<polygon fill="none" stroke="black" points="719,-155 719,-185 798,-185 798,-155 719,-155"/>
<text text-anchor="start" x="749.75" y="-165.8" font-family="Times,serif" font-size="14.00">0.0</text>
<polygon fill="#ffffff" stroke="none" points="798,-155 798,-185 877,-185 877,-155 798,-155"/>
<polygon fill="none" stroke="black" points="798,-155 798,-185 877,-185 877,-155 798,-155"/>
<text text-anchor="start" x="828.75" y="-165.8" font-family="Times,serif" font-size="14.00">0.0</text>
<polygon fill="#ffffff" stroke="none" points="9,-125 9,-155 88,-155 88,-125 9,-125"/>
<polygon fill="none" stroke="black" points="9,-125 9,-155 88,-155 88,-125 9,-125"/>
<text text-anchor="start" x="39.75" y="-135.8" font-family="Times,serif" font-size="14.00">0.0</text>
<polygon fill="#ccffcc" stroke="none" points="88,-125 88,-155 166,-155 166,-125 88,-125"/>
<polygon fill="none" stroke="black" points="88,-125 88,-155 166,-155 166,-125 88,-125"/>
<text text-anchor="start" x="111.25" y="-135.8" font-family="Times,serif" font-size="14.00">0.138</text>
<polygon fill="#ccffcc" stroke="none" points="166,-125 166,-155 245,-155 245,-125 166,-125"/>
<polygon fill="none" stroke="black" points="166,-125 166,-155 245,-155 245,-125 166,-125"/>
<text text-anchor="start" x="168.75" y="-135.8" font-family="Times,serif" font-size="14.00">0.096666667</text>
<polygon fill="#ccffcc" stroke="none" points="245,-125 245,-155 324,-155 324,-125 245,-125"/>
<polygon fill="none" stroke="black" points="245,-125 245,-155 324,-155 324,-125 245,-125"/>
<text text-anchor="start" x="268.75" y="-135.8" font-family="Times,serif" font-size="14.00">0.371</text>
<polygon fill="#ccffcc" stroke="none" points="324,-125 324,-155 403,-155 403,-125 324,-125"/>
<polygon fill="none" stroke="black" points="324,-125 324,-155 403,-155 403,-125 324,-125"/>
<text text-anchor="start" x="326.75" y="-135.8" font-family="Times,serif" font-size="14.00">0.608333333</text>
<polygon fill="#ccffcc" stroke="none" points="403,-125 403,-155 482,-155 482,-125 403,-125"/>
<polygon fill="none" stroke="black" points="403,-125 403,-155 482,-155 482,-125 403,-125"/>
<text text-anchor="start" x="426.75" y="-135.8" font-family="Times,serif" font-size="14.00">0.869</text>
<polygon fill="#ffffff" stroke="none" points="482,-125 482,-155 561,-155 561,-125 482,-125"/>
<polygon fill="none" stroke="black" points="482,-125 482,-155 561,-155 561,-125 482,-125"/>
<text text-anchor="start" x="512.75" y="-135.8" font-family="Times,serif" font-size="14.00">0.0</text>
<polygon fill="#ffcc99" stroke="none" points="561,-125 561,-155 640,-155 640,-125 561,-125"/>
<polygon fill="none" stroke="black" points="561,-125 561,-155 640,-155 640,-125 561,-125"/>
<text text-anchor="start" x="563.75" y="-135.8" font-family="Times,serif" font-size="14.00">0.290333333</text>
<polygon fill="#ffcc99" stroke="none" points="640,-125 640,-155 719,-155 719,-125 640,-125"/>
<polygon fill="none" stroke="black" points="640,-125 640,-155 719,-155 719,-125 640,-125"/>
<text text-anchor="start" x="642.75" y="-135.8" font-family="Times,serif" font-size="14.00">0.473666667</text>
<polygon fill="#ffcc99" stroke="none" points="719,-125 719,-155 798,-155 798,-125 719,-125"/>
<polygon fill="none" stroke="black" points="719,-125 719,-155 798,-155 798,-125 719,-125"/>
<text text-anchor="start" x="742.75" y="-135.8" font-family="Times,serif" font-size="14.00">0.857</text>
<polygon fill="#ffcc99" stroke="none" points="798,-125 798,-155 877,-155 877,-125 798,-125"/>
<polygon fill="none" stroke="black" points="798,-125 798,-155 877,-155 877,-125 798,-125"/>
<text text-anchor="start" x="800.75" y="-135.8" font-family="Times,serif" font-size="14.00">1.064333333</text>
<polygon fill="#ffffff" stroke="none" points="9,-95 9,-125 88,-125 88,-95 9,-95"/>
<polygon fill="none" stroke="black" points="9,-95 9,-125 88,-125 88,-95 9,-95"/>
<text text-anchor="start" x="39.75" y="-105.8" font-family="Times,serif" font-size="14.00">0.0</text>
<polygon fill="#ffffff" stroke="none" points="88,-95 88,-125 166,-125 166,-95 88,-95"/>
<polygon fill="none" stroke="black" points="88,-95 88,-125 166,-125 166,-95 88,-95"/>
<text text-anchor="start" x="118.25" y="-105.8" font-family="Times,serif" font-size="14.00">0.0</text>
<polygon fill="#ffffff" stroke="none" points="166,-95 166,-125 245,-125 245,-95 166,-95"/>
<polygon fill="none" stroke="black" points="166,-95 166,-125 245,-125 245,-95 166,-95"/>
<text text-anchor="start" x="196.75" y="-105.8" font-family="Times,serif" font-size="14.00">0.0</text>
<polygon fill="#ffffff" stroke="none" points="245,-95 245,-125 324,-125 324,-95 245,-95"/>
<polygon fill="none" stroke="black" points="245,-95 245,-125 324,-125 324,-95 245,-95"/>
<text text-anchor="start" x="275.75" y="-105.8" font-family="Times,serif" font-size="14.00">0.0</text>
<polygon fill="#ffffff" stroke="none" points="324,-95 324,-125 403,-125 403,-95 324,-95"/>
<polygon fill="none" stroke="black" points="324,-95 324,-125 403,-125 403,-95 324,-95"/>
<text text-anchor="start" x="354.75" y="-105.8" font-family="Times,serif" font-size="14.00">0.0</text>
<polygon fill="#ffffff" stroke="none" points="403,-95 403,-125 482,-125 482,-95 403,-95"/>
<polygon fill="none" stroke="black" points="403,-95 403,-125 482,-125 482,-95 403,-95"/>
<text text-anchor="start" x="433.75" y="-105.8" font-family="Times,serif" font-size="14.00">0.0</text>
<polygon fill="#ccffcc" stroke="none" points="482,-95 482,-125 561,-125 561,-95 482,-95"/>
<polygon fill="none" stroke="black" points="482,-95 482,-125 561,-125 561,-95 482,-95"/>
<text text-anchor="start" x="484.75" y="-105.8" font-family="Times,serif" font-size="14.00">0.095333333</text>
<polygon fill="#c0c0c0" stroke="none" points="561,-95 561,-125 640,-125 640,-95 561,-95"/>
<polygon fill="none" stroke="black" points="561,-95 561,-125 640,-125 640,-95 561,-95"/>
<text text-anchor="start" x="563.75" y="-105.8" font-family="Times,serif" font-size="14.00">0.257333333</text>
<polygon fill="#ffcc99" stroke="none" points="640,-95 640,-125 719,-125 719,-95 640,-95"/>
<polygon fill="none" stroke="black" points="640,-95 640,-125 719,-125 719,-95 640,-95"/>
<text text-anchor="start" x="663.75" y="-105.8" font-family="Times,serif" font-size="14.00">0.026</text>
<polygon fill="#ffcc99" stroke="none" points="719,-95 719,-125 798,-125 798,-95 719,-95"/>
<polygon fill="none" stroke="black" points="719,-95 719,-125 798,-125 798,-95 719,-95"/>
<text text-anchor="start" x="721.75" y="-105.8" font-family="Times,serif" font-size="14.00">0.003666667</text>
<polygon fill="#ffffff" stroke="none" points="798,-95 798,-125 877,-125 877,-95 798,-95"/>
<polygon fill="none" stroke="black" points="798,-95 798,-125 877,-125 877,-95 798,-95"/>
<text text-anchor="start" x="828.75" y="-105.8" font-family="Times,serif" font-size="14.00">0.0</text>
<polygon fill="#ffffff" stroke="none" points="9,-65 9,-95 88,-95 88,-65 9,-65"/>
<polygon fill="none" stroke="black" points="9,-65 9,-95 88,-95 88,-65 9,-65"/>
<text text-anchor="start" x="39.75" y="-75.8" font-family="Times,serif" font-size="14.00">0.0</text>
<polygon fill="#ffffff" stroke="none" points="88,-65 88,-95 166,-95 166,-65 88,-65"/>
<polygon fill="none" stroke="black" points="88,-65 88,-95 166,-95 166,-65 88,-65"/>
<text text-anchor="start" x="118.25" y="-75.8" font-family="Times,serif" font-size="14.00">0.0</text>
<polygon fill="#ffffff" stroke="none" points="166,-65 166,-95 245,-95 245,-65 166,-65"/>
<polygon fill="none" stroke="black" points="166,-65 166,-95 245,-95 245,-65 166,-65"/>
<text text-anchor="start" x="196.75" y="-75.8" font-family="Times,serif" font-size="14.00">0.0</text>
<polygon fill="#ffffff" stroke="none" points="245,-65 245,-95 324,-95 324,-65 245,-65"/>
<polygon fill="none" stroke="black" points="245,-65 245,-95 324,-95 324,-65 245,-65"/>
<text text-anchor="start" x="275.75" y="-75.8" font-family="Times,serif" font-size="14.00">0.0</text>
<polygon fill="#ffffff" stroke="none" points="324,-65 324,-95 403,-95 403,-65 324,-65"/>
<polygon fill="none" stroke="black" points="324,-65 324,-95 403,-95 403,-65 324,-65"/>
<text text-anchor="start" x="354.75" y="-75.8" font-family="Times,serif" font-size="14.00">0.0</text>
<polygon fill="#ffffff" stroke="none" points="403,-65 403,-95 482,-95 482,-65 403,-65"/>
<polygon fill="none" stroke="black" points="403,-65 403,-95 482,-95 482,-65 403,-65"/>
<text text-anchor="start" x="433.75" y="-75.8" font-family="Times,serif" font-size="14.00">0.0</text>
<polygon fill="#ccffcc" stroke="none" points="482,-65 482,-95 561,-95 561,-65 482,-65"/>
<polygon fill="none" stroke="black" points="482,-65 482,-95 561,-95 561,-65 482,-65"/>
<text text-anchor="start" x="484.75" y="-75.8" font-family="Times,serif" font-size="14.00">0.135666667</text>
<polygon fill="#ccffcc" stroke="none" points="561,-65 561,-95 640,-95 640,-65 561,-65"/>
<polygon fill="none" stroke="black" points="561,-65 561,-95 640,-95 640,-65 561,-65"/>
<text text-anchor="start" x="584.75" y="-75.8" font-family="Times,serif" font-size="14.00">0.204</text>
<polygon fill="#c0c0c0" stroke="none" points="640,-65 640,-95 719,-95 719,-65 640,-65"/>
<polygon fill="none" stroke="black" points="640,-65 640,-95 719,-95 719,-65 640,-65"/>
<text text-anchor="start" x="642.75" y="-75.8" font-family="Times,serif" font-size="14.00">0.084666667</text>
<polygon fill="#ffcc99" stroke="none" points="719,-65 719,-95 798,-95 798,-65 719,-65"/>
<polygon fill="none" stroke="black" points="719,-65 719,-95 798,-95 798,-65 719,-65"/>
<text text-anchor="start" x="742.75" y="-75.8" font-family="Times,serif" font-size="14.00">0.044</text>
<polygon fill="#ffcc99" stroke="none" points="798,-65 798,-95 877,-95 877,-65 798,-65"/>
<polygon fill="none" stroke="black" points="798,-65 798,-95 877,-95 877,-65 798,-65"/>
<text text-anchor="start" x="800.75" y="-75.8" font-family="Times,serif" font-size="14.00">0.008333333</text>
<polygon fill="#ffffff" stroke="none" points="9,-35 9,-65 88,-65 88,-35 9,-35"/>
<polygon fill="none" stroke="black" points="9,-35 9,-65 88,-65 88,-35 9,-35"/>
<text text-anchor="start" x="39.75" y="-45.8" font-family="Times,serif" font-size="14.00">0.0</text>
<polygon fill="#ffffff" stroke="none" points="88,-35 88,-65 166,-65 166,-35 88,-35"/>
<polygon fill="none" stroke="black" points="88,-35 88,-65 166,-65 166,-35 88,-35"/>
<text text-anchor="start" x="118.25" y="-45.8" font-family="Times,serif" font-size="14.00">0.0</text>
<polygon fill="#ffffff" stroke="none" points="166,-35 166,-65 245,-65 245,-35 166,-35"/>
<polygon fill="none" stroke="black" points="166,-35 166,-65 245,-65 245,-35 166,-35"/>
<text text-anchor="start" x="196.75" y="-45.8" font-family="Times,serif" font-size="14.00">0.0</text>
<polygon fill="#ffffff" stroke="none" points="245,-35 245,-65 324,-65 324,-35 245,-35"/>
<polygon fill="none" stroke="black" points="245,-35 245,-65 324,-65 324,-35 245,-35"/>
<text text-anchor="start" x="275.75" y="-45.8" font-family="Times,serif" font-size="14.00">0.0</text>
<polygon fill="#ffffff" stroke="none" points="324,-35 324,-65 403,-65 403,-35 324,-35"/>
<polygon fill="none" stroke="black" points="324,-35 324,-65 403,-65 403,-35 324,-35"/>
<text text-anchor="start" x="354.75" y="-45.8" font-family="Times,serif" font-size="14.00">0.0</text>
<polygon fill="#ffffff" stroke="none" points="403,-35 403,-65 482,-65 482,-35 403,-35"/>
<polygon fill="none" stroke="black" points="403,-35 403,-65 482,-65 482,-35 403,-35"/>
<text text-anchor="start" x="433.75" y="-45.8" font-family="Times,serif" font-size="14.00">0.0</text>
<polygon fill="#ccffcc" stroke="none" points="482,-35 482,-65 561,-65 561,-35 482,-35"/>
<polygon fill="none" stroke="black" points="482,-35 482,-65 561,-65 561,-35 482,-35"/>
<text text-anchor="start" x="484.75" y="-45.8" font-family="Times,serif" font-size="14.00">0.070666667</text>
<polygon fill="#ccffcc" stroke="none" points="561,-35 561,-65 640,-65 640,-35 561,-35"/>
<polygon fill="none" stroke="black" points="561,-35 561,-65 640,-65 640,-35 561,-35"/>
<text text-anchor="start" x="584.75" y="-45.8" font-family="Times,serif" font-size="14.00">0.137</text>
<polygon fill="#ccffcc" stroke="none" points="640,-35 640,-65 719,-65 719,-35 640,-35"/>
<polygon fill="none" stroke="black" points="640,-35 640,-65 719,-65 719,-35 640,-35"/>
<text text-anchor="start" x="642.75" y="-45.8" font-family="Times,serif" font-size="14.00">0.281666667</text>
<polygon fill="#c0c0c0" stroke="none" points="719,-35 719,-65 798,-65 798,-35 719,-35"/>
<polygon fill="none" stroke="black" points="719,-35 719,-65 798,-65 798,-35 719,-35"/>
<text text-anchor="start" x="721.75" y="-45.8" font-family="Times,serif" font-size="14.00">0.208666667</text>
<polygon fill="#ffcc99" stroke="none" points="798,-35 798,-65 877,-65 877,-35 798,-35"/>
<polygon fill="none" stroke="black" points="798,-35 798,-65 877,-65 877,-35 798,-35"/>
<text text-anchor="start" x="821.75" y="-45.8" font-family="Times,serif" font-size="14.00">0.075</text>
<polygon fill="#ffffff" stroke="none" points="9,-5 9,-35 88,-35 88,-5 9,-5"/>
<polygon fill="none" stroke="black" points="9,-5 9,-35 88,-35 88,-5 9,-5"/>
<text text-anchor="start" x="39.75" y="-15.8" font-family="Times,serif" font-size="14.00">0.0</text>
<polygon fill="#ffffff" stroke="none" points="88,-5 88,-35 166,-35 166,-5 88,-5"/>
<polygon fill="none" stroke="black" points="88,-5 88,-35 166,-35 166,-5 88,-5"/>
<text text-anchor="start" x="118.25" y="-15.8" font-family="Times,serif" font-size="14.00">0.0</text>
<polygon fill="#ffffff" stroke="none" points="166,-5 166,-35 245,-35 245,-5 166,-5"/>
<polygon fill="none" stroke="black" points="166,-5 166,-35 245,-35 245,-5 166,-5"/>
<text text-anchor="start" x="196.75" y="-15.8" font-family="Times,serif" font-size="14.00">0.0</text>
<polygon fill="#ffffff" stroke="none" points="245,-5 245,-35 324,-35 324,-5 245,-5"/>
<polygon fill="none" stroke="black" points="245,-5 245,-35 324,-35 324,-5 245,-5"/>
<text text-anchor="start" x="275.75" y="-15.8" font-family="Times,serif" font-size="14.00">0.0</text>
<polygon fill="#ffffff" stroke="none" points="324,-5 324,-35 403,-35 403,-5 324,-5"/>
<polygon fill="none" stroke="black" points="324,-5 324,-35 403,-35 403,-5 324,-5"/>
<text text-anchor="start" x="354.75" y="-15.8" font-family="Times,serif" font-size="14.00">0.0</text>
<polygon fill="#ffffff" stroke="none" points="403,-5 403,-35 482,-35 482,-5 403,-5"/>
<polygon fill="none" stroke="black" points="403,-5 403,-35 482,-35 482,-5 403,-5"/>
<text text-anchor="start" x="433.75" y="-15.8" font-family="Times,serif" font-size="14.00">0.0</text>
<polygon fill="#ccffcc" stroke="none" points="482,-5 482,-35 561,-35 561,-5 482,-5"/>
<polygon fill="none" stroke="black" points="482,-5 482,-35 561,-35 561,-5 482,-5"/>
<text text-anchor="start" x="484.75" y="-15.8" font-family="Times,serif" font-size="14.00">0.038333333</text>
<polygon fill="#ccffcc" stroke="none" points="561,-5 561,-35 640,-35 640,-5 561,-5"/>
<polygon fill="none" stroke="black" points="561,-5 561,-35 640,-35 640,-5 561,-5"/>
<text text-anchor="start" x="585.006" y="-15.8" font-family="Times,serif" font-size="14.00">0.311</text>
<polygon fill="#ccffcc" stroke="none" points="640,-5 640,-35 719,-35 719,-5 640,-5"/>
<polygon fill="none" stroke="black" points="640,-5 640,-35 719,-35 719,-5 640,-5"/>
<text text-anchor="start" x="663.75" y="-15.8" font-family="Times,serif" font-size="14.00">0.146</text>
<polygon fill="#ccffcc" stroke="none" points="719,-5 719,-35 798,-35 798,-5 719,-5"/>
<polygon fill="none" stroke="black" points="719,-5 719,-35 798,-35 798,-5 719,-5"/>
<text text-anchor="start" x="742.75" y="-15.8" font-family="Times,serif" font-size="14.00">0.233</text>
<polygon fill="#ffffff" stroke="none" points="798,-5 798,-35 877,-35 877,-5 798,-5"/>
<polygon fill="none" stroke="black" points="798,-5 798,-35 877,-35 877,-5 798,-5"/>
<text text-anchor="start" x="828.75" y="-15.8" font-family="Times,serif" font-size="14.00">0.0</text>
<polygon fill="none" stroke="black" points="8,-4 8,-336 878,-336 878,-4 8,-4"/>
</g>
</g>
</svg>
