<?xml version="1.0" encoding="UTF-8" standalone="no"?>
<!DOCTYPE svg PUBLIC "-//W3C//DTD SVG 1.1//EN"
 "http://www.w3.org/Graphics/SVG/1.1/DTD/svg11.dtd">
<!-- Generated by graphviz version 2.38.0 (20140413.2041)
 -->
<!-- Title: G Pages: 1 -->
<svg width="177pt" height="138pt"
 viewBox="0.00 0.00 177.00 138.00" xmlns="http://www.w3.org/2000/svg" xmlns:xlink="http://www.w3.org/1999/xlink">
<g id="graph0" class="graph" transform="scale(1 1) rotate(0) translate(4 134)">
<title>G</title>
<polygon fill="white" stroke="none" points="-4,4 -4,-134 173,-134 173,4 -4,4"/>
<!-- nodey -->
<g id="node1" class="node"><title>nodey</title>
<polygon fill="none" stroke="black" points="9.5,-95 9.5,-125 45.5,-125 45.5,-95 9.5,-95"/>
<text text-anchor="start" x="18.75" y="-105.8" font-family="Times,serif" font-size="14.00">0.0</text>
<polygon fill="none" stroke="black" points="45.5,-95 45.5,-125 75.5,-125 75.5,-95 45.5,-95"/>
<text text-anchor="start" x="48.25" y="-105.8" font-family="Times,serif" font-size="14.00">0.51</text>
<polygon fill="none" stroke="black" points="75.5,-95 75.5,-125 112.5,-125 112.5,-95 75.5,-95"/>
<text text-anchor="start" x="85.25" y="-105.8" font-family="Times,serif" font-size="14.00">0.0</text>
<polygon fill="none" stroke="black" points="112.5,-95 112.5,-125 160.5,-125 160.5,-95 112.5,-95"/>
<text text-anchor="start" x="115.312" y="-105.8" font-family="Times,serif" font-size="14.00">4.6e&#45;07</text>
<polygon fill="none" stroke="black" points="9.5,-65 9.5,-95 45.5,-95 45.5,-65 9.5,-65"/>
<text text-anchor="start" x="12.0063" y="-75.8" font-family="Times,serif" font-size="14.00">0.116</text>
<polygon fill="none" stroke="black" points="45.5,-65 45.5,-95 75.5,-95 75.5,-65 45.5,-65"/>
<text text-anchor="start" x="51.75" y="-75.8" font-family="Times,serif" font-size="14.00">0.0</text>
<polygon fill="none" stroke="black" points="75.5,-65 75.5,-95 112.5,-95 112.5,-65 75.5,-65"/>
<text text-anchor="start" x="85.25" y="-75.8" font-family="Times,serif" font-size="14.00">0.0</text>
<polygon fill="none" stroke="black" points="112.5,-65 112.5,-95 160.5,-95 160.5,-65 112.5,-65"/>
<text text-anchor="start" x="127.75" y="-75.8" font-family="Times,serif" font-size="14.00">0.0</text>
<polygon fill="none" stroke="black" points="9.5,-35 9.5,-65 45.5,-65 45.5,-35 9.5,-35"/>
<text text-anchor="start" x="18.75" y="-45.8" font-family="Times,serif" font-size="14.00">0.0</text>
<polygon fill="none" stroke="black" points="45.5,-35 45.5,-65 75.5,-65 75.5,-35 45.5,-35"/>
<text text-anchor="start" x="48.25" y="-45.8" font-family="Times,serif" font-size="14.00">0.81</text>
<polygon fill="none" stroke="black" points="75.5,-35 75.5,-65 112.5,-65 112.5,-35 75.5,-35"/>
<text text-anchor="start" x="85.25" y="-45.8" font-family="Times,serif" font-size="14.00">0.0</text>
<polygon fill="none" stroke="black" points="112.5,-35 112.5,-65 160.5,-65 160.5,-35 112.5,-35"/>
<text text-anchor="start" x="127.75" y="-45.8" font-family="Times,serif" font-size="14.00">0.0</text>
<polygon fill="none" stroke="black" points="9.5,-5 9.5,-35 45.5,-35 45.5,-5 9.5,-5"/>
<text text-anchor="start" x="18.75" y="-15.8" font-family="Times,serif" font-size="14.00">0.0</text>
<polygon fill="none" stroke="black" points="45.5,-5 45.5,-35 75.5,-35 75.5,-5 45.5,-5"/>
<text text-anchor="start" x="51.75" y="-15.8" font-family="Times,serif" font-size="14.00">0.0</text>
<polygon fill="none" stroke="black" points="75.5,-5 75.5,-35 112.5,-35 112.5,-5 75.5,-5"/>
<text text-anchor="start" x="78.25" y="-15.8" font-family="Times,serif" font-size="14.00">432.0</text>
<polygon fill="none" stroke="black" points="112.5,-5 112.5,-35 160.5,-35 160.5,-5 112.5,-5"/>
<text text-anchor="start" x="127.75" y="-15.8" font-family="Times,serif" font-size="14.00">0.0</text>
<polygon fill="none" stroke="black" points="8,-4 8,-126 161,-126 161,-4 8,-4"/>
</g>
</g>
</svg>
