<?xml version="1.0" encoding="UTF-8" standalone="no"?>
<!DOCTYPE svg PUBLIC "-//W3C//DTD SVG 1.1//EN"
 "http://www.w3.org/Graphics/SVG/1.1/DTD/svg11.dtd">
<!-- Generated by graphviz version 2.38.0 (20140413.2041)
 -->
<!-- Title: G Pages: 1 -->
<svg width="211pt" height="168pt"
 viewBox="0.00 0.00 211.00 168.00" xmlns="http://www.w3.org/2000/svg" xmlns:xlink="http://www.w3.org/1999/xlink">
<g id="graph0" class="graph" transform="scale(1 1) rotate(0) translate(4 164)">
<title>G</title>
<polygon fill="white" stroke="none" points="-4,4 -4,-164 207,-164 207,4 -4,4"/>
<!-- nodey -->
<g id="node1" class="node"><title>nodey</title>
<polygon fill="#c0c0c0" stroke="none" points="9.5,-125 9.5,-155 46.5,-155 46.5,-125 9.5,-125"/>
<polygon fill="none" stroke="black" points="9.5,-125 9.5,-155 46.5,-155 46.5,-125 9.5,-125"/>
<text text-anchor="start" x="12.25" y="-135.8" font-family="Times,serif" font-size="14.00">0.885</text>
<polygon fill="#ff99cb" stroke="none" points="46.5,-125 46.5,-155 83.5,-155 83.5,-125 46.5,-125"/>
<polygon fill="none" stroke="black" points="46.5,-125 46.5,-155 83.5,-155 83.5,-125 46.5,-125"/>
<text text-anchor="start" x="49.5063" y="-135.8" font-family="Times,serif" font-size="14.00">0.118</text>
<polygon fill="#ffffff" stroke="none" points="83.5,-125 83.5,-155 120.5,-155 120.5,-125 83.5,-125"/>
<polygon fill="none" stroke="black" points="83.5,-125 83.5,-155 120.5,-155 120.5,-125 83.5,-125"/>
<text text-anchor="start" x="93.25" y="-135.8" font-family="Times,serif" font-size="14.00">0.0</text>
<polygon fill="#ffffff" stroke="none" points="120.5,-125 120.5,-155 157.5,-155 157.5,-125 120.5,-125"/>
<polygon fill="none" stroke="black" points="120.5,-125 120.5,-155 157.5,-155 157.5,-125 120.5,-125"/>
<text text-anchor="start" x="130.25" y="-135.8" font-family="Times,serif" font-size="14.00">0.0</text>
<polygon fill="#ffffff" stroke="none" points="157.5,-125 157.5,-155 194.5,-155 194.5,-125 157.5,-125"/>
<polygon fill="none" stroke="black" points="157.5,-125 157.5,-155 194.5,-155 194.5,-125 157.5,-125"/>
<text text-anchor="start" x="167.25" y="-135.8" font-family="Times,serif" font-size="14.00">0.0</text>
<polygon fill="#ccffcc" stroke="none" points="9.5,-95 9.5,-125 46.5,-125 46.5,-95 9.5,-95"/>
<polygon fill="none" stroke="black" points="9.5,-95 9.5,-125 46.5,-125 46.5,-95 9.5,-95"/>
<text text-anchor="start" x="12.25" y="-105.8" font-family="Times,serif" font-size="14.00">0.038</text>
<polygon fill="#c0c0c0" stroke="none" points="46.5,-95 46.5,-125 83.5,-125 83.5,-95 46.5,-95"/>
<polygon fill="none" stroke="black" points="46.5,-95 46.5,-125 83.5,-125 83.5,-95 46.5,-95"/>
<text text-anchor="start" x="49.25" y="-105.8" font-family="Times,serif" font-size="14.00">0.765</text>
<polygon fill="#ffcc99" stroke="none" points="83.5,-95 83.5,-125 120.5,-125 120.5,-95 83.5,-95"/>
<polygon fill="none" stroke="black" points="83.5,-95 83.5,-125 120.5,-125 120.5,-95 83.5,-95"/>
<text text-anchor="start" x="86.25" y="-105.8" font-family="Times,serif" font-size="14.00">0.263</text>
<polygon fill="#ffffff" stroke="none" points="120.5,-95 120.5,-125 157.5,-125 157.5,-95 120.5,-95"/>
<polygon fill="none" stroke="black" points="120.5,-95 120.5,-125 157.5,-125 157.5,-95 120.5,-95"/>
<text text-anchor="start" x="130.25" y="-105.8" font-family="Times,serif" font-size="14.00">0.0</text>
<polygon fill="#ffcc99" stroke="none" points="157.5,-95 157.5,-125 194.5,-125 194.5,-95 157.5,-95"/>
<polygon fill="none" stroke="black" points="157.5,-95 157.5,-125 194.5,-125 194.5,-95 157.5,-95"/>
<text text-anchor="start" x="160.25" y="-105.8" font-family="Times,serif" font-size="14.00">0.037</text>
<polygon fill="#ffffff" stroke="none" points="9.5,-65 9.5,-95 46.5,-95 46.5,-65 9.5,-65"/>
<polygon fill="none" stroke="black" points="9.5,-65 9.5,-95 46.5,-95 46.5,-65 9.5,-65"/>
<text text-anchor="start" x="19.25" y="-75.8" font-family="Times,serif" font-size="14.00">0.0</text>
<polygon fill="#ffffff" stroke="none" points="46.5,-65 46.5,-95 83.5,-95 83.5,-65 46.5,-65"/>
<polygon fill="none" stroke="black" points="46.5,-65 46.5,-95 83.5,-95 83.5,-65 46.5,-65"/>
<text text-anchor="start" x="56.25" y="-75.8" font-family="Times,serif" font-size="14.00">0.0</text>
<polygon fill="#c0c0c0" stroke="none" points="83.5,-65 83.5,-95 120.5,-95 120.5,-65 83.5,-65"/>
<polygon fill="none" stroke="black" points="83.5,-65 83.5,-95 120.5,-95 120.5,-65 83.5,-65"/>
<text text-anchor="start" x="86.25" y="-75.8" font-family="Times,serif" font-size="14.00">0.421</text>
<polygon fill="#ffcc99" stroke="none" points="120.5,-65 120.5,-95 157.5,-95 157.5,-65 120.5,-65"/>
<polygon fill="none" stroke="black" points="120.5,-65 120.5,-95 157.5,-95 157.5,-65 120.5,-65"/>
<text text-anchor="start" x="123.25" y="-75.8" font-family="Times,serif" font-size="14.00">0.091</text>
<polygon fill="#ffcc99" stroke="none" points="157.5,-65 157.5,-95 194.5,-95 194.5,-65 157.5,-65"/>
<polygon fill="none" stroke="black" points="157.5,-65 157.5,-95 194.5,-95 194.5,-65 157.5,-65"/>
<text text-anchor="start" x="160.25" y="-75.8" font-family="Times,serif" font-size="14.00">0.074</text>
<polygon fill="#ffffff" stroke="none" points="9.5,-35 9.5,-65 46.5,-65 46.5,-35 9.5,-35"/>
<polygon fill="none" stroke="black" points="9.5,-35 9.5,-65 46.5,-65 46.5,-35 9.5,-35"/>
<text text-anchor="start" x="19.25" y="-45.8" font-family="Times,serif" font-size="14.00">0.0</text>
<polygon fill="#ccffcc" stroke="none" points="46.5,-35 46.5,-65 83.5,-65 83.5,-35 46.5,-35"/>
<polygon fill="none" stroke="black" points="46.5,-35 46.5,-65 83.5,-65 83.5,-35 46.5,-35"/>
<text text-anchor="start" x="49.5063" y="-45.8" font-family="Times,serif" font-size="14.00">0.118</text>
<polygon fill="#ccffcc" stroke="none" points="83.5,-35 83.5,-65 120.5,-65 120.5,-35 83.5,-35"/>
<polygon fill="none" stroke="black" points="83.5,-35 83.5,-65 120.5,-65 120.5,-35 83.5,-35"/>
<text text-anchor="start" x="86.5063" y="-45.8" font-family="Times,serif" font-size="14.00">0.211</text>
<polygon fill="#c0c0c0" stroke="none" points="120.5,-35 120.5,-65 157.5,-65 157.5,-35 120.5,-35"/>
<polygon fill="none" stroke="black" points="120.5,-35 120.5,-65 157.5,-65 157.5,-35 120.5,-35"/>
<text text-anchor="start" x="123.25" y="-45.8" font-family="Times,serif" font-size="14.00">0.182</text>
<polygon fill="#ffcc99" stroke="none" points="157.5,-35 157.5,-65 194.5,-65 194.5,-35 157.5,-35"/>
<polygon fill="none" stroke="black" points="157.5,-35 157.5,-65 194.5,-65 194.5,-35 157.5,-35"/>
<text text-anchor="start" x="160.25" y="-45.8" font-family="Times,serif" font-size="14.00">0.037</text>
<polygon fill="#ffffff" stroke="none" points="9.5,-5 9.5,-35 46.5,-35 46.5,-5 9.5,-5"/>
<polygon fill="none" stroke="black" points="9.5,-5 9.5,-35 46.5,-35 46.5,-5 9.5,-5"/>
<text text-anchor="start" x="19.25" y="-15.8" font-family="Times,serif" font-size="14.00">0.0</text>
<polygon fill="#ffffff" stroke="none" points="46.5,-5 46.5,-35 83.5,-35 83.5,-5 46.5,-5"/>
<polygon fill="none" stroke="black" points="46.5,-5 46.5,-35 83.5,-35 83.5,-5 46.5,-5"/>
<text text-anchor="start" x="56.25" y="-15.8" font-family="Times,serif" font-size="14.00">0.0</text>
<polygon fill="#ccffcc" stroke="none" points="83.5,-5 83.5,-35 120.5,-35 120.5,-5 83.5,-5"/>
<polygon fill="none" stroke="black" points="83.5,-5 83.5,-35 120.5,-35 120.5,-5 83.5,-5"/>
<text text-anchor="start" x="86.25" y="-15.8" font-family="Times,serif" font-size="14.00">0.105</text>
<polygon fill="#ccffcc" stroke="none" points="120.5,-5 120.5,-35 157.5,-35 157.5,-5 120.5,-5"/>
<polygon fill="none" stroke="black" points="120.5,-5 120.5,-35 157.5,-35 157.5,-5 120.5,-5"/>
<text text-anchor="start" x="123.25" y="-15.8" font-family="Times,serif" font-size="14.00">0.682</text>
<polygon fill="#c0c0c0" stroke="none" points="157.5,-5 157.5,-35 194.5,-35 194.5,-5 157.5,-5"/>
<polygon fill="none" stroke="black" points="157.5,-5 157.5,-35 194.5,-35 194.5,-5 157.5,-5"/>
<text text-anchor="start" x="160.25" y="-15.8" font-family="Times,serif" font-size="14.00">0.815</text>
<polygon fill="none" stroke="black" points="8,-4 8,-156 195,-156 195,-4 8,-4"/>
</g>
</g>
</svg>
