<?xml version="1.0" encoding="UTF-8" standalone="no"?>
<!DOCTYPE svg PUBLIC "-//W3C//DTD SVG 1.1//EN"
 "http://www.w3.org/Graphics/SVG/1.1/DTD/svg11.dtd">
<!-- Generated by graphviz version 2.38.0 (20140413.2041)
 -->
<!-- Title: G Pages: 1 -->
<svg width="464pt" height="198pt"
 viewBox="0.00 0.00 464.00 198.00" xmlns="http://www.w3.org/2000/svg" xmlns:xlink="http://www.w3.org/1999/xlink">
<g id="graph0" class="graph" transform="scale(1 1) rotate(0) translate(4 194)">
<title>G</title>
<polygon fill="white" stroke="none" points="-4,4 -4,-194 460,-194 460,4 -4,4"/>
<!-- nodey -->
<g id="node1" class="node"><title>nodey</title>
<polygon fill="none" stroke="black" points="9,-165 9,-185 53,-185 53,-165 9,-165"/>
<text text-anchor="start" x="11.75" y="-170.8" font-family="Times,serif" font-size="14.00">0.0707</text>
<polygon fill="none" stroke="black" points="53,-165 53,-185 97,-185 97,-165 53,-165"/>
<text text-anchor="start" x="55.75" y="-170.8" font-family="Times,serif" font-size="14.00">0.2677</text>
<polygon fill="none" stroke="black" points="97,-165 97,-185 141,-185 141,-165 97,-165"/>
<text text-anchor="start" x="99.75" y="-170.8" font-family="Times,serif" font-size="14.00">0.6653</text>
<polygon fill="none" stroke="black" points="141,-165 141,-185 185,-185 185,-165 141,-165"/>
<text text-anchor="start" x="143.75" y="-170.8" font-family="Times,serif" font-size="14.00">2.3032</text>
<polygon fill="none" stroke="black" points="185,-165 185,-185 229,-185 229,-165 185,-165"/>
<text text-anchor="start" x="187.75" y="-170.8" font-family="Times,serif" font-size="14.00">8.8009</text>
<polygon fill="none" stroke="black" points="229,-165 229,-185 280,-185 280,-165 229,-165"/>
<text text-anchor="start" x="231.75" y="-170.8" font-family="Times,serif" font-size="14.00">49.8703</text>
<polygon fill="none" stroke="black" points="280,-165 280,-185 331,-185 331,-165 280,-165"/>
<text text-anchor="start" x="282.75" y="-170.8" font-family="Times,serif" font-size="14.00">99.0444</text>
<polygon fill="none" stroke="black" points="331,-165 331,-185 389,-185 389,-165 331,-165"/>
<text text-anchor="start" x="333.75" y="-170.8" font-family="Times,serif" font-size="14.00">138.4946</text>
<polygon fill="none" stroke="black" points="389,-165 389,-185 447,-185 447,-165 389,-165"/>
<text text-anchor="start" x="391.75" y="-170.8" font-family="Times,serif" font-size="14.00">142.0626</text>
<polygon fill="none" stroke="black" points="9,-145 9,-165 53,-165 53,-145 9,-145"/>
<text text-anchor="start" x="22.25" y="-150.8" font-family="Times,serif" font-size="14.00">0.0</text>
<polygon fill="none" stroke="black" points="53,-145 53,-165 97,-165 97,-145 53,-145"/>
<text text-anchor="start" x="66.25" y="-150.8" font-family="Times,serif" font-size="14.00">0.0</text>
<polygon fill="none" stroke="black" points="97,-145 97,-165 141,-165 141,-145 97,-145"/>
<text text-anchor="start" x="110.25" y="-150.8" font-family="Times,serif" font-size="14.00">0.0</text>
<polygon fill="none" stroke="black" points="141,-145 141,-165 185,-165 185,-145 141,-145"/>
<text text-anchor="start" x="154.25" y="-150.8" font-family="Times,serif" font-size="14.00">0.0</text>
<polygon fill="none" stroke="black" points="185,-145 185,-165 229,-165 229,-145 185,-145"/>
<text text-anchor="start" x="198.25" y="-150.8" font-family="Times,serif" font-size="14.00">0.0</text>
<polygon fill="none" stroke="black" points="229,-145 229,-165 280,-165 280,-145 229,-145"/>
<text text-anchor="start" x="245.75" y="-150.8" font-family="Times,serif" font-size="14.00">0.0</text>
<polygon fill="none" stroke="black" points="280,-145 280,-165 331,-165 331,-145 280,-145"/>
<text text-anchor="start" x="296.75" y="-150.8" font-family="Times,serif" font-size="14.00">0.0</text>
<polygon fill="none" stroke="black" points="331,-145 331,-165 389,-165 389,-145 331,-145"/>
<text text-anchor="start" x="351.25" y="-150.8" font-family="Times,serif" font-size="14.00">0.0</text>
<polygon fill="none" stroke="black" points="389,-145 389,-165 447,-165 447,-145 389,-145"/>
<text text-anchor="start" x="409.25" y="-150.8" font-family="Times,serif" font-size="14.00">0.0</text>
<polygon fill="none" stroke="black" points="9,-125 9,-145 53,-145 53,-125 9,-125"/>
<text text-anchor="start" x="22.25" y="-130.8" font-family="Times,serif" font-size="14.00">0.0</text>
<polygon fill="none" stroke="black" points="53,-125 53,-145 97,-145 97,-125 53,-125"/>
<text text-anchor="start" x="55.75" y="-130.8" font-family="Times,serif" font-size="14.00">0.0003</text>
<polygon fill="none" stroke="black" points="97,-125 97,-145 141,-145 141,-125 97,-125"/>
<text text-anchor="start" x="99.75" y="-130.8" font-family="Times,serif" font-size="14.00">0.0019</text>
<polygon fill="none" stroke="black" points="141,-125 141,-145 185,-145 185,-125 141,-125"/>
<text text-anchor="start" x="143.75" y="-130.8" font-family="Times,serif" font-size="14.00">0.0087</text>
<polygon fill="none" stroke="black" points="185,-125 185,-145 229,-145 229,-125 185,-125"/>
<text text-anchor="start" x="187.75" y="-130.8" font-family="Times,serif" font-size="14.00">0.0761</text>
<polygon fill="none" stroke="black" points="229,-125 229,-145 280,-145 280,-125 229,-125"/>
<text text-anchor="start" x="235.25" y="-130.8" font-family="Times,serif" font-size="14.00">1.2263</text>
<polygon fill="none" stroke="black" points="280,-125 280,-145 331,-145 331,-125 280,-125"/>
<text text-anchor="start" x="286.25" y="-130.8" font-family="Times,serif" font-size="14.00">3.1622</text>
<polygon fill="none" stroke="black" points="331,-125 331,-145 389,-145 389,-125 331,-125"/>
<text text-anchor="start" x="340.75" y="-130.8" font-family="Times,serif" font-size="14.00">5.0136</text>
<polygon fill="none" stroke="black" points="389,-125 389,-145 447,-145 447,-125 389,-125"/>
<text text-anchor="start" x="398.75" y="-130.8" font-family="Times,serif" font-size="14.00">4.9893</text>
<polygon fill="none" stroke="black" points="9,-105 9,-125 53,-125 53,-105 9,-105"/>
<text text-anchor="start" x="11.75" y="-110.8" font-family="Times,serif" font-size="14.00">0.0001</text>
<polygon fill="none" stroke="black" points="53,-105 53,-125 97,-125 97,-105 53,-105"/>
<text text-anchor="start" x="55.75" y="-110.8" font-family="Times,serif" font-size="14.00">0.0005</text>
<polygon fill="none" stroke="black" points="97,-105 97,-125 141,-125 141,-105 97,-105"/>
<text text-anchor="start" x="99.75" y="-110.8" font-family="Times,serif" font-size="14.00">0.0032</text>
<polygon fill="none" stroke="black" points="141,-105 141,-125 185,-125 185,-105 141,-105"/>
<text text-anchor="start" x="147.25" y="-110.8" font-family="Times,serif" font-size="14.00">0.014</text>
<polygon fill="none" stroke="black" points="185,-105 185,-125 229,-125 229,-105 185,-105"/>
<text text-anchor="start" x="187.75" y="-110.8" font-family="Times,serif" font-size="14.00">0.1207</text>
<polygon fill="none" stroke="black" points="229,-105 229,-125 280,-125 280,-105 229,-105"/>
<text text-anchor="start" x="235.25" y="-110.8" font-family="Times,serif" font-size="14.00">1.9417</text>
<polygon fill="none" stroke="black" points="280,-105 280,-125 331,-125 331,-105 280,-105"/>
<text text-anchor="start" x="286.25" y="-110.8" font-family="Times,serif" font-size="14.00">5.0261</text>
<polygon fill="none" stroke="black" points="331,-105 331,-125 389,-125 389,-105 331,-105"/>
<text text-anchor="start" x="340.75" y="-110.8" font-family="Times,serif" font-size="14.00">7.9674</text>
<polygon fill="none" stroke="black" points="389,-105 389,-125 447,-125 447,-105 389,-105"/>
<text text-anchor="start" x="402.25" y="-110.8" font-family="Times,serif" font-size="14.00">7.937</text>
<polygon fill="none" stroke="black" points="9,-85 9,-105 53,-105 53,-85 9,-85"/>
<text text-anchor="start" x="11.75" y="-90.8" font-family="Times,serif" font-size="14.00">0.0004</text>
<polygon fill="none" stroke="black" points="53,-85 53,-105 97,-105 97,-85 53,-85"/>
<text text-anchor="start" x="55.75" y="-90.8" font-family="Times,serif" font-size="14.00">0.0015</text>
<polygon fill="none" stroke="black" points="97,-85 97,-105 141,-105 141,-85 97,-85"/>
<text text-anchor="start" x="99.75" y="-90.8" font-family="Times,serif" font-size="14.00">0.0054</text>
<polygon fill="none" stroke="black" points="141,-85 141,-105 185,-105 185,-85 141,-85"/>
<text text-anchor="start" x="143.75" y="-90.8" font-family="Times,serif" font-size="14.00">0.0212</text>
<polygon fill="none" stroke="black" points="185,-85 185,-105 229,-105 229,-85 185,-85"/>
<text text-anchor="start" x="187.75" y="-90.8" font-family="Times,serif" font-size="14.00">0.1576</text>
<polygon fill="none" stroke="black" points="229,-85 229,-105 280,-105 280,-85 229,-85"/>
<text text-anchor="start" x="238.75" y="-90.8" font-family="Times,serif" font-size="14.00">2.415</text>
<polygon fill="none" stroke="black" points="280,-85 280,-105 331,-105 331,-85 280,-85"/>
<text text-anchor="start" x="286.25" y="-90.8" font-family="Times,serif" font-size="14.00">6.3469</text>
<polygon fill="none" stroke="black" points="331,-85 331,-105 389,-105 389,-85 331,-85"/>
<text text-anchor="start" x="337.25" y="-90.8" font-family="Times,serif" font-size="14.00">10.0396</text>
<polygon fill="none" stroke="black" points="389,-85 389,-105 447,-105 447,-85 389,-85"/>
<text text-anchor="start" x="398.75" y="-90.8" font-family="Times,serif" font-size="14.00">10.053</text>
<polygon fill="none" stroke="black" points="9,-65 9,-85 53,-85 53,-65 9,-65"/>
<text text-anchor="start" x="11.75" y="-70.8" font-family="Times,serif" font-size="14.00">0.0002</text>
<polygon fill="none" stroke="black" points="53,-65 53,-85 97,-85 97,-65 53,-65"/>
<text text-anchor="start" x="55.75" y="-70.8" font-family="Times,serif" font-size="14.00">0.0007</text>
<polygon fill="none" stroke="black" points="97,-65 97,-85 141,-85 141,-65 97,-65"/>
<text text-anchor="start" x="99.75" y="-70.8" font-family="Times,serif" font-size="14.00">0.0017</text>
<polygon fill="none" stroke="black" points="141,-65 141,-85 185,-85 185,-65 141,-65"/>
<text text-anchor="start" x="143.75" y="-70.8" font-family="Times,serif" font-size="14.00">0.0058</text>
<polygon fill="none" stroke="black" points="185,-65 185,-85 229,-85 229,-65 185,-65"/>
<text text-anchor="start" x="187.75" y="-70.8" font-family="Times,serif" font-size="14.00">0.0309</text>
<polygon fill="none" stroke="black" points="229,-65 229,-85 280,-85 280,-65 229,-65"/>
<text text-anchor="start" x="235.25" y="-70.8" font-family="Times,serif" font-size="14.00">0.3764</text>
<polygon fill="none" stroke="black" points="280,-65 280,-85 331,-85 331,-65 280,-65"/>
<text text-anchor="start" x="286.25" y="-70.8" font-family="Times,serif" font-size="14.00">0.9959</text>
<polygon fill="none" stroke="black" points="331,-65 331,-85 389,-85 389,-65 331,-65"/>
<text text-anchor="start" x="340.75" y="-70.8" font-family="Times,serif" font-size="14.00">1.5564</text>
<polygon fill="none" stroke="black" points="389,-65 389,-85 447,-85 447,-65 389,-65"/>
<text text-anchor="start" x="398.75" y="-70.8" font-family="Times,serif" font-size="14.00">1.5754</text>
<polygon fill="none" stroke="black" points="9,-45 9,-65 53,-65 53,-45 9,-45"/>
<text text-anchor="start" x="11.75" y="-50.8" font-family="Times,serif" font-size="14.00">0.0001</text>
<polygon fill="none" stroke="black" points="53,-45 53,-65 97,-65 97,-45 53,-45"/>
<text text-anchor="start" x="55.75" y="-50.8" font-family="Times,serif" font-size="14.00">0.0003</text>
<polygon fill="none" stroke="black" points="97,-45 97,-65 141,-65 141,-45 97,-45"/>
<text text-anchor="start" x="99.75" y="-50.8" font-family="Times,serif" font-size="14.00">0.0006</text>
<polygon fill="none" stroke="black" points="141,-45 141,-65 185,-65 185,-45 141,-45"/>
<text text-anchor="start" x="147.25" y="-50.8" font-family="Times,serif" font-size="14.00">0.002</text>
<polygon fill="none" stroke="black" points="185,-45 185,-65 229,-65 229,-45 185,-45"/>
<text text-anchor="start" x="187.75" y="-50.8" font-family="Times,serif" font-size="14.00">0.0077</text>
<polygon fill="none" stroke="black" points="229,-45 229,-65 280,-65 280,-45 229,-45"/>
<text text-anchor="start" x="235.25" y="-50.8" font-family="Times,serif" font-size="14.00">0.0555</text>
<polygon fill="none" stroke="black" points="280,-45 280,-65 331,-65 331,-45 280,-45"/>
<text text-anchor="start" x="286.506" y="-50.8" font-family="Times,serif" font-size="14.00">0.1411</text>
<polygon fill="none" stroke="black" points="331,-45 331,-65 389,-65 389,-45 331,-45"/>
<text text-anchor="start" x="340.75" y="-50.8" font-family="Times,serif" font-size="14.00">0.2104</text>
<polygon fill="none" stroke="black" points="389,-45 389,-65 447,-65 447,-45 389,-45"/>
<text text-anchor="start" x="398.75" y="-50.8" font-family="Times,serif" font-size="14.00">0.2184</text>
<polygon fill="none" stroke="black" points="9,-25 9,-45 53,-45 53,-25 9,-25"/>
<text text-anchor="start" x="22.25" y="-30.8" font-family="Times,serif" font-size="14.00">0.0</text>
<polygon fill="none" stroke="black" points="53,-25 53,-45 97,-45 97,-25 53,-25"/>
<text text-anchor="start" x="55.75" y="-30.8" font-family="Times,serif" font-size="14.00">0.0001</text>
<polygon fill="none" stroke="black" points="97,-25 97,-45 141,-45 141,-25 97,-25"/>
<text text-anchor="start" x="99.75" y="-30.8" font-family="Times,serif" font-size="14.00">0.0003</text>
<polygon fill="none" stroke="black" points="141,-25 141,-45 185,-45 185,-25 141,-25"/>
<text text-anchor="start" x="143.75" y="-30.8" font-family="Times,serif" font-size="14.00">0.0008</text>
<polygon fill="none" stroke="black" points="185,-25 185,-45 229,-45 229,-25 185,-25"/>
<text text-anchor="start" x="187.75" y="-30.8" font-family="Times,serif" font-size="14.00">0.0031</text>
<polygon fill="none" stroke="black" points="229,-25 229,-45 280,-45 280,-25 229,-25"/>
<text text-anchor="start" x="235.25" y="-30.8" font-family="Times,serif" font-size="14.00">0.0166</text>
<polygon fill="none" stroke="black" points="280,-25 280,-45 331,-45 331,-25 280,-25"/>
<text text-anchor="start" x="286.25" y="-30.8" font-family="Times,serif" font-size="14.00">0.0356</text>
<polygon fill="none" stroke="black" points="331,-25 331,-45 389,-45 389,-25 331,-25"/>
<text text-anchor="start" x="340.75" y="-30.8" font-family="Times,serif" font-size="14.00">0.0495</text>
<polygon fill="none" stroke="black" points="389,-25 389,-45 447,-45 447,-25 389,-25"/>
<text text-anchor="start" x="398.75" y="-30.8" font-family="Times,serif" font-size="14.00">0.0513</text>
<polygon fill="none" stroke="black" points="9,-5 9,-25 53,-25 53,-5 9,-5"/>
<text text-anchor="start" x="22.25" y="-10.8" font-family="Times,serif" font-size="14.00">0.0</text>
<polygon fill="none" stroke="black" points="53,-5 53,-25 97,-25 97,-5 53,-5"/>
<text text-anchor="start" x="66.25" y="-10.8" font-family="Times,serif" font-size="14.00">0.0</text>
<polygon fill="none" stroke="black" points="97,-5 97,-25 141,-25 141,-5 97,-5"/>
<text text-anchor="start" x="99.75" y="-10.8" font-family="Times,serif" font-size="14.00">0.0001</text>
<polygon fill="none" stroke="black" points="141,-5 141,-25 185,-25 185,-5 141,-5"/>
<text text-anchor="start" x="143.75" y="-10.8" font-family="Times,serif" font-size="14.00">0.0002</text>
<polygon fill="none" stroke="black" points="185,-5 185,-25 229,-25 229,-5 185,-5"/>
<text text-anchor="start" x="191.25" y="-10.8" font-family="Times,serif" font-size="14.00">0.001</text>
<polygon fill="none" stroke="black" points="229,-5 229,-25 280,-25 280,-5 229,-5"/>
<text text-anchor="start" x="235.25" y="-10.8" font-family="Times,serif" font-size="14.00">0.0058</text>
<polygon fill="none" stroke="black" points="280,-5 280,-25 331,-25 331,-5 280,-5"/>
<text text-anchor="start" x="286.25" y="-10.8" font-family="Times,serif" font-size="14.00">0.0096</text>
<polygon fill="none" stroke="black" points="331,-5 331,-25 389,-25 389,-5 331,-5"/>
<text text-anchor="start" x="340.75" y="-10.8" font-family="Times,serif" font-size="14.00">0.0131</text>
<polygon fill="none" stroke="black" points="389,-5 389,-25 447,-25 447,-5 389,-5"/>
<text text-anchor="start" x="398.75" y="-10.8" font-family="Times,serif" font-size="14.00">0.0131</text>
<polygon fill="none" stroke="black" points="8,-4 8,-186 448,-186 448,-4 8,-4"/>
</g>
</g>
</svg>
