<?xml version="1.0" encoding="UTF-8" standalone="no"?>
<!DOCTYPE svg PUBLIC "-//W3C//DTD SVG 1.1//EN"
 "http://www.w3.org/Graphics/SVG/1.1/DTD/svg11.dtd">
<!-- Generated by graphviz version 2.38.0 (20140413.2041)
 -->
<!-- Title: G Pages: 1 -->
<svg width="325pt" height="198pt"
 viewBox="0.00 0.00 325.00 198.00" xmlns="http://www.w3.org/2000/svg" xmlns:xlink="http://www.w3.org/1999/xlink">
<g id="graph0" class="graph" transform="scale(1 1) rotate(0) translate(4 194)">
<title>G</title>
<polygon fill="white" stroke="none" points="-4,4 -4,-194 321,-194 321,4 -4,4"/>
<!-- nodey -->
<g id="node1" class="node"><title>nodey</title>
<polygon fill="#c0c0c0" stroke="none" points="9.5,-155 9.5,-185 60.5,-185 60.5,-155 9.5,-155"/>
<polygon fill="none" stroke="black" points="9.5,-155 9.5,-185 60.5,-185 60.5,-155 9.5,-155"/>
<text text-anchor="start" x="12.25" y="-165.8" font-family="Times,serif" font-size="14.00">0.46145</text>
<polygon fill="#ff99cb" stroke="none" points="60.5,-155 60.5,-185 111.5,-185 111.5,-155 60.5,-155"/>
<polygon fill="none" stroke="black" points="60.5,-155 60.5,-185 111.5,-185 111.5,-155 60.5,-155"/>
<text text-anchor="start" x="70.25" y="-165.8" font-family="Times,serif" font-size="14.00">0.153</text>
<polygon fill="#ff99cb" stroke="none" points="111.5,-155 111.5,-185 162.5,-185 162.5,-155 111.5,-155"/>
<polygon fill="none" stroke="black" points="111.5,-155 111.5,-185 162.5,-185 162.5,-155 111.5,-155"/>
<text text-anchor="start" x="114.25" y="-165.8" font-family="Times,serif" font-size="14.00">0.33615</text>
<polygon fill="#ff99cb" stroke="none" points="162.5,-155 162.5,-185 213.5,-185 213.5,-155 162.5,-155"/>
<polygon fill="none" stroke="black" points="162.5,-155 162.5,-185 213.5,-185 213.5,-155 162.5,-155"/>
<text text-anchor="start" x="165.25" y="-165.8" font-family="Times,serif" font-size="14.00">0.24765</text>
<polygon fill="#ff99cb" stroke="none" points="213.5,-155 213.5,-185 257.5,-185 257.5,-155 213.5,-155"/>
<polygon fill="none" stroke="black" points="213.5,-155 213.5,-185 257.5,-185 257.5,-155 213.5,-155"/>
<text text-anchor="start" x="216.25" y="-165.8" font-family="Times,serif" font-size="14.00">0.5238</text>
<polygon fill="#ff99cb" stroke="none" points="257.5,-155 257.5,-185 308.5,-185 308.5,-155 257.5,-155"/>
<polygon fill="none" stroke="black" points="257.5,-155 257.5,-185 308.5,-185 308.5,-155 257.5,-155"/>
<text text-anchor="start" x="260.25" y="-165.8" font-family="Times,serif" font-size="14.00">0.59225</text>
<polygon fill="#ccffcc" stroke="none" points="9.5,-125 9.5,-155 60.5,-155 60.5,-125 9.5,-125"/>
<polygon fill="none" stroke="black" points="9.5,-125 9.5,-155 60.5,-155 60.5,-125 9.5,-125"/>
<text text-anchor="start" x="15.75" y="-135.8" font-family="Times,serif" font-size="14.00">0.2096</text>
<polygon fill="#c0c0c0" stroke="none" points="60.5,-125 60.5,-155 111.5,-155 111.5,-125 60.5,-125"/>
<polygon fill="none" stroke="black" points="60.5,-125 60.5,-155 111.5,-155 111.5,-125 60.5,-125"/>
<text text-anchor="start" x="67.0063" y="-135.8" font-family="Times,serif" font-size="14.00">0.2118</text>
<polygon fill="#ffcc99" stroke="none" points="111.5,-125 111.5,-155 162.5,-155 162.5,-125 111.5,-125"/>
<polygon fill="none" stroke="black" points="111.5,-125 111.5,-155 162.5,-155 162.5,-125 111.5,-125"/>
<text text-anchor="start" x="114.25" y="-135.8" font-family="Times,serif" font-size="14.00">0.33615</text>
<polygon fill="#ffcc99" stroke="none" points="162.5,-125 162.5,-155 213.5,-155 213.5,-125 162.5,-125"/>
<polygon fill="none" stroke="black" points="162.5,-125 162.5,-155 213.5,-155 213.5,-125 162.5,-125"/>
<text text-anchor="start" x="165.25" y="-135.8" font-family="Times,serif" font-size="14.00">0.24765</text>
<polygon fill="#ffcc99" stroke="none" points="213.5,-125 213.5,-155 257.5,-155 257.5,-125 213.5,-125"/>
<polygon fill="none" stroke="black" points="213.5,-125 213.5,-155 257.5,-155 257.5,-125 213.5,-125"/>
<text text-anchor="start" x="216.25" y="-135.8" font-family="Times,serif" font-size="14.00">0.5238</text>
<polygon fill="#ffcc99" stroke="none" points="257.5,-125 257.5,-155 308.5,-155 308.5,-125 257.5,-125"/>
<polygon fill="none" stroke="black" points="257.5,-125 257.5,-155 308.5,-155 308.5,-125 257.5,-125"/>
<text text-anchor="start" x="260.25" y="-135.8" font-family="Times,serif" font-size="14.00">0.59225</text>
<polygon fill="#ccffcc" stroke="none" points="9.5,-95 9.5,-125 60.5,-125 60.5,-95 9.5,-95"/>
<polygon fill="none" stroke="black" points="9.5,-95 9.5,-125 60.5,-125 60.5,-95 9.5,-95"/>
<text text-anchor="start" x="15.75" y="-105.8" font-family="Times,serif" font-size="14.00">0.0705</text>
<polygon fill="#ccffcc" stroke="none" points="60.5,-95 60.5,-125 111.5,-125 111.5,-95 60.5,-95"/>
<polygon fill="none" stroke="black" points="60.5,-95 60.5,-125 111.5,-125 111.5,-95 60.5,-95"/>
<text text-anchor="start" x="66.75" y="-105.8" font-family="Times,serif" font-size="14.00">0.0633</text>
<polygon fill="#c0c0c0" stroke="none" points="111.5,-95 111.5,-125 162.5,-125 162.5,-95 111.5,-95"/>
<polygon fill="none" stroke="black" points="111.5,-95 111.5,-125 162.5,-125 162.5,-95 111.5,-95"/>
<text text-anchor="start" x="114.25" y="-105.8" font-family="Times,serif" font-size="14.00">0.10815</text>
<polygon fill="#ffcc99" stroke="none" points="162.5,-95 162.5,-125 213.5,-125 213.5,-95 162.5,-95"/>
<polygon fill="none" stroke="black" points="162.5,-95 162.5,-125 213.5,-125 213.5,-95 162.5,-95"/>
<text text-anchor="start" x="168.75" y="-105.8" font-family="Times,serif" font-size="14.00">0.0827</text>
<polygon fill="#ffffff" stroke="none" points="213.5,-95 213.5,-125 257.5,-125 257.5,-95 213.5,-95"/>
<polygon fill="none" stroke="black" points="213.5,-95 213.5,-125 257.5,-125 257.5,-95 213.5,-95"/>
<text text-anchor="start" x="226.75" y="-105.8" font-family="Times,serif" font-size="14.00">0.0</text>
<polygon fill="#ffffff" stroke="none" points="257.5,-95 257.5,-125 308.5,-125 308.5,-95 257.5,-95"/>
<polygon fill="none" stroke="black" points="257.5,-95 257.5,-125 308.5,-125 308.5,-95 257.5,-95"/>
<text text-anchor="start" x="274.25" y="-105.8" font-family="Times,serif" font-size="14.00">0.0</text>
<polygon fill="#ccffcc" stroke="none" points="9.5,-65 9.5,-95 60.5,-95 60.5,-65 9.5,-65"/>
<polygon fill="none" stroke="black" points="9.5,-65 9.5,-95 60.5,-95 60.5,-65 9.5,-65"/>
<text text-anchor="start" x="15.75" y="-75.8" font-family="Times,serif" font-size="14.00">0.0267</text>
<polygon fill="#ccffcc" stroke="none" points="60.5,-65 60.5,-95 111.5,-95 111.5,-65 60.5,-65"/>
<polygon fill="none" stroke="black" points="60.5,-65 60.5,-95 111.5,-95 111.5,-65 60.5,-65"/>
<text text-anchor="start" x="66.75" y="-75.8" font-family="Times,serif" font-size="14.00">0.0947</text>
<polygon fill="#ccffcc" stroke="none" points="111.5,-65 111.5,-95 162.5,-95 162.5,-65 111.5,-65"/>
<polygon fill="none" stroke="black" points="111.5,-65 111.5,-95 162.5,-95 162.5,-65 111.5,-65"/>
<text text-anchor="start" x="114.25" y="-75.8" font-family="Times,serif" font-size="14.00">0.03155</text>
<polygon fill="#c0c0c0" stroke="none" points="162.5,-65 162.5,-95 213.5,-95 213.5,-65 162.5,-65"/>
<polygon fill="none" stroke="black" points="162.5,-65 162.5,-95 213.5,-95 213.5,-65 162.5,-65"/>
<text text-anchor="start" x="165.25" y="-75.8" font-family="Times,serif" font-size="14.00">0.15405</text>
<polygon fill="#ffffff" stroke="none" points="213.5,-65 213.5,-95 257.5,-95 257.5,-65 213.5,-65"/>
<polygon fill="none" stroke="black" points="213.5,-65 213.5,-95 257.5,-95 257.5,-65 213.5,-65"/>
<text text-anchor="start" x="226.75" y="-75.8" font-family="Times,serif" font-size="14.00">0.0</text>
<polygon fill="#ffffff" stroke="none" points="257.5,-65 257.5,-95 308.5,-95 308.5,-65 257.5,-65"/>
<polygon fill="none" stroke="black" points="257.5,-65 257.5,-95 308.5,-95 308.5,-65 257.5,-65"/>
<text text-anchor="start" x="274.25" y="-75.8" font-family="Times,serif" font-size="14.00">0.0</text>
<polygon fill="#ccffcc" stroke="none" points="9.5,-35 9.5,-65 60.5,-65 60.5,-35 9.5,-35"/>
<polygon fill="none" stroke="black" points="9.5,-35 9.5,-65 60.5,-65 60.5,-35 9.5,-35"/>
<text text-anchor="start" x="12.25" y="-45.8" font-family="Times,serif" font-size="14.00">0.06295</text>
<polygon fill="#ccffcc" stroke="none" points="60.5,-35 60.5,-65 111.5,-65 111.5,-35 60.5,-35"/>
<polygon fill="none" stroke="black" points="60.5,-35 60.5,-65 111.5,-65 111.5,-35 60.5,-35"/>
<text text-anchor="start" x="63.25" y="-45.8" font-family="Times,serif" font-size="14.00">0.19195</text>
<polygon fill="#ccffcc" stroke="none" points="111.5,-35 111.5,-65 162.5,-65 162.5,-35 111.5,-35"/>
<polygon fill="none" stroke="black" points="111.5,-35 111.5,-65 162.5,-65 162.5,-35 111.5,-35"/>
<text text-anchor="start" x="117.75" y="-45.8" font-family="Times,serif" font-size="14.00">0.3909</text>
<polygon fill="#ccffcc" stroke="none" points="162.5,-35 162.5,-65 213.5,-65 213.5,-35 162.5,-35"/>
<polygon fill="none" stroke="black" points="162.5,-35 162.5,-65 213.5,-65 213.5,-35 162.5,-35"/>
<text text-anchor="start" x="165.25" y="-45.8" font-family="Times,serif" font-size="14.00">0.24355</text>
<polygon fill="#ffffff" stroke="none" points="213.5,-35 213.5,-65 257.5,-65 257.5,-35 213.5,-35"/>
<polygon fill="none" stroke="black" points="213.5,-35 213.5,-65 257.5,-65 257.5,-35 213.5,-35"/>
<text text-anchor="start" x="226.75" y="-45.8" font-family="Times,serif" font-size="14.00">0.0</text>
<polygon fill="#ffffff" stroke="none" points="257.5,-35 257.5,-65 308.5,-65 308.5,-35 257.5,-35"/>
<polygon fill="none" stroke="black" points="257.5,-35 257.5,-65 308.5,-65 308.5,-35 257.5,-35"/>
<text text-anchor="start" x="274.25" y="-45.8" font-family="Times,serif" font-size="14.00">0.0</text>
<polygon fill="#ccffcc" stroke="none" points="9.5,-5 9.5,-35 60.5,-35 60.5,-5 9.5,-5"/>
<polygon fill="none" stroke="black" points="9.5,-5 9.5,-35 60.5,-35 60.5,-5 9.5,-5"/>
<text text-anchor="start" x="12.25" y="-15.8" font-family="Times,serif" font-size="14.00">0.02305</text>
<polygon fill="#ccffcc" stroke="none" points="60.5,-5 60.5,-35 111.5,-35 111.5,-5 60.5,-5"/>
<polygon fill="none" stroke="black" points="60.5,-5 60.5,-35 111.5,-35 111.5,-5 60.5,-5"/>
<text text-anchor="start" x="70.25" y="-15.8" font-family="Times,serif" font-size="14.00">0.281</text>
<polygon fill="#ccffcc" stroke="none" points="111.5,-5 111.5,-35 162.5,-35 162.5,-5 111.5,-5"/>
<polygon fill="none" stroke="black" points="111.5,-5 111.5,-35 162.5,-35 162.5,-5 111.5,-5"/>
<text text-anchor="start" x="117.75" y="-15.8" font-family="Times,serif" font-size="14.00">0.1321</text>
<polygon fill="#ccffcc" stroke="none" points="162.5,-5 162.5,-35 213.5,-35 213.5,-5 162.5,-5"/>
<polygon fill="none" stroke="black" points="162.5,-5 162.5,-35 213.5,-35 213.5,-5 162.5,-5"/>
<text text-anchor="start" x="165.25" y="-15.8" font-family="Times,serif" font-size="14.00">0.35145</text>
<polygon fill="#ffffff" stroke="none" points="213.5,-5 213.5,-35 257.5,-35 257.5,-5 213.5,-5"/>
<polygon fill="none" stroke="black" points="213.5,-5 213.5,-35 257.5,-35 257.5,-5 213.5,-5"/>
<text text-anchor="start" x="226.75" y="-15.8" font-family="Times,serif" font-size="14.00">0.0</text>
<polygon fill="#ffffff" stroke="none" points="257.5,-5 257.5,-35 308.5,-35 308.5,-5 257.5,-5"/>
<polygon fill="none" stroke="black" points="257.5,-5 257.5,-35 308.5,-35 308.5,-5 257.5,-5"/>
<text text-anchor="start" x="274.25" y="-15.8" font-family="Times,serif" font-size="14.00">0.0</text>
<polygon fill="none" stroke="black" points="8,-4 8,-186 309,-186 309,-4 8,-4"/>
</g>
</g>
</svg>
