<?xml version="1.0" encoding="UTF-8" standalone="no"?>
<!DOCTYPE svg PUBLIC "-//W3C//DTD SVG 1.1//EN"
 "http://www.w3.org/Graphics/SVG/1.1/DTD/svg11.dtd">
<!-- Generated by graphviz version 2.38.0 (20140413.2041)
 -->
<!-- Title: G Pages: 1 -->
<svg width="108pt" height="108pt"
 viewBox="0.00 0.00 108.00 108.00" xmlns="http://www.w3.org/2000/svg" xmlns:xlink="http://www.w3.org/1999/xlink">
<g id="graph0" class="graph" transform="scale(1 1) rotate(0) translate(4 104)">
<title>G</title>
<polygon fill="white" stroke="none" points="-4,4 -4,-104 104,-104 104,4 -4,4"/>
<!-- nodey -->
<g id="node1" class="node"><title>nodey</title>
<polygon fill="#ffffff" stroke="none" points="9,-65 9,-95 32,-95 32,-65 9,-65"/>
<polygon fill="none" stroke="black" points="9,-65 9,-95 32,-95 32,-65 9,-65"/>
<text text-anchor="start" x="11.75" y="-75.8" font-family="Times,serif" font-size="14.00">0.0</text>
<polygon fill="#ff99cb" stroke="none" points="32,-65 32,-95 61,-95 61,-65 32,-65"/>
<polygon fill="none" stroke="black" points="32,-65 32,-95 61,-95 61,-65 32,-65"/>
<text text-anchor="start" x="34.5063" y="-75.8" font-family="Times,serif" font-size="14.00">0.11</text>
<polygon fill="#ff99cb" stroke="none" points="61,-65 61,-95 91,-95 91,-65 61,-65"/>
<polygon fill="none" stroke="black" points="61,-65 61,-95 91,-95 91,-65 61,-65"/>
<text text-anchor="start" x="63.75" y="-75.8" font-family="Times,serif" font-size="14.00">0.93</text>
<polygon fill="#ffffff" stroke="none" points="9,-35 9,-65 32,-65 32,-35 9,-35"/>
<polygon fill="none" stroke="black" points="9,-35 9,-65 32,-65 32,-35 9,-35"/>
<text text-anchor="start" x="11.75" y="-45.8" font-family="Times,serif" font-size="14.00">0.0</text>
<polygon fill="#ffffff" stroke="none" points="32,-35 32,-65 61,-65 61,-35 32,-35"/>
<polygon fill="none" stroke="black" points="32,-35 32,-65 61,-65 61,-35 32,-35"/>
<text text-anchor="start" x="37.75" y="-45.8" font-family="Times,serif" font-size="14.00">0.0</text>
<polygon fill="#ffffff" stroke="none" points="61,-35 61,-65 91,-65 91,-35 61,-35"/>
<polygon fill="none" stroke="black" points="61,-35 61,-65 91,-65 91,-35 61,-35"/>
<text text-anchor="start" x="67.25" y="-45.8" font-family="Times,serif" font-size="14.00">0.0</text>
<polygon fill="#ffffff" stroke="none" points="9,-5 9,-35 32,-35 32,-5 9,-5"/>
<polygon fill="none" stroke="black" points="9,-5 9,-35 32,-35 32,-5 9,-5"/>
<text text-anchor="start" x="11.75" y="-15.8" font-family="Times,serif" font-size="14.00">0.0</text>
<polygon fill="#ffffff" stroke="none" points="32,-5 32,-35 61,-35 61,-5 32,-5"/>
<polygon fill="none" stroke="black" points="32,-5 32,-35 61,-35 61,-5 32,-5"/>
<text text-anchor="start" x="37.75" y="-15.8" font-family="Times,serif" font-size="14.00">0.0</text>
<polygon fill="#ffffff" stroke="none" points="61,-5 61,-35 91,-35 91,-5 61,-5"/>
<polygon fill="none" stroke="black" points="61,-5 61,-35 91,-35 91,-5 61,-5"/>
<text text-anchor="start" x="67.25" y="-15.8" font-family="Times,serif" font-size="14.00">0.0</text>
<polygon fill="none" stroke="black" points="8,-4 8,-96 92,-96 92,-4 8,-4"/>
</g>
</g>
</svg>
