<?xml version="1.0" encoding="UTF-8" standalone="no"?>
<!DOCTYPE svg PUBLIC "-//W3C//DTD SVG 1.1//EN"
 "http://www.w3.org/Graphics/SVG/1.1/DTD/svg11.dtd">
<!-- Generated by graphviz version 2.38.0 (20140413.2041)
 -->
<!-- Title: G Pages: 1 -->
<svg width="255pt" height="198pt"
 viewBox="0.00 0.00 255.00 198.00" xmlns="http://www.w3.org/2000/svg" xmlns:xlink="http://www.w3.org/1999/xlink">
<g id="graph0" class="graph" transform="scale(1 1) rotate(0) translate(4 194)">
<title>G</title>
<polygon fill="white" stroke="none" points="-4,4 -4,-194 251,-194 251,4 -4,4"/>
<!-- nodey -->
<g id="node1" class="node"><title>nodey</title>
<polygon fill="#c0c0c0" stroke="none" points="9.5,-155 9.5,-185 46.5,-185 46.5,-155 9.5,-155"/>
<polygon fill="none" stroke="black" points="9.5,-155 9.5,-185 46.5,-185 46.5,-155 9.5,-155"/>
<text text-anchor="start" x="12.25" y="-165.8" font-family="Times,serif" font-size="14.00">0.005</text>
<polygon fill="#ffffff" stroke="none" points="46.5,-155 46.5,-185 76.5,-185 76.5,-155 46.5,-155"/>
<polygon fill="none" stroke="black" points="46.5,-155 46.5,-185 76.5,-185 76.5,-155 46.5,-155"/>
<text text-anchor="start" x="52.75" y="-165.8" font-family="Times,serif" font-size="14.00">0.0</text>
<polygon fill="#ffffff" stroke="none" points="76.5,-155 76.5,-185 113.5,-185 113.5,-155 76.5,-155"/>
<polygon fill="none" stroke="black" points="76.5,-155 76.5,-185 113.5,-185 113.5,-155 76.5,-155"/>
<text text-anchor="start" x="86.25" y="-165.8" font-family="Times,serif" font-size="14.00">0.0</text>
<polygon fill="#ffffff" stroke="none" points="113.5,-155 113.5,-185 150.5,-185 150.5,-155 113.5,-155"/>
<polygon fill="none" stroke="black" points="113.5,-155 113.5,-185 150.5,-185 150.5,-155 113.5,-155"/>
<text text-anchor="start" x="123.25" y="-165.8" font-family="Times,serif" font-size="14.00">0.0</text>
<polygon fill="#ff99cb" stroke="none" points="150.5,-155 150.5,-185 194.5,-185 194.5,-155 150.5,-155"/>
<polygon fill="none" stroke="black" points="150.5,-155 150.5,-185 194.5,-185 194.5,-155 150.5,-155"/>
<text text-anchor="start" x="156.75" y="-165.8" font-family="Times,serif" font-size="14.00">4.762</text>
<polygon fill="#ff99cb" stroke="none" points="194.5,-155 194.5,-185 238.5,-185 238.5,-155 194.5,-155"/>
<polygon fill="none" stroke="black" points="194.5,-155 194.5,-185 238.5,-185 238.5,-155 194.5,-155"/>
<text text-anchor="start" x="200.75" y="-165.8" font-family="Times,serif" font-size="14.00">6.891</text>
<polygon fill="#ccffcc" stroke="none" points="9.5,-125 9.5,-155 46.5,-155 46.5,-125 9.5,-125"/>
<polygon fill="none" stroke="black" points="9.5,-125 9.5,-155 46.5,-155 46.5,-125 9.5,-125"/>
<text text-anchor="start" x="15.75" y="-135.8" font-family="Times,serif" font-size="14.00">0.03</text>
<polygon fill="#ffffff" stroke="none" points="46.5,-125 46.5,-155 76.5,-155 76.5,-125 46.5,-125"/>
<polygon fill="none" stroke="black" points="46.5,-125 46.5,-155 76.5,-155 76.5,-125 46.5,-125"/>
<text text-anchor="start" x="52.75" y="-135.8" font-family="Times,serif" font-size="14.00">0.0</text>
<polygon fill="#ffffff" stroke="none" points="76.5,-125 76.5,-155 113.5,-155 113.5,-125 76.5,-125"/>
<polygon fill="none" stroke="black" points="76.5,-125 76.5,-155 113.5,-155 113.5,-125 76.5,-125"/>
<text text-anchor="start" x="86.25" y="-135.8" font-family="Times,serif" font-size="14.00">0.0</text>
<polygon fill="#ffffff" stroke="none" points="113.5,-125 113.5,-155 150.5,-155 150.5,-125 113.5,-125"/>
<polygon fill="none" stroke="black" points="113.5,-125 113.5,-155 150.5,-155 150.5,-125 113.5,-125"/>
<text text-anchor="start" x="123.25" y="-135.8" font-family="Times,serif" font-size="14.00">0.0</text>
<polygon fill="#ffcc99" stroke="none" points="150.5,-125 150.5,-155 194.5,-155 194.5,-125 150.5,-125"/>
<polygon fill="none" stroke="black" points="150.5,-125 150.5,-155 194.5,-155 194.5,-125 150.5,-125"/>
<text text-anchor="start" x="153.25" y="-135.8" font-family="Times,serif" font-size="14.00">28.422</text>
<polygon fill="#ffcc99" stroke="none" points="194.5,-125 194.5,-155 238.5,-155 238.5,-125 194.5,-125"/>
<polygon fill="none" stroke="black" points="194.5,-125 194.5,-155 238.5,-155 238.5,-125 194.5,-125"/>
<text text-anchor="start" x="197.25" y="-135.8" font-family="Times,serif" font-size="14.00">41.132</text>
<polygon fill="#ffffff" stroke="none" points="9.5,-95 9.5,-125 46.5,-125 46.5,-95 9.5,-95"/>
<polygon fill="none" stroke="black" points="9.5,-95 9.5,-125 46.5,-125 46.5,-95 9.5,-95"/>
<text text-anchor="start" x="19.25" y="-105.8" font-family="Times,serif" font-size="14.00">0.0</text>
<polygon fill="#ccffcc" stroke="none" points="46.5,-95 46.5,-125 76.5,-125 76.5,-95 46.5,-95"/>
<polygon fill="none" stroke="black" points="46.5,-95 46.5,-125 76.5,-125 76.5,-95 46.5,-95"/>
<text text-anchor="start" x="49.25" y="-105.8" font-family="Times,serif" font-size="14.00">0.25</text>
<polygon fill="#ffffff" stroke="none" points="76.5,-95 76.5,-125 113.5,-125 113.5,-95 76.5,-95"/>
<polygon fill="none" stroke="black" points="76.5,-95 76.5,-125 113.5,-125 113.5,-95 76.5,-95"/>
<text text-anchor="start" x="86.25" y="-105.8" font-family="Times,serif" font-size="14.00">0.0</text>
<polygon fill="#ffffff" stroke="none" points="113.5,-95 113.5,-125 150.5,-125 150.5,-95 113.5,-95"/>
<polygon fill="none" stroke="black" points="113.5,-95 113.5,-125 150.5,-125 150.5,-95 113.5,-95"/>
<text text-anchor="start" x="123.25" y="-105.8" font-family="Times,serif" font-size="14.00">0.0</text>
<polygon fill="#ffffff" stroke="none" points="150.5,-95 150.5,-125 194.5,-125 194.5,-95 150.5,-95"/>
<polygon fill="none" stroke="black" points="150.5,-95 150.5,-125 194.5,-125 194.5,-95 150.5,-95"/>
<text text-anchor="start" x="163.75" y="-105.8" font-family="Times,serif" font-size="14.00">0.0</text>
<polygon fill="#ffffff" stroke="none" points="194.5,-95 194.5,-125 238.5,-125 238.5,-95 194.5,-95"/>
<polygon fill="none" stroke="black" points="194.5,-95 194.5,-125 238.5,-125 238.5,-95 194.5,-95"/>
<text text-anchor="start" x="207.75" y="-105.8" font-family="Times,serif" font-size="14.00">0.0</text>
<polygon fill="#ffffff" stroke="none" points="9.5,-65 9.5,-95 46.5,-95 46.5,-65 9.5,-65"/>
<polygon fill="none" stroke="black" points="9.5,-65 9.5,-95 46.5,-95 46.5,-65 9.5,-65"/>
<text text-anchor="start" x="19.25" y="-75.8" font-family="Times,serif" font-size="14.00">0.0</text>
<polygon fill="#ffffff" stroke="none" points="46.5,-65 46.5,-95 76.5,-95 76.5,-65 46.5,-65"/>
<polygon fill="none" stroke="black" points="46.5,-65 46.5,-95 76.5,-95 76.5,-65 46.5,-65"/>
<text text-anchor="start" x="52.75" y="-75.8" font-family="Times,serif" font-size="14.00">0.0</text>
<polygon fill="#ccffcc" stroke="none" points="76.5,-65 76.5,-95 113.5,-95 113.5,-65 76.5,-65"/>
<polygon fill="none" stroke="black" points="76.5,-65 76.5,-95 113.5,-95 113.5,-65 76.5,-65"/>
<text text-anchor="start" x="79.7627" y="-75.8" font-family="Times,serif" font-size="14.00">0.111</text>
<polygon fill="#c0c0c0" stroke="none" points="113.5,-65 113.5,-95 150.5,-95 150.5,-65 113.5,-65"/>
<polygon fill="none" stroke="black" points="113.5,-65 113.5,-95 150.5,-95 150.5,-65 113.5,-65"/>
<text text-anchor="start" x="116.25" y="-75.8" font-family="Times,serif" font-size="14.00">0.083</text>
<polygon fill="#ffffff" stroke="none" points="150.5,-65 150.5,-95 194.5,-95 194.5,-65 150.5,-65"/>
<polygon fill="none" stroke="black" points="150.5,-65 150.5,-95 194.5,-95 194.5,-65 150.5,-65"/>
<text text-anchor="start" x="163.75" y="-75.8" font-family="Times,serif" font-size="14.00">0.0</text>
<polygon fill="#ffffff" stroke="none" points="194.5,-65 194.5,-95 238.5,-95 238.5,-65 194.5,-65"/>
<polygon fill="none" stroke="black" points="194.5,-65 194.5,-95 238.5,-95 238.5,-65 194.5,-65"/>
<text text-anchor="start" x="207.75" y="-75.8" font-family="Times,serif" font-size="14.00">0.0</text>
<polygon fill="#ffffff" stroke="none" points="9.5,-35 9.5,-65 46.5,-65 46.5,-35 9.5,-35"/>
<polygon fill="none" stroke="black" points="9.5,-35 9.5,-65 46.5,-65 46.5,-35 9.5,-35"/>
<text text-anchor="start" x="19.25" y="-45.8" font-family="Times,serif" font-size="14.00">0.0</text>
<polygon fill="#ffffff" stroke="none" points="46.5,-35 46.5,-65 76.5,-65 76.5,-35 46.5,-35"/>
<polygon fill="none" stroke="black" points="46.5,-35 46.5,-65 76.5,-65 76.5,-35 46.5,-35"/>
<text text-anchor="start" x="52.75" y="-45.8" font-family="Times,serif" font-size="14.00">0.0</text>
<polygon fill="#ccffcc" stroke="none" points="76.5,-35 76.5,-65 113.5,-65 113.5,-35 76.5,-35"/>
<polygon fill="none" stroke="black" points="76.5,-35 76.5,-65 113.5,-65 113.5,-35 76.5,-35"/>
<text text-anchor="start" x="79.25" y="-45.8" font-family="Times,serif" font-size="14.00">0.239</text>
<polygon fill="#ffffff" stroke="none" points="113.5,-35 113.5,-65 150.5,-65 150.5,-35 113.5,-35"/>
<polygon fill="none" stroke="black" points="113.5,-35 113.5,-65 150.5,-65 150.5,-35 113.5,-35"/>
<text text-anchor="start" x="123.25" y="-45.8" font-family="Times,serif" font-size="14.00">0.0</text>
<polygon fill="#ffffff" stroke="none" points="150.5,-35 150.5,-65 194.5,-65 194.5,-35 150.5,-35"/>
<polygon fill="none" stroke="black" points="150.5,-35 150.5,-65 194.5,-65 194.5,-35 150.5,-35"/>
<text text-anchor="start" x="163.75" y="-45.8" font-family="Times,serif" font-size="14.00">0.0</text>
<polygon fill="#ffffff" stroke="none" points="194.5,-35 194.5,-65 238.5,-65 238.5,-35 194.5,-35"/>
<polygon fill="none" stroke="black" points="194.5,-35 194.5,-65 238.5,-65 238.5,-35 194.5,-35"/>
<text text-anchor="start" x="207.75" y="-45.8" font-family="Times,serif" font-size="14.00">0.0</text>
<polygon fill="#ffffff" stroke="none" points="9.5,-5 9.5,-35 46.5,-35 46.5,-5 9.5,-5"/>
<polygon fill="none" stroke="black" points="9.5,-5 9.5,-35 46.5,-35 46.5,-5 9.5,-5"/>
<text text-anchor="start" x="19.25" y="-15.8" font-family="Times,serif" font-size="14.00">0.0</text>
<polygon fill="#ffffff" stroke="none" points="46.5,-5 46.5,-35 76.5,-35 76.5,-5 46.5,-5"/>
<polygon fill="none" stroke="black" points="46.5,-5 46.5,-35 76.5,-35 76.5,-5 46.5,-5"/>
<text text-anchor="start" x="52.75" y="-15.8" font-family="Times,serif" font-size="14.00">0.0</text>
<polygon fill="#ffffff" stroke="none" points="76.5,-5 76.5,-35 113.5,-35 113.5,-5 76.5,-5"/>
<polygon fill="none" stroke="black" points="76.5,-5 76.5,-35 113.5,-35 113.5,-5 76.5,-5"/>
<text text-anchor="start" x="86.25" y="-15.8" font-family="Times,serif" font-size="14.00">0.0</text>
<polygon fill="#ccffcc" stroke="none" points="113.5,-5 113.5,-35 150.5,-35 150.5,-5 113.5,-5"/>
<polygon fill="none" stroke="black" points="113.5,-5 113.5,-35 150.5,-35 150.5,-5 113.5,-5"/>
<text text-anchor="start" x="116.25" y="-15.8" font-family="Times,serif" font-size="14.00">0.039</text>
<polygon fill="#ffffff" stroke="none" points="150.5,-5 150.5,-35 194.5,-35 194.5,-5 150.5,-5"/>
<polygon fill="none" stroke="black" points="150.5,-5 150.5,-35 194.5,-35 194.5,-5 150.5,-5"/>
<text text-anchor="start" x="163.75" y="-15.8" font-family="Times,serif" font-size="14.00">0.0</text>
<polygon fill="#ffffff" stroke="none" points="194.5,-5 194.5,-35 238.5,-35 238.5,-5 194.5,-5"/>
<polygon fill="none" stroke="black" points="194.5,-5 194.5,-35 238.5,-35 238.5,-5 194.5,-5"/>
<text text-anchor="start" x="207.75" y="-15.8" font-family="Times,serif" font-size="14.00">0.0</text>
<polygon fill="none" stroke="black" points="8,-4 8,-186 239,-186 239,-4 8,-4"/>
</g>
</g>
</svg>
