<?xml version="1.0" encoding="UTF-8" standalone="no"?>
<!DOCTYPE svg PUBLIC "-//W3C//DTD SVG 1.1//EN"
 "http://www.w3.org/Graphics/SVG/1.1/DTD/svg11.dtd">
<!-- Generated by graphviz version 2.38.0 (20140413.2041)
 -->
<!-- Title: G Pages: 1 -->
<svg width="408pt" height="288pt"
 viewBox="0.00 0.00 408.00 288.00" xmlns="http://www.w3.org/2000/svg" xmlns:xlink="http://www.w3.org/1999/xlink">
<g id="graph0" class="graph" transform="scale(1 1) rotate(0) translate(4 284)">
<title>G</title>
<polygon fill="white" stroke="none" points="-4,4 -4,-284 404,-284 404,4 -4,4"/>
<!-- nodey -->
<g id="node1" class="node"><title>nodey</title>
<polygon fill="#ffffff" stroke="none" points="9,-245 9,-275 46,-275 46,-245 9,-245"/>
<polygon fill="none" stroke="black" points="9,-245 9,-275 46,-275 46,-245 9,-245"/>
<text text-anchor="start" x="18.75" y="-255.8" font-family="Times,serif" font-size="14.00">0.0</text>
<polygon fill="#ffffff" stroke="none" points="46,-245 46,-275 83,-275 83,-245 46,-245"/>
<polygon fill="none" stroke="black" points="46,-245 46,-275 83,-275 83,-245 46,-245"/>
<text text-anchor="start" x="55.75" y="-255.8" font-family="Times,serif" font-size="14.00">0.0</text>
<polygon fill="#ffffff" stroke="none" points="83,-245 83,-275 120,-275 120,-245 83,-245"/>
<polygon fill="none" stroke="black" points="83,-245 83,-275 120,-275 120,-245 83,-245"/>
<text text-anchor="start" x="92.75" y="-255.8" font-family="Times,serif" font-size="14.00">0.0</text>
<polygon fill="#ffffff" stroke="none" points="120,-245 120,-275 157,-275 157,-245 120,-245"/>
<polygon fill="none" stroke="black" points="120,-245 120,-275 157,-275 157,-245 120,-245"/>
<text text-anchor="start" x="129.75" y="-255.8" font-family="Times,serif" font-size="14.00">0.0</text>
<polygon fill="#ffffff" stroke="none" points="157,-245 157,-275 194,-275 194,-245 157,-245"/>
<polygon fill="none" stroke="black" points="157,-245 157,-275 194,-275 194,-245 157,-245"/>
<text text-anchor="start" x="166.75" y="-255.8" font-family="Times,serif" font-size="14.00">0.0</text>
<polygon fill="#ff99cb" stroke="none" points="194,-245 194,-275 238,-275 238,-245 194,-245"/>
<polygon fill="none" stroke="black" points="194,-245 194,-275 238,-275 238,-245 194,-245"/>
<text text-anchor="start" x="196.75" y="-255.8" font-family="Times,serif" font-size="14.00">22.996</text>
<polygon fill="#ff99cb" stroke="none" points="238,-245 238,-275 282,-275 282,-245 238,-245"/>
<polygon fill="none" stroke="black" points="238,-245 238,-275 282,-275 282,-245 238,-245"/>
<text text-anchor="start" x="240.75" y="-255.8" font-family="Times,serif" font-size="14.00">736.83</text>
<polygon fill="#ff99cb" stroke="none" points="282,-245 282,-275 333,-275 333,-245 282,-245"/>
<polygon fill="none" stroke="black" points="282,-245 282,-275 333,-275 333,-245 282,-245"/>
<text text-anchor="start" x="284.75" y="-255.8" font-family="Times,serif" font-size="14.00">1363.19</text>
<polygon fill="#ff99cb" stroke="none" points="333,-245 333,-275 391,-275 391,-245 333,-245"/>
<polygon fill="none" stroke="black" points="333,-245 333,-275 391,-275 391,-245 333,-245"/>
<text text-anchor="start" x="335.75" y="-255.8" font-family="Times,serif" font-size="14.00">1514.656</text>
<polygon fill="#ccffcc" stroke="none" points="9,-215 9,-245 46,-245 46,-215 9,-215"/>
<polygon fill="none" stroke="black" points="9,-215 9,-245 46,-245 46,-215 9,-215"/>
<text text-anchor="start" x="11.75" y="-225.8" font-family="Times,serif" font-size="14.00">0.547</text>
<polygon fill="#ffffff" stroke="none" points="46,-215 46,-245 83,-245 83,-215 46,-215"/>
<polygon fill="none" stroke="black" points="46,-215 46,-245 83,-245 83,-215 46,-215"/>
<text text-anchor="start" x="55.75" y="-225.8" font-family="Times,serif" font-size="14.00">0.0</text>
<polygon fill="#ffffff" stroke="none" points="83,-215 83,-245 120,-245 120,-215 83,-215"/>
<polygon fill="none" stroke="black" points="83,-215 83,-245 120,-245 120,-215 83,-215"/>
<text text-anchor="start" x="92.75" y="-225.8" font-family="Times,serif" font-size="14.00">0.0</text>
<polygon fill="#ffffff" stroke="none" points="120,-215 120,-245 157,-245 157,-215 120,-215"/>
<polygon fill="none" stroke="black" points="120,-215 120,-245 157,-245 157,-215 120,-215"/>
<text text-anchor="start" x="129.75" y="-225.8" font-family="Times,serif" font-size="14.00">0.0</text>
<polygon fill="#ffffff" stroke="none" points="157,-215 157,-245 194,-245 194,-215 157,-215"/>
<polygon fill="none" stroke="black" points="157,-215 157,-245 194,-245 194,-215 157,-215"/>
<text text-anchor="start" x="166.75" y="-225.8" font-family="Times,serif" font-size="14.00">0.0</text>
<polygon fill="#ffffff" stroke="none" points="194,-215 194,-245 238,-245 238,-215 194,-215"/>
<polygon fill="none" stroke="black" points="194,-215 194,-245 238,-245 238,-215 194,-215"/>
<text text-anchor="start" x="207.25" y="-225.8" font-family="Times,serif" font-size="14.00">0.0</text>
<polygon fill="#ffffff" stroke="none" points="238,-215 238,-245 282,-245 282,-215 238,-215"/>
<polygon fill="none" stroke="black" points="238,-215 238,-245 282,-245 282,-215 238,-215"/>
<text text-anchor="start" x="251.25" y="-225.8" font-family="Times,serif" font-size="14.00">0.0</text>
<polygon fill="#ffffff" stroke="none" points="282,-215 282,-245 333,-245 333,-215 282,-215"/>
<polygon fill="none" stroke="black" points="282,-215 282,-245 333,-245 333,-215 282,-215"/>
<text text-anchor="start" x="298.75" y="-225.8" font-family="Times,serif" font-size="14.00">0.0</text>
<polygon fill="#ffffff" stroke="none" points="333,-215 333,-245 391,-245 391,-215 333,-215"/>
<polygon fill="none" stroke="black" points="333,-215 333,-245 391,-245 391,-215 333,-215"/>
<text text-anchor="start" x="353.25" y="-225.8" font-family="Times,serif" font-size="14.00">0.0</text>
<polygon fill="#ffffff" stroke="none" points="9,-185 9,-215 46,-215 46,-185 9,-185"/>
<polygon fill="none" stroke="black" points="9,-185 9,-215 46,-215 46,-185 9,-185"/>
<text text-anchor="start" x="18.75" y="-195.8" font-family="Times,serif" font-size="14.00">0.0</text>
<polygon fill="#c0c0c0" stroke="none" points="46,-185 46,-215 83,-215 83,-185 46,-185"/>
<polygon fill="none" stroke="black" points="46,-185 46,-215 83,-215 83,-185 46,-185"/>
<text text-anchor="start" x="48.75" y="-195.8" font-family="Times,serif" font-size="14.00">0.219</text>
<polygon fill="#c0c0c0" stroke="none" points="83,-185 83,-215 120,-215 120,-185 83,-185"/>
<polygon fill="none" stroke="black" points="83,-185 83,-215 120,-215 120,-185 83,-185"/>
<text text-anchor="start" x="85.75" y="-195.8" font-family="Times,serif" font-size="14.00">0.219</text>
<polygon fill="#ffffff" stroke="none" points="120,-185 120,-215 157,-215 157,-185 120,-185"/>
<polygon fill="none" stroke="black" points="120,-185 120,-215 157,-215 157,-185 120,-185"/>
<text text-anchor="start" x="129.75" y="-195.8" font-family="Times,serif" font-size="14.00">0.0</text>
<polygon fill="#ffffff" stroke="none" points="157,-185 157,-215 194,-215 194,-185 157,-185"/>
<polygon fill="none" stroke="black" points="157,-185 157,-215 194,-215 194,-185 157,-185"/>
<text text-anchor="start" x="166.75" y="-195.8" font-family="Times,serif" font-size="14.00">0.0</text>
<polygon fill="#ffffff" stroke="none" points="194,-185 194,-215 238,-215 238,-185 194,-185"/>
<polygon fill="none" stroke="black" points="194,-185 194,-215 238,-215 238,-185 194,-185"/>
<text text-anchor="start" x="207.25" y="-195.8" font-family="Times,serif" font-size="14.00">0.0</text>
<polygon fill="#ffffff" stroke="none" points="238,-185 238,-215 282,-215 282,-185 238,-185"/>
<polygon fill="none" stroke="black" points="238,-185 238,-215 282,-215 282,-185 238,-185"/>
<text text-anchor="start" x="251.25" y="-195.8" font-family="Times,serif" font-size="14.00">0.0</text>
<polygon fill="#ffffff" stroke="none" points="282,-185 282,-215 333,-215 333,-185 282,-185"/>
<polygon fill="none" stroke="black" points="282,-185 282,-215 333,-215 333,-185 282,-185"/>
<text text-anchor="start" x="298.75" y="-195.8" font-family="Times,serif" font-size="14.00">0.0</text>
<polygon fill="#ffffff" stroke="none" points="333,-185 333,-215 391,-215 391,-185 333,-185"/>
<polygon fill="none" stroke="black" points="333,-185 333,-215 391,-215 391,-185 333,-185"/>
<text text-anchor="start" x="353.25" y="-195.8" font-family="Times,serif" font-size="14.00">0.0</text>
<polygon fill="#ffffff" stroke="none" points="9,-155 9,-185 46,-185 46,-155 9,-155"/>
<polygon fill="none" stroke="black" points="9,-155 9,-185 46,-185 46,-155 9,-155"/>
<text text-anchor="start" x="18.75" y="-165.8" font-family="Times,serif" font-size="14.00">0.0</text>
<polygon fill="#ffffff" stroke="none" points="46,-155 46,-185 83,-185 83,-155 46,-155"/>
<polygon fill="none" stroke="black" points="46,-155 46,-185 83,-185 83,-155 46,-155"/>
<text text-anchor="start" x="55.75" y="-165.8" font-family="Times,serif" font-size="14.00">0.0</text>
<polygon fill="#ccffcc" stroke="none" points="83,-155 83,-185 120,-185 120,-155 83,-155"/>
<polygon fill="none" stroke="black" points="83,-155 83,-185 120,-185 120,-155 83,-155"/>
<text text-anchor="start" x="85.75" y="-165.8" font-family="Times,serif" font-size="14.00">0.598</text>
<polygon fill="#c0c0c0" stroke="none" points="120,-155 120,-185 157,-185 157,-155 120,-155"/>
<polygon fill="none" stroke="black" points="120,-155 120,-185 157,-185 157,-155 120,-155"/>
<text text-anchor="start" x="122.75" y="-165.8" font-family="Times,serif" font-size="14.00">0.439</text>
<polygon fill="#ffcc99" stroke="none" points="157,-155 157,-185 194,-185 194,-155 157,-155"/>
<polygon fill="none" stroke="black" points="157,-155 157,-185 194,-185 194,-155 157,-155"/>
<text text-anchor="start" x="163.25" y="-165.8" font-family="Times,serif" font-size="14.00">0.01</text>
<polygon fill="#ffcc99" stroke="none" points="194,-155 194,-185 238,-185 238,-155 194,-155"/>
<polygon fill="none" stroke="black" points="194,-155 194,-185 238,-185 238,-155 194,-155"/>
<text text-anchor="start" x="200.25" y="-165.8" font-family="Times,serif" font-size="14.00">0.018</text>
<polygon fill="#ffcc99" stroke="none" points="238,-155 238,-185 282,-185 282,-155 238,-155"/>
<polygon fill="none" stroke="black" points="238,-155 238,-185 282,-185 282,-155 238,-155"/>
<text text-anchor="start" x="244.25" y="-165.8" font-family="Times,serif" font-size="14.00">0.026</text>
<polygon fill="#ffffff" stroke="none" points="282,-155 282,-185 333,-185 333,-155 282,-155"/>
<polygon fill="none" stroke="black" points="282,-155 282,-185 333,-185 333,-155 282,-155"/>
<text text-anchor="start" x="298.75" y="-165.8" font-family="Times,serif" font-size="14.00">0.0</text>
<polygon fill="#ffffff" stroke="none" points="333,-155 333,-185 391,-185 391,-155 333,-155"/>
<polygon fill="none" stroke="black" points="333,-155 333,-185 391,-185 391,-155 333,-155"/>
<text text-anchor="start" x="353.25" y="-165.8" font-family="Times,serif" font-size="14.00">0.0</text>
<polygon fill="#ffffff" stroke="none" points="9,-125 9,-155 46,-155 46,-125 9,-125"/>
<polygon fill="none" stroke="black" points="9,-125 9,-155 46,-155 46,-125 9,-125"/>
<text text-anchor="start" x="18.75" y="-135.8" font-family="Times,serif" font-size="14.00">0.0</text>
<polygon fill="#ffffff" stroke="none" points="46,-125 46,-155 83,-155 83,-125 46,-125"/>
<polygon fill="none" stroke="black" points="46,-125 46,-155 83,-155 83,-125 46,-125"/>
<text text-anchor="start" x="55.75" y="-135.8" font-family="Times,serif" font-size="14.00">0.0</text>
<polygon fill="#ffffff" stroke="none" points="83,-125 83,-155 120,-155 120,-125 83,-125"/>
<polygon fill="none" stroke="black" points="83,-125 83,-155 120,-155 120,-125 83,-125"/>
<text text-anchor="start" x="92.75" y="-135.8" font-family="Times,serif" font-size="14.00">0.0</text>
<polygon fill="#ccffcc" stroke="none" points="120,-125 120,-155 157,-155 157,-125 120,-125"/>
<polygon fill="none" stroke="black" points="120,-125 120,-155 157,-155 157,-125 120,-125"/>
<text text-anchor="start" x="126.25" y="-135.8" font-family="Times,serif" font-size="14.00">0.18</text>
<polygon fill="#c0c0c0" stroke="none" points="157,-125 157,-155 194,-155 194,-125 157,-125"/>
<polygon fill="none" stroke="black" points="157,-125 157,-155 194,-155 194,-125 157,-125"/>
<text text-anchor="start" x="159.75" y="-135.8" font-family="Times,serif" font-size="14.00">0.692</text>
<polygon fill="#ffcc99" stroke="none" points="194,-125 194,-155 238,-155 238,-125 194,-125"/>
<polygon fill="none" stroke="black" points="194,-125 194,-155 238,-155 238,-125 194,-125"/>
<text text-anchor="start" x="203.75" y="-135.8" font-family="Times,serif" font-size="14.00">39.0</text>
<polygon fill="#ffcc99" stroke="none" points="238,-125 238,-155 282,-155 282,-125 238,-125"/>
<polygon fill="none" stroke="black" points="238,-125 238,-155 282,-155 282,-125 238,-125"/>
<text text-anchor="start" x="244.25" y="-135.8" font-family="Times,serif" font-size="14.00">0.083</text>
<polygon fill="#ffffff" stroke="none" points="282,-125 282,-155 333,-155 333,-125 282,-125"/>
<polygon fill="none" stroke="black" points="282,-125 282,-155 333,-155 333,-125 282,-125"/>
<text text-anchor="start" x="298.75" y="-135.8" font-family="Times,serif" font-size="14.00">0.0</text>
<polygon fill="#ffffff" stroke="none" points="333,-125 333,-155 391,-155 391,-125 333,-125"/>
<polygon fill="none" stroke="black" points="333,-125 333,-155 391,-155 391,-125 333,-125"/>
<text text-anchor="start" x="353.25" y="-135.8" font-family="Times,serif" font-size="14.00">0.0</text>
<polygon fill="#ffffff" stroke="none" points="9,-95 9,-125 46,-125 46,-95 9,-95"/>
<polygon fill="none" stroke="black" points="9,-95 9,-125 46,-125 46,-95 9,-95"/>
<text text-anchor="start" x="18.75" y="-105.8" font-family="Times,serif" font-size="14.00">0.0</text>
<polygon fill="#ffffff" stroke="none" points="46,-95 46,-125 83,-125 83,-95 46,-95"/>
<polygon fill="none" stroke="black" points="46,-95 46,-125 83,-125 83,-95 46,-95"/>
<text text-anchor="start" x="55.75" y="-105.8" font-family="Times,serif" font-size="14.00">0.0</text>
<polygon fill="#ffffff" stroke="none" points="83,-95 83,-125 120,-125 120,-95 83,-95"/>
<polygon fill="none" stroke="black" points="83,-95 83,-125 120,-125 120,-95 83,-95"/>
<text text-anchor="start" x="92.75" y="-105.8" font-family="Times,serif" font-size="14.00">0.0</text>
<polygon fill="#ffffff" stroke="none" points="120,-95 120,-125 157,-125 157,-95 120,-95"/>
<polygon fill="none" stroke="black" points="120,-95 120,-125 157,-125 157,-95 120,-95"/>
<text text-anchor="start" x="129.75" y="-105.8" font-family="Times,serif" font-size="14.00">0.0</text>
<polygon fill="#ccffcc" stroke="none" points="157,-95 157,-125 194,-125 194,-95 157,-95"/>
<polygon fill="none" stroke="black" points="157,-95 157,-125 194,-125 194,-95 157,-95"/>
<text text-anchor="start" x="159.75" y="-105.8" font-family="Times,serif" font-size="14.00">0.109</text>
<polygon fill="#c0c0c0" stroke="none" points="194,-95 194,-125 238,-125 238,-95 194,-95"/>
<polygon fill="none" stroke="black" points="194,-95 194,-125 238,-125 238,-95 194,-95"/>
<text text-anchor="start" x="200.25" y="-105.8" font-family="Times,serif" font-size="14.00">0.627</text>
<polygon fill="#ffffff" stroke="none" points="238,-95 238,-125 282,-125 282,-95 238,-95"/>
<polygon fill="none" stroke="black" points="238,-95 238,-125 282,-125 282,-95 238,-95"/>
<text text-anchor="start" x="251.25" y="-105.8" font-family="Times,serif" font-size="14.00">0.0</text>
<polygon fill="#ffffff" stroke="none" points="282,-95 282,-125 333,-125 333,-95 282,-95"/>
<polygon fill="none" stroke="black" points="282,-95 282,-125 333,-125 333,-95 282,-95"/>
<text text-anchor="start" x="298.75" y="-105.8" font-family="Times,serif" font-size="14.00">0.0</text>
<polygon fill="#ffffff" stroke="none" points="333,-95 333,-125 391,-125 391,-95 333,-95"/>
<polygon fill="none" stroke="black" points="333,-95 333,-125 391,-125 391,-95 333,-95"/>
<text text-anchor="start" x="353.25" y="-105.8" font-family="Times,serif" font-size="14.00">0.0</text>
<polygon fill="#ffffff" stroke="none" points="9,-65 9,-95 46,-95 46,-65 9,-65"/>
<polygon fill="none" stroke="black" points="9,-65 9,-95 46,-95 46,-65 9,-65"/>
<text text-anchor="start" x="18.75" y="-75.8" font-family="Times,serif" font-size="14.00">0.0</text>
<polygon fill="#ffffff" stroke="none" points="46,-65 46,-95 83,-95 83,-65 46,-65"/>
<polygon fill="none" stroke="black" points="46,-65 46,-95 83,-95 83,-65 46,-65"/>
<text text-anchor="start" x="55.75" y="-75.8" font-family="Times,serif" font-size="14.00">0.0</text>
<polygon fill="#ffffff" stroke="none" points="83,-65 83,-95 120,-95 120,-65 83,-65"/>
<polygon fill="none" stroke="black" points="83,-65 83,-95 120,-95 120,-65 83,-65"/>
<text text-anchor="start" x="92.75" y="-75.8" font-family="Times,serif" font-size="14.00">0.0</text>
<polygon fill="#ffffff" stroke="none" points="120,-65 120,-95 157,-95 157,-65 120,-65"/>
<polygon fill="none" stroke="black" points="120,-65 120,-95 157,-95 157,-65 120,-65"/>
<text text-anchor="start" x="129.75" y="-75.8" font-family="Times,serif" font-size="14.00">0.0</text>
<polygon fill="#ffffff" stroke="none" points="157,-65 157,-95 194,-95 194,-65 157,-65"/>
<polygon fill="none" stroke="black" points="157,-65 157,-95 194,-95 194,-65 157,-65"/>
<text text-anchor="start" x="166.75" y="-75.8" font-family="Times,serif" font-size="14.00">0.0</text>
<polygon fill="#ccffcc" stroke="none" points="194,-65 194,-95 238,-95 238,-65 194,-65"/>
<polygon fill="none" stroke="black" points="194,-65 194,-95 238,-95 238,-65 194,-65"/>
<text text-anchor="start" x="200.25" y="-75.8" font-family="Times,serif" font-size="14.00">0.227</text>
<polygon fill="#c0c0c0" stroke="none" points="238,-65 238,-95 282,-95 282,-65 238,-65"/>
<polygon fill="none" stroke="black" points="238,-65 238,-95 282,-95 282,-65 238,-65"/>
<text text-anchor="start" x="244.25" y="-75.8" font-family="Times,serif" font-size="14.00">0.448</text>
<polygon fill="#ffffff" stroke="none" points="282,-65 282,-95 333,-95 333,-65 282,-65"/>
<polygon fill="none" stroke="black" points="282,-65 282,-95 333,-95 333,-65 282,-65"/>
<text text-anchor="start" x="298.75" y="-75.8" font-family="Times,serif" font-size="14.00">0.0</text>
<polygon fill="#ffffff" stroke="none" points="333,-65 333,-95 391,-95 391,-65 333,-65"/>
<polygon fill="none" stroke="black" points="333,-65 333,-95 391,-95 391,-65 333,-65"/>
<text text-anchor="start" x="353.25" y="-75.8" font-family="Times,serif" font-size="14.00">0.0</text>
<polygon fill="#ffffff" stroke="none" points="9,-35 9,-65 46,-65 46,-35 9,-35"/>
<polygon fill="none" stroke="black" points="9,-35 9,-65 46,-65 46,-35 9,-35"/>
<text text-anchor="start" x="18.75" y="-45.8" font-family="Times,serif" font-size="14.00">0.0</text>
<polygon fill="#ffffff" stroke="none" points="46,-35 46,-65 83,-65 83,-35 46,-35"/>
<polygon fill="none" stroke="black" points="46,-35 46,-65 83,-65 83,-35 46,-35"/>
<text text-anchor="start" x="55.75" y="-45.8" font-family="Times,serif" font-size="14.00">0.0</text>
<polygon fill="#ffffff" stroke="none" points="83,-35 83,-65 120,-65 120,-35 83,-35"/>
<polygon fill="none" stroke="black" points="83,-35 83,-65 120,-65 120,-35 83,-35"/>
<text text-anchor="start" x="92.75" y="-45.8" font-family="Times,serif" font-size="14.00">0.0</text>
<polygon fill="#ffffff" stroke="none" points="120,-35 120,-65 157,-65 157,-35 120,-35"/>
<polygon fill="none" stroke="black" points="120,-35 120,-65 157,-65 157,-35 120,-35"/>
<text text-anchor="start" x="129.75" y="-45.8" font-family="Times,serif" font-size="14.00">0.0</text>
<polygon fill="#ffffff" stroke="none" points="157,-35 157,-65 194,-65 194,-35 157,-35"/>
<polygon fill="none" stroke="black" points="157,-35 157,-65 194,-65 194,-35 157,-35"/>
<text text-anchor="start" x="166.75" y="-45.8" font-family="Times,serif" font-size="14.00">0.0</text>
<polygon fill="#ffffff" stroke="none" points="194,-35 194,-65 238,-65 238,-35 194,-35"/>
<polygon fill="none" stroke="black" points="194,-35 194,-65 238,-65 238,-35 194,-35"/>
<text text-anchor="start" x="207.25" y="-45.8" font-family="Times,serif" font-size="14.00">0.0</text>
<polygon fill="#ccffcc" stroke="none" points="238,-35 238,-65 282,-65 282,-35 238,-35"/>
<polygon fill="none" stroke="black" points="238,-35 238,-65 282,-65 282,-35 238,-35"/>
<text text-anchor="start" x="244.25" y="-45.8" font-family="Times,serif" font-size="14.00">0.315</text>
<polygon fill="#c0c0c0" stroke="none" points="282,-35 282,-65 333,-65 333,-35 282,-35"/>
<polygon fill="none" stroke="black" points="282,-35 282,-65 333,-65 333,-35 282,-35"/>
<text text-anchor="start" x="291.75" y="-45.8" font-family="Times,serif" font-size="14.00">0.667</text>
<polygon fill="#ffcc99" stroke="none" points="333,-35 333,-65 391,-65 391,-35 333,-35"/>
<polygon fill="none" stroke="black" points="333,-35 333,-65 391,-65 391,-35 333,-35"/>
<text text-anchor="start" x="349.75" y="-45.8" font-family="Times,serif" font-size="14.00">0.25</text>
<polygon fill="#ffffff" stroke="none" points="9,-5 9,-35 46,-35 46,-5 9,-5"/>
<polygon fill="none" stroke="black" points="9,-5 9,-35 46,-35 46,-5 9,-5"/>
<text text-anchor="start" x="18.75" y="-15.8" font-family="Times,serif" font-size="14.00">0.0</text>
<polygon fill="#ffffff" stroke="none" points="46,-5 46,-35 83,-35 83,-5 46,-5"/>
<polygon fill="none" stroke="black" points="46,-5 46,-35 83,-35 83,-5 46,-5"/>
<text text-anchor="start" x="55.75" y="-15.8" font-family="Times,serif" font-size="14.00">0.0</text>
<polygon fill="#ffffff" stroke="none" points="83,-5 83,-35 120,-35 120,-5 83,-5"/>
<polygon fill="none" stroke="black" points="83,-5 83,-35 120,-35 120,-5 83,-5"/>
<text text-anchor="start" x="92.75" y="-15.8" font-family="Times,serif" font-size="14.00">0.0</text>
<polygon fill="#ffffff" stroke="none" points="120,-5 120,-35 157,-35 157,-5 120,-5"/>
<polygon fill="none" stroke="black" points="120,-5 120,-35 157,-35 157,-5 120,-5"/>
<text text-anchor="start" x="129.75" y="-15.8" font-family="Times,serif" font-size="14.00">0.0</text>
<polygon fill="#ffffff" stroke="none" points="157,-5 157,-35 194,-35 194,-5 157,-5"/>
<polygon fill="none" stroke="black" points="157,-5 157,-35 194,-35 194,-5 157,-5"/>
<text text-anchor="start" x="166.75" y="-15.8" font-family="Times,serif" font-size="14.00">0.0</text>
<polygon fill="#ffffff" stroke="none" points="194,-5 194,-35 238,-35 238,-5 194,-5"/>
<polygon fill="none" stroke="black" points="194,-5 194,-35 238,-35 238,-5 194,-5"/>
<text text-anchor="start" x="207.25" y="-15.8" font-family="Times,serif" font-size="14.00">0.0</text>
<polygon fill="#ffffff" stroke="none" points="238,-5 238,-35 282,-35 282,-5 238,-5"/>
<polygon fill="none" stroke="black" points="238,-5 238,-35 282,-35 282,-5 238,-5"/>
<text text-anchor="start" x="251.25" y="-15.8" font-family="Times,serif" font-size="14.00">0.0</text>
<polygon fill="#ccffcc" stroke="none" points="282,-5 282,-35 333,-35 333,-5 282,-5"/>
<polygon fill="none" stroke="black" points="282,-5 282,-35 333,-35 333,-5 282,-5"/>
<text text-anchor="start" x="291.75" y="-15.8" font-family="Times,serif" font-size="14.00">0.333</text>
<polygon fill="#c0c0c0" stroke="none" points="333,-5 333,-35 391,-35 391,-5 333,-5"/>
<polygon fill="none" stroke="black" points="333,-5 333,-35 391,-35 391,-5 333,-5"/>
<text text-anchor="start" x="353.25" y="-15.8" font-family="Times,serif" font-size="14.00">0.5</text>
<polygon fill="none" stroke="black" points="8,-4 8,-276 392,-276 392,-4 8,-4"/>
</g>
</g>
</svg>
