<?xml version="1.0" encoding="UTF-8" standalone="no"?>
<!DOCTYPE svg PUBLIC "-//W3C//DTD SVG 1.1//EN"
 "http://www.w3.org/Graphics/SVG/1.1/DTD/svg11.dtd">
<!-- Generated by graphviz version 2.38.0 (20140413.2041)
 -->
<!-- Title: G Pages: 1 -->
<svg width="422pt" height="288pt"
 viewBox="0.00 0.00 422.00 288.00" xmlns="http://www.w3.org/2000/svg" xmlns:xlink="http://www.w3.org/1999/xlink">
<g id="graph0" class="graph" transform="scale(1 1) rotate(0) translate(4 284)">
<title>G</title>
<polygon fill="white" stroke="none" points="-4,4 -4,-284 418,-284 418,4 -4,4"/>
<!-- nodey -->
<g id="node1" class="node"><title>nodey</title>
<polygon fill="#ffffff" stroke="none" points="9,-245 9,-275 46,-275 46,-245 9,-245"/>
<polygon fill="none" stroke="black" points="9,-245 9,-275 46,-275 46,-245 9,-245"/>
<text text-anchor="start" x="18.75" y="-255.8" font-family="Times,serif" font-size="14.00">0.0</text>
<polygon fill="#ffffff" stroke="none" points="46,-245 46,-275 90,-275 90,-245 46,-245"/>
<polygon fill="none" stroke="black" points="46,-245 46,-275 90,-275 90,-245 46,-245"/>
<text text-anchor="start" x="59.25" y="-255.8" font-family="Times,serif" font-size="14.00">0.0</text>
<polygon fill="#ffffff" stroke="none" points="90,-245 90,-275 127,-275 127,-245 90,-245"/>
<polygon fill="none" stroke="black" points="90,-245 90,-275 127,-275 127,-245 90,-245"/>
<text text-anchor="start" x="99.75" y="-255.8" font-family="Times,serif" font-size="14.00">0.0</text>
<polygon fill="#ffffff" stroke="none" points="127,-245 127,-275 171,-275 171,-245 127,-245"/>
<polygon fill="none" stroke="black" points="127,-245 127,-275 171,-275 171,-245 127,-245"/>
<text text-anchor="start" x="140.25" y="-255.8" font-family="Times,serif" font-size="14.00">0.0</text>
<polygon fill="#ffffff" stroke="none" points="171,-245 171,-275 215,-275 215,-245 171,-245"/>
<polygon fill="none" stroke="black" points="171,-245 171,-275 215,-275 215,-245 171,-245"/>
<text text-anchor="start" x="184.25" y="-255.8" font-family="Times,serif" font-size="14.00">0.0</text>
<polygon fill="#ff99cb" stroke="none" points="215,-245 215,-275 259,-275 259,-245 215,-245"/>
<polygon fill="none" stroke="black" points="215,-245 215,-275 259,-275 259,-245 215,-245"/>
<text text-anchor="start" x="217.75" y="-255.8" font-family="Times,serif" font-size="14.00">74.766</text>
<polygon fill="#ff99cb" stroke="none" points="259,-245 259,-275 310,-275 310,-245 259,-245"/>
<polygon fill="none" stroke="black" points="259,-245 259,-275 310,-275 310,-245 259,-245"/>
<text text-anchor="start" x="261.75" y="-255.8" font-family="Times,serif" font-size="14.00">343.453</text>
<polygon fill="#ff99cb" stroke="none" points="310,-245 310,-275 354,-275 354,-245 310,-245"/>
<polygon fill="none" stroke="black" points="310,-245 310,-275 354,-275 354,-245 310,-245"/>
<text text-anchor="start" x="312.75" y="-255.8" font-family="Times,serif" font-size="14.00">775.03</text>
<polygon fill="#ff99cb" stroke="none" points="354,-245 354,-275 405,-275 405,-245 354,-245"/>
<polygon fill="none" stroke="black" points="354,-245 354,-275 405,-275 405,-245 354,-245"/>
<text text-anchor="start" x="356.75" y="-255.8" font-family="Times,serif" font-size="14.00">843.739</text>
<polygon fill="#ccffcc" stroke="none" points="9,-215 9,-245 46,-245 46,-215 9,-215"/>
<polygon fill="none" stroke="black" points="9,-215 9,-245 46,-245 46,-215 9,-215"/>
<text text-anchor="start" x="11.75" y="-225.8" font-family="Times,serif" font-size="14.00">0.547</text>
<polygon fill="#ffffff" stroke="none" points="46,-215 46,-245 90,-245 90,-215 46,-215"/>
<polygon fill="none" stroke="black" points="46,-215 46,-245 90,-245 90,-215 46,-215"/>
<text text-anchor="start" x="59.25" y="-225.8" font-family="Times,serif" font-size="14.00">0.0</text>
<polygon fill="#ffffff" stroke="none" points="90,-215 90,-245 127,-245 127,-215 90,-215"/>
<polygon fill="none" stroke="black" points="90,-215 90,-245 127,-245 127,-215 90,-215"/>
<text text-anchor="start" x="99.75" y="-225.8" font-family="Times,serif" font-size="14.00">0.0</text>
<polygon fill="#ffffff" stroke="none" points="127,-215 127,-245 171,-245 171,-215 127,-215"/>
<polygon fill="none" stroke="black" points="127,-215 127,-245 171,-245 171,-215 127,-215"/>
<text text-anchor="start" x="140.25" y="-225.8" font-family="Times,serif" font-size="14.00">0.0</text>
<polygon fill="#ffffff" stroke="none" points="171,-215 171,-245 215,-245 215,-215 171,-215"/>
<polygon fill="none" stroke="black" points="171,-215 171,-245 215,-245 215,-215 171,-215"/>
<text text-anchor="start" x="184.25" y="-225.8" font-family="Times,serif" font-size="14.00">0.0</text>
<polygon fill="#ffffff" stroke="none" points="215,-215 215,-245 259,-245 259,-215 215,-215"/>
<polygon fill="none" stroke="black" points="215,-215 215,-245 259,-245 259,-215 215,-215"/>
<text text-anchor="start" x="228.25" y="-225.8" font-family="Times,serif" font-size="14.00">0.0</text>
<polygon fill="#ffffff" stroke="none" points="259,-215 259,-245 310,-245 310,-215 259,-215"/>
<polygon fill="none" stroke="black" points="259,-215 259,-245 310,-245 310,-215 259,-215"/>
<text text-anchor="start" x="275.75" y="-225.8" font-family="Times,serif" font-size="14.00">0.0</text>
<polygon fill="#ffffff" stroke="none" points="310,-215 310,-245 354,-245 354,-215 310,-215"/>
<polygon fill="none" stroke="black" points="310,-215 310,-245 354,-245 354,-215 310,-215"/>
<text text-anchor="start" x="323.25" y="-225.8" font-family="Times,serif" font-size="14.00">0.0</text>
<polygon fill="#ffffff" stroke="none" points="354,-215 354,-245 405,-245 405,-215 354,-215"/>
<polygon fill="none" stroke="black" points="354,-215 354,-245 405,-245 405,-215 354,-215"/>
<text text-anchor="start" x="370.75" y="-225.8" font-family="Times,serif" font-size="14.00">0.0</text>
<polygon fill="#ffffff" stroke="none" points="9,-185 9,-215 46,-215 46,-185 9,-185"/>
<polygon fill="none" stroke="black" points="9,-185 9,-215 46,-215 46,-185 9,-185"/>
<text text-anchor="start" x="18.75" y="-195.8" font-family="Times,serif" font-size="14.00">0.0</text>
<polygon fill="#ccffcc" stroke="none" points="46,-185 46,-215 90,-215 90,-185 46,-185"/>
<polygon fill="none" stroke="black" points="46,-185 46,-215 90,-215 90,-185 46,-185"/>
<text text-anchor="start" x="48.75" y="-195.8" font-family="Times,serif" font-size="14.00">0.4375</text>
<polygon fill="#c0c0c0" stroke="none" points="90,-185 90,-215 127,-215 127,-185 90,-185"/>
<polygon fill="none" stroke="black" points="90,-185 90,-215 127,-215 127,-185 90,-185"/>
<text text-anchor="start" x="92.75" y="-195.8" font-family="Times,serif" font-size="14.00">0.219</text>
<polygon fill="#ffffff" stroke="none" points="127,-185 127,-215 171,-215 171,-185 127,-185"/>
<polygon fill="none" stroke="black" points="127,-185 127,-215 171,-215 171,-185 127,-185"/>
<text text-anchor="start" x="140.25" y="-195.8" font-family="Times,serif" font-size="14.00">0.0</text>
<polygon fill="#ffffff" stroke="none" points="171,-185 171,-215 215,-215 215,-185 171,-185"/>
<polygon fill="none" stroke="black" points="171,-185 171,-215 215,-215 215,-185 171,-185"/>
<text text-anchor="start" x="184.25" y="-195.8" font-family="Times,serif" font-size="14.00">0.0</text>
<polygon fill="#ffffff" stroke="none" points="215,-185 215,-215 259,-215 259,-185 215,-185"/>
<polygon fill="none" stroke="black" points="215,-185 215,-215 259,-215 259,-185 215,-185"/>
<text text-anchor="start" x="228.25" y="-195.8" font-family="Times,serif" font-size="14.00">0.0</text>
<polygon fill="#ffffff" stroke="none" points="259,-185 259,-215 310,-215 310,-185 259,-185"/>
<polygon fill="none" stroke="black" points="259,-185 259,-215 310,-215 310,-185 259,-185"/>
<text text-anchor="start" x="275.75" y="-195.8" font-family="Times,serif" font-size="14.00">0.0</text>
<polygon fill="#ffffff" stroke="none" points="310,-185 310,-215 354,-215 354,-185 310,-185"/>
<polygon fill="none" stroke="black" points="310,-185 310,-215 354,-215 354,-185 310,-185"/>
<text text-anchor="start" x="323.25" y="-195.8" font-family="Times,serif" font-size="14.00">0.0</text>
<polygon fill="#ffffff" stroke="none" points="354,-185 354,-215 405,-215 405,-185 354,-185"/>
<polygon fill="none" stroke="black" points="354,-185 354,-215 405,-215 405,-185 354,-185"/>
<text text-anchor="start" x="370.75" y="-195.8" font-family="Times,serif" font-size="14.00">0.0</text>
<polygon fill="#ffffff" stroke="none" points="9,-155 9,-185 46,-185 46,-155 9,-155"/>
<polygon fill="none" stroke="black" points="9,-155 9,-185 46,-185 46,-155 9,-155"/>
<text text-anchor="start" x="18.75" y="-165.8" font-family="Times,serif" font-size="14.00">0.0</text>
<polygon fill="#ffffff" stroke="none" points="46,-155 46,-185 90,-185 90,-155 46,-155"/>
<polygon fill="none" stroke="black" points="46,-155 46,-185 90,-185 90,-155 46,-155"/>
<text text-anchor="start" x="59.25" y="-165.8" font-family="Times,serif" font-size="14.00">0.0</text>
<polygon fill="#ccffcc" stroke="none" points="90,-155 90,-185 127,-185 127,-155 90,-155"/>
<polygon fill="none" stroke="black" points="90,-155 90,-185 127,-185 127,-155 90,-155"/>
<text text-anchor="start" x="92.75" y="-165.8" font-family="Times,serif" font-size="14.00">0.343</text>
<polygon fill="#c0c0c0" stroke="none" points="127,-155 127,-185 171,-185 171,-155 127,-155"/>
<polygon fill="none" stroke="black" points="127,-155 127,-185 171,-185 171,-155 127,-155"/>
<text text-anchor="start" x="133.25" y="-165.8" font-family="Times,serif" font-size="14.00">0.493</text>
<polygon fill="#ffcc99" stroke="none" points="171,-155 171,-185 215,-185 215,-155 171,-155"/>
<polygon fill="none" stroke="black" points="171,-155 171,-185 215,-185 215,-155 171,-155"/>
<text text-anchor="start" x="177.25" y="-165.8" font-family="Times,serif" font-size="14.00">0.035</text>
<polygon fill="#ffcc99" stroke="none" points="215,-155 215,-185 259,-185 259,-155 215,-155"/>
<polygon fill="none" stroke="black" points="215,-155 215,-185 259,-185 259,-155 215,-155"/>
<text text-anchor="start" x="221.25" y="-165.8" font-family="Times,serif" font-size="14.00">0.029</text>
<polygon fill="#ffcc99" stroke="none" points="259,-155 259,-185 310,-185 310,-155 259,-155"/>
<polygon fill="none" stroke="black" points="259,-155 259,-185 310,-185 310,-155 259,-155"/>
<text text-anchor="start" x="268.75" y="-165.8" font-family="Times,serif" font-size="14.00">0.024</text>
<polygon fill="#ffcc99" stroke="none" points="310,-155 310,-185 354,-185 354,-155 310,-155"/>
<polygon fill="none" stroke="black" points="310,-155 310,-185 354,-185 354,-155 310,-155"/>
<text text-anchor="start" x="316.25" y="-165.8" font-family="Times,serif" font-size="14.00">0.135</text>
<polygon fill="#ffcc99" stroke="none" points="354,-155 354,-185 405,-185 405,-155 354,-155"/>
<polygon fill="none" stroke="black" points="354,-155 354,-185 405,-185 405,-155 354,-155"/>
<text text-anchor="start" x="360.25" y="-165.8" font-family="Times,serif" font-size="14.00">0.0555</text>
<polygon fill="#ffffff" stroke="none" points="9,-125 9,-155 46,-155 46,-125 9,-125"/>
<polygon fill="none" stroke="black" points="9,-125 9,-155 46,-155 46,-125 9,-125"/>
<text text-anchor="start" x="18.75" y="-135.8" font-family="Times,serif" font-size="14.00">0.0</text>
<polygon fill="#ffffff" stroke="none" points="46,-125 46,-155 90,-155 90,-125 46,-125"/>
<polygon fill="none" stroke="black" points="46,-125 46,-155 90,-155 90,-125 46,-125"/>
<text text-anchor="start" x="59.25" y="-135.8" font-family="Times,serif" font-size="14.00">0.0</text>
<polygon fill="#ccffcc" stroke="none" points="90,-125 90,-155 127,-155 127,-125 90,-125"/>
<polygon fill="none" stroke="black" points="90,-125 90,-155 127,-155 127,-125 90,-125"/>
<text text-anchor="start" x="92.75" y="-135.8" font-family="Times,serif" font-size="14.00">0.001</text>
<polygon fill="#ccffcc" stroke="none" points="127,-125 127,-155 171,-155 171,-125 127,-125"/>
<polygon fill="none" stroke="black" points="127,-125 127,-155 171,-155 171,-125 127,-125"/>
<text text-anchor="start" x="129.75" y="-135.8" font-family="Times,serif" font-size="14.00">0.1205</text>
<polygon fill="#c0c0c0" stroke="none" points="171,-125 171,-155 215,-155 215,-125 171,-125"/>
<polygon fill="none" stroke="black" points="171,-125 171,-155 215,-155 215,-125 171,-125"/>
<text text-anchor="start" x="173.75" y="-135.8" font-family="Times,serif" font-size="14.00">0.6975</text>
<polygon fill="#ffcc99" stroke="none" points="215,-125 215,-155 259,-155 259,-125 215,-125"/>
<polygon fill="none" stroke="black" points="215,-125 215,-155 259,-155 259,-125 215,-125"/>
<text text-anchor="start" x="217.75" y="-135.8" font-family="Times,serif" font-size="14.00">0.0685</text>
<polygon fill="#ffcc99" stroke="none" points="259,-125 259,-155 310,-155 310,-125 259,-125"/>
<polygon fill="none" stroke="black" points="259,-125 259,-155 310,-155 310,-125 259,-125"/>
<text text-anchor="start" x="268.75" y="-135.8" font-family="Times,serif" font-size="14.00">0.012</text>
<polygon fill="#ffcc99" stroke="none" points="310,-125 310,-155 354,-155 354,-125 310,-125"/>
<polygon fill="none" stroke="black" points="310,-125 310,-155 354,-155 354,-125 310,-125"/>
<text text-anchor="start" x="319.75" y="-135.8" font-family="Times,serif" font-size="14.00">0.01</text>
<polygon fill="#ffffff" stroke="none" points="354,-125 354,-155 405,-155 405,-125 354,-125"/>
<polygon fill="none" stroke="black" points="354,-125 354,-155 405,-155 405,-125 354,-125"/>
<text text-anchor="start" x="370.75" y="-135.8" font-family="Times,serif" font-size="14.00">0.0</text>
<polygon fill="#ffffff" stroke="none" points="9,-95 9,-125 46,-125 46,-95 9,-95"/>
<polygon fill="none" stroke="black" points="9,-95 9,-125 46,-125 46,-95 9,-95"/>
<text text-anchor="start" x="18.75" y="-105.8" font-family="Times,serif" font-size="14.00">0.0</text>
<polygon fill="#ffffff" stroke="none" points="46,-95 46,-125 90,-125 90,-95 46,-95"/>
<polygon fill="none" stroke="black" points="46,-95 46,-125 90,-125 90,-95 46,-95"/>
<text text-anchor="start" x="59.25" y="-105.8" font-family="Times,serif" font-size="14.00">0.0</text>
<polygon fill="#ffffff" stroke="none" points="90,-95 90,-125 127,-125 127,-95 90,-95"/>
<polygon fill="none" stroke="black" points="90,-95 90,-125 127,-125 127,-95 90,-95"/>
<text text-anchor="start" x="99.75" y="-105.8" font-family="Times,serif" font-size="14.00">0.0</text>
<polygon fill="#ffffff" stroke="none" points="127,-95 127,-125 171,-125 171,-95 127,-95"/>
<polygon fill="none" stroke="black" points="127,-95 127,-125 171,-125 171,-95 127,-95"/>
<text text-anchor="start" x="140.25" y="-105.8" font-family="Times,serif" font-size="14.00">0.0</text>
<polygon fill="#ccffcc" stroke="none" points="171,-95 171,-125 215,-125 215,-95 171,-95"/>
<polygon fill="none" stroke="black" points="171,-95 171,-125 215,-125 215,-95 171,-95"/>
<text text-anchor="start" x="177.25" y="-105.8" font-family="Times,serif" font-size="14.00">0.076</text>
<polygon fill="#c0c0c0" stroke="none" points="215,-95 215,-125 259,-125 259,-95 215,-95"/>
<polygon fill="none" stroke="black" points="215,-95 215,-125 259,-125 259,-95 215,-95"/>
<text text-anchor="start" x="221.25" y="-105.8" font-family="Times,serif" font-size="14.00">0.665</text>
<polygon fill="#ffcc99" stroke="none" points="259,-95 259,-125 310,-125 310,-95 259,-95"/>
<polygon fill="none" stroke="black" points="259,-95 259,-125 310,-125 310,-95 259,-95"/>
<text text-anchor="start" x="268.75" y="-105.8" font-family="Times,serif" font-size="14.00">0.064</text>
<polygon fill="#ffffff" stroke="none" points="310,-95 310,-125 354,-125 354,-95 310,-95"/>
<polygon fill="none" stroke="black" points="310,-95 310,-125 354,-125 354,-95 310,-95"/>
<text text-anchor="start" x="323.25" y="-105.8" font-family="Times,serif" font-size="14.00">0.0</text>
<polygon fill="#ffffff" stroke="none" points="354,-95 354,-125 405,-125 405,-95 354,-95"/>
<polygon fill="none" stroke="black" points="354,-95 354,-125 405,-125 405,-95 354,-95"/>
<text text-anchor="start" x="370.75" y="-105.8" font-family="Times,serif" font-size="14.00">0.0</text>
<polygon fill="#ffffff" stroke="none" points="9,-65 9,-95 46,-95 46,-65 9,-65"/>
<polygon fill="none" stroke="black" points="9,-65 9,-95 46,-95 46,-65 9,-65"/>
<text text-anchor="start" x="18.75" y="-75.8" font-family="Times,serif" font-size="14.00">0.0</text>
<polygon fill="#ffffff" stroke="none" points="46,-65 46,-95 90,-95 90,-65 46,-65"/>
<polygon fill="none" stroke="black" points="46,-65 46,-95 90,-95 90,-65 46,-65"/>
<text text-anchor="start" x="59.25" y="-75.8" font-family="Times,serif" font-size="14.00">0.0</text>
<polygon fill="#ffffff" stroke="none" points="90,-65 90,-95 127,-95 127,-65 90,-65"/>
<polygon fill="none" stroke="black" points="90,-65 90,-95 127,-95 127,-65 90,-65"/>
<text text-anchor="start" x="99.75" y="-75.8" font-family="Times,serif" font-size="14.00">0.0</text>
<polygon fill="#ffffff" stroke="none" points="127,-65 127,-95 171,-95 171,-65 127,-65"/>
<polygon fill="none" stroke="black" points="127,-65 127,-95 171,-95 171,-65 127,-65"/>
<text text-anchor="start" x="140.25" y="-75.8" font-family="Times,serif" font-size="14.00">0.0</text>
<polygon fill="#ffffff" stroke="none" points="171,-65 171,-95 215,-95 215,-65 171,-65"/>
<polygon fill="none" stroke="black" points="171,-65 171,-95 215,-95 215,-65 171,-65"/>
<text text-anchor="start" x="184.25" y="-75.8" font-family="Times,serif" font-size="14.00">0.0</text>
<polygon fill="#ccffcc" stroke="none" points="215,-65 215,-95 259,-95 259,-65 215,-65"/>
<polygon fill="none" stroke="black" points="215,-65 215,-95 259,-95 259,-65 215,-65"/>
<text text-anchor="start" x="221.25" y="-75.8" font-family="Times,serif" font-size="14.00">0.141</text>
<polygon fill="#c0c0c0" stroke="none" points="259,-65 259,-95 310,-95 310,-65 259,-65"/>
<polygon fill="none" stroke="black" points="259,-65 259,-95 310,-95 310,-65 259,-65"/>
<text text-anchor="start" x="265.25" y="-75.8" font-family="Times,serif" font-size="14.00">0.6955</text>
<polygon fill="#ffcc99" stroke="none" points="310,-65 310,-95 354,-95 354,-65 310,-65"/>
<polygon fill="none" stroke="black" points="310,-65 310,-95 354,-95 354,-65 310,-65"/>
<text text-anchor="start" x="312.75" y="-75.8" font-family="Times,serif" font-size="14.00">0.0665</text>
<polygon fill="#ffffff" stroke="none" points="354,-65 354,-95 405,-95 405,-65 354,-65"/>
<polygon fill="none" stroke="black" points="354,-65 354,-95 405,-95 405,-65 354,-65"/>
<text text-anchor="start" x="370.75" y="-75.8" font-family="Times,serif" font-size="14.00">0.0</text>
<polygon fill="#ffffff" stroke="none" points="9,-35 9,-65 46,-65 46,-35 9,-35"/>
<polygon fill="none" stroke="black" points="9,-35 9,-65 46,-65 46,-35 9,-35"/>
<text text-anchor="start" x="18.75" y="-45.8" font-family="Times,serif" font-size="14.00">0.0</text>
<polygon fill="#ffffff" stroke="none" points="46,-35 46,-65 90,-65 90,-35 46,-35"/>
<polygon fill="none" stroke="black" points="46,-35 46,-65 90,-65 90,-35 46,-35"/>
<text text-anchor="start" x="59.25" y="-45.8" font-family="Times,serif" font-size="14.00">0.0</text>
<polygon fill="#ffffff" stroke="none" points="90,-35 90,-65 127,-65 127,-35 90,-35"/>
<polygon fill="none" stroke="black" points="90,-35 90,-65 127,-65 127,-35 90,-35"/>
<text text-anchor="start" x="99.75" y="-45.8" font-family="Times,serif" font-size="14.00">0.0</text>
<polygon fill="#ffffff" stroke="none" points="127,-35 127,-65 171,-65 171,-35 127,-35"/>
<polygon fill="none" stroke="black" points="127,-35 127,-65 171,-65 171,-35 127,-35"/>
<text text-anchor="start" x="140.25" y="-45.8" font-family="Times,serif" font-size="14.00">0.0</text>
<polygon fill="#ffffff" stroke="none" points="171,-35 171,-65 215,-65 215,-35 171,-35"/>
<polygon fill="none" stroke="black" points="171,-35 171,-65 215,-65 215,-35 171,-35"/>
<text text-anchor="start" x="184.25" y="-45.8" font-family="Times,serif" font-size="14.00">0.0</text>
<polygon fill="#ffffff" stroke="none" points="215,-35 215,-65 259,-65 259,-35 215,-35"/>
<polygon fill="none" stroke="black" points="215,-35 215,-65 259,-65 259,-35 215,-35"/>
<text text-anchor="start" x="228.25" y="-45.8" font-family="Times,serif" font-size="14.00">0.0</text>
<polygon fill="#ccffcc" stroke="none" points="259,-35 259,-65 310,-65 310,-35 259,-35"/>
<polygon fill="none" stroke="black" points="259,-35 259,-65 310,-65 310,-35 259,-35"/>
<text text-anchor="start" x="268.75" y="-45.8" font-family="Times,serif" font-size="14.00">0.124</text>
<polygon fill="#c0c0c0" stroke="none" points="310,-35 310,-65 354,-65 354,-35 310,-35"/>
<polygon fill="none" stroke="black" points="310,-35 310,-65 354,-65 354,-35 310,-35"/>
<text text-anchor="start" x="316.25" y="-45.8" font-family="Times,serif" font-size="14.00">0.569</text>
<polygon fill="#ffcc99" stroke="none" points="354,-35 354,-65 405,-65 405,-35 354,-35"/>
<polygon fill="none" stroke="black" points="354,-35 354,-65 405,-65 405,-35 354,-35"/>
<text text-anchor="start" x="363.75" y="-45.8" font-family="Times,serif" font-size="14.00">0.089</text>
<polygon fill="#ffffff" stroke="none" points="9,-5 9,-35 46,-35 46,-5 9,-5"/>
<polygon fill="none" stroke="black" points="9,-5 9,-35 46,-35 46,-5 9,-5"/>
<text text-anchor="start" x="18.75" y="-15.8" font-family="Times,serif" font-size="14.00">0.0</text>
<polygon fill="#ffffff" stroke="none" points="46,-5 46,-35 90,-35 90,-5 46,-5"/>
<polygon fill="none" stroke="black" points="46,-5 46,-35 90,-35 90,-5 46,-5"/>
<text text-anchor="start" x="59.25" y="-15.8" font-family="Times,serif" font-size="14.00">0.0</text>
<polygon fill="#ffffff" stroke="none" points="90,-5 90,-35 127,-35 127,-5 90,-5"/>
<polygon fill="none" stroke="black" points="90,-5 90,-35 127,-35 127,-5 90,-5"/>
<text text-anchor="start" x="99.75" y="-15.8" font-family="Times,serif" font-size="14.00">0.0</text>
<polygon fill="#ffffff" stroke="none" points="127,-5 127,-35 171,-35 171,-5 127,-5"/>
<polygon fill="none" stroke="black" points="127,-5 127,-35 171,-35 171,-5 127,-5"/>
<text text-anchor="start" x="140.25" y="-15.8" font-family="Times,serif" font-size="14.00">0.0</text>
<polygon fill="#ffffff" stroke="none" points="171,-5 171,-35 215,-35 215,-5 171,-5"/>
<polygon fill="none" stroke="black" points="171,-5 171,-35 215,-35 215,-5 171,-5"/>
<text text-anchor="start" x="184.25" y="-15.8" font-family="Times,serif" font-size="14.00">0.0</text>
<polygon fill="#ffffff" stroke="none" points="215,-5 215,-35 259,-35 259,-5 215,-5"/>
<polygon fill="none" stroke="black" points="215,-5 215,-35 259,-35 259,-5 215,-5"/>
<text text-anchor="start" x="228.25" y="-15.8" font-family="Times,serif" font-size="14.00">0.0</text>
<polygon fill="#ffffff" stroke="none" points="259,-5 259,-35 310,-35 310,-5 259,-5"/>
<polygon fill="none" stroke="black" points="259,-5 259,-35 310,-35 310,-5 259,-5"/>
<text text-anchor="start" x="275.75" y="-15.8" font-family="Times,serif" font-size="14.00">0.0</text>
<polygon fill="#ccffcc" stroke="none" points="310,-5 310,-35 354,-35 354,-5 310,-5"/>
<polygon fill="none" stroke="black" points="310,-5 310,-35 354,-35 354,-5 310,-5"/>
<text text-anchor="start" x="316.25" y="-15.8" font-family="Times,serif" font-size="14.00">0.047</text>
<polygon fill="#c0c0c0" stroke="none" points="354,-5 354,-35 405,-35 405,-5 354,-5"/>
<polygon fill="none" stroke="black" points="354,-5 354,-35 405,-35 405,-5 354,-5"/>
<text text-anchor="start" x="363.75" y="-15.8" font-family="Times,serif" font-size="14.00">0.822</text>
<polygon fill="none" stroke="black" points="8,-4 8,-276 406,-276 406,-4 8,-4"/>
</g>
</g>
</svg>
