<?xml version="1.0" encoding="UTF-8" standalone="no"?>
<!DOCTYPE svg PUBLIC "-//W3C//DTD SVG 1.1//EN"
 "http://www.w3.org/Graphics/SVG/1.1/DTD/svg11.dtd">
<!-- Generated by graphviz version 2.38.0 (20140413.2041)
 -->
<!-- Title: G Pages: 1 -->
<svg width="359pt" height="288pt"
 viewBox="0.00 0.00 359.00 288.00" xmlns="http://www.w3.org/2000/svg" xmlns:xlink="http://www.w3.org/1999/xlink">
<g id="graph0" class="graph" transform="scale(1 1) rotate(0) translate(4 284)">
<title>G</title>
<polygon fill="white" stroke="none" points="-4,4 -4,-284 355,-284 355,4 -4,4"/>
<!-- nodey -->
<g id="node1" class="node"><title>nodey</title>
<polygon fill="#ffffff" stroke="none" points="9.5,-245 9.5,-275 46.5,-275 46.5,-245 9.5,-245"/>
<polygon fill="none" stroke="black" points="9.5,-245 9.5,-275 46.5,-275 46.5,-245 9.5,-245"/>
<text text-anchor="start" x="19.25" y="-255.8" font-family="Times,serif" font-size="14.00">0.0</text>
<polygon fill="#ffffff" stroke="none" points="46.5,-245 46.5,-275 83.5,-275 83.5,-245 46.5,-245"/>
<polygon fill="none" stroke="black" points="46.5,-245 46.5,-275 83.5,-275 83.5,-245 46.5,-245"/>
<text text-anchor="start" x="56.25" y="-255.8" font-family="Times,serif" font-size="14.00">0.0</text>
<polygon fill="#ffffff" stroke="none" points="83.5,-245 83.5,-275 120.5,-275 120.5,-245 83.5,-245"/>
<polygon fill="none" stroke="black" points="83.5,-245 83.5,-275 120.5,-275 120.5,-245 83.5,-245"/>
<text text-anchor="start" x="93.25" y="-255.8" font-family="Times,serif" font-size="14.00">0.0</text>
<polygon fill="#ffffff" stroke="none" points="120.5,-245 120.5,-275 157.5,-275 157.5,-245 120.5,-245"/>
<polygon fill="none" stroke="black" points="120.5,-245 120.5,-275 157.5,-275 157.5,-245 120.5,-245"/>
<text text-anchor="start" x="130.25" y="-255.8" font-family="Times,serif" font-size="14.00">0.0</text>
<polygon fill="#ffffff" stroke="none" points="157.5,-245 157.5,-275 194.5,-275 194.5,-245 157.5,-245"/>
<polygon fill="none" stroke="black" points="157.5,-245 157.5,-275 194.5,-275 194.5,-245 157.5,-245"/>
<text text-anchor="start" x="167.25" y="-255.8" font-family="Times,serif" font-size="14.00">0.0</text>
<polygon fill="#ff99cb" stroke="none" points="194.5,-245 194.5,-275 231.5,-275 231.5,-245 194.5,-245"/>
<polygon fill="none" stroke="black" points="194.5,-245 194.5,-275 231.5,-275 231.5,-245 194.5,-245"/>
<text text-anchor="start" x="197.062" y="-255.8" font-family="Times,serif" font-size="14.00">1e&#45;10</text>
<polygon fill="#ff99cb" stroke="none" points="231.5,-245 231.5,-275 268.5,-275 268.5,-245 231.5,-245"/>
<polygon fill="none" stroke="black" points="231.5,-245 231.5,-275 268.5,-275 268.5,-245 231.5,-245"/>
<text text-anchor="start" x="234.062" y="-255.8" font-family="Times,serif" font-size="14.00">1e&#45;10</text>
<polygon fill="#ff99cb" stroke="none" points="268.5,-245 268.5,-275 305.5,-275 305.5,-245 268.5,-245"/>
<polygon fill="none" stroke="black" points="268.5,-245 268.5,-275 305.5,-275 305.5,-245 268.5,-245"/>
<text text-anchor="start" x="271.062" y="-255.8" font-family="Times,serif" font-size="14.00">1e&#45;10</text>
<polygon fill="#ff99cb" stroke="none" points="305.5,-245 305.5,-275 342.5,-275 342.5,-245 305.5,-245"/>
<polygon fill="none" stroke="black" points="305.5,-245 305.5,-275 342.5,-275 342.5,-245 305.5,-245"/>
<text text-anchor="start" x="308.062" y="-255.8" font-family="Times,serif" font-size="14.00">1e&#45;10</text>
<polygon fill="#ccffcc" stroke="none" points="9.5,-215 9.5,-245 46.5,-245 46.5,-215 9.5,-215"/>
<polygon fill="none" stroke="black" points="9.5,-215 9.5,-245 46.5,-245 46.5,-215 9.5,-215"/>
<text text-anchor="start" x="12.25" y="-225.8" font-family="Times,serif" font-size="14.00">0.219</text>
<polygon fill="#ffffff" stroke="none" points="46.5,-215 46.5,-245 83.5,-245 83.5,-215 46.5,-215"/>
<polygon fill="none" stroke="black" points="46.5,-215 46.5,-245 83.5,-245 83.5,-215 46.5,-215"/>
<text text-anchor="start" x="56.25" y="-225.8" font-family="Times,serif" font-size="14.00">0.0</text>
<polygon fill="#ffffff" stroke="none" points="83.5,-215 83.5,-245 120.5,-245 120.5,-215 83.5,-215"/>
<polygon fill="none" stroke="black" points="83.5,-215 83.5,-245 120.5,-245 120.5,-215 83.5,-215"/>
<text text-anchor="start" x="93.25" y="-225.8" font-family="Times,serif" font-size="14.00">0.0</text>
<polygon fill="#ffffff" stroke="none" points="120.5,-215 120.5,-245 157.5,-245 157.5,-215 120.5,-215"/>
<polygon fill="none" stroke="black" points="120.5,-215 120.5,-245 157.5,-245 157.5,-215 120.5,-215"/>
<text text-anchor="start" x="130.25" y="-225.8" font-family="Times,serif" font-size="14.00">0.0</text>
<polygon fill="#ffffff" stroke="none" points="157.5,-215 157.5,-245 194.5,-245 194.5,-215 157.5,-215"/>
<polygon fill="none" stroke="black" points="157.5,-215 157.5,-245 194.5,-245 194.5,-215 157.5,-215"/>
<text text-anchor="start" x="167.25" y="-225.8" font-family="Times,serif" font-size="14.00">0.0</text>
<polygon fill="#ffffff" stroke="none" points="194.5,-215 194.5,-245 231.5,-245 231.5,-215 194.5,-215"/>
<polygon fill="none" stroke="black" points="194.5,-215 194.5,-245 231.5,-245 231.5,-215 194.5,-215"/>
<text text-anchor="start" x="204.25" y="-225.8" font-family="Times,serif" font-size="14.00">0.0</text>
<polygon fill="#ffffff" stroke="none" points="231.5,-215 231.5,-245 268.5,-245 268.5,-215 231.5,-215"/>
<polygon fill="none" stroke="black" points="231.5,-215 231.5,-245 268.5,-245 268.5,-215 231.5,-215"/>
<text text-anchor="start" x="241.25" y="-225.8" font-family="Times,serif" font-size="14.00">0.0</text>
<polygon fill="#ffffff" stroke="none" points="268.5,-215 268.5,-245 305.5,-245 305.5,-215 268.5,-215"/>
<polygon fill="none" stroke="black" points="268.5,-215 268.5,-245 305.5,-245 305.5,-215 268.5,-215"/>
<text text-anchor="start" x="278.25" y="-225.8" font-family="Times,serif" font-size="14.00">0.0</text>
<polygon fill="#ffffff" stroke="none" points="305.5,-215 305.5,-245 342.5,-245 342.5,-215 305.5,-215"/>
<polygon fill="none" stroke="black" points="305.5,-215 305.5,-245 342.5,-245 342.5,-215 305.5,-215"/>
<text text-anchor="start" x="315.25" y="-225.8" font-family="Times,serif" font-size="14.00">0.0</text>
<polygon fill="#ffffff" stroke="none" points="9.5,-185 9.5,-215 46.5,-215 46.5,-185 9.5,-185"/>
<polygon fill="none" stroke="black" points="9.5,-185 9.5,-215 46.5,-215 46.5,-185 9.5,-185"/>
<text text-anchor="start" x="19.25" y="-195.8" font-family="Times,serif" font-size="14.00">0.0</text>
<polygon fill="#ccffcc" stroke="none" points="46.5,-185 46.5,-215 83.5,-215 83.5,-185 46.5,-185"/>
<polygon fill="none" stroke="black" points="46.5,-185 46.5,-215 83.5,-215 83.5,-185 46.5,-185"/>
<text text-anchor="start" x="49.25" y="-195.8" font-family="Times,serif" font-size="14.00">0.219</text>
<polygon fill="#c0c0c0" stroke="none" points="83.5,-185 83.5,-215 120.5,-215 120.5,-185 83.5,-185"/>
<polygon fill="none" stroke="black" points="83.5,-185 83.5,-215 120.5,-215 120.5,-185 83.5,-185"/>
<text text-anchor="start" x="86.25" y="-195.8" font-family="Times,serif" font-size="14.00">0.656</text>
<polygon fill="#ffffff" stroke="none" points="120.5,-185 120.5,-215 157.5,-215 157.5,-185 120.5,-185"/>
<polygon fill="none" stroke="black" points="120.5,-185 120.5,-215 157.5,-215 157.5,-185 120.5,-185"/>
<text text-anchor="start" x="130.25" y="-195.8" font-family="Times,serif" font-size="14.00">0.0</text>
<polygon fill="#ffffff" stroke="none" points="157.5,-185 157.5,-215 194.5,-215 194.5,-185 157.5,-185"/>
<polygon fill="none" stroke="black" points="157.5,-185 157.5,-215 194.5,-215 194.5,-185 157.5,-185"/>
<text text-anchor="start" x="167.25" y="-195.8" font-family="Times,serif" font-size="14.00">0.0</text>
<polygon fill="#ffffff" stroke="none" points="194.5,-185 194.5,-215 231.5,-215 231.5,-185 194.5,-185"/>
<polygon fill="none" stroke="black" points="194.5,-185 194.5,-215 231.5,-215 231.5,-185 194.5,-185"/>
<text text-anchor="start" x="204.25" y="-195.8" font-family="Times,serif" font-size="14.00">0.0</text>
<polygon fill="#ffffff" stroke="none" points="231.5,-185 231.5,-215 268.5,-215 268.5,-185 231.5,-185"/>
<polygon fill="none" stroke="black" points="231.5,-185 231.5,-215 268.5,-215 268.5,-185 231.5,-185"/>
<text text-anchor="start" x="241.25" y="-195.8" font-family="Times,serif" font-size="14.00">0.0</text>
<polygon fill="#ffffff" stroke="none" points="268.5,-185 268.5,-215 305.5,-215 305.5,-185 268.5,-185"/>
<polygon fill="none" stroke="black" points="268.5,-185 268.5,-215 305.5,-215 305.5,-185 268.5,-185"/>
<text text-anchor="start" x="278.25" y="-195.8" font-family="Times,serif" font-size="14.00">0.0</text>
<polygon fill="#ffffff" stroke="none" points="305.5,-185 305.5,-215 342.5,-215 342.5,-185 305.5,-185"/>
<polygon fill="none" stroke="black" points="305.5,-185 305.5,-215 342.5,-215 342.5,-185 305.5,-185"/>
<text text-anchor="start" x="315.25" y="-195.8" font-family="Times,serif" font-size="14.00">0.0</text>
<polygon fill="#ffffff" stroke="none" points="9.5,-155 9.5,-185 46.5,-185 46.5,-155 9.5,-155"/>
<polygon fill="none" stroke="black" points="9.5,-155 9.5,-185 46.5,-185 46.5,-155 9.5,-155"/>
<text text-anchor="start" x="19.25" y="-165.8" font-family="Times,serif" font-size="14.00">0.0</text>
<polygon fill="#ffffff" stroke="none" points="46.5,-155 46.5,-185 83.5,-185 83.5,-155 46.5,-155"/>
<polygon fill="none" stroke="black" points="46.5,-155 46.5,-185 83.5,-185 83.5,-155 46.5,-155"/>
<text text-anchor="start" x="56.25" y="-165.8" font-family="Times,serif" font-size="14.00">0.0</text>
<polygon fill="#ccffcc" stroke="none" points="83.5,-155 83.5,-185 120.5,-185 120.5,-155 83.5,-155"/>
<polygon fill="none" stroke="black" points="83.5,-155 83.5,-185 120.5,-185 120.5,-155 83.5,-155"/>
<text text-anchor="start" x="86.25" y="-165.8" font-family="Times,serif" font-size="14.00">0.062</text>
<polygon fill="#c0c0c0" stroke="none" points="120.5,-155 120.5,-185 157.5,-185 157.5,-155 120.5,-155"/>
<polygon fill="none" stroke="black" points="120.5,-155 120.5,-185 157.5,-185 157.5,-155 120.5,-155"/>
<text text-anchor="start" x="123.25" y="-165.8" font-family="Times,serif" font-size="14.00">0.287</text>
<polygon fill="#ffcc99" stroke="none" points="157.5,-155 157.5,-185 194.5,-185 194.5,-155 157.5,-155"/>
<polygon fill="none" stroke="black" points="157.5,-155 157.5,-185 194.5,-185 194.5,-155 157.5,-155"/>
<text text-anchor="start" x="160.25" y="-165.8" font-family="Times,serif" font-size="14.00">0.007</text>
<polygon fill="#ffffff" stroke="none" points="194.5,-155 194.5,-185 231.5,-185 231.5,-155 194.5,-155"/>
<polygon fill="none" stroke="black" points="194.5,-155 194.5,-185 231.5,-185 231.5,-155 194.5,-155"/>
<text text-anchor="start" x="204.25" y="-165.8" font-family="Times,serif" font-size="14.00">0.0</text>
<polygon fill="#ffffff" stroke="none" points="231.5,-155 231.5,-185 268.5,-185 268.5,-155 231.5,-155"/>
<polygon fill="none" stroke="black" points="231.5,-155 231.5,-185 268.5,-185 268.5,-155 231.5,-155"/>
<text text-anchor="start" x="241.25" y="-165.8" font-family="Times,serif" font-size="14.00">0.0</text>
<polygon fill="#ffffff" stroke="none" points="268.5,-155 268.5,-185 305.5,-185 305.5,-155 268.5,-155"/>
<polygon fill="none" stroke="black" points="268.5,-155 268.5,-185 305.5,-185 305.5,-155 268.5,-155"/>
<text text-anchor="start" x="278.25" y="-165.8" font-family="Times,serif" font-size="14.00">0.0</text>
<polygon fill="#ffffff" stroke="none" points="305.5,-155 305.5,-185 342.5,-185 342.5,-155 305.5,-155"/>
<polygon fill="none" stroke="black" points="305.5,-155 305.5,-185 342.5,-185 342.5,-155 305.5,-155"/>
<text text-anchor="start" x="315.25" y="-165.8" font-family="Times,serif" font-size="14.00">0.0</text>
<polygon fill="#ffffff" stroke="none" points="9.5,-125 9.5,-155 46.5,-155 46.5,-125 9.5,-125"/>
<polygon fill="none" stroke="black" points="9.5,-125 9.5,-155 46.5,-155 46.5,-125 9.5,-125"/>
<text text-anchor="start" x="19.25" y="-135.8" font-family="Times,serif" font-size="14.00">0.0</text>
<polygon fill="#ffffff" stroke="none" points="46.5,-125 46.5,-155 83.5,-155 83.5,-125 46.5,-125"/>
<polygon fill="none" stroke="black" points="46.5,-125 46.5,-155 83.5,-155 83.5,-125 46.5,-125"/>
<text text-anchor="start" x="56.25" y="-135.8" font-family="Times,serif" font-size="14.00">0.0</text>
<polygon fill="#ccffcc" stroke="none" points="83.5,-125 83.5,-155 120.5,-155 120.5,-125 83.5,-125"/>
<polygon fill="none" stroke="black" points="83.5,-125 83.5,-155 120.5,-155 120.5,-125 83.5,-125"/>
<text text-anchor="start" x="86.25" y="-135.8" font-family="Times,serif" font-size="14.00">0.001</text>
<polygon fill="#ccffcc" stroke="none" points="120.5,-125 120.5,-155 157.5,-155 157.5,-125 120.5,-125"/>
<polygon fill="none" stroke="black" points="120.5,-125 120.5,-155 157.5,-155 157.5,-125 120.5,-125"/>
<text text-anchor="start" x="123.25" y="-135.8" font-family="Times,serif" font-size="14.00">0.093</text>
<polygon fill="#c0c0c0" stroke="none" points="157.5,-125 157.5,-155 194.5,-155 194.5,-125 157.5,-125"/>
<polygon fill="none" stroke="black" points="157.5,-125 157.5,-155 194.5,-155 194.5,-125 157.5,-125"/>
<text text-anchor="start" x="160.25" y="-135.8" font-family="Times,serif" font-size="14.00">0.445</text>
<polygon fill="#ffffff" stroke="none" points="194.5,-125 194.5,-155 231.5,-155 231.5,-125 194.5,-125"/>
<polygon fill="none" stroke="black" points="194.5,-125 194.5,-155 231.5,-155 231.5,-125 194.5,-125"/>
<text text-anchor="start" x="204.25" y="-135.8" font-family="Times,serif" font-size="14.00">0.0</text>
<polygon fill="#ffffff" stroke="none" points="231.5,-125 231.5,-155 268.5,-155 268.5,-125 231.5,-125"/>
<polygon fill="none" stroke="black" points="231.5,-125 231.5,-155 268.5,-155 268.5,-125 231.5,-125"/>
<text text-anchor="start" x="241.25" y="-135.8" font-family="Times,serif" font-size="14.00">0.0</text>
<polygon fill="#ffcc99" stroke="none" points="268.5,-125 268.5,-155 305.5,-155 305.5,-125 268.5,-125"/>
<polygon fill="none" stroke="black" points="268.5,-125 268.5,-155 305.5,-155 305.5,-125 268.5,-125"/>
<text text-anchor="start" x="271.25" y="-135.8" font-family="Times,serif" font-size="14.00">0.066</text>
<polygon fill="#ffffff" stroke="none" points="305.5,-125 305.5,-155 342.5,-155 342.5,-125 305.5,-125"/>
<polygon fill="none" stroke="black" points="305.5,-125 305.5,-155 342.5,-155 342.5,-125 305.5,-125"/>
<text text-anchor="start" x="315.25" y="-135.8" font-family="Times,serif" font-size="14.00">0.0</text>
<polygon fill="#ffffff" stroke="none" points="9.5,-95 9.5,-125 46.5,-125 46.5,-95 9.5,-95"/>
<polygon fill="none" stroke="black" points="9.5,-95 9.5,-125 46.5,-125 46.5,-95 9.5,-95"/>
<text text-anchor="start" x="19.25" y="-105.8" font-family="Times,serif" font-size="14.00">0.0</text>
<polygon fill="#ffffff" stroke="none" points="46.5,-95 46.5,-125 83.5,-125 83.5,-95 46.5,-95"/>
<polygon fill="none" stroke="black" points="46.5,-95 46.5,-125 83.5,-125 83.5,-95 46.5,-95"/>
<text text-anchor="start" x="56.25" y="-105.8" font-family="Times,serif" font-size="14.00">0.0</text>
<polygon fill="#ffffff" stroke="none" points="83.5,-95 83.5,-125 120.5,-125 120.5,-95 83.5,-95"/>
<polygon fill="none" stroke="black" points="83.5,-95 83.5,-125 120.5,-125 120.5,-95 83.5,-95"/>
<text text-anchor="start" x="93.25" y="-105.8" font-family="Times,serif" font-size="14.00">0.0</text>
<polygon fill="#ffffff" stroke="none" points="120.5,-95 120.5,-125 157.5,-125 157.5,-95 120.5,-95"/>
<polygon fill="none" stroke="black" points="120.5,-95 120.5,-125 157.5,-125 157.5,-95 120.5,-95"/>
<text text-anchor="start" x="130.25" y="-105.8" font-family="Times,serif" font-size="14.00">0.0</text>
<polygon fill="#ccffcc" stroke="none" points="157.5,-95 157.5,-125 194.5,-125 194.5,-95 157.5,-95"/>
<polygon fill="none" stroke="black" points="157.5,-95 157.5,-125 194.5,-125 194.5,-95 157.5,-95"/>
<text text-anchor="start" x="160.763" y="-105.8" font-family="Times,serif" font-size="14.00">0.111</text>
<polygon fill="#c0c0c0" stroke="none" points="194.5,-95 194.5,-125 231.5,-125 231.5,-95 194.5,-95"/>
<polygon fill="none" stroke="black" points="194.5,-95 194.5,-125 231.5,-125 231.5,-95 194.5,-95"/>
<text text-anchor="start" x="197.25" y="-105.8" font-family="Times,serif" font-size="14.00">0.304</text>
<polygon fill="#ffcc99" stroke="none" points="231.5,-95 231.5,-125 268.5,-125 268.5,-95 231.5,-95"/>
<polygon fill="none" stroke="black" points="231.5,-95 231.5,-125 268.5,-125 268.5,-95 231.5,-95"/>
<text text-anchor="start" x="234.25" y="-105.8" font-family="Times,serif" font-size="14.00">0.014</text>
<polygon fill="#ffcc99" stroke="none" points="268.5,-95 268.5,-125 305.5,-125 305.5,-95 268.5,-95"/>
<polygon fill="none" stroke="black" points="268.5,-95 268.5,-125 305.5,-125 305.5,-95 268.5,-95"/>
<text text-anchor="start" x="271.25" y="-105.8" font-family="Times,serif" font-size="14.00">0.018</text>
<polygon fill="#ffffff" stroke="none" points="305.5,-95 305.5,-125 342.5,-125 342.5,-95 305.5,-95"/>
<polygon fill="none" stroke="black" points="305.5,-95 305.5,-125 342.5,-125 342.5,-95 305.5,-95"/>
<text text-anchor="start" x="315.25" y="-105.8" font-family="Times,serif" font-size="14.00">0.0</text>
<polygon fill="#ffffff" stroke="none" points="9.5,-65 9.5,-95 46.5,-95 46.5,-65 9.5,-65"/>
<polygon fill="none" stroke="black" points="9.5,-65 9.5,-95 46.5,-95 46.5,-65 9.5,-65"/>
<text text-anchor="start" x="19.25" y="-75.8" font-family="Times,serif" font-size="14.00">0.0</text>
<polygon fill="#ffffff" stroke="none" points="46.5,-65 46.5,-95 83.5,-95 83.5,-65 46.5,-65"/>
<polygon fill="none" stroke="black" points="46.5,-65 46.5,-95 83.5,-95 83.5,-65 46.5,-65"/>
<text text-anchor="start" x="56.25" y="-75.8" font-family="Times,serif" font-size="14.00">0.0</text>
<polygon fill="#ffffff" stroke="none" points="83.5,-65 83.5,-95 120.5,-95 120.5,-65 83.5,-65"/>
<polygon fill="none" stroke="black" points="83.5,-65 83.5,-95 120.5,-95 120.5,-65 83.5,-65"/>
<text text-anchor="start" x="93.25" y="-75.8" font-family="Times,serif" font-size="14.00">0.0</text>
<polygon fill="#ffffff" stroke="none" points="120.5,-65 120.5,-95 157.5,-95 157.5,-65 120.5,-65"/>
<polygon fill="none" stroke="black" points="120.5,-65 120.5,-95 157.5,-95 157.5,-65 120.5,-65"/>
<text text-anchor="start" x="130.25" y="-75.8" font-family="Times,serif" font-size="14.00">0.0</text>
<polygon fill="#ccffcc" stroke="none" points="157.5,-65 157.5,-95 194.5,-95 194.5,-65 157.5,-65"/>
<polygon fill="none" stroke="black" points="157.5,-65 157.5,-95 194.5,-95 194.5,-65 157.5,-65"/>
<text text-anchor="start" x="160.25" y="-75.8" font-family="Times,serif" font-size="14.00">0.002</text>
<polygon fill="#ccffcc" stroke="none" points="194.5,-65 194.5,-95 231.5,-95 231.5,-65 194.5,-65"/>
<polygon fill="none" stroke="black" points="194.5,-65 194.5,-95 231.5,-95 231.5,-65 194.5,-65"/>
<text text-anchor="start" x="197.25" y="-75.8" font-family="Times,serif" font-size="14.00">0.221</text>
<polygon fill="#c0c0c0" stroke="none" points="231.5,-65 231.5,-95 268.5,-95 268.5,-65 231.5,-65"/>
<polygon fill="none" stroke="black" points="231.5,-65 231.5,-95 268.5,-95 268.5,-65 231.5,-65"/>
<text text-anchor="start" x="234.25" y="-75.8" font-family="Times,serif" font-size="14.00">0.329</text>
<polygon fill="#ffffff" stroke="none" points="268.5,-65 268.5,-95 305.5,-95 305.5,-65 268.5,-65"/>
<polygon fill="none" stroke="black" points="268.5,-65 268.5,-95 305.5,-95 305.5,-65 268.5,-65"/>
<text text-anchor="start" x="278.25" y="-75.8" font-family="Times,serif" font-size="14.00">0.0</text>
<polygon fill="#ffffff" stroke="none" points="305.5,-65 305.5,-95 342.5,-95 342.5,-65 305.5,-65"/>
<polygon fill="none" stroke="black" points="305.5,-65 305.5,-95 342.5,-95 342.5,-65 305.5,-65"/>
<text text-anchor="start" x="315.25" y="-75.8" font-family="Times,serif" font-size="14.00">0.0</text>
<polygon fill="#ffffff" stroke="none" points="9.5,-35 9.5,-65 46.5,-65 46.5,-35 9.5,-35"/>
<polygon fill="none" stroke="black" points="9.5,-35 9.5,-65 46.5,-65 46.5,-35 9.5,-35"/>
<text text-anchor="start" x="19.25" y="-45.8" font-family="Times,serif" font-size="14.00">0.0</text>
<polygon fill="#ffffff" stroke="none" points="46.5,-35 46.5,-65 83.5,-65 83.5,-35 46.5,-35"/>
<polygon fill="none" stroke="black" points="46.5,-35 46.5,-65 83.5,-65 83.5,-35 46.5,-35"/>
<text text-anchor="start" x="56.25" y="-45.8" font-family="Times,serif" font-size="14.00">0.0</text>
<polygon fill="#ffffff" stroke="none" points="83.5,-35 83.5,-65 120.5,-65 120.5,-35 83.5,-35"/>
<polygon fill="none" stroke="black" points="83.5,-35 83.5,-65 120.5,-65 120.5,-35 83.5,-35"/>
<text text-anchor="start" x="93.25" y="-45.8" font-family="Times,serif" font-size="14.00">0.0</text>
<polygon fill="#ffffff" stroke="none" points="120.5,-35 120.5,-65 157.5,-65 157.5,-35 120.5,-35"/>
<polygon fill="none" stroke="black" points="120.5,-35 120.5,-65 157.5,-65 157.5,-35 120.5,-35"/>
<text text-anchor="start" x="130.25" y="-45.8" font-family="Times,serif" font-size="14.00">0.0</text>
<polygon fill="#ffffff" stroke="none" points="157.5,-35 157.5,-65 194.5,-65 194.5,-35 157.5,-35"/>
<polygon fill="none" stroke="black" points="157.5,-35 157.5,-65 194.5,-65 194.5,-35 157.5,-35"/>
<text text-anchor="start" x="167.25" y="-45.8" font-family="Times,serif" font-size="14.00">0.0</text>
<polygon fill="#ccffcc" stroke="none" points="194.5,-35 194.5,-65 231.5,-65 231.5,-35 194.5,-35"/>
<polygon fill="none" stroke="black" points="194.5,-35 194.5,-65 231.5,-65 231.5,-35 194.5,-35"/>
<text text-anchor="start" x="197.25" y="-45.8" font-family="Times,serif" font-size="14.00">0.067</text>
<polygon fill="#ccffcc" stroke="none" points="231.5,-35 231.5,-65 268.5,-65 268.5,-35 231.5,-35"/>
<polygon fill="none" stroke="black" points="231.5,-35 231.5,-65 268.5,-65 268.5,-35 231.5,-35"/>
<text text-anchor="start" x="237.75" y="-45.8" font-family="Times,serif" font-size="14.00">0.31</text>
<polygon fill="#c0c0c0" stroke="none" points="268.5,-35 268.5,-65 305.5,-65 305.5,-35 268.5,-35"/>
<polygon fill="none" stroke="black" points="268.5,-35 268.5,-65 305.5,-65 305.5,-35 268.5,-35"/>
<text text-anchor="start" x="271.25" y="-45.8" font-family="Times,serif" font-size="14.00">0.277</text>
<polygon fill="#ffcc99" stroke="none" points="305.5,-35 305.5,-65 342.5,-65 342.5,-35 305.5,-35"/>
<polygon fill="none" stroke="black" points="305.5,-35 305.5,-65 342.5,-65 342.5,-35 305.5,-35"/>
<text text-anchor="start" x="308.25" y="-45.8" font-family="Times,serif" font-size="14.00">0.194</text>
<polygon fill="#ffffff" stroke="none" points="9.5,-5 9.5,-35 46.5,-35 46.5,-5 9.5,-5"/>
<polygon fill="none" stroke="black" points="9.5,-5 9.5,-35 46.5,-35 46.5,-5 9.5,-5"/>
<text text-anchor="start" x="19.25" y="-15.8" font-family="Times,serif" font-size="14.00">0.0</text>
<polygon fill="#ffffff" stroke="none" points="46.5,-5 46.5,-35 83.5,-35 83.5,-5 46.5,-5"/>
<polygon fill="none" stroke="black" points="46.5,-5 46.5,-35 83.5,-35 83.5,-5 46.5,-5"/>
<text text-anchor="start" x="56.25" y="-15.8" font-family="Times,serif" font-size="14.00">0.0</text>
<polygon fill="#ffffff" stroke="none" points="83.5,-5 83.5,-35 120.5,-35 120.5,-5 83.5,-5"/>
<polygon fill="none" stroke="black" points="83.5,-5 83.5,-35 120.5,-35 120.5,-5 83.5,-5"/>
<text text-anchor="start" x="93.25" y="-15.8" font-family="Times,serif" font-size="14.00">0.0</text>
<polygon fill="#ffffff" stroke="none" points="120.5,-5 120.5,-35 157.5,-35 157.5,-5 120.5,-5"/>
<polygon fill="none" stroke="black" points="120.5,-5 120.5,-35 157.5,-35 157.5,-5 120.5,-5"/>
<text text-anchor="start" x="130.25" y="-15.8" font-family="Times,serif" font-size="14.00">0.0</text>
<polygon fill="#ffffff" stroke="none" points="157.5,-5 157.5,-35 194.5,-35 194.5,-5 157.5,-5"/>
<polygon fill="none" stroke="black" points="157.5,-5 157.5,-35 194.5,-35 194.5,-5 157.5,-5"/>
<text text-anchor="start" x="167.25" y="-15.8" font-family="Times,serif" font-size="14.00">0.0</text>
<polygon fill="#ffffff" stroke="none" points="194.5,-5 194.5,-35 231.5,-35 231.5,-5 194.5,-5"/>
<polygon fill="none" stroke="black" points="194.5,-5 194.5,-35 231.5,-35 231.5,-5 194.5,-5"/>
<text text-anchor="start" x="204.25" y="-15.8" font-family="Times,serif" font-size="14.00">0.0</text>
<polygon fill="#ffffff" stroke="none" points="231.5,-5 231.5,-35 268.5,-35 268.5,-5 231.5,-5"/>
<polygon fill="none" stroke="black" points="231.5,-5 231.5,-35 268.5,-35 268.5,-5 231.5,-5"/>
<text text-anchor="start" x="241.25" y="-15.8" font-family="Times,serif" font-size="14.00">0.0</text>
<polygon fill="#ccffcc" stroke="none" points="268.5,-5 268.5,-35 305.5,-35 305.5,-5 268.5,-5"/>
<polygon fill="none" stroke="black" points="268.5,-5 268.5,-35 305.5,-35 305.5,-5 268.5,-5"/>
<text text-anchor="start" x="271.25" y="-15.8" font-family="Times,serif" font-size="14.00">0.206</text>
<polygon fill="#c0c0c0" stroke="none" points="305.5,-5 305.5,-35 342.5,-35 342.5,-5 305.5,-5"/>
<polygon fill="none" stroke="black" points="305.5,-5 305.5,-35 342.5,-35 342.5,-5 305.5,-5"/>
<text text-anchor="start" x="308.25" y="-15.8" font-family="Times,serif" font-size="14.00">0.569</text>
<polygon fill="none" stroke="black" points="8,-4 8,-276 343,-276 343,-4 8,-4"/>
</g>
</g>
</svg>
