<?xml version="1.0" encoding="UTF-8" standalone="no"?>
<!DOCTYPE svg PUBLIC "-//W3C//DTD SVG 1.1//EN"
 "http://www.w3.org/Graphics/SVG/1.1/DTD/svg11.dtd">
<!-- Generated by graphviz version 2.38.0 (20140413.2041)
 -->
<!-- Title: G Pages: 1 -->
<svg width="233pt" height="288pt"
 viewBox="0.00 0.00 233.00 288.00" xmlns="http://www.w3.org/2000/svg" xmlns:xlink="http://www.w3.org/1999/xlink">
<g id="graph0" class="graph" transform="scale(1 1) rotate(0) translate(4 284)">
<title>G</title>
<polygon fill="white" stroke="none" points="-4,4 -4,-284 229,-284 229,4 -4,4"/>
<!-- nodey -->
<g id="node1" class="node"><title>nodey</title>
<polygon fill="#ffffff" stroke="none" points="9.5,-245 9.5,-275 32.5,-275 32.5,-245 9.5,-245"/>
<polygon fill="none" stroke="black" points="9.5,-245 9.5,-275 32.5,-275 32.5,-245 9.5,-245"/>
<text text-anchor="start" x="12.25" y="-255.8" font-family="Times,serif" font-size="14.00">0.0</text>
<polygon fill="#ffffff" stroke="none" points="32.5,-245 32.5,-275 55.5,-275 55.5,-245 32.5,-245"/>
<polygon fill="none" stroke="black" points="32.5,-245 32.5,-275 55.5,-275 55.5,-245 32.5,-245"/>
<text text-anchor="start" x="35.25" y="-255.8" font-family="Times,serif" font-size="14.00">0.0</text>
<polygon fill="#ffffff" stroke="none" points="55.5,-245 55.5,-275 78.5,-275 78.5,-245 55.5,-245"/>
<polygon fill="none" stroke="black" points="55.5,-245 55.5,-275 78.5,-275 78.5,-245 55.5,-245"/>
<text text-anchor="start" x="58.25" y="-255.8" font-family="Times,serif" font-size="14.00">0.0</text>
<polygon fill="#ffffff" stroke="none" points="78.5,-245 78.5,-275 101.5,-275 101.5,-245 78.5,-245"/>
<polygon fill="none" stroke="black" points="78.5,-245 78.5,-275 101.5,-275 101.5,-245 78.5,-245"/>
<text text-anchor="start" x="81.25" y="-255.8" font-family="Times,serif" font-size="14.00">0.0</text>
<polygon fill="#ffffff" stroke="none" points="101.5,-245 101.5,-275 124.5,-275 124.5,-245 101.5,-245"/>
<polygon fill="none" stroke="black" points="101.5,-245 101.5,-275 124.5,-275 124.5,-245 101.5,-245"/>
<text text-anchor="start" x="104.25" y="-255.8" font-family="Times,serif" font-size="14.00">0.0</text>
<polygon fill="#ffffff" stroke="none" points="124.5,-245 124.5,-275 147.5,-275 147.5,-245 124.5,-245"/>
<polygon fill="none" stroke="black" points="124.5,-245 124.5,-275 147.5,-275 147.5,-245 124.5,-245"/>
<text text-anchor="start" x="127.25" y="-255.8" font-family="Times,serif" font-size="14.00">0.0</text>
<polygon fill="#ffffff" stroke="none" points="147.5,-245 147.5,-275 170.5,-275 170.5,-245 147.5,-245"/>
<polygon fill="none" stroke="black" points="147.5,-245 147.5,-275 170.5,-275 170.5,-245 147.5,-245"/>
<text text-anchor="start" x="150.25" y="-255.8" font-family="Times,serif" font-size="14.00">0.0</text>
<polygon fill="#ffffff" stroke="none" points="170.5,-245 170.5,-275 193.5,-275 193.5,-245 170.5,-245"/>
<polygon fill="none" stroke="black" points="170.5,-245 170.5,-275 193.5,-275 193.5,-245 170.5,-245"/>
<text text-anchor="start" x="173.25" y="-255.8" font-family="Times,serif" font-size="14.00">0.0</text>
<polygon fill="#ffffff" stroke="none" points="193.5,-245 193.5,-275 216.5,-275 216.5,-245 193.5,-245"/>
<polygon fill="none" stroke="black" points="193.5,-245 193.5,-275 216.5,-275 216.5,-245 193.5,-245"/>
<text text-anchor="start" x="196.25" y="-255.8" font-family="Times,serif" font-size="14.00">0.0</text>
<polygon fill="#ffffff" stroke="none" points="9.5,-215 9.5,-245 32.5,-245 32.5,-215 9.5,-215"/>
<polygon fill="none" stroke="black" points="9.5,-215 9.5,-245 32.5,-245 32.5,-215 9.5,-215"/>
<text text-anchor="start" x="12.25" y="-225.8" font-family="Times,serif" font-size="14.00">0.0</text>
<polygon fill="#ffffff" stroke="none" points="32.5,-215 32.5,-245 55.5,-245 55.5,-215 32.5,-215"/>
<polygon fill="none" stroke="black" points="32.5,-215 32.5,-245 55.5,-245 55.5,-215 32.5,-215"/>
<text text-anchor="start" x="35.25" y="-225.8" font-family="Times,serif" font-size="14.00">0.0</text>
<polygon fill="#ffffff" stroke="none" points="55.5,-215 55.5,-245 78.5,-245 78.5,-215 55.5,-215"/>
<polygon fill="none" stroke="black" points="55.5,-215 55.5,-245 78.5,-245 78.5,-215 55.5,-215"/>
<text text-anchor="start" x="58.25" y="-225.8" font-family="Times,serif" font-size="14.00">0.0</text>
<polygon fill="#ffffff" stroke="none" points="78.5,-215 78.5,-245 101.5,-245 101.5,-215 78.5,-215"/>
<polygon fill="none" stroke="black" points="78.5,-215 78.5,-245 101.5,-245 101.5,-215 78.5,-215"/>
<text text-anchor="start" x="81.25" y="-225.8" font-family="Times,serif" font-size="14.00">0.0</text>
<polygon fill="#ffffff" stroke="none" points="101.5,-215 101.5,-245 124.5,-245 124.5,-215 101.5,-215"/>
<polygon fill="none" stroke="black" points="101.5,-215 101.5,-245 124.5,-245 124.5,-215 101.5,-215"/>
<text text-anchor="start" x="104.25" y="-225.8" font-family="Times,serif" font-size="14.00">0.0</text>
<polygon fill="#ffffff" stroke="none" points="124.5,-215 124.5,-245 147.5,-245 147.5,-215 124.5,-215"/>
<polygon fill="none" stroke="black" points="124.5,-215 124.5,-245 147.5,-245 147.5,-215 124.5,-215"/>
<text text-anchor="start" x="127.25" y="-225.8" font-family="Times,serif" font-size="14.00">0.0</text>
<polygon fill="#ffffff" stroke="none" points="147.5,-215 147.5,-245 170.5,-245 170.5,-215 147.5,-215"/>
<polygon fill="none" stroke="black" points="147.5,-215 147.5,-245 170.5,-245 170.5,-215 147.5,-215"/>
<text text-anchor="start" x="150.25" y="-225.8" font-family="Times,serif" font-size="14.00">0.0</text>
<polygon fill="#ffffff" stroke="none" points="170.5,-215 170.5,-245 193.5,-245 193.5,-215 170.5,-215"/>
<polygon fill="none" stroke="black" points="170.5,-215 170.5,-245 193.5,-245 193.5,-215 170.5,-215"/>
<text text-anchor="start" x="173.25" y="-225.8" font-family="Times,serif" font-size="14.00">0.0</text>
<polygon fill="#ffffff" stroke="none" points="193.5,-215 193.5,-245 216.5,-245 216.5,-215 193.5,-215"/>
<polygon fill="none" stroke="black" points="193.5,-215 193.5,-245 216.5,-245 216.5,-215 193.5,-215"/>
<text text-anchor="start" x="196.25" y="-225.8" font-family="Times,serif" font-size="14.00">0.0</text>
<polygon fill="#ffffff" stroke="none" points="9.5,-185 9.5,-215 32.5,-215 32.5,-185 9.5,-185"/>
<polygon fill="none" stroke="black" points="9.5,-185 9.5,-215 32.5,-215 32.5,-185 9.5,-185"/>
<text text-anchor="start" x="12.25" y="-195.8" font-family="Times,serif" font-size="14.00">0.0</text>
<polygon fill="#ffffff" stroke="none" points="32.5,-185 32.5,-215 55.5,-215 55.5,-185 32.5,-185"/>
<polygon fill="none" stroke="black" points="32.5,-185 32.5,-215 55.5,-215 55.5,-185 32.5,-185"/>
<text text-anchor="start" x="35.25" y="-195.8" font-family="Times,serif" font-size="14.00">0.0</text>
<polygon fill="#ffffff" stroke="none" points="55.5,-185 55.5,-215 78.5,-215 78.5,-185 55.5,-185"/>
<polygon fill="none" stroke="black" points="55.5,-185 55.5,-215 78.5,-215 78.5,-185 55.5,-185"/>
<text text-anchor="start" x="58.25" y="-195.8" font-family="Times,serif" font-size="14.00">0.0</text>
<polygon fill="#ffffff" stroke="none" points="78.5,-185 78.5,-215 101.5,-215 101.5,-185 78.5,-185"/>
<polygon fill="none" stroke="black" points="78.5,-185 78.5,-215 101.5,-215 101.5,-185 78.5,-185"/>
<text text-anchor="start" x="81.25" y="-195.8" font-family="Times,serif" font-size="14.00">0.0</text>
<polygon fill="#ffffff" stroke="none" points="101.5,-185 101.5,-215 124.5,-215 124.5,-185 101.5,-185"/>
<polygon fill="none" stroke="black" points="101.5,-185 101.5,-215 124.5,-215 124.5,-185 101.5,-185"/>
<text text-anchor="start" x="104.25" y="-195.8" font-family="Times,serif" font-size="14.00">0.0</text>
<polygon fill="#ffffff" stroke="none" points="124.5,-185 124.5,-215 147.5,-215 147.5,-185 124.5,-185"/>
<polygon fill="none" stroke="black" points="124.5,-185 124.5,-215 147.5,-215 147.5,-185 124.5,-185"/>
<text text-anchor="start" x="127.25" y="-195.8" font-family="Times,serif" font-size="14.00">0.0</text>
<polygon fill="#ffffff" stroke="none" points="147.5,-185 147.5,-215 170.5,-215 170.5,-185 147.5,-185"/>
<polygon fill="none" stroke="black" points="147.5,-185 147.5,-215 170.5,-215 170.5,-185 147.5,-185"/>
<text text-anchor="start" x="150.25" y="-195.8" font-family="Times,serif" font-size="14.00">0.0</text>
<polygon fill="#ffffff" stroke="none" points="170.5,-185 170.5,-215 193.5,-215 193.5,-185 170.5,-185"/>
<polygon fill="none" stroke="black" points="170.5,-185 170.5,-215 193.5,-215 193.5,-185 170.5,-185"/>
<text text-anchor="start" x="173.25" y="-195.8" font-family="Times,serif" font-size="14.00">0.0</text>
<polygon fill="#ffffff" stroke="none" points="193.5,-185 193.5,-215 216.5,-215 216.5,-185 193.5,-185"/>
<polygon fill="none" stroke="black" points="193.5,-185 193.5,-215 216.5,-215 216.5,-185 193.5,-185"/>
<text text-anchor="start" x="196.25" y="-195.8" font-family="Times,serif" font-size="14.00">0.0</text>
<polygon fill="#ffffff" stroke="none" points="9.5,-155 9.5,-185 32.5,-185 32.5,-155 9.5,-155"/>
<polygon fill="none" stroke="black" points="9.5,-155 9.5,-185 32.5,-185 32.5,-155 9.5,-155"/>
<text text-anchor="start" x="12.25" y="-165.8" font-family="Times,serif" font-size="14.00">0.0</text>
<polygon fill="#ffffff" stroke="none" points="32.5,-155 32.5,-185 55.5,-185 55.5,-155 32.5,-155"/>
<polygon fill="none" stroke="black" points="32.5,-155 32.5,-185 55.5,-185 55.5,-155 32.5,-155"/>
<text text-anchor="start" x="35.25" y="-165.8" font-family="Times,serif" font-size="14.00">0.0</text>
<polygon fill="#ffffff" stroke="none" points="55.5,-155 55.5,-185 78.5,-185 78.5,-155 55.5,-155"/>
<polygon fill="none" stroke="black" points="55.5,-155 55.5,-185 78.5,-185 78.5,-155 55.5,-155"/>
<text text-anchor="start" x="58.25" y="-165.8" font-family="Times,serif" font-size="14.00">0.0</text>
<polygon fill="#ffffff" stroke="none" points="78.5,-155 78.5,-185 101.5,-185 101.5,-155 78.5,-155"/>
<polygon fill="none" stroke="black" points="78.5,-155 78.5,-185 101.5,-185 101.5,-155 78.5,-155"/>
<text text-anchor="start" x="81.25" y="-165.8" font-family="Times,serif" font-size="14.00">0.0</text>
<polygon fill="#ffffff" stroke="none" points="101.5,-155 101.5,-185 124.5,-185 124.5,-155 101.5,-155"/>
<polygon fill="none" stroke="black" points="101.5,-155 101.5,-185 124.5,-185 124.5,-155 101.5,-155"/>
<text text-anchor="start" x="104.25" y="-165.8" font-family="Times,serif" font-size="14.00">0.0</text>
<polygon fill="#ffffff" stroke="none" points="124.5,-155 124.5,-185 147.5,-185 147.5,-155 124.5,-155"/>
<polygon fill="none" stroke="black" points="124.5,-155 124.5,-185 147.5,-185 147.5,-155 124.5,-155"/>
<text text-anchor="start" x="127.25" y="-165.8" font-family="Times,serif" font-size="14.00">0.0</text>
<polygon fill="#ffffff" stroke="none" points="147.5,-155 147.5,-185 170.5,-185 170.5,-155 147.5,-155"/>
<polygon fill="none" stroke="black" points="147.5,-155 147.5,-185 170.5,-185 170.5,-155 147.5,-155"/>
<text text-anchor="start" x="150.25" y="-165.8" font-family="Times,serif" font-size="14.00">0.0</text>
<polygon fill="#ffffff" stroke="none" points="170.5,-155 170.5,-185 193.5,-185 193.5,-155 170.5,-155"/>
<polygon fill="none" stroke="black" points="170.5,-155 170.5,-185 193.5,-185 193.5,-155 170.5,-155"/>
<text text-anchor="start" x="173.25" y="-165.8" font-family="Times,serif" font-size="14.00">0.0</text>
<polygon fill="#ffffff" stroke="none" points="193.5,-155 193.5,-185 216.5,-185 216.5,-155 193.5,-155"/>
<polygon fill="none" stroke="black" points="193.5,-155 193.5,-185 216.5,-185 216.5,-155 193.5,-155"/>
<text text-anchor="start" x="196.25" y="-165.8" font-family="Times,serif" font-size="14.00">0.0</text>
<polygon fill="#ffffff" stroke="none" points="9.5,-125 9.5,-155 32.5,-155 32.5,-125 9.5,-125"/>
<polygon fill="none" stroke="black" points="9.5,-125 9.5,-155 32.5,-155 32.5,-125 9.5,-125"/>
<text text-anchor="start" x="12.25" y="-135.8" font-family="Times,serif" font-size="14.00">0.0</text>
<polygon fill="#ffffff" stroke="none" points="32.5,-125 32.5,-155 55.5,-155 55.5,-125 32.5,-125"/>
<polygon fill="none" stroke="black" points="32.5,-125 32.5,-155 55.5,-155 55.5,-125 32.5,-125"/>
<text text-anchor="start" x="35.25" y="-135.8" font-family="Times,serif" font-size="14.00">0.0</text>
<polygon fill="#ffffff" stroke="none" points="55.5,-125 55.5,-155 78.5,-155 78.5,-125 55.5,-125"/>
<polygon fill="none" stroke="black" points="55.5,-125 55.5,-155 78.5,-155 78.5,-125 55.5,-125"/>
<text text-anchor="start" x="58.25" y="-135.8" font-family="Times,serif" font-size="14.00">0.0</text>
<polygon fill="#ffffff" stroke="none" points="78.5,-125 78.5,-155 101.5,-155 101.5,-125 78.5,-125"/>
<polygon fill="none" stroke="black" points="78.5,-125 78.5,-155 101.5,-155 101.5,-125 78.5,-125"/>
<text text-anchor="start" x="81.25" y="-135.8" font-family="Times,serif" font-size="14.00">0.0</text>
<polygon fill="#ffffff" stroke="none" points="101.5,-125 101.5,-155 124.5,-155 124.5,-125 101.5,-125"/>
<polygon fill="none" stroke="black" points="101.5,-125 101.5,-155 124.5,-155 124.5,-125 101.5,-125"/>
<text text-anchor="start" x="104.25" y="-135.8" font-family="Times,serif" font-size="14.00">0.0</text>
<polygon fill="#ffffff" stroke="none" points="124.5,-125 124.5,-155 147.5,-155 147.5,-125 124.5,-125"/>
<polygon fill="none" stroke="black" points="124.5,-125 124.5,-155 147.5,-155 147.5,-125 124.5,-125"/>
<text text-anchor="start" x="127.25" y="-135.8" font-family="Times,serif" font-size="14.00">0.0</text>
<polygon fill="#ffffff" stroke="none" points="147.5,-125 147.5,-155 170.5,-155 170.5,-125 147.5,-125"/>
<polygon fill="none" stroke="black" points="147.5,-125 147.5,-155 170.5,-155 170.5,-125 147.5,-125"/>
<text text-anchor="start" x="150.25" y="-135.8" font-family="Times,serif" font-size="14.00">0.0</text>
<polygon fill="#ffffff" stroke="none" points="170.5,-125 170.5,-155 193.5,-155 193.5,-125 170.5,-125"/>
<polygon fill="none" stroke="black" points="170.5,-125 170.5,-155 193.5,-155 193.5,-125 170.5,-125"/>
<text text-anchor="start" x="173.25" y="-135.8" font-family="Times,serif" font-size="14.00">0.0</text>
<polygon fill="#ffffff" stroke="none" points="193.5,-125 193.5,-155 216.5,-155 216.5,-125 193.5,-125"/>
<polygon fill="none" stroke="black" points="193.5,-125 193.5,-155 216.5,-155 216.5,-125 193.5,-125"/>
<text text-anchor="start" x="196.25" y="-135.8" font-family="Times,serif" font-size="14.00">0.0</text>
<polygon fill="#ffffff" stroke="none" points="9.5,-95 9.5,-125 32.5,-125 32.5,-95 9.5,-95"/>
<polygon fill="none" stroke="black" points="9.5,-95 9.5,-125 32.5,-125 32.5,-95 9.5,-95"/>
<text text-anchor="start" x="12.25" y="-105.8" font-family="Times,serif" font-size="14.00">0.0</text>
<polygon fill="#ffffff" stroke="none" points="32.5,-95 32.5,-125 55.5,-125 55.5,-95 32.5,-95"/>
<polygon fill="none" stroke="black" points="32.5,-95 32.5,-125 55.5,-125 55.5,-95 32.5,-95"/>
<text text-anchor="start" x="35.25" y="-105.8" font-family="Times,serif" font-size="14.00">0.0</text>
<polygon fill="#ffffff" stroke="none" points="55.5,-95 55.5,-125 78.5,-125 78.5,-95 55.5,-95"/>
<polygon fill="none" stroke="black" points="55.5,-95 55.5,-125 78.5,-125 78.5,-95 55.5,-95"/>
<text text-anchor="start" x="58.25" y="-105.8" font-family="Times,serif" font-size="14.00">0.0</text>
<polygon fill="#ffffff" stroke="none" points="78.5,-95 78.5,-125 101.5,-125 101.5,-95 78.5,-95"/>
<polygon fill="none" stroke="black" points="78.5,-95 78.5,-125 101.5,-125 101.5,-95 78.5,-95"/>
<text text-anchor="start" x="81.25" y="-105.8" font-family="Times,serif" font-size="14.00">0.0</text>
<polygon fill="#ffffff" stroke="none" points="101.5,-95 101.5,-125 124.5,-125 124.5,-95 101.5,-95"/>
<polygon fill="none" stroke="black" points="101.5,-95 101.5,-125 124.5,-125 124.5,-95 101.5,-95"/>
<text text-anchor="start" x="104.25" y="-105.8" font-family="Times,serif" font-size="14.00">0.0</text>
<polygon fill="#ffffff" stroke="none" points="124.5,-95 124.5,-125 147.5,-125 147.5,-95 124.5,-95"/>
<polygon fill="none" stroke="black" points="124.5,-95 124.5,-125 147.5,-125 147.5,-95 124.5,-95"/>
<text text-anchor="start" x="127.25" y="-105.8" font-family="Times,serif" font-size="14.00">0.0</text>
<polygon fill="#ffffff" stroke="none" points="147.5,-95 147.5,-125 170.5,-125 170.5,-95 147.5,-95"/>
<polygon fill="none" stroke="black" points="147.5,-95 147.5,-125 170.5,-125 170.5,-95 147.5,-95"/>
<text text-anchor="start" x="150.25" y="-105.8" font-family="Times,serif" font-size="14.00">0.0</text>
<polygon fill="#ffffff" stroke="none" points="170.5,-95 170.5,-125 193.5,-125 193.5,-95 170.5,-95"/>
<polygon fill="none" stroke="black" points="170.5,-95 170.5,-125 193.5,-125 193.5,-95 170.5,-95"/>
<text text-anchor="start" x="173.25" y="-105.8" font-family="Times,serif" font-size="14.00">0.0</text>
<polygon fill="#ffffff" stroke="none" points="193.5,-95 193.5,-125 216.5,-125 216.5,-95 193.5,-95"/>
<polygon fill="none" stroke="black" points="193.5,-95 193.5,-125 216.5,-125 216.5,-95 193.5,-95"/>
<text text-anchor="start" x="196.25" y="-105.8" font-family="Times,serif" font-size="14.00">0.0</text>
<polygon fill="#ffffff" stroke="none" points="9.5,-65 9.5,-95 32.5,-95 32.5,-65 9.5,-65"/>
<polygon fill="none" stroke="black" points="9.5,-65 9.5,-95 32.5,-95 32.5,-65 9.5,-65"/>
<text text-anchor="start" x="12.25" y="-75.8" font-family="Times,serif" font-size="14.00">0.0</text>
<polygon fill="#ffffff" stroke="none" points="32.5,-65 32.5,-95 55.5,-95 55.5,-65 32.5,-65"/>
<polygon fill="none" stroke="black" points="32.5,-65 32.5,-95 55.5,-95 55.5,-65 32.5,-65"/>
<text text-anchor="start" x="35.25" y="-75.8" font-family="Times,serif" font-size="14.00">0.0</text>
<polygon fill="#ffffff" stroke="none" points="55.5,-65 55.5,-95 78.5,-95 78.5,-65 55.5,-65"/>
<polygon fill="none" stroke="black" points="55.5,-65 55.5,-95 78.5,-95 78.5,-65 55.5,-65"/>
<text text-anchor="start" x="58.25" y="-75.8" font-family="Times,serif" font-size="14.00">0.0</text>
<polygon fill="#ffffff" stroke="none" points="78.5,-65 78.5,-95 101.5,-95 101.5,-65 78.5,-65"/>
<polygon fill="none" stroke="black" points="78.5,-65 78.5,-95 101.5,-95 101.5,-65 78.5,-65"/>
<text text-anchor="start" x="81.25" y="-75.8" font-family="Times,serif" font-size="14.00">0.0</text>
<polygon fill="#ffffff" stroke="none" points="101.5,-65 101.5,-95 124.5,-95 124.5,-65 101.5,-65"/>
<polygon fill="none" stroke="black" points="101.5,-65 101.5,-95 124.5,-95 124.5,-65 101.5,-65"/>
<text text-anchor="start" x="104.25" y="-75.8" font-family="Times,serif" font-size="14.00">0.0</text>
<polygon fill="#ffffff" stroke="none" points="124.5,-65 124.5,-95 147.5,-95 147.5,-65 124.5,-65"/>
<polygon fill="none" stroke="black" points="124.5,-65 124.5,-95 147.5,-95 147.5,-65 124.5,-65"/>
<text text-anchor="start" x="127.25" y="-75.8" font-family="Times,serif" font-size="14.00">0.0</text>
<polygon fill="#ffffff" stroke="none" points="147.5,-65 147.5,-95 170.5,-95 170.5,-65 147.5,-65"/>
<polygon fill="none" stroke="black" points="147.5,-65 147.5,-95 170.5,-95 170.5,-65 147.5,-65"/>
<text text-anchor="start" x="150.25" y="-75.8" font-family="Times,serif" font-size="14.00">0.0</text>
<polygon fill="#ffffff" stroke="none" points="170.5,-65 170.5,-95 193.5,-95 193.5,-65 170.5,-65"/>
<polygon fill="none" stroke="black" points="170.5,-65 170.5,-95 193.5,-95 193.5,-65 170.5,-65"/>
<text text-anchor="start" x="173.25" y="-75.8" font-family="Times,serif" font-size="14.00">0.0</text>
<polygon fill="#ffffff" stroke="none" points="193.5,-65 193.5,-95 216.5,-95 216.5,-65 193.5,-65"/>
<polygon fill="none" stroke="black" points="193.5,-65 193.5,-95 216.5,-95 216.5,-65 193.5,-65"/>
<text text-anchor="start" x="196.25" y="-75.8" font-family="Times,serif" font-size="14.00">0.0</text>
<polygon fill="#ffffff" stroke="none" points="9.5,-35 9.5,-65 32.5,-65 32.5,-35 9.5,-35"/>
<polygon fill="none" stroke="black" points="9.5,-35 9.5,-65 32.5,-65 32.5,-35 9.5,-35"/>
<text text-anchor="start" x="12.25" y="-45.8" font-family="Times,serif" font-size="14.00">0.0</text>
<polygon fill="#ffffff" stroke="none" points="32.5,-35 32.5,-65 55.5,-65 55.5,-35 32.5,-35"/>
<polygon fill="none" stroke="black" points="32.5,-35 32.5,-65 55.5,-65 55.5,-35 32.5,-35"/>
<text text-anchor="start" x="35.25" y="-45.8" font-family="Times,serif" font-size="14.00">0.0</text>
<polygon fill="#ffffff" stroke="none" points="55.5,-35 55.5,-65 78.5,-65 78.5,-35 55.5,-35"/>
<polygon fill="none" stroke="black" points="55.5,-35 55.5,-65 78.5,-65 78.5,-35 55.5,-35"/>
<text text-anchor="start" x="58.25" y="-45.8" font-family="Times,serif" font-size="14.00">0.0</text>
<polygon fill="#ffffff" stroke="none" points="78.5,-35 78.5,-65 101.5,-65 101.5,-35 78.5,-35"/>
<polygon fill="none" stroke="black" points="78.5,-35 78.5,-65 101.5,-65 101.5,-35 78.5,-35"/>
<text text-anchor="start" x="81.25" y="-45.8" font-family="Times,serif" font-size="14.00">0.0</text>
<polygon fill="#ffffff" stroke="none" points="101.5,-35 101.5,-65 124.5,-65 124.5,-35 101.5,-35"/>
<polygon fill="none" stroke="black" points="101.5,-35 101.5,-65 124.5,-65 124.5,-35 101.5,-35"/>
<text text-anchor="start" x="104.25" y="-45.8" font-family="Times,serif" font-size="14.00">0.0</text>
<polygon fill="#ffffff" stroke="none" points="124.5,-35 124.5,-65 147.5,-65 147.5,-35 124.5,-35"/>
<polygon fill="none" stroke="black" points="124.5,-35 124.5,-65 147.5,-65 147.5,-35 124.5,-35"/>
<text text-anchor="start" x="127.25" y="-45.8" font-family="Times,serif" font-size="14.00">0.0</text>
<polygon fill="#ffffff" stroke="none" points="147.5,-35 147.5,-65 170.5,-65 170.5,-35 147.5,-35"/>
<polygon fill="none" stroke="black" points="147.5,-35 147.5,-65 170.5,-65 170.5,-35 147.5,-35"/>
<text text-anchor="start" x="150.25" y="-45.8" font-family="Times,serif" font-size="14.00">0.0</text>
<polygon fill="#ffffff" stroke="none" points="170.5,-35 170.5,-65 193.5,-65 193.5,-35 170.5,-35"/>
<polygon fill="none" stroke="black" points="170.5,-35 170.5,-65 193.5,-65 193.5,-35 170.5,-35"/>
<text text-anchor="start" x="173.25" y="-45.8" font-family="Times,serif" font-size="14.00">0.0</text>
<polygon fill="#ffffff" stroke="none" points="193.5,-35 193.5,-65 216.5,-65 216.5,-35 193.5,-35"/>
<polygon fill="none" stroke="black" points="193.5,-35 193.5,-65 216.5,-65 216.5,-35 193.5,-35"/>
<text text-anchor="start" x="196.25" y="-45.8" font-family="Times,serif" font-size="14.00">0.0</text>
<polygon fill="#ffffff" stroke="none" points="9.5,-5 9.5,-35 32.5,-35 32.5,-5 9.5,-5"/>
<polygon fill="none" stroke="black" points="9.5,-5 9.5,-35 32.5,-35 32.5,-5 9.5,-5"/>
<text text-anchor="start" x="12.25" y="-15.8" font-family="Times,serif" font-size="14.00">0.0</text>
<polygon fill="#ffffff" stroke="none" points="32.5,-5 32.5,-35 55.5,-35 55.5,-5 32.5,-5"/>
<polygon fill="none" stroke="black" points="32.5,-5 32.5,-35 55.5,-35 55.5,-5 32.5,-5"/>
<text text-anchor="start" x="35.25" y="-15.8" font-family="Times,serif" font-size="14.00">0.0</text>
<polygon fill="#ffffff" stroke="none" points="55.5,-5 55.5,-35 78.5,-35 78.5,-5 55.5,-5"/>
<polygon fill="none" stroke="black" points="55.5,-5 55.5,-35 78.5,-35 78.5,-5 55.5,-5"/>
<text text-anchor="start" x="58.25" y="-15.8" font-family="Times,serif" font-size="14.00">0.0</text>
<polygon fill="#ffffff" stroke="none" points="78.5,-5 78.5,-35 101.5,-35 101.5,-5 78.5,-5"/>
<polygon fill="none" stroke="black" points="78.5,-5 78.5,-35 101.5,-35 101.5,-5 78.5,-5"/>
<text text-anchor="start" x="81.25" y="-15.8" font-family="Times,serif" font-size="14.00">0.0</text>
<polygon fill="#ffffff" stroke="none" points="101.5,-5 101.5,-35 124.5,-35 124.5,-5 101.5,-5"/>
<polygon fill="none" stroke="black" points="101.5,-5 101.5,-35 124.5,-35 124.5,-5 101.5,-5"/>
<text text-anchor="start" x="104.25" y="-15.8" font-family="Times,serif" font-size="14.00">0.0</text>
<polygon fill="#ffffff" stroke="none" points="124.5,-5 124.5,-35 147.5,-35 147.5,-5 124.5,-5"/>
<polygon fill="none" stroke="black" points="124.5,-5 124.5,-35 147.5,-35 147.5,-5 124.5,-5"/>
<text text-anchor="start" x="127.25" y="-15.8" font-family="Times,serif" font-size="14.00">0.0</text>
<polygon fill="#ffffff" stroke="none" points="147.5,-5 147.5,-35 170.5,-35 170.5,-5 147.5,-5"/>
<polygon fill="none" stroke="black" points="147.5,-5 147.5,-35 170.5,-35 170.5,-5 147.5,-5"/>
<text text-anchor="start" x="150.25" y="-15.8" font-family="Times,serif" font-size="14.00">0.0</text>
<polygon fill="#ffffff" stroke="none" points="170.5,-5 170.5,-35 193.5,-35 193.5,-5 170.5,-5"/>
<polygon fill="none" stroke="black" points="170.5,-5 170.5,-35 193.5,-35 193.5,-5 170.5,-5"/>
<text text-anchor="start" x="173.25" y="-15.8" font-family="Times,serif" font-size="14.00">0.0</text>
<polygon fill="#ffffff" stroke="none" points="193.5,-5 193.5,-35 216.5,-35 216.5,-5 193.5,-5"/>
<polygon fill="none" stroke="black" points="193.5,-5 193.5,-35 216.5,-35 216.5,-5 193.5,-5"/>
<text text-anchor="start" x="196.25" y="-15.8" font-family="Times,serif" font-size="14.00">0.0</text>
<polygon fill="none" stroke="black" points="8,-4 8,-276 217,-276 217,-4 8,-4"/>
</g>
</g>
</svg>
