<?xml version="1.0" encoding="UTF-8" standalone="no"?>
<!DOCTYPE svg PUBLIC "-//W3C//DTD SVG 1.1//EN"
 "http://www.w3.org/Graphics/SVG/1.1/DTD/svg11.dtd">
<!-- Generated by graphviz version 2.38.0 (20140413.2041)
 -->
<!-- Title: G Pages: 1 -->
<svg width="401pt" height="288pt"
 viewBox="0.00 0.00 401.00 288.00" xmlns="http://www.w3.org/2000/svg" xmlns:xlink="http://www.w3.org/1999/xlink">
<g id="graph0" class="graph" transform="scale(1 1) rotate(0) translate(4 284)">
<title>G</title>
<polygon fill="white" stroke="none" points="-4,4 -4,-284 397,-284 397,4 -4,4"/>
<!-- nodey -->
<g id="node1" class="node"><title>nodey</title>
<polygon fill="#ffffff" stroke="none" points="9.5,-245 9.5,-275 46.5,-275 46.5,-245 9.5,-245"/>
<polygon fill="none" stroke="black" points="9.5,-245 9.5,-275 46.5,-275 46.5,-245 9.5,-245"/>
<text text-anchor="start" x="19.25" y="-255.8" font-family="Times,serif" font-size="14.00">0.0</text>
<polygon fill="#ffffff" stroke="none" points="46.5,-245 46.5,-275 83.5,-275 83.5,-245 46.5,-245"/>
<polygon fill="none" stroke="black" points="46.5,-245 46.5,-275 83.5,-275 83.5,-245 46.5,-245"/>
<text text-anchor="start" x="56.25" y="-255.8" font-family="Times,serif" font-size="14.00">0.0</text>
<polygon fill="#ffffff" stroke="none" points="83.5,-245 83.5,-275 120.5,-275 120.5,-245 83.5,-245"/>
<polygon fill="none" stroke="black" points="83.5,-245 83.5,-275 120.5,-275 120.5,-245 83.5,-245"/>
<text text-anchor="start" x="93.25" y="-255.8" font-family="Times,serif" font-size="14.00">0.0</text>
<polygon fill="#ffffff" stroke="none" points="120.5,-245 120.5,-275 157.5,-275 157.5,-245 120.5,-245"/>
<polygon fill="none" stroke="black" points="120.5,-245 120.5,-275 157.5,-275 157.5,-245 120.5,-245"/>
<text text-anchor="start" x="130.25" y="-255.8" font-family="Times,serif" font-size="14.00">0.0</text>
<polygon fill="#ffffff" stroke="none" points="157.5,-245 157.5,-275 194.5,-275 194.5,-245 157.5,-245"/>
<polygon fill="none" stroke="black" points="157.5,-245 157.5,-275 194.5,-275 194.5,-245 157.5,-245"/>
<text text-anchor="start" x="167.25" y="-255.8" font-family="Times,serif" font-size="14.00">0.0</text>
<polygon fill="#ff99cb" stroke="none" points="194.5,-245 194.5,-275 238.5,-275 238.5,-245 194.5,-245"/>
<polygon fill="none" stroke="black" points="194.5,-245 194.5,-275 238.5,-275 238.5,-245 194.5,-245"/>
<text text-anchor="start" x="197.25" y="-255.8" font-family="Times,serif" font-size="14.00">33.718</text>
<polygon fill="#ff99cb" stroke="none" points="238.5,-245 238.5,-275 289.5,-275 289.5,-245 238.5,-245"/>
<polygon fill="none" stroke="black" points="238.5,-245 238.5,-275 289.5,-275 289.5,-245 238.5,-245"/>
<text text-anchor="start" x="241.25" y="-255.8" font-family="Times,serif" font-size="14.00">479.241</text>
<polygon fill="#ff99cb" stroke="none" points="289.5,-245 289.5,-275 333.5,-275 333.5,-245 289.5,-245"/>
<polygon fill="none" stroke="black" points="289.5,-245 289.5,-275 333.5,-275 333.5,-245 289.5,-245"/>
<text text-anchor="start" x="292.25" y="-255.8" font-family="Times,serif" font-size="14.00">598.04</text>
<polygon fill="#ff99cb" stroke="none" points="333.5,-245 333.5,-275 384.5,-275 384.5,-245 333.5,-245"/>
<polygon fill="none" stroke="black" points="333.5,-245 333.5,-275 384.5,-275 384.5,-245 333.5,-245"/>
<text text-anchor="start" x="336.25" y="-255.8" font-family="Times,serif" font-size="14.00">623.038</text>
<polygon fill="#ccffcc" stroke="none" points="9.5,-215 9.5,-245 46.5,-245 46.5,-215 9.5,-215"/>
<polygon fill="none" stroke="black" points="9.5,-215 9.5,-245 46.5,-245 46.5,-215 9.5,-215"/>
<text text-anchor="start" x="12.25" y="-225.8" font-family="Times,serif" font-size="14.00">0.428</text>
<polygon fill="#ffffff" stroke="none" points="46.5,-215 46.5,-245 83.5,-245 83.5,-215 46.5,-215"/>
<polygon fill="none" stroke="black" points="46.5,-215 46.5,-245 83.5,-245 83.5,-215 46.5,-215"/>
<text text-anchor="start" x="56.25" y="-225.8" font-family="Times,serif" font-size="14.00">0.0</text>
<polygon fill="#ffffff" stroke="none" points="83.5,-215 83.5,-245 120.5,-245 120.5,-215 83.5,-215"/>
<polygon fill="none" stroke="black" points="83.5,-215 83.5,-245 120.5,-245 120.5,-215 83.5,-215"/>
<text text-anchor="start" x="93.25" y="-225.8" font-family="Times,serif" font-size="14.00">0.0</text>
<polygon fill="#ffffff" stroke="none" points="120.5,-215 120.5,-245 157.5,-245 157.5,-215 120.5,-215"/>
<polygon fill="none" stroke="black" points="120.5,-215 120.5,-245 157.5,-245 157.5,-215 120.5,-215"/>
<text text-anchor="start" x="130.25" y="-225.8" font-family="Times,serif" font-size="14.00">0.0</text>
<polygon fill="#ffffff" stroke="none" points="157.5,-215 157.5,-245 194.5,-245 194.5,-215 157.5,-215"/>
<polygon fill="none" stroke="black" points="157.5,-215 157.5,-245 194.5,-245 194.5,-215 157.5,-215"/>
<text text-anchor="start" x="167.25" y="-225.8" font-family="Times,serif" font-size="14.00">0.0</text>
<polygon fill="#ffffff" stroke="none" points="194.5,-215 194.5,-245 238.5,-245 238.5,-215 194.5,-215"/>
<polygon fill="none" stroke="black" points="194.5,-215 194.5,-245 238.5,-245 238.5,-215 194.5,-215"/>
<text text-anchor="start" x="207.75" y="-225.8" font-family="Times,serif" font-size="14.00">0.0</text>
<polygon fill="#ffffff" stroke="none" points="238.5,-215 238.5,-245 289.5,-245 289.5,-215 238.5,-215"/>
<polygon fill="none" stroke="black" points="238.5,-215 238.5,-245 289.5,-245 289.5,-215 238.5,-215"/>
<text text-anchor="start" x="255.25" y="-225.8" font-family="Times,serif" font-size="14.00">0.0</text>
<polygon fill="#ffffff" stroke="none" points="289.5,-215 289.5,-245 333.5,-245 333.5,-215 289.5,-215"/>
<polygon fill="none" stroke="black" points="289.5,-215 289.5,-245 333.5,-245 333.5,-215 289.5,-215"/>
<text text-anchor="start" x="302.75" y="-225.8" font-family="Times,serif" font-size="14.00">0.0</text>
<polygon fill="#ffffff" stroke="none" points="333.5,-215 333.5,-245 384.5,-245 384.5,-215 333.5,-215"/>
<polygon fill="none" stroke="black" points="333.5,-215 333.5,-245 384.5,-245 384.5,-215 333.5,-215"/>
<text text-anchor="start" x="350.25" y="-225.8" font-family="Times,serif" font-size="14.00">0.0</text>
<polygon fill="#ffffff" stroke="none" points="9.5,-185 9.5,-215 46.5,-215 46.5,-185 9.5,-185"/>
<polygon fill="none" stroke="black" points="9.5,-185 9.5,-215 46.5,-215 46.5,-185 9.5,-185"/>
<text text-anchor="start" x="19.25" y="-195.8" font-family="Times,serif" font-size="14.00">0.0</text>
<polygon fill="#ccffcc" stroke="none" points="46.5,-185 46.5,-215 83.5,-215 83.5,-185 46.5,-185"/>
<polygon fill="none" stroke="black" points="46.5,-185 46.5,-215 83.5,-215 83.5,-185 46.5,-185"/>
<text text-anchor="start" x="49.25" y="-195.8" font-family="Times,serif" font-size="14.00">0.219</text>
<polygon fill="#c0c0c0" stroke="none" points="83.5,-185 83.5,-215 120.5,-215 120.5,-185 83.5,-185"/>
<polygon fill="none" stroke="black" points="83.5,-185 83.5,-215 120.5,-215 120.5,-185 83.5,-185"/>
<text text-anchor="start" x="86.25" y="-195.8" font-family="Times,serif" font-size="14.00">0.328</text>
<polygon fill="#ffffff" stroke="none" points="120.5,-185 120.5,-215 157.5,-215 157.5,-185 120.5,-185"/>
<polygon fill="none" stroke="black" points="120.5,-185 120.5,-215 157.5,-215 157.5,-185 120.5,-185"/>
<text text-anchor="start" x="130.25" y="-195.8" font-family="Times,serif" font-size="14.00">0.0</text>
<polygon fill="#ffffff" stroke="none" points="157.5,-185 157.5,-215 194.5,-215 194.5,-185 157.5,-185"/>
<polygon fill="none" stroke="black" points="157.5,-185 157.5,-215 194.5,-215 194.5,-185 157.5,-185"/>
<text text-anchor="start" x="167.25" y="-195.8" font-family="Times,serif" font-size="14.00">0.0</text>
<polygon fill="#ffffff" stroke="none" points="194.5,-185 194.5,-215 238.5,-215 238.5,-185 194.5,-185"/>
<polygon fill="none" stroke="black" points="194.5,-185 194.5,-215 238.5,-215 238.5,-185 194.5,-185"/>
<text text-anchor="start" x="207.75" y="-195.8" font-family="Times,serif" font-size="14.00">0.0</text>
<polygon fill="#ffffff" stroke="none" points="238.5,-185 238.5,-215 289.5,-215 289.5,-185 238.5,-185"/>
<polygon fill="none" stroke="black" points="238.5,-185 238.5,-215 289.5,-215 289.5,-185 238.5,-185"/>
<text text-anchor="start" x="255.25" y="-195.8" font-family="Times,serif" font-size="14.00">0.0</text>
<polygon fill="#ffffff" stroke="none" points="289.5,-185 289.5,-215 333.5,-215 333.5,-185 289.5,-185"/>
<polygon fill="none" stroke="black" points="289.5,-185 289.5,-215 333.5,-215 333.5,-185 289.5,-185"/>
<text text-anchor="start" x="302.75" y="-195.8" font-family="Times,serif" font-size="14.00">0.0</text>
<polygon fill="#ffffff" stroke="none" points="333.5,-185 333.5,-215 384.5,-215 384.5,-185 333.5,-185"/>
<polygon fill="none" stroke="black" points="333.5,-185 333.5,-215 384.5,-215 384.5,-185 333.5,-185"/>
<text text-anchor="start" x="350.25" y="-195.8" font-family="Times,serif" font-size="14.00">0.0</text>
<polygon fill="#ffffff" stroke="none" points="9.5,-155 9.5,-185 46.5,-185 46.5,-155 9.5,-155"/>
<polygon fill="none" stroke="black" points="9.5,-155 9.5,-185 46.5,-185 46.5,-155 9.5,-155"/>
<text text-anchor="start" x="19.25" y="-165.8" font-family="Times,serif" font-size="14.00">0.0</text>
<polygon fill="#ffffff" stroke="none" points="46.5,-155 46.5,-185 83.5,-185 83.5,-155 46.5,-155"/>
<polygon fill="none" stroke="black" points="46.5,-155 46.5,-185 83.5,-185 83.5,-155 46.5,-155"/>
<text text-anchor="start" x="56.25" y="-165.8" font-family="Times,serif" font-size="14.00">0.0</text>
<polygon fill="#ccffcc" stroke="none" points="83.5,-155 83.5,-185 120.5,-185 120.5,-155 83.5,-155"/>
<polygon fill="none" stroke="black" points="83.5,-155 83.5,-185 120.5,-185 120.5,-155 83.5,-155"/>
<text text-anchor="start" x="89.75" y="-165.8" font-family="Times,serif" font-size="14.00">0.05</text>
<polygon fill="#c0c0c0" stroke="none" points="120.5,-155 120.5,-185 157.5,-185 157.5,-155 120.5,-155"/>
<polygon fill="none" stroke="black" points="120.5,-155 120.5,-185 157.5,-185 157.5,-155 120.5,-155"/>
<text text-anchor="start" x="130.25" y="-165.8" font-family="Times,serif" font-size="14.00">0.5</text>
<polygon fill="#ffcc99" stroke="none" points="157.5,-155 157.5,-185 194.5,-185 194.5,-155 157.5,-155"/>
<polygon fill="none" stroke="black" points="157.5,-155 157.5,-185 194.5,-185 194.5,-155 157.5,-155"/>
<text text-anchor="start" x="160.25" y="-165.8" font-family="Times,serif" font-size="14.00">0.058</text>
<polygon fill="#ffffff" stroke="none" points="194.5,-155 194.5,-185 238.5,-185 238.5,-155 194.5,-155"/>
<polygon fill="none" stroke="black" points="194.5,-155 194.5,-185 238.5,-185 238.5,-155 194.5,-155"/>
<text text-anchor="start" x="207.75" y="-165.8" font-family="Times,serif" font-size="14.00">0.0</text>
<polygon fill="#ffffff" stroke="none" points="238.5,-155 238.5,-185 289.5,-185 289.5,-155 238.5,-155"/>
<polygon fill="none" stroke="black" points="238.5,-155 238.5,-185 289.5,-185 289.5,-155 238.5,-155"/>
<text text-anchor="start" x="255.25" y="-165.8" font-family="Times,serif" font-size="14.00">0.0</text>
<polygon fill="#ffffff" stroke="none" points="289.5,-155 289.5,-185 333.5,-185 333.5,-155 289.5,-155"/>
<polygon fill="none" stroke="black" points="289.5,-155 289.5,-185 333.5,-185 333.5,-155 289.5,-155"/>
<text text-anchor="start" x="302.75" y="-165.8" font-family="Times,serif" font-size="14.00">0.0</text>
<polygon fill="#ffffff" stroke="none" points="333.5,-155 333.5,-185 384.5,-185 384.5,-155 333.5,-155"/>
<polygon fill="none" stroke="black" points="333.5,-155 333.5,-185 384.5,-185 384.5,-155 333.5,-155"/>
<text text-anchor="start" x="350.25" y="-165.8" font-family="Times,serif" font-size="14.00">0.0</text>
<polygon fill="#ffffff" stroke="none" points="9.5,-125 9.5,-155 46.5,-155 46.5,-125 9.5,-125"/>
<polygon fill="none" stroke="black" points="9.5,-125 9.5,-155 46.5,-155 46.5,-125 9.5,-125"/>
<text text-anchor="start" x="19.25" y="-135.8" font-family="Times,serif" font-size="14.00">0.0</text>
<polygon fill="#ffffff" stroke="none" points="46.5,-125 46.5,-155 83.5,-155 83.5,-125 46.5,-125"/>
<polygon fill="none" stroke="black" points="46.5,-125 46.5,-155 83.5,-155 83.5,-125 46.5,-125"/>
<text text-anchor="start" x="56.25" y="-135.8" font-family="Times,serif" font-size="14.00">0.0</text>
<polygon fill="#ccffcc" stroke="none" points="83.5,-125 83.5,-155 120.5,-155 120.5,-125 83.5,-125"/>
<polygon fill="none" stroke="black" points="83.5,-125 83.5,-155 120.5,-155 120.5,-125 83.5,-125"/>
<text text-anchor="start" x="89.75" y="-135.8" font-family="Times,serif" font-size="14.00">0.05</text>
<polygon fill="#ccffcc" stroke="none" points="120.5,-125 120.5,-155 157.5,-155 157.5,-125 120.5,-125"/>
<polygon fill="none" stroke="black" points="120.5,-125 120.5,-155 157.5,-155 157.5,-125 120.5,-125"/>
<text text-anchor="start" x="123.25" y="-135.8" font-family="Times,serif" font-size="14.00">0.079</text>
<polygon fill="#c0c0c0" stroke="none" points="157.5,-125 157.5,-155 194.5,-155 194.5,-125 157.5,-125"/>
<polygon fill="none" stroke="black" points="157.5,-125 157.5,-155 194.5,-155 194.5,-125 157.5,-125"/>
<text text-anchor="start" x="160.25" y="-135.8" font-family="Times,serif" font-size="14.00">0.072</text>
<polygon fill="#ffcc99" stroke="none" points="194.5,-125 194.5,-155 238.5,-155 238.5,-125 194.5,-125"/>
<polygon fill="none" stroke="black" points="194.5,-125 194.5,-155 238.5,-155 238.5,-125 194.5,-125"/>
<text text-anchor="start" x="201.006" y="-135.8" font-family="Times,serif" font-size="14.00">0.115</text>
<polygon fill="#ffcc99" stroke="none" points="238.5,-125 238.5,-155 289.5,-155 289.5,-125 238.5,-125"/>
<polygon fill="none" stroke="black" points="238.5,-125 238.5,-155 289.5,-155 289.5,-125 238.5,-125"/>
<text text-anchor="start" x="251.75" y="-135.8" font-family="Times,serif" font-size="14.00">0.18</text>
<polygon fill="#ffffff" stroke="none" points="289.5,-125 289.5,-155 333.5,-155 333.5,-125 289.5,-125"/>
<polygon fill="none" stroke="black" points="289.5,-125 289.5,-155 333.5,-155 333.5,-125 289.5,-125"/>
<text text-anchor="start" x="302.75" y="-135.8" font-family="Times,serif" font-size="14.00">0.0</text>
<polygon fill="#ffcc99" stroke="none" points="333.5,-125 333.5,-155 384.5,-155 384.5,-125 333.5,-125"/>
<polygon fill="none" stroke="black" points="333.5,-125 333.5,-155 384.5,-155 384.5,-125 333.5,-125"/>
<text text-anchor="start" x="343.25" y="-135.8" font-family="Times,serif" font-size="14.00">0.071</text>
<polygon fill="#ffffff" stroke="none" points="9.5,-95 9.5,-125 46.5,-125 46.5,-95 9.5,-95"/>
<polygon fill="none" stroke="black" points="9.5,-95 9.5,-125 46.5,-125 46.5,-95 9.5,-95"/>
<text text-anchor="start" x="19.25" y="-105.8" font-family="Times,serif" font-size="14.00">0.0</text>
<polygon fill="#ffffff" stroke="none" points="46.5,-95 46.5,-125 83.5,-125 83.5,-95 46.5,-95"/>
<polygon fill="none" stroke="black" points="46.5,-95 46.5,-125 83.5,-125 83.5,-95 46.5,-95"/>
<text text-anchor="start" x="56.25" y="-105.8" font-family="Times,serif" font-size="14.00">0.0</text>
<polygon fill="#ffffff" stroke="none" points="83.5,-95 83.5,-125 120.5,-125 120.5,-95 83.5,-95"/>
<polygon fill="none" stroke="black" points="83.5,-95 83.5,-125 120.5,-125 120.5,-95 83.5,-95"/>
<text text-anchor="start" x="93.25" y="-105.8" font-family="Times,serif" font-size="14.00">0.0</text>
<polygon fill="#ffffff" stroke="none" points="120.5,-95 120.5,-125 157.5,-125 157.5,-95 120.5,-95"/>
<polygon fill="none" stroke="black" points="120.5,-95 120.5,-125 157.5,-125 157.5,-95 120.5,-95"/>
<text text-anchor="start" x="130.25" y="-105.8" font-family="Times,serif" font-size="14.00">0.0</text>
<polygon fill="#ccffcc" stroke="none" points="157.5,-95 157.5,-125 194.5,-125 194.5,-95 157.5,-95"/>
<polygon fill="none" stroke="black" points="157.5,-95 157.5,-125 194.5,-125 194.5,-95 157.5,-95"/>
<text text-anchor="start" x="160.25" y="-105.8" font-family="Times,serif" font-size="14.00">0.076</text>
<polygon fill="#c0c0c0" stroke="none" points="194.5,-95 194.5,-125 238.5,-125 238.5,-95 194.5,-95"/>
<polygon fill="none" stroke="black" points="194.5,-95 194.5,-125 238.5,-125 238.5,-95 194.5,-95"/>
<text text-anchor="start" x="200.75" y="-105.8" font-family="Times,serif" font-size="14.00">0.644</text>
<polygon fill="#ffcc99" stroke="none" points="238.5,-95 238.5,-125 289.5,-125 289.5,-95 238.5,-95"/>
<polygon fill="none" stroke="black" points="238.5,-95 238.5,-125 289.5,-125 289.5,-95 238.5,-95"/>
<text text-anchor="start" x="248.25" y="-105.8" font-family="Times,serif" font-size="14.00">0.029</text>
<polygon fill="#ffffff" stroke="none" points="289.5,-95 289.5,-125 333.5,-125 333.5,-95 289.5,-95"/>
<polygon fill="none" stroke="black" points="289.5,-95 289.5,-125 333.5,-125 333.5,-95 289.5,-95"/>
<text text-anchor="start" x="302.75" y="-105.8" font-family="Times,serif" font-size="14.00">0.0</text>
<polygon fill="#ffffff" stroke="none" points="333.5,-95 333.5,-125 384.5,-125 384.5,-95 333.5,-95"/>
<polygon fill="none" stroke="black" points="333.5,-95 333.5,-125 384.5,-125 384.5,-95 333.5,-95"/>
<text text-anchor="start" x="350.25" y="-105.8" font-family="Times,serif" font-size="14.00">0.0</text>
<polygon fill="#ffffff" stroke="none" points="9.5,-65 9.5,-95 46.5,-95 46.5,-65 9.5,-65"/>
<polygon fill="none" stroke="black" points="9.5,-65 9.5,-95 46.5,-95 46.5,-65 9.5,-65"/>
<text text-anchor="start" x="19.25" y="-75.8" font-family="Times,serif" font-size="14.00">0.0</text>
<polygon fill="#ffffff" stroke="none" points="46.5,-65 46.5,-95 83.5,-95 83.5,-65 46.5,-65"/>
<polygon fill="none" stroke="black" points="46.5,-65 46.5,-95 83.5,-95 83.5,-65 46.5,-65"/>
<text text-anchor="start" x="56.25" y="-75.8" font-family="Times,serif" font-size="14.00">0.0</text>
<polygon fill="#ffffff" stroke="none" points="83.5,-65 83.5,-95 120.5,-95 120.5,-65 83.5,-65"/>
<polygon fill="none" stroke="black" points="83.5,-65 83.5,-95 120.5,-95 120.5,-65 83.5,-65"/>
<text text-anchor="start" x="93.25" y="-75.8" font-family="Times,serif" font-size="14.00">0.0</text>
<polygon fill="#ffffff" stroke="none" points="120.5,-65 120.5,-95 157.5,-95 157.5,-65 120.5,-65"/>
<polygon fill="none" stroke="black" points="120.5,-65 120.5,-95 157.5,-95 157.5,-65 120.5,-65"/>
<text text-anchor="start" x="130.25" y="-75.8" font-family="Times,serif" font-size="14.00">0.0</text>
<polygon fill="#ffffff" stroke="none" points="157.5,-65 157.5,-95 194.5,-95 194.5,-65 157.5,-65"/>
<polygon fill="none" stroke="black" points="157.5,-65 157.5,-95 194.5,-95 194.5,-65 157.5,-65"/>
<text text-anchor="start" x="167.25" y="-75.8" font-family="Times,serif" font-size="14.00">0.0</text>
<polygon fill="#ccffcc" stroke="none" points="194.5,-65 194.5,-95 238.5,-95 238.5,-65 194.5,-65"/>
<polygon fill="none" stroke="black" points="194.5,-65 194.5,-95 238.5,-95 238.5,-65 194.5,-65"/>
<text text-anchor="start" x="204.25" y="-75.8" font-family="Times,serif" font-size="14.00">0.07</text>
<polygon fill="#c0c0c0" stroke="none" points="238.5,-65 238.5,-95 289.5,-95 289.5,-65 238.5,-65"/>
<polygon fill="none" stroke="black" points="238.5,-65 238.5,-95 289.5,-95 289.5,-65 238.5,-65"/>
<text text-anchor="start" x="251.75" y="-75.8" font-family="Times,serif" font-size="14.00">0.61</text>
<polygon fill="#ffcc99" stroke="none" points="289.5,-65 289.5,-95 333.5,-95 333.5,-65 289.5,-65"/>
<polygon fill="none" stroke="black" points="289.5,-65 289.5,-95 333.5,-95 333.5,-65 289.5,-65"/>
<text text-anchor="start" x="295.75" y="-75.8" font-family="Times,serif" font-size="14.00">0.024</text>
<polygon fill="#ffffff" stroke="none" points="333.5,-65 333.5,-95 384.5,-95 384.5,-65 333.5,-65"/>
<polygon fill="none" stroke="black" points="333.5,-65 333.5,-95 384.5,-95 384.5,-65 333.5,-65"/>
<text text-anchor="start" x="350.25" y="-75.8" font-family="Times,serif" font-size="14.00">0.0</text>
<polygon fill="#ffffff" stroke="none" points="9.5,-35 9.5,-65 46.5,-65 46.5,-35 9.5,-35"/>
<polygon fill="none" stroke="black" points="9.5,-35 9.5,-65 46.5,-65 46.5,-35 9.5,-35"/>
<text text-anchor="start" x="19.25" y="-45.8" font-family="Times,serif" font-size="14.00">0.0</text>
<polygon fill="#ffffff" stroke="none" points="46.5,-35 46.5,-65 83.5,-65 83.5,-35 46.5,-35"/>
<polygon fill="none" stroke="black" points="46.5,-35 46.5,-65 83.5,-65 83.5,-35 46.5,-35"/>
<text text-anchor="start" x="56.25" y="-45.8" font-family="Times,serif" font-size="14.00">0.0</text>
<polygon fill="#ffffff" stroke="none" points="83.5,-35 83.5,-65 120.5,-65 120.5,-35 83.5,-35"/>
<polygon fill="none" stroke="black" points="83.5,-35 83.5,-65 120.5,-65 120.5,-35 83.5,-35"/>
<text text-anchor="start" x="93.25" y="-45.8" font-family="Times,serif" font-size="14.00">0.0</text>
<polygon fill="#ffffff" stroke="none" points="120.5,-35 120.5,-65 157.5,-65 157.5,-35 120.5,-35"/>
<polygon fill="none" stroke="black" points="120.5,-35 120.5,-65 157.5,-65 157.5,-35 120.5,-35"/>
<text text-anchor="start" x="130.25" y="-45.8" font-family="Times,serif" font-size="14.00">0.0</text>
<polygon fill="#ffffff" stroke="none" points="157.5,-35 157.5,-65 194.5,-65 194.5,-35 157.5,-35"/>
<polygon fill="none" stroke="black" points="157.5,-35 157.5,-65 194.5,-65 194.5,-35 157.5,-35"/>
<text text-anchor="start" x="167.25" y="-45.8" font-family="Times,serif" font-size="14.00">0.0</text>
<polygon fill="#ffffff" stroke="none" points="194.5,-35 194.5,-65 238.5,-65 238.5,-35 194.5,-35"/>
<polygon fill="none" stroke="black" points="194.5,-35 194.5,-65 238.5,-65 238.5,-35 194.5,-35"/>
<text text-anchor="start" x="207.75" y="-45.8" font-family="Times,serif" font-size="14.00">0.0</text>
<polygon fill="#ccffcc" stroke="none" points="238.5,-35 238.5,-65 289.5,-65 289.5,-35 238.5,-35"/>
<polygon fill="none" stroke="black" points="238.5,-35 238.5,-65 289.5,-65 289.5,-35 238.5,-35"/>
<text text-anchor="start" x="248.25" y="-45.8" font-family="Times,serif" font-size="14.00">0.121</text>
<polygon fill="#c0c0c0" stroke="none" points="289.5,-35 289.5,-65 333.5,-65 333.5,-35 289.5,-35"/>
<polygon fill="none" stroke="black" points="289.5,-35 289.5,-65 333.5,-65 333.5,-35 289.5,-35"/>
<text text-anchor="start" x="295.75" y="-45.8" font-family="Times,serif" font-size="14.00">0.952</text>
<polygon fill="#ffcc99" stroke="none" points="333.5,-35 333.5,-65 384.5,-65 384.5,-35 333.5,-35"/>
<polygon fill="none" stroke="black" points="333.5,-35 333.5,-65 384.5,-65 384.5,-35 333.5,-35"/>
<text text-anchor="start" x="343.25" y="-45.8" font-family="Times,serif" font-size="14.00">0.071</text>
<polygon fill="#ffffff" stroke="none" points="9.5,-5 9.5,-35 46.5,-35 46.5,-5 9.5,-5"/>
<polygon fill="none" stroke="black" points="9.5,-5 9.5,-35 46.5,-35 46.5,-5 9.5,-5"/>
<text text-anchor="start" x="19.25" y="-15.8" font-family="Times,serif" font-size="14.00">0.0</text>
<polygon fill="#ffffff" stroke="none" points="46.5,-5 46.5,-35 83.5,-35 83.5,-5 46.5,-5"/>
<polygon fill="none" stroke="black" points="46.5,-5 46.5,-35 83.5,-35 83.5,-5 46.5,-5"/>
<text text-anchor="start" x="56.25" y="-15.8" font-family="Times,serif" font-size="14.00">0.0</text>
<polygon fill="#ffffff" stroke="none" points="83.5,-5 83.5,-35 120.5,-35 120.5,-5 83.5,-5"/>
<polygon fill="none" stroke="black" points="83.5,-5 83.5,-35 120.5,-35 120.5,-5 83.5,-5"/>
<text text-anchor="start" x="93.25" y="-15.8" font-family="Times,serif" font-size="14.00">0.0</text>
<polygon fill="#ffffff" stroke="none" points="120.5,-5 120.5,-35 157.5,-35 157.5,-5 120.5,-5"/>
<polygon fill="none" stroke="black" points="120.5,-5 120.5,-35 157.5,-35 157.5,-5 120.5,-5"/>
<text text-anchor="start" x="130.25" y="-15.8" font-family="Times,serif" font-size="14.00">0.0</text>
<polygon fill="#ffffff" stroke="none" points="157.5,-5 157.5,-35 194.5,-35 194.5,-5 157.5,-5"/>
<polygon fill="none" stroke="black" points="157.5,-5 157.5,-35 194.5,-35 194.5,-5 157.5,-5"/>
<text text-anchor="start" x="167.25" y="-15.8" font-family="Times,serif" font-size="14.00">0.0</text>
<polygon fill="#ccffcc" stroke="none" points="194.5,-5 194.5,-35 238.5,-35 238.5,-5 194.5,-5"/>
<polygon fill="none" stroke="black" points="194.5,-5 194.5,-35 238.5,-35 238.5,-5 194.5,-5"/>
<text text-anchor="start" x="200.75" y="-15.8" font-family="Times,serif" font-size="14.00">0.038</text>
<polygon fill="#ffffff" stroke="none" points="238.5,-5 238.5,-35 289.5,-35 289.5,-5 238.5,-5"/>
<polygon fill="none" stroke="black" points="238.5,-5 238.5,-35 289.5,-35 289.5,-5 238.5,-5"/>
<text text-anchor="start" x="255.25" y="-15.8" font-family="Times,serif" font-size="14.00">0.0</text>
<polygon fill="#ccffcc" stroke="none" points="289.5,-5 289.5,-35 333.5,-35 333.5,-5 289.5,-5"/>
<polygon fill="none" stroke="black" points="289.5,-5 289.5,-35 333.5,-35 333.5,-5 289.5,-5"/>
<text text-anchor="start" x="299.25" y="-15.8" font-family="Times,serif" font-size="14.00">0.24</text>
<polygon fill="#c0c0c0" stroke="none" points="333.5,-5 333.5,-35 384.5,-35 384.5,-5 333.5,-5"/>
<polygon fill="none" stroke="black" points="333.5,-5 333.5,-35 384.5,-35 384.5,-5 333.5,-5"/>
<text text-anchor="start" x="343.25" y="-15.8" font-family="Times,serif" font-size="14.00">0.714</text>
<polygon fill="none" stroke="black" points="8,-4 8,-276 385,-276 385,-4 8,-4"/>
</g>
</g>
</svg>
