<?xml version="1.0" encoding="UTF-8" standalone="no"?>
<!DOCTYPE svg PUBLIC "-//W3C//DTD SVG 1.1//EN"
 "http://www.w3.org/Graphics/SVG/1.1/DTD/svg11.dtd">
<!-- Generated by graphviz version 2.38.0 (20140413.2041)
 -->
<!-- Title: G Pages: 1 -->
<svg width="95pt" height="108pt"
 viewBox="0.00 0.00 95.00 108.00" xmlns="http://www.w3.org/2000/svg" xmlns:xlink="http://www.w3.org/1999/xlink">
<g id="graph0" class="graph" transform="scale(1 1) rotate(0) translate(4 104)">
<title>G</title>
<polygon fill="white" stroke="none" points="-4,4 -4,-104 91,-104 91,4 -4,4"/>
<!-- nodey -->
<g id="node1" class="node"><title>nodey</title>
<polygon fill="#ffffff" stroke="none" points="9.5,-65 9.5,-95 32.5,-95 32.5,-65 9.5,-65"/>
<polygon fill="none" stroke="black" points="9.5,-65 9.5,-95 32.5,-95 32.5,-65 9.5,-65"/>
<text text-anchor="start" x="12.25" y="-75.8" font-family="Times,serif" font-size="14.00">0.0</text>
<polygon fill="#ffffff" stroke="none" points="32.5,-65 32.5,-95 55.5,-95 55.5,-65 32.5,-65"/>
<polygon fill="none" stroke="black" points="32.5,-65 32.5,-95 55.5,-95 55.5,-65 32.5,-65"/>
<text text-anchor="start" x="35.25" y="-75.8" font-family="Times,serif" font-size="14.00">0.0</text>
<polygon fill="#ffffff" stroke="none" points="55.5,-65 55.5,-95 78.5,-95 78.5,-65 55.5,-65"/>
<polygon fill="none" stroke="black" points="55.5,-65 55.5,-95 78.5,-95 78.5,-65 55.5,-65"/>
<text text-anchor="start" x="58.25" y="-75.8" font-family="Times,serif" font-size="14.00">0.0</text>
<polygon fill="#ffffff" stroke="none" points="9.5,-35 9.5,-65 32.5,-65 32.5,-35 9.5,-35"/>
<polygon fill="none" stroke="black" points="9.5,-35 9.5,-65 32.5,-65 32.5,-35 9.5,-35"/>
<text text-anchor="start" x="12.25" y="-45.8" font-family="Times,serif" font-size="14.00">0.0</text>
<polygon fill="#ffffff" stroke="none" points="32.5,-35 32.5,-65 55.5,-65 55.5,-35 32.5,-35"/>
<polygon fill="none" stroke="black" points="32.5,-35 32.5,-65 55.5,-65 55.5,-35 32.5,-35"/>
<text text-anchor="start" x="35.25" y="-45.8" font-family="Times,serif" font-size="14.00">0.0</text>
<polygon fill="#ffffff" stroke="none" points="55.5,-35 55.5,-65 78.5,-65 78.5,-35 55.5,-35"/>
<polygon fill="none" stroke="black" points="55.5,-35 55.5,-65 78.5,-65 78.5,-35 55.5,-35"/>
<text text-anchor="start" x="58.25" y="-45.8" font-family="Times,serif" font-size="14.00">0.0</text>
<polygon fill="#ffffff" stroke="none" points="9.5,-5 9.5,-35 32.5,-35 32.5,-5 9.5,-5"/>
<polygon fill="none" stroke="black" points="9.5,-5 9.5,-35 32.5,-35 32.5,-5 9.5,-5"/>
<text text-anchor="start" x="12.25" y="-15.8" font-family="Times,serif" font-size="14.00">0.0</text>
<polygon fill="#ffffff" stroke="none" points="32.5,-5 32.5,-35 55.5,-35 55.5,-5 32.5,-5"/>
<polygon fill="none" stroke="black" points="32.5,-5 32.5,-35 55.5,-35 55.5,-5 32.5,-5"/>
<text text-anchor="start" x="35.25" y="-15.8" font-family="Times,serif" font-size="14.00">0.0</text>
<polygon fill="#ffffff" stroke="none" points="55.5,-5 55.5,-35 78.5,-35 78.5,-5 55.5,-5"/>
<polygon fill="none" stroke="black" points="55.5,-5 55.5,-35 78.5,-35 78.5,-5 55.5,-5"/>
<text text-anchor="start" x="58.25" y="-15.8" font-family="Times,serif" font-size="14.00">0.0</text>
<polygon fill="none" stroke="black" points="8,-4 8,-96 79,-96 79,-4 8,-4"/>
</g>
</g>
</svg>
