<?xml version="1.0" encoding="UTF-8" standalone="no"?>
<!DOCTYPE svg PUBLIC "-//W3C//DTD SVG 1.1//EN"
 "http://www.w3.org/Graphics/SVG/1.1/DTD/svg11.dtd">
<!-- Generated by graphviz version 2.38.0 (20140413.2041)
 -->
<!-- Title: G Pages: 1 -->
<svg width="349pt" height="194pt"
 viewBox="0.00 0.00 349.28 194.39" xmlns="http://www.w3.org/2000/svg" xmlns:xlink="http://www.w3.org/1999/xlink">
<g id="graph0" class="graph" transform="scale(1 1) rotate(0) translate(4 190.386)">
<title>G</title>
<polygon fill="white" stroke="none" points="-4,4 -4,-190.386 345.278,-190.386 345.278,4 -4,4"/>
<!-- A; Adults -->
<g id="node1" class="node"><title>A; Adults</title>
<ellipse fill="none" stroke="black" cx="47.4458" cy="-76.6932" rx="47.3916" ry="47.3916"/>
<text text-anchor="middle" x="47.4458" y="-72.9932" font-family="Times,serif" font-size="14.00">A; Adults</text>
</g>
<!-- A; Adults&#45;&gt;A; Adults -->
<g id="edge1" class="edge"><title>A; Adults&#45;&gt;A; Adults</title>
<path fill="none" stroke="black" d="M30.3232,-121.046C31.2265,-133.026 36.9341,-142.139 47.4458,-142.139 54.6726,-142.139 59.6287,-137.831 62.314,-131.247"/>
<polygon fill="black" stroke="black" points="65.8278,-131.566 64.5684,-121.046 58.9928,-130.055 65.8278,-131.566"/>
<text text-anchor="middle" x="47.4458" y="-145.939" font-family="Times,serif" font-size="14.00">0.203651</text>
</g>
<!-- S; Dormant seeds -->
<g id="node2" class="node"><title>S; Dormant seeds</title>
<ellipse fill="none" stroke="black" cx="264.585" cy="-76.6932" rx="76.8869" ry="76.8869"/>
<text text-anchor="middle" x="264.585" y="-72.9932" font-family="Times,serif" font-size="14.00">S; Dormant seeds</text>
</g>
<!-- A; Adults&#45;&gt;S; Dormant seeds -->
<g id="edge3" class="edge"><title>A; Adults&#45;&gt;S; Dormant seeds</title>
<path fill="none" stroke="black" d="M95.1277,-76.6932C119.232,-76.6932 149.418,-76.6932 177.555,-76.6932"/>
<polygon fill="black" stroke="black" points="177.813,-80.1933 187.813,-76.6932 177.813,-73.1933 177.813,-80.1933"/>
<text text-anchor="middle" x="141.392" y="-80.4932" font-family="Times,serif" font-size="14.00">33.02469</text>
</g>
<!-- S; Dormant seeds&#45;&gt;A; Adults -->
<g id="edge2" class="edge"><title>S; Dormant seeds&#45;&gt;A; Adults</title>
<path fill="none" stroke="black" d="M189.555,-60.3109C165.122,-56.9147 137.821,-55.2771 112.892,-58.6932 109.611,-59.1427 106.263,-59.7152 102.902,-60.3777"/>
<polygon fill="black" stroke="black" points="101.846,-57.0265 92.8372,-62.6025 103.357,-63.8615 101.846,-57.0265"/>
<text text-anchor="middle" x="141.392" y="-62.4932" font-family="Times,serif" font-size="14.00">0.001176</text>
</g>
<!-- S; Dormant seeds&#45;&gt;S; Dormant seeds -->
<g id="edge4" class="edge"><title>S; Dormant seeds&#45;&gt;S; Dormant seeds</title>
<path fill="none" stroke="black" d="M243.324,-150.54C246.299,-162.875 253.386,-171.386 264.585,-171.386 272.634,-171.386 278.559,-166.989 282.36,-159.936"/>
<polygon fill="black" stroke="black" points="285.649,-161.133 285.846,-150.54 279.086,-158.698 285.649,-161.133"/>
<text text-anchor="middle" x="264.585" y="-175.186" font-family="Times,serif" font-size="14.00">0.08795</text>
</g>
</g>
</svg>
